<svg xmlns="http://www.w3.org/2000/svg" xmlns:svg="http://www.w3.org/2000/svg" xmlns:xlink="http://www.w3.org/1999/xlink" id="svg2" width="1000" height="1000" version="1.1"><defs id="defs4"><linearGradient id="linearGradient3641-3"><stop id="stop3643-7" offset="0" stop-color="#fff" stop-opacity="1"/><stop id="stop3645-2" offset="1" stop-color="#fff" stop-opacity="0"/></linearGradient><filter id="filter4184" color-interpolation-filters="sRGB"><feGaussianBlur id="feGaussianBlur4186" stdDeviation="7.151"/></filter><linearGradient id="linearGradient4215" x1="234.139" x2="-159.522" y1="23.645" y2="23.645" gradientUnits="userSpaceOnUse" xlink:href="#linearGradient3641-3"/></defs><metadata id="metadata7"/><g id="layer1" transform="translate(464.18128,469.32799)"><g id="g4082" transform="translate(0,1.552561)"><g id="g4060" transform="matrix(1.5074827,0,0,1.5074827,-9.4212231,-17.89429)"><path id="path3314" fill="#2a7fff" fill-opacity="1" stroke="none" d="m -230.95163,6.511342 315.241857,-1.326715 0,-101.210137 206.681913,136.3673 -206.681913,136.36735 0,-102.275536 -315.241857,1.326715 z" display="inline" opacity=".7"/><path id="path3314-6" fill="url(#linearGradient4215)" fill-opacity="1" stroke="none" d="m 352.02358,139.8329 -338.857655,0 0,-94.031245 L -159.52157,159.7704 c 57.56249,37.98958 115.124995,75.97918 172.687495,113.96875 l 0,-94.90625 c 25.827467,-1.27442 313.325265,-0.2726 339.250325,0.0469 m 0,0 -0.39267,-39.0469" display="inline" filter="url(#filter4184)" opacity=".4" transform="matrix(-0.92672832,0,0,0.92672832,114.08875,-108.63861)"/></g></g></g></svg>