<svg xmlns="http://www.w3.org/2000/svg" xmlns:svg="http://www.w3.org/2000/svg" xmlns:xlink="http://www.w3.org/1999/xlink" id="svg2" width="1000" height="1000" version="1.1"><defs id="defs4"><linearGradient id="linearGradient8562" x1="-213.564" x2="253.595" y1="24.514" y2="24.514" gradientTransform="matrix(0,1,-1,0,44.530081,4.498828)" gradientUnits="userSpaceOnUse" xlink:href="#linearGradient3641"/><linearGradient id="linearGradient3641"><stop id="stop3643" offset="0" stop-color="#fff" stop-opacity="1"/><stop id="stop3645" offset="1" stop-color="#fff" stop-opacity="0"/></linearGradient><linearGradient id="linearGradient6791" x1="-213.564" x2="253.595" y1="24.514" y2="24.514" gradientTransform="matrix(0,1,-1,0,44.530081,4.498828)" gradientUnits="userSpaceOnUse" xlink:href="#linearGradient3641"/><linearGradient id="linearGradient7354" x1="-1.887" x2="323.882" y1="-163.788" y2="-163.788" gradientTransform="translate(-294.13778,123.54099)" gradientUnits="userSpaceOnUse" xlink:href="#linearGradient3641"/><filter id="filter7698"><feGaussianBlur id="feGaussianBlur7700" stdDeviation="5.64"/></filter></defs><metadata id="metadata7"/><g id="layer1" transform="translate(464.16179,464.03236)"><g id="g4082" transform="translate(0,1.552561)"><g id="g4060" transform="matrix(1.5074827,0,0,1.5074827,-9.4212231,-17.89429)"><path id="path4532" fill="#2a7fff" fill-opacity="1" fill-rule="nonzero" stroke="none" d="m -48.396035,-86.729934 -186.444925,0 c -0.62695,0 -1.14015,0.5132 -1.14015,1.140145 l 0,390.468829 c 0,0.62694 0.5132,1.14014 1.14015,1.14014 l 309.974535,0 c 0.626946,0 1.119416,-0.5132 1.119416,-1.14014 l 0,-119.42509 -123.363771,0 c -0.360289,0 -0.677016,-0.13804 -0.912117,-0.37314 -0.2351,-0.2351 -0.373138,-0.57255 -0.373138,-0.93284 l 0,-270.877904 z" opacity=".25"/><rect id="rect2886-6-4-4-1-3" width="312.234" height="392.744" x="-16.209" y="-236.62" fill="#2a7fff" fill-opacity="1" fill-rule="nonzero" stroke="none" opacity=".7" ry="1.132"/><path id="rect2827-7-3" fill="#2a7fff" fill-opacity="1" fill-rule="nonzero" stroke="none" d="m -47.108141,-265.9524 c -0.720621,0 -1.30358,0.58299 -1.30358,1.30358 l 0,448.79813 c -6.9e-5,0.72058 0.582959,1.30358 1.30358,1.30358 l 374.025601,0 c 0.72055,0 1.30358,-0.583 1.30358,-1.30358 l 0,-448.79813 c 0,-0.72059 -0.58303,-1.30358 -1.30358,-1.30358 l -374.025601,0 z m 32.039551,29.33055 309.96687,0 c 0.62694,0 1.12026,0.51369 1.12026,1.14063 l 0,390.4833 c 0,0.62694 -0.49332,1.12026 -1.12026,1.12026 l -309.96687,0 c -0.626943,0 -1.140633,-0.49332 -1.140633,-1.12026 l 0,-390.4833 c 0,-0.62694 0.51369,-1.14063 1.140633,-1.14063 z" opacity=".8"/><path id="path4557" fill="#2a7fff" fill-opacity="1" fill-rule="nonzero" stroke="none" d="m -48.396035,-116.06278 -218.472655,0 c -0.72062,0 -1.30599,0.5854 -1.30599,1.30599 l 0,448.80283 c -7e-5,0.72058 0.58537,1.30598 1.30599,1.30598 l 374.03,0 c 0.72055,0 1.28525,-0.5854 1.28525,-1.30598 l 0,-148.59209 -32.193569,0 0,119.44582 c 0,0.62694 -0.49247,1.11941 -1.119416,1.11941 l -309.974535,0 c -0.62694,0 -1.14015,-0.49247 -1.14015,-1.11941 l 0,-390.489559 c 0,-0.626945 0.51321,-1.140145 1.14015,-1.140145 l 186.444925,0 0,-29.332846 z" opacity=".8"/><rect id="rect2886-6-4-4-1-3-8" width="312.234" height="392.744" x="-296.025" y="-236.62" fill="url(#linearGradient7354)" fill-opacity="1" fill-rule="nonzero" stroke="none" filter="url(#filter7698)" opacity=".4" ry="1.132" transform="scale(-1,1)"/></g></g></g></svg>