<svg xmlns="http://www.w3.org/2000/svg" xmlns:svg="http://www.w3.org/2000/svg" xmlns:xlink="http://www.w3.org/1999/xlink" id="svg2" width="1000" height="1000" version="1.1"><defs id="defs4"><linearGradient id="linearGradient3625"><stop id="stop3627" offset="0" stop-color="#fff" stop-opacity="1"/><stop id="stop3629" offset="1" stop-color="#fff" stop-opacity="0"/></linearGradient><linearGradient id="linearGradient3631" x1="-274.272" x2="334.303" y1="34.445" y2="34.445" gradientUnits="userSpaceOnUse" xlink:href="#linearGradient3625"/><filter id="filter4666"><feGaussianBlur id="feGaussianBlur4668" stdDeviation="8.787"/></filter></defs><metadata id="metadata7"/><g id="layer1" transform="translate(464.16179,464.03236)"><g id="g4082" transform="translate(0,1.552561)"><g id="g4060" transform="matrix(1.5074827,0,0,1.5074827,-9.4212231,-17.89429)"><g id="g3136"><path id="path2923" fill="#2a7fff" fill-opacity="1" fill-rule="nonzero" stroke="none" d="m -156.50868,-251.72429 0,99.83932 -99.9452,0 0,83.305281 99.9452,0 0,289.864299 289.75849,0 0,99.83931 83.30524,0 0,-99.83931 99.9452,0 0,-83.30526 -99.9452,0 0,-289.86432 -289.758379,0 0,-99.83932 -83.305351,0 z m 83.305351,183.144601 206.453139,0 0,206.559039 -206.453139,0 0,-206.559039 z" opacity=".7"/><path id="path2923-4" fill="url(#linearGradient3631)" fill-opacity="1" fill-rule="nonzero" stroke="none" d="m -143.8125,-240.09375 c -2.30149,4.18302 0.20869,10.01235 -0.71875,14.6875 0.0252,27.58342 0.27165,55.17234 -0.4375,82.75 -20.42606,5.77416 -41.86118,1.19447 -62.75,2.78125 -12.25,0 -24.5,0 -36.75,0 0,19.76042 0,39.52083 0,59.28125 33.32292,0 66.64583,0 99.96875,0 0,96.625 0,193.25 0,289.875 96.583333,0 193.166667,0 289.75,0 0,33.28125 0,66.5625 0,99.84375 19.77083,0 39.54167,0 59.3125,0 0,-33.28125 0,-66.5625 0,-99.84375 33.3125,0 66.625,0 99.9375,0 0,-19.77083 0,-39.54167 0,-59.3125 -33.3125,0 -66.625,0 -99.9375,0 0,-96.614583 0,-193.229167 0,-289.84375 -96.59375,0 -193.1875,0 -289.78125,0 0,-33.28125 0,-66.5625 0,-99.84375 -18.93879,-0.28558 -38.02261,0.54663 -56.875,-0.375 -0.55057,-0.11881 -1.18228,-0.24686 -1.71875,0 z m 60.59375,159.5 c 76.15625,0 152.3125,0 228.46875,0 0,76.8541667 0,153.708333 0,230.5625 -76.822917,0 -153.6458333,0 -230.46875,0 0,-76.854167 0,-153.7083333 0,-230.5625 l 1,0 1,0 z" filter="url(#filter4666)" opacity=".4"/></g></g></g></g></svg>