<svg xmlns="http://www.w3.org/2000/svg" xmlns:svg="http://www.w3.org/2000/svg" xmlns:xlink="http://www.w3.org/1999/xlink" id="svg2" width="1000" height="1000" version="1.1"><defs id="defs4"><linearGradient id="linearGradient4055"><stop id="stop4057" offset="0" stop-color="#fff" stop-opacity="1"/><stop id="stop4059" offset="1" stop-color="#fff" stop-opacity="0"/></linearGradient><linearGradient id="linearGradient4047"><stop id="stop4049" offset="0" stop-color="#0f0" stop-opacity="1"/><stop id="stop4051" offset="1" stop-color="#0f0" stop-opacity="0"/></linearGradient><linearGradient id="linearGradient4053" x1="-782.906" x2="-643.344" y1="86.344" y2="86.344" gradientUnits="userSpaceOnUse" xlink:href="#linearGradient4047"/><linearGradient id="linearGradient4061" x1="-786.332" x2="80.77" y1="356.607" y2="356.607" gradientUnits="userSpaceOnUse" xlink:href="#linearGradient4055"/><linearGradient id="linearGradient6901" x1="-203.313" x2="263.344" y1="30.719" y2="30.719" gradientUnits="userSpaceOnUse" xlink:href="#linearGradient3641"/><linearGradient id="linearGradient3641"><stop id="stop3643" offset="0" stop-color="#fff" stop-opacity="1"/><stop id="stop3645" offset="1" stop-color="#fff" stop-opacity="0"/></linearGradient><linearGradient id="linearGradient6574" x1="-203.313" x2="263.344" y1="30.719" y2="30.719" gradientTransform="translate(-8.4106837,-42.319271)" gradientUnits="userSpaceOnUse" xlink:href="#linearGradient3641"/><linearGradient id="linearGradient6609" x1="-782.906" x2="-643.344" y1="86.344" y2="86.344" gradientUnits="userSpaceOnUse" xlink:href="#linearGradient4047"/><linearGradient id="linearGradient6613" x1="-782.906" x2="-643.344" y1="86.344" y2="86.344" gradientUnits="userSpaceOnUse" xlink:href="#linearGradient3641"/><filter id="filter6623"><feGaussianBlur id="feGaussianBlur6625" stdDeviation="2.408"/></filter><linearGradient id="linearGradient6633" x1="-786.332" x2="80.77" y1="356.607" y2="356.607" gradientUnits="userSpaceOnUse" xlink:href="#linearGradient4055"/><linearGradient id="linearGradient6635" x1="-782.906" x2="-643.344" y1="86.344" y2="86.344" gradientUnits="userSpaceOnUse" xlink:href="#linearGradient3641"/><filter id="filter4662"><feGaussianBlur id="feGaussianBlur4664" stdDeviation="13.246"/></filter></defs><metadata id="metadata7"/><g id="layer1" transform="translate(464.16179,464.03236)"><g id="g4082" transform="translate(0,1.552561)"><g id="g4060" transform="matrix(1.5074827,0,0,1.5074827,-9.4212231,-17.89429)"><g id="g6627" transform="translate(565.69886,95.120989)"><path id="Symbol-4-6-8" fill="green" fill-opacity="1" stroke="none" d="m -796.91766,33.27815 0,-67.163778 178.51842,121.034198 -178.51842,118.98817 0,-65.97351 0,-106.88508 z" display="inline" opacity=".7"/><path id="path2923-6" fill="#2a7fff" fill-opacity="1" fill-rule="nonzero" stroke="none" d="m -633.96875,-74.78125 0,150.5 -150.65625,0 0,125.5625 150.65625,0 0,271.6875 156.46875,106.09375 -88.78125,59.1875 369.125,0 0,150.5 125.5625,0 0,-150.5 150.6875,0 0,-125.5625 -150.6875,0 0,-436.96875 -436.8125,0 0,-150.5 -125.5625,0 z m 125.5625,276.0625 311.25,0 0,311.40625 -311.25,0 0,-311.40625 z" opacity=".7" transform="matrix(0.66335753,0,0,0.66335753,-301.65558,-296.97895)"/><path id="path2923-4" fill="url(#linearGradient6633)" fill-opacity="1" fill-rule="nonzero" stroke="none" d="m -613.5625,-57.46875 c -0.44291,-0.02413 -0.87689,0.03268 -1.28125,0.21875 -3.46946,6.30583 0.3356,15.077292 -1.0625,22.125 0.038,41.5815285 0.41278,83.177155 -0.65625,124.75 -30.79193,8.704446 -63.13547,1.795457 -94.625,4.1875 l -55.375,0 0,89.375 150.6875,0 0,302.03125 138.375,93.84375 -61.65625,41.09375 360.09375,0 0,150.53125 89.40625,0 0,-150.53125 150.65625,0 0,-89.40625 -150.65625,0 0,-436.9375 -436.84375,0 0,-150.5 c -28.5499,-0.430507 -57.33035,0.826841 -85.75,-0.5625 -0.41499,-0.08955 -0.86959,-0.194621 -1.3125,-0.21875 z m 87.0625,240.65625 1.5,0 1.5,0 344.4375,0 0,347.5625 -347.4375,0 0,-347.5625 z" filter="url(#filter4662)" opacity=".4" transform="matrix(0.66335753,0,0,0.66335753,-301.65558,-296.97895)"/></g></g></g></g></svg>