<svg xmlns="http://www.w3.org/2000/svg" xmlns:svg="http://www.w3.org/2000/svg" xmlns:xlink="http://www.w3.org/1999/xlink" id="svg2" width="1000" height="1000" version="1.1"><defs id="defs4"><linearGradient id="linearGradient6901" x1="-203.313" x2="263.344" y1="30.719" y2="30.719" gradientUnits="userSpaceOnUse" xlink:href="#linearGradient3641"/><linearGradient id="linearGradient3641"><stop id="stop3643" offset="0" stop-color="#fff" stop-opacity="0"/><stop id="stop3645" offset="1" stop-color="#fff" stop-opacity="1"/></linearGradient><linearGradient id="linearGradient7800" x1="-203.313" x2="263.344" y1="30.719" y2="30.719" gradientTransform="translate(-85.455639,-190.15401)" gradientUnits="userSpaceOnUse" xlink:href="#linearGradient3641"/><radialGradient id="radialGradient2852" cx="30.031" cy="34.688" r="317.298" fx="30.031" fy="34.688" gradientTransform="matrix(1.4452614,0,0,1.4177194,-13.371756,-14.489643)" gradientUnits="userSpaceOnUse" xlink:href="#linearGradient3641"/><linearGradient id="linearGradient3230" x1="-181.867" x2="2.605" y1="212.954" y2="28.482" gradientUnits="userSpaceOnUse" xlink:href="#linearGradient3641-6-0-0"/><linearGradient id="linearGradient3641-6-0-0"><stop id="stop3643-4-4-6" offset="0" stop-color="#fff" stop-opacity="1"/><stop id="stop3645-9-8-1" offset="1" stop-color="#fff" stop-opacity="0"/></linearGradient><linearGradient id="linearGradient3280" x1="-181.867" x2="2.605" y1="212.954" y2="28.482" gradientUnits="userSpaceOnUse" xlink:href="#linearGradient3641-6-0-0"/><radialGradient id="radialGradient4167" cx="30.016" cy="34.703" r="110.703" fx="30.016" fy="34.703" gradientUnits="userSpaceOnUse" xlink:href="#linearGradient3641"/><filter id="filter4173"><feGaussianBlur id="feGaussianBlur4175" stdDeviation="3.542"/></filter><radialGradient id="radialGradient3655" cx="30.031" cy="34.688" r="317.298" fx="30.031" fy="34.688" gradientTransform="matrix(1.4452614,0,0,1.4177194,-13.371756,-14.489643)" gradientUnits="userSpaceOnUse" xlink:href="#linearGradient3641"/><radialGradient id="radialGradient3657" cx="30.031" cy="34.688" r="317.298" fx="30.031" fy="34.688" gradientTransform="matrix(1.4452614,0,0,1.4177194,-13.371756,-14.489643)" gradientUnits="userSpaceOnUse" xlink:href="#linearGradient3641"/><radialGradient id="radialGradient3659" cx="30.031" cy="34.688" r="317.298" fx="30.031" fy="34.688" gradientTransform="matrix(1.4452614,0,0,1.4177194,-13.371756,-14.489643)" gradientUnits="userSpaceOnUse" xlink:href="#linearGradient3641"/><radialGradient id="radialGradient4682" cx="30.016" cy="34.703" r="110.703" fx="30.016" fy="34.703" gradientUnits="userSpaceOnUse" xlink:href="#linearGradient3641"/><radialGradient id="radialGradient2881" cx="30.016" cy="34.703" r="110.703" fx="30.016" fy="34.703" gradientUnits="userSpaceOnUse" xlink:href="#linearGradient3641"/></defs><metadata id="metadata7"/><g id="layer1" transform="translate(464.16179,464.03236)"><g id="g4082" transform="translate(0,1.552561)"><g id="g4060" transform="matrix(1.5074827,0,0,1.5074827,-9.4212231,-17.89429)"><path id="path2876" fill="#2a7fff" fill-opacity="1" stroke="none" d="M 178.89839,-114.17553 345.118,-137.92115 202.64415,-280.39501 178.89839,-114.17553 z" display="inline" opacity=".7"/><path id="path2866" fill="#2a7fff" fill-opacity="1" stroke="none" d="m -285.07162,-137.92116 166.21942,23.74569 -23.74557,-166.21954 -142.47385,142.47385 z" display="inline" opacity=".7"/><path id="path2864" fill="#2a7fff" fill-opacity="1" stroke="none" d="M 202.64415,349.79462 345.11799,207.32077 178.8984,183.57514 202.64415,349.79462 z" display="inline" opacity=".7"/><path id="path2893" fill="#2a7fff" fill-opacity="1" stroke="none" d="m -142.59777,349.79463 23.74562,-166.21961 -166.21948,23.74576 142.47386,142.47385 z" display="inline" opacity=".7"/><path id="path4083" fill="#2a7fff" fill-opacity="1" stroke="none" stroke-width="39.801" d="M -75.479704,-101.53276 -106.21708,-70.818025 -0.69598982,34.703062 -106.21708,140.22415 -75.479704,170.93889 30.01875,65.417802 135.53984,170.93889 166.23195,140.22415 60.733489,34.703062 166.23195,-70.818025 135.53984,-101.53276 30.01875,3.9883229 -75.479704,-101.53276 z" color="#000" direction="ltr" display="inline" enable-background="accumulate" font-family="Bitstream Vera Sans" font-size="medium" font-stretch="normal" font-style="normal" font-variant="normal" font-weight="normal" letter-spacing="normal" opacity=".7" overflow="visible" text-anchor="start" text-decoration="none" visibility="visible" word-spacing="normal" writing-mode="lr-tb" style="text-indent:0;text-align:start;line-height:normal;text-transform:none;block-progression:tb;marker:none;-inkscape-font-specification:Bitstream Vera Sans"/><path id="path4083-1" fill="url(#radialGradient2881)" fill-opacity="1" stroke="none" stroke-width="39.801" d="m -80.6875,-61.9375 c 32.280798,32.198326 64.419907,64.5389725 96.8125,96.625 -32.371121,32.117956 -64.514187,64.465059 -96.8125,96.65625 4.697917,4.6875 9.395833,9.375 14.09375,14.0625 32.219644,-32.24905 64.5103906,-64.427612 96.625,-96.78125 32.095676,32.382945 64.40119,64.55719 96.65625,96.78125 4.67708,-4.6875 9.35417,-9.375 14.03125,-14.0625 C 108.4947,99.088675 76.320421,66.7832 43.9375,34.6875 76.291137,2.5728896 108.4697,-29.717859 140.71875,-61.9375 136.04167,-66.625 131.36458,-71.3125 126.6875,-76 94.432425,-43.775951 62.12695,-11.601671 30.03125,20.78125 -2.0833604,-11.572387 -34.374109,-43.750946 -66.59375,-76 c -4.697917,4.6875 -9.395833,9.375 -14.09375,14.0625 z" color="#000" direction="ltr" display="inline" enable-background="accumulate" filter="url(#filter4173)" font-family="Bitstream Vera Sans" font-size="medium" font-stretch="normal" font-style="normal" font-variant="normal" font-weight="normal" letter-spacing="normal" opacity=".4" overflow="visible" text-anchor="start" text-decoration="none" transform="matrix(1.0918659,0,0,1.0918659,-2.7738602,-3.184481)" visibility="visible" word-spacing="normal" writing-mode="lr-tb" style="text-indent:0;text-align:start;line-height:normal;text-transform:none;block-progression:tb;marker:none;-inkscape-font-specification:Bitstream Vera Sans"/></g></g></g></svg>