<svg xmlns="http://www.w3.org/2000/svg" xmlns:svg="http://www.w3.org/2000/svg" xmlns:xlink="http://www.w3.org/1999/xlink" id="svg2" width="1000" height="1000" version="1.1"><defs id="defs4"><linearGradient id="linearGradient8562" x1="-213.564" x2="253.595" y1="24.514" y2="24.514" gradientTransform="matrix(0,1,-1,0,44.530081,4.498828)" gradientUnits="userSpaceOnUse" xlink:href="#linearGradient3641"/><linearGradient id="linearGradient3641"><stop id="stop3643" offset="0" stop-color="#fff" stop-opacity="1"/><stop id="stop3645" offset="1" stop-color="#fff" stop-opacity="0"/></linearGradient><linearGradient id="linearGradient6791" x1="-213.564" x2="253.595" y1="24.514" y2="24.514" gradientTransform="matrix(0,1,-1,0,44.530081,4.498828)" gradientUnits="userSpaceOnUse" xlink:href="#linearGradient3641"/><linearGradient id="linearGradient2903" x1="-1.887" x2="323.882" y1="-163.788" y2="-163.788" gradientTransform="translate(-294.13778,123.54099)" gradientUnits="userSpaceOnUse" xlink:href="#linearGradient3641"/><radialGradient id="radialGradient4702" cx="5.9" cy="10.498" r="1.171" fx="5.9" fy="10.498" gradientUnits="userSpaceOnUse" xlink:href="#linearGradient3641-0"/><linearGradient id="linearGradient3641-0"><stop id="stop3643-5" offset="0" stop-color="#fff" stop-opacity="1"/><stop id="stop3645-0" offset="1" stop-color="#fff" stop-opacity="0"/></linearGradient><filter id="filter4708" color-interpolation-filters="sRGB"><feGaussianBlur id="feGaussianBlur4710" stdDeviation=".037"/></filter><radialGradient id="radialGradient4731" cx="5.9" cy="10.498" r="1.171" fx="5.9" fy="10.498" gradientUnits="userSpaceOnUse" xlink:href="#linearGradient3641-0"/></defs><metadata id="metadata7"/><g id="layer1" transform="translate(464.16179,464.03236)"><g id="g4082" transform="translate(0,1.552561)"><g id="g4060" transform="matrix(1.5074827,0,0,1.5074827,-9.4212231,-17.89429)"><path id="path3373" fill="#2a7fff" fill-opacity="1" fill-rule="evenodd" stroke="none" d="m 7.0710679,10.497826 c 0,0.646805 -0.5243397,1.171145 -1.1711455,1.171145 -0.6468059,0 -1.1711456,-0.52434 -1.1711456,-1.171145 0,-0.6468062 0.5243397,-1.1711459 1.1711456,-1.1711459 0.6468058,0 1.1711455,0.5243397 1.1711455,1.1711459 z" display="inline" opacity=".7" transform="matrix(60.868016,0,0,60.868016,-478.25772,-531.39403)"/><path id="path2922" fill="#2a7fff" fill-opacity="1" stroke="none" stroke-width="44.106" d="M 246.875 713.4375 C 245.65154 713.10423 244.39317 712.875 243.1875 712.5 C 239.82257 711.4534 236.52663 710.26571 233.3125 708.90625 C 230.09837 707.54679 226.95156 706.02931 223.90625 704.375 C 220.86094 702.72069 217.92099 700.93116 215.0625 699 C 212.20401 697.06884 209.43492 695.0025 206.78125 692.8125 C 204.12758 690.6225 201.58709 688.30584 199.15625 685.875 C 196.72541 683.44416 194.40875 680.87242 192.21875 678.21875 C 191.66395 677.54649 191.19487 676.81084 190.65625 676.125 C 139.84464 756.74942 100.54798 835.18141 74.3125 905.03125 L 136.5625 928.40625 C 160.79947 863.87729 198.19671 790.01836 246.875 713.4375 z" color="#000" direction="ltr" display="inline" enable-background="accumulate" font-family="Bitstream Vera Sans" font-size="medium" font-stretch="normal" font-style="normal" font-variant="normal" font-weight="normal" letter-spacing="normal" opacity=".8" overflow="visible" text-anchor="start" text-decoration="none" transform="matrix(0.66335753,0,0,0.66335753,-301.65558,-296.97895)" visibility="visible" word-spacing="normal" writing-mode="lr-tb" style="text-indent:0;text-align:start;line-height:normal;text-transform:none;block-progression:tb;marker:none;-inkscape-font-specification:Bitstream Vera Sans"/><path id="path3181" fill="#2a7fff" fill-opacity="1" stroke="none" stroke-width="44.106" d="M 903.34375 71.59375 C 662.60681 157.5181 460.14796 327.57128 311.46875 508.84375 C 313.30827 509.50551 315.17731 510.11729 316.96875 510.875 C 320.18288 512.23446 323.32969 513.72069 326.375 515.375 C 329.42031 517.02931 332.36026 518.85009 335.21875 520.78125 C 338.07724 522.71241 340.84633 524.77875 343.5 526.96875 C 346.15367 529.15875 348.69416 531.47541 351.125 533.90625 C 353.55584 536.33709 355.8725 538.87758 358.0625 541.53125 C 360.2525 544.18492 362.31884 546.92276 364.25 549.78125 C 364.5293 550.19467 364.75758 550.64501 365.03125 551.0625 C 507.78929 377.9934 701.26091 214.29032 925.6875 134.1875 L 903.34375 71.59375 z" color="#000" direction="ltr" display="inline" enable-background="accumulate" font-family="Bitstream Vera Sans" font-size="medium" font-stretch="normal" font-style="normal" font-variant="normal" font-weight="normal" letter-spacing="normal" opacity=".8" overflow="visible" text-anchor="start" text-decoration="none" transform="matrix(0.66335753,0,0,0.66335753,-301.65558,-296.97895)" visibility="visible" word-spacing="normal" writing-mode="lr-tb" style="text-indent:0;text-align:start;line-height:normal;text-transform:none;block-progression:tb;marker:none;-inkscape-font-specification:Bitstream Vera Sans"/><path id="path3247-3" fill="url(#radialGradient4731)" fill-opacity="1" fill-rule="evenodd" stroke="none" d="m 7.0710679,10.497826 a 1.1711456,1.1711456 0 1 1 -2.3422911,0 1.1711456,1.1711456 0 1 1 2.3422911,0 z" filter="url(#filter4708)" opacity=".4" transform="matrix(71.243524,0,0,71.243524,-539.47241,-640.3143)"/></g></g></g></svg>