<svg xmlns="http://www.w3.org/2000/svg" xmlns:svg="http://www.w3.org/2000/svg" xmlns:xlink="http://www.w3.org/1999/xlink" id="svg2" width="1000" height="1000" version="1.1"><defs id="defs4"><linearGradient id="linearGradient8562" x1="-213.564" x2="253.595" y1="24.514" y2="24.514" gradientTransform="matrix(0,1,-1,0,44.530081,4.498828)" gradientUnits="userSpaceOnUse" xlink:href="#linearGradient3641"/><linearGradient id="linearGradient3641"><stop id="stop3643" offset="0" stop-color="#fff" stop-opacity="1"/><stop id="stop3645" offset="1" stop-color="#fff" stop-opacity="0"/></linearGradient><linearGradient id="linearGradient6791" x1="-213.564" x2="253.595" y1="24.514" y2="24.514" gradientTransform="matrix(0,1,-1,0,44.530081,4.498828)" gradientUnits="userSpaceOnUse" xlink:href="#linearGradient3641"/><linearGradient id="linearGradient2903" x1="-1.887" x2="323.882" y1="-163.788" y2="-163.788" gradientTransform="translate(-294.13778,123.54099)" gradientUnits="userSpaceOnUse" xlink:href="#linearGradient3641"/><radialGradient id="radialGradient4664" cx="5.9" cy="10.498" r="1.171" fx="5.9" fy="10.498" gradientUnits="userSpaceOnUse" xlink:href="#linearGradient3641"/><filter id="filter4670"><feGaussianBlur id="feGaussianBlur4672" stdDeviation=".037"/></filter><radialGradient id="radialGradient4702" cx="5.9" cy="10.498" r="1.171" fx="5.9" fy="10.498" gradientUnits="userSpaceOnUse" xlink:href="#linearGradient3641"/><filter id="filter4708"><feGaussianBlur id="feGaussianBlur4710" stdDeviation=".037"/></filter><radialGradient id="radialGradient4702-7" cx="5.9" cy="10.498" r="1.171" fx="5.9" fy="10.498" gradientUnits="userSpaceOnUse" xlink:href="#linearGradient3641-6"/><linearGradient id="linearGradient3641-6"><stop id="stop3643-8" offset="0" stop-color="#fff" stop-opacity="1"/><stop id="stop3645-1" offset="1" stop-color="#fff" stop-opacity="0"/></linearGradient><filter id="filter4708-3" color-interpolation-filters="sRGB"><feGaussianBlur id="feGaussianBlur4710-6" stdDeviation=".037"/></filter><radialGradient id="radialGradient4731" cx="5.9" cy="10.498" r="1.171" fx="5.9" fy="10.498" gradientUnits="userSpaceOnUse" xlink:href="#linearGradient3641-6"/></defs><metadata id="metadata7"/><g id="layer1" transform="translate(464.16179,464.03236)"><g id="g4082" transform="translate(0,1.552561)"><g id="g4060" transform="matrix(1.5074827,0,0,1.5074827,-9.4212231,-17.89429)"><path font-stretch="normal" style="text-indent:0;text-align:start;line-height:normal;text-transform:none;block-progression:tb;marker:none;-inkscape-font-specification:Bitstream Vera Sans" id="path3955" fill="#2a7fff" fill-opacity="1" fill-rule="nonzero" stroke="none" stroke-width="38.718" d="m 264.52007,220.39842 78.19327,0 0,-38.72349 -77.26042,0 c 0.0525,0.24549 0.13617,0.47926 0.18657,0.72555 0.55573,2.71575 0.97967,5.46634 1.26452,8.27123 0.28486,2.8049 0.4146,5.66069 0.4146,8.54073 0,2.88005 -0.12974,5.73584 -0.4146,8.54073 -0.28485,2.8049 -0.70879,5.55548 -1.26452,8.27124 -0.30374,1.48432 -0.73799,2.91955 -1.11942,4.37401 z" color="#000" direction="ltr" display="inline" enable-background="accumulate" font-family="Bitstream Vera Sans" font-size="medium" font-style="normal" font-variant="normal" font-weight="normal" letter-spacing="normal" opacity=".5" overflow="visible" text-anchor="start" text-decoration="none" visibility="visible" word-spacing="normal" writing-mode="lr-tb"/><path font-stretch="normal" style="text-indent:0;text-align:start;line-height:normal;text-transform:none;block-progression:tb;marker:none;-inkscape-font-specification:Bitstream Vera Sans" id="path3953" fill="#2a7fff" fill-opacity="1" fill-rule="nonzero" stroke="none" stroke-width="38.718" d="m 102.32916,181.67493 -87.501007,0 0,38.72349 88.454577,0 c -0.38166,-1.4552 -0.83624,-2.88891 -1.14014,-4.37401 -0.55573,-2.71576 -0.97968,-5.46634 -1.26453,-8.27124 -0.28485,-2.80489 -0.4146,-5.66068 -0.4146,-8.54073 0,-2.88004 0.12975,-5.73583 0.4146,-8.54073 0.28485,-2.80489 0.7088,-5.55548 1.26453,-8.27123 0.0503,-0.24614 0.13404,-0.48022 0.18657,-0.72555 z" color="#000" direction="ltr" display="inline" enable-background="accumulate" font-family="Bitstream Vera Sans" font-size="medium" font-style="normal" font-variant="normal" font-weight="normal" letter-spacing="normal" opacity=".5" overflow="visible" text-anchor="start" text-decoration="none" visibility="visible" word-spacing="normal" writing-mode="lr-tb"/><path id="path3155" fill="#2a7fff" fill-opacity="1" fill-rule="evenodd" stroke="none" d="m 7.0710679,10.497826 a 1.1711456,1.1711456 0 1 1 -2.3422911,0 1.1711456,1.1711456 0 1 1 2.3422911,0 z" opacity=".7" transform="matrix(71.243527,0,0,71.243527,-236.43966,-548.68952)"/><path font-stretch="normal" style="text-indent:0;text-align:start;line-height:normal;text-transform:none;block-progression:tb;marker:none;-inkscape-font-specification:Bitstream Vera Sans" id="path3801" fill="#2a7fff" fill-opacity="1" fill-rule="nonzero" stroke="none" stroke-width="38.718" d="m -45.371543,-108.0672 82.028305,0 0,-38.7235 -80.80524,0 c 0.01161,0.0562 0.02998,0.10964 0.04146,0.16584 0.555728,2.71576 0.979673,5.46634 1.264526,8.27124 0.284852,2.80489 0.435328,5.66068 0.435328,8.54073 0,2.88004 -0.150476,5.73583 -0.435328,8.54073 -0.284853,2.80489 -0.708798,5.55548 -1.264526,8.27123 -0.342637,1.67442 -0.82322,3.29749 -1.264525,4.93373 z" color="#000" direction="ltr" display="inline" enable-background="accumulate" font-family="Bitstream Vera Sans" font-size="medium" font-style="normal" font-variant="normal" font-weight="normal" letter-spacing="normal" opacity=".5" overflow="visible" text-anchor="start" text-decoration="none" visibility="visible" word-spacing="normal" writing-mode="lr-tb"/><path font-stretch="normal" style="text-indent:0;text-align:start;line-height:normal;text-transform:none;block-progression:tb;marker:none;-inkscape-font-specification:Bitstream Vera Sans" id="path3799" fill="#2a7fff" fill-opacity="1" fill-rule="nonzero" stroke="none" stroke-width="38.718" d="m -207.56246,-146.7907 -83.64524,0 0,38.7235 84.88904,0 c -0.44152,-1.63686 -0.94249,-3.25865 -1.28526,-4.93373 -0.55573,-2.71575 -0.97967,-5.46634 -1.26452,-8.27123 -0.28486,-2.8049 -0.4146,-5.66069 -0.4146,-8.54073 0,-2.88005 0.12974,-5.73584 0.4146,-8.54073 0.28485,-2.8049 0.70879,-5.55548 1.26452,-8.27124 0.0115,-0.0562 0.0298,-0.10972 0.0415,-0.16584 z" color="#000" direction="ltr" display="inline" enable-background="accumulate" font-family="Bitstream Vera Sans" font-size="medium" font-style="normal" font-variant="normal" font-weight="normal" letter-spacing="normal" opacity=".5" overflow="visible" text-anchor="start" text-decoration="none" visibility="visible" word-spacing="normal" writing-mode="lr-tb"/><path id="path3247" fill="#2a7fff" fill-opacity="1" fill-rule="evenodd" stroke="none" d="m 7.0710679,10.497826 a 1.1711456,1.1711456 0 1 1 -2.3422911,0 1.1711456,1.1711456 0 1 1 2.3422911,0 z" opacity=".7" transform="matrix(71.243527,0,0,71.243527,-546.18508,-877.7151)"/><path id="path3900" fill="#2a7fff" fill-opacity=".784" stroke="none" stroke-width="51.624" d="m 376.33724,-24.629264 c -54.46306,94.333016 -57.28515,97.771245 -65.009,110.511218 -18.90653,31.184846 -38.89135,52.188396 -59.26685,65.340716 0.32434,0.4598 0.70055,0.88087 1.01577,1.34745 1.49941,2.21942 2.90298,4.49712 4.18744,6.8616 1.28446,2.36448 2.44783,4.80138 3.50336,7.29693 1.05552,2.49555 2.00665,5.05743 2.81927,7.67007 0.73892,2.37571 1.33922,4.81387 1.86569,7.27621 l 29.68525,0 c 22.02629,-16.96737 42.59575,-39.7415 60.36553,-69.05138 6.92824,-11.42762 10.96656,-16.906259 65.54802,-111.4440602 L 376.33724,-24.629264 z" color="#000" direction="ltr" display="inline" enable-background="accumulate" font-family="Bitstream Vera Sans" font-size="medium" font-stretch="normal" font-style="normal" font-variant="normal" font-weight="normal" letter-spacing="normal" opacity=".8" overflow="visible" text-anchor="start" text-decoration="none" visibility="visible" word-spacing="normal" writing-mode="lr-tb" style="text-indent:0;text-align:start;line-height:normal;text-transform:none;block-progression:tb;marker:none;-inkscape-font-specification:Bitstream Vera Sans"/><path id="path3851" fill="#2a7fff" fill-opacity=".784" stroke="none" stroke-width="51.624" d="m -45.371543,-108.0672 c -0.273774,1.01862 -0.476145,2.06622 -0.787737,3.06803 -0.81262,2.61264 -1.763742,5.174516 -2.81927,7.670067 -1.055527,2.495551 -2.218897,4.932454 -3.503357,7.296932 -1.284459,2.364479 -2.68803,4.642176 -4.187444,6.861605 -1.499414,2.219428 -3.108958,4.365881 -4.809342,6.426276 -0.2994,0.36279 -0.6482,0.678893 -0.953577,1.036496 3.284901,3.241722 6.529223,6.6553 9.680874,10.447881 20.208557,24.318256 36.234327,59.4165295 43.7815974,98.322024 C 2.9344442,94.427611 36.525755,147.71291 81.827263,181.67493 l 20.501897,0 c 0.5296,-2.4625 1.14745,-4.90034 1.88642,-7.27621 0.81262,-2.61264 1.74301,-5.17452 2.79854,-7.67007 1.05553,-2.49555 2.2189,-4.93245 3.50336,-7.29693 1.28446,-2.36448 2.68803,-4.64218 4.18744,-6.8616 1.49941,-2.21943 3.10896,-4.36588 4.80934,-6.42628 0.23716,-0.28737 0.50537,-0.54508 0.74628,-0.8292 C 82.722836,119.84928 51.783602,75.374232 41.673403,23.256858 32.668769,-23.161227 13.951188,-65.719686 -13.074323,-98.24122 c -2.827568,-3.4026 -5.794654,-6.65057 -8.830947,-9.82598 l -23.466273,0 z" color="#000" direction="ltr" display="inline" enable-background="accumulate" font-family="Bitstream Vera Sans" font-size="medium" font-stretch="normal" font-style="normal" font-variant="normal" font-weight="normal" letter-spacing="normal" opacity=".8" overflow="visible" text-anchor="start" text-decoration="none" visibility="visible" word-spacing="normal" writing-mode="lr-tb" style="text-indent:0;text-align:start;line-height:normal;text-transform:none;block-progression:tb;marker:none;-inkscape-font-specification:Bitstream Vera Sans"/><path id="path3826" fill="#2a7fff" fill-opacity=".784" stroke="none" stroke-width="51.624" d="m -229.53618,-108.0672 c -5.35802,4.83543 -10.68505,9.981192 -15.94131,15.568169 -40.5817,43.135075 -79.38531,109.00868 -115.52786,204.251931 l 48.27999,18.30452 c 34.56614,-91.089072 71.14192,-151.338122 104.87268,-187.191203 6.50741,-6.916849 12.85803,-12.883617 19.03007,-18.055763 -0.45855,-0.528145 -0.96427,-1.015083 -1.40963,-1.554744 -1.70039,-2.060395 -3.30993,-4.206848 -4.80935,-6.426276 -1.49941,-2.219429 -2.90298,-4.497126 -4.18744,-6.861605 -1.28446,-2.364478 -2.44783,-4.801381 -3.50336,-7.296932 -1.05552,-2.495551 -1.98592,-5.057427 -2.79854,-7.670067 -0.3114,-1.00118 -0.51035,-2.05006 -0.78773,-3.06803 l -23.21752,0 z" color="#000" direction="ltr" display="inline" enable-background="accumulate" font-family="Bitstream Vera Sans" font-size="medium" font-stretch="normal" font-style="normal" font-variant="normal" font-weight="normal" letter-spacing="normal" opacity=".8" overflow="visible" text-anchor="start" text-decoration="none" visibility="visible" word-spacing="normal" writing-mode="lr-tb" style="text-indent:0;text-align:start;line-height:normal;text-transform:none;block-progression:tb;marker:none;-inkscape-font-specification:Bitstream Vera Sans"/><path id="path3247-3" fill="url(#radialGradient4702)" fill-opacity="1" fill-rule="evenodd" stroke="none" d="m 7.0710679,10.497826 a 1.1711456,1.1711456 0 1 1 -2.3422911,0 1.1711456,1.1711456 0 1 1 2.3422911,0 z" filter="url(#filter4708)" opacity=".4" transform="matrix(71.243524,0,0,71.243524,-546.18506,-877.71507)"/><path id="path3247-3-4" fill="url(#radialGradient4731)" fill-opacity="1" fill-rule="evenodd" stroke="none" d="m 7.0710679,10.497826 a 1.1711456,1.1711456 0 1 1 -2.3422911,0 1.1711456,1.1711456 0 1 1 2.3422911,0 z" filter="url(#filter4708-3)" opacity=".4" transform="matrix(71.243524,0,0,71.243524,-236.43964,-548.68949)"/></g></g></g></svg>