<svg xmlns="http://www.w3.org/2000/svg" xmlns:svg="http://www.w3.org/2000/svg" xmlns:xlink="http://www.w3.org/1999/xlink" id="svg2" width="1000" height="1000" version="1.1"><defs id="defs4"><linearGradient id="linearGradient8562" x1="-213.564" x2="253.595" y1="24.514" y2="24.514" gradientTransform="matrix(0,1,-1,0,44.530081,4.498828)" gradientUnits="userSpaceOnUse" xlink:href="#linearGradient3641"/><linearGradient id="linearGradient3641"><stop id="stop3643" offset="0" stop-color="#fff" stop-opacity="1"/><stop id="stop3645" offset="1" stop-color="#fff" stop-opacity="0"/></linearGradient><linearGradient id="linearGradient6791" x1="-213.564" x2="253.595" y1="24.514" y2="24.514" gradientTransform="matrix(0,1,-1,0,44.530081,4.498828)" gradientUnits="userSpaceOnUse" xlink:href="#linearGradient3641"/><linearGradient id="linearGradient2903" x1="-1.887" x2="323.882" y1="-163.788" y2="-163.788" gradientTransform="translate(-294.13778,123.54099)" gradientUnits="userSpaceOnUse" xlink:href="#linearGradient3641"/><radialGradient id="radialGradient4702" cx="5.9" cy="10.498" r="1.171" fx="5.9" fy="10.498" gradientUnits="userSpaceOnUse" xlink:href="#linearGradient3641-9"/><linearGradient id="linearGradient3641-9"><stop id="stop3643-9" offset="0" stop-color="#fff" stop-opacity="1"/><stop id="stop3645-8" offset="1" stop-color="#fff" stop-opacity="0"/></linearGradient><filter id="filter4708" color-interpolation-filters="sRGB"><feGaussianBlur id="feGaussianBlur4710" stdDeviation=".037"/></filter><radialGradient id="radialGradient4731" cx="5.9" cy="10.498" r="1.171" fx="5.9" fy="10.498" gradientUnits="userSpaceOnUse" xlink:href="#linearGradient3641-9"/></defs><metadata id="metadata7"/><g id="layer1" transform="translate(464.16179,464.03236)"><g id="g4082" transform="translate(0,1.552561)"><g id="g4060" transform="matrix(1.5074827,0,0,1.5074827,-9.4212231,-17.89429)"><g id="g3804" transform="translate(6.6169357,6.5123138)"><path id="path3181" fill="#2a7fff" fill-opacity="1" stroke="none" stroke-width="44.106" d="m 290.96875,-256 c -279.514233,99.76483 -481.42799,370.474 -549.9375,552.875 l 41.28125,15.5 C -154.31879,143.66098 44.083771,-121.06312 305.78125,-214.46875 L 290.96875,-256 z" color="#000" direction="ltr" display="inline" enable-background="accumulate" font-family="Bitstream Vera Sans" font-size="medium" font-stretch="normal" font-style="normal" font-variant="normal" font-weight="normal" letter-spacing="normal" opacity=".8" overflow="visible" text-anchor="start" text-decoration="none" visibility="visible" word-spacing="normal" writing-mode="lr-tb" style="text-indent:0;text-align:start;line-height:normal;text-transform:none;block-progression:tb;marker:none;-inkscape-font-specification:Bitstream Vera Sans"/><path id="path3373" fill="#2a7fff" fill-opacity="1" fill-rule="evenodd" stroke="none" d="m 7.0710679,10.497826 c 0,0.646805 -0.5243397,1.171145 -1.1711455,1.171145 -0.6468059,0 -1.1711456,-0.52434 -1.1711456,-1.171145 0,-0.6468062 0.5243397,-1.1711459 1.1711456,-1.1711459 0.6468058,0 1.1711455,0.5243397 1.1711455,1.1711459 z" display="inline" opacity=".7" transform="matrix(60.868016,0,0,60.868016,-509.56539,-735.43216)"/><path id="path3802" fill="#2a7fff" fill-opacity="1" stroke="none" stroke-width="33.079" d="M 184.53125,660.28125 233.5,409.46875 c -1.85207,0.0949 -3.68681,0.28125 -5.5625,0.28125 -3.70933,0 -7.35621,-0.19563 -10.96875,-0.5625 -3.61254,-0.36687 -7.18976,-0.90926 -10.6875,-1.625 -3.49774,-0.71574 -6.91632,-1.5784 -10.28125,-2.625 -3.36493,-1.0466 -6.66087,-2.26554 -9.875,-3.625 -0.57656,-0.24387 -1.11613,-0.55891 -1.6875,-0.8125 L 106.875,797.8125 c 1.83727,-3.73717 3.57215,-7.42342 5.46875,-11.1875 4.75746,-9.44189 9.68537,-18.96794 14.8125,-28.5625 5.12713,-9.59456 10.44582,-19.24538 15.9375,-28.96875 5.49168,-9.72337 11.18016,-19.51543 17.03125,-29.34375 5.85109,-9.82832 11.85714,-19.68432 18.0625,-29.59375 2.05378,-3.27971 4.25154,-6.58815 6.34375,-9.875 z" color="#000" direction="ltr" display="inline" enable-background="accumulate" font-family="Bitstream Vera Sans" font-size="medium" font-stretch="normal" font-style="normal" font-variant="normal" font-weight="normal" letter-spacing="normal" opacity=".5" overflow="visible" text-anchor="start" text-decoration="none" transform="matrix(0.66335753,0,0,0.66335753,-301.65558,-296.97895)" visibility="visible" word-spacing="normal" writing-mode="lr-tb" style="text-indent:0;text-align:start;line-height:normal;text-transform:none;block-progression:tb;marker:none;-inkscape-font-specification:Bitstream Vera Sans"/><path id="path3777" fill="#2a7fff" fill-opacity="1" stroke="none" stroke-width="33.079" d="m 754.15625,122.75 -431.75,128.28125 c 0.007,0.0126 0.0244,0.0186 0.0312,0.0312 1.65431,3.04531 3.17179,6.19212 4.53125,9.40625 1.35946,3.21413 2.54715,6.51007 3.59375,9.875 1.0466,3.36493 1.94051,6.78351 2.65625,10.28125 0.71574,3.49774 1.25813,7.07496 1.625,10.6875 0.26549,2.61419 0.33158,5.27132 0.40625,7.9375 l 257.03125,-76.375 c 2.78498,-2.01598 5.51053,-4.09723 8.3125,-6.09375 11.17545,-7.96298 22.49506,-15.76768 33.9375,-23.40625 11.44244,-7.63857 23.01446,-15.11594 34.71875,-22.40625 11.70429,-7.29031 23.53899,-14.39431 35.5,-21.3125 11.96101,-6.91819 24.0374,-13.63403 36.25,-20.15625 4.34028,-2.31796 8.78463,-4.4841 13.15625,-6.75 z" color="#000" direction="ltr" display="inline" enable-background="accumulate" font-family="Bitstream Vera Sans" font-size="medium" font-stretch="normal" font-style="normal" font-variant="normal" font-weight="normal" letter-spacing="normal" opacity=".5" overflow="visible" text-anchor="start" text-decoration="none" transform="matrix(0.66335753,0,0,0.66335753,-301.65558,-296.97895)" visibility="visible" word-spacing="normal" writing-mode="lr-tb" style="text-indent:0;text-align:start;line-height:normal;text-transform:none;block-progression:tb;marker:none;-inkscape-font-specification:Bitstream Vera Sans"/></g><path id="path3247-3" fill="url(#radialGradient4731)" fill-opacity="1" fill-rule="evenodd" stroke="none" d="m 7.0710679,10.497826 a 1.1711456,1.1711456 0 1 1 -2.3422911,0 1.1711456,1.1711456 0 1 1 2.3422911,0 z" filter="url(#filter4708)" opacity=".4" transform="matrix(71.243524,0,0,71.243524,-564.16315,-837.84012)"/></g></g></g></svg>