<svg xmlns="http://www.w3.org/2000/svg" xmlns:svg="http://www.w3.org/2000/svg" xmlns:xlink="http://www.w3.org/1999/xlink" id="svg2" width="1000" height="1000" version="1.1"><defs id="defs4"><linearGradient id="linearGradient8562" x1="-213.564" x2="253.595" y1="24.514" y2="24.514" gradientTransform="matrix(0,1,-1,0,44.530081,4.498828)" gradientUnits="userSpaceOnUse" xlink:href="#linearGradient3641"/><linearGradient id="linearGradient3641"><stop id="stop3643" offset="0" stop-color="#fff" stop-opacity="1"/><stop id="stop3645" offset="1" stop-color="#fff" stop-opacity="0"/></linearGradient><linearGradient id="linearGradient6791" x1="-213.564" x2="253.595" y1="24.514" y2="24.514" gradientTransform="matrix(0,1,-1,0,44.530081,4.498828)" gradientUnits="userSpaceOnUse" xlink:href="#linearGradient3641"/><linearGradient id="linearGradient2903" x1="-1.887" x2="323.882" y1="-163.788" y2="-163.788" gradientTransform="translate(-294.13778,123.54099)" gradientUnits="userSpaceOnUse" xlink:href="#linearGradient3641"/><linearGradient id="linearGradient2926" x1="30.016" x2="30.016" y1="-133.495" y2="229.558" gradientUnits="userSpaceOnUse" xlink:href="#linearGradient3641-36"/><linearGradient id="linearGradient3641-36"><stop id="stop3643-5" offset="0" stop-color="#fff" stop-opacity="1"/><stop id="stop3645-6" offset="1" stop-color="#fff" stop-opacity="0"/></linearGradient><filter id="filter4145-3" color-interpolation-filters="sRGB"><feGaussianBlur id="feGaussianBlur4147-9" stdDeviation="6.691"/></filter><linearGradient id="linearGradient6330" x1="30.016" x2="30.016" y1="-133.495" y2="229.558" gradientUnits="userSpaceOnUse" xlink:href="#linearGradient3641-36"/><linearGradient id="linearGradient6372" x1="30.016" x2="30.016" y1="-133.495" y2="229.558" gradientUnits="userSpaceOnUse" xlink:href="#linearGradient3641-36"/></defs><metadata id="metadata7"/><g id="layer1" transform="translate(464.16179,464.03236)"><g id="g4082" transform="translate(0,1.552561)"><g id="g4060" transform="matrix(1.5074827,0,0,1.5074827,-9.4212231,-17.89429)"><g id="g6367" transform="matrix(0.96355002,-0.96355002,0.70710678,0.70710678,-888.54553,-460.32936)"><g id="g2922" transform="matrix(1.1224917,0,0,0.69650796,186.08518,868.4569)"><path id="Symbol-6-90-4" fill="#2a7fff" fill-opacity="1" stroke="none" d="m 296.72681,218.70235 0,-60.94598 -235.533381,0 -60.94597316,0 -236.94301584,0 0,60.94598 236.94301584,0 60.94597316,0 235.533381,0 z" display="inline" opacity=".7"/><path id="Symbol-6-90-1-8" fill="url(#linearGradient6372)" fill-opacity="1" stroke="none" d="m -222.6875,-84.46875 c 430.78132,0 56.99368,0 505.40625,0 0,-10.989583 0,-21.97917 0,-32.96875 -168.46875,0 -336.9375,0 -505.40625,0 0,10.98958 0,21.979167 0,32.96875 z" display="inline" filter="url(#filter4145-3)" opacity=".4" transform="matrix(-1,0,0,-1,60.038811,87.272561)"/></g></g></g></g></g></svg>