<svg xmlns="http://www.w3.org/2000/svg" xmlns:svg="http://www.w3.org/2000/svg" xmlns:xlink="http://www.w3.org/1999/xlink" id="svg2" width="1000" height="1000" version="1.1"><defs id="defs4"><linearGradient id="linearGradient8562" x1="-213.564" x2="253.595" y1="24.514" y2="24.514" gradientTransform="matrix(0,1,-1,0,44.530081,4.498828)" gradientUnits="userSpaceOnUse" xlink:href="#linearGradient3641"/><linearGradient id="linearGradient3641"><stop id="stop3643" offset="0" stop-color="#fff" stop-opacity="1"/><stop id="stop3645" offset="1" stop-color="#fff" stop-opacity="0"/></linearGradient><linearGradient id="linearGradient6791" x1="-213.564" x2="253.595" y1="24.514" y2="24.514" gradientTransform="matrix(0,1,-1,0,44.530081,4.498828)" gradientUnits="userSpaceOnUse" xlink:href="#linearGradient3641"/><linearGradient id="linearGradient10554" x1="-219.851" x2="74.444" y1="137.424" y2="137.424" gradientUnits="userSpaceOnUse" xlink:href="#linearGradient3641-6"/><linearGradient id="linearGradient3641-6"><stop id="stop3643-4" offset="0" stop-color="#fff" stop-opacity="1"/><stop id="stop3645-9" offset="1" stop-color="#fff" stop-opacity="0"/></linearGradient><linearGradient id="linearGradient10556" x1="-219.663" x2="279.881" y1="34.625" y2="34.625" gradientUnits="userSpaceOnUse" xlink:href="#linearGradient3641-6"/><linearGradient id="linearGradient3179" x1="-219.663" x2="279.881" y1="34.625" y2="34.625" gradientUnits="userSpaceOnUse" xlink:href="#linearGradient3641-6"/><linearGradient id="linearGradient3641-6-0"><stop id="stop3643-4-4" offset="0" stop-color="#fff" stop-opacity="1"/><stop id="stop3645-9-8" offset="1" stop-color="#fff" stop-opacity="0"/></linearGradient><linearGradient id="linearGradient3275" x1="-219.851" x2="74.444" y1="137.424" y2="137.424" gradientUnits="userSpaceOnUse" xlink:href="#linearGradient3641-6-0"/><linearGradient id="linearGradient3279" x1="-181.867" x2="2.605" y1="212.954" y2="28.482" gradientUnits="userSpaceOnUse" xlink:href="#linearGradient3641-6-0"/><linearGradient id="linearGradient3285" x1="-181.867" x2="2.605" y1="212.954" y2="28.482" gradientUnits="userSpaceOnUse" xlink:href="#linearGradient3641-6-0"/><linearGradient id="linearGradient5003" x1="-181.867" x2="2.605" y1="212.954" y2="28.482" gradientUnits="userSpaceOnUse" xlink:href="#linearGradient3641-6-0"/><linearGradient id="linearGradient5011" x1="-181.867" x2="2.605" y1="212.954" y2="28.482" gradientUnits="userSpaceOnUse" xlink:href="#linearGradient3641-6-0"/><linearGradient id="linearGradient5017" x1="-181.867" x2="2.605" y1="212.954" y2="28.482" gradientUnits="userSpaceOnUse" xlink:href="#linearGradient3641-6-0"/><linearGradient id="linearGradient5022" x1="-181.867" x2="2.605" y1="212.954" y2="28.482" gradientUnits="userSpaceOnUse" xlink:href="#linearGradient3641-6-0"/><linearGradient id="linearGradient5026" x1="88.061" x2="-223.343" y1="99.427" y2="99.427" gradientUnits="userSpaceOnUse" xlink:href="#linearGradient3641-6-0"/><linearGradient id="linearGradient3637"><stop id="stop3639" offset="0" stop-color="#f0f0f0" stop-opacity="1"/><stop id="stop3641" offset="1" stop-color="#aaa" stop-opacity="1"/></linearGradient><linearGradient id="linearGradient3794" x1="-212.501" x2="-582.124" y1="-208.953" y2="-208.953" gradientUnits="userSpaceOnUse" xlink:href="#linearGradient3641"/><linearGradient id="linearGradient3800" x1="-212.501" x2="-582.124" y1="-208.953" y2="-208.953" gradientUnits="userSpaceOnUse" xlink:href="#linearGradient3641"/><linearGradient id="linearGradient4184" x1="30.016" x2="30.016" y1="229.558" y2="-133.495" gradientUnits="userSpaceOnUse" xlink:href="#linearGradient3641-3"/><linearGradient id="linearGradient3641-3"><stop id="stop3643-7" offset="0" stop-color="#fff" stop-opacity="1"/><stop id="stop3645-2" offset="1" stop-color="#fff" stop-opacity="0"/></linearGradient><linearGradient id="linearGradient5071" x1="30.016" x2="30.016" y1="229.558" y2="-133.495" gradientUnits="userSpaceOnUse" xlink:href="#linearGradient3641-3"/><linearGradient id="linearGradient4161" x1="30.016" x2="30.016" y1="-133.495" y2="229.558" gradientUnits="userSpaceOnUse" xlink:href="#linearGradient3641-36"/><linearGradient id="linearGradient3641-36"><stop id="stop3643-5" offset="0" stop-color="#fff" stop-opacity="1"/><stop id="stop3645-6" offset="1" stop-color="#fff" stop-opacity="0"/></linearGradient><filter id="filter4145-3" color-interpolation-filters="sRGB"><feGaussianBlur id="feGaussianBlur4147-9" stdDeviation="6.691"/></filter><linearGradient id="linearGradient2926" x1="30.016" x2="30.016" y1="-133.495" y2="229.558" gradientUnits="userSpaceOnUse" xlink:href="#linearGradient3641-36"/></defs><metadata id="metadata7"/><g id="layer1" transform="translate(464.16179,464.03236)"><g id="g4082" transform="translate(0,1.552561)"><g id="g4060" transform="matrix(1.5074827,0,0,1.5074827,-9.4212231,-17.89429)"><g id="g2922" transform="matrix(1.1224917,0,0,0.69650797,-3.6775914,-96.400877)"><path id="Symbol-6-90-4" fill="#2a7fff" fill-opacity="1" stroke="none" d="m 296.72681,218.70235 0,-60.94598 -235.533381,0 -60.94597316,0 -236.94301584,0 0,60.94598 236.94301584,0 60.94597316,0 235.533381,0 z" display="inline" opacity=".7"/><path id="Symbol-6-90-1-8" fill="url(#linearGradient2926)" fill-opacity="1" stroke="none" d="m -222.6875,-84.46875 c 430.78132,0 56.99368,0 505.40625,0 0,-10.989583 0,-21.97917 0,-32.96875 -168.46875,0 -336.9375,0 -505.40625,0 0,10.98958 0,21.979167 0,32.96875 z" display="inline" filter="url(#filter4145-3)" opacity=".4" transform="matrix(-1,0,0,-1,60.038811,87.272561)"/></g></g></g></g></svg>