<svg xmlns="http://www.w3.org/2000/svg" xmlns:svg="http://www.w3.org/2000/svg" xmlns:xlink="http://www.w3.org/1999/xlink" id="svg2" width="1000" height="700" version="1.1"><defs id="defs4"><linearGradient id="linearGradient8562" x1="-213.564" x2="253.595" y1="24.514" y2="24.514" gradientTransform="matrix(0,1,-1,0,44.530081,4.498828)" gradientUnits="userSpaceOnUse" xlink:href="#linearGradient3641"/><linearGradient id="linearGradient3641"><stop id="stop3643" offset="0" stop-color="#fff" stop-opacity="1"/><stop id="stop3645" offset="1" stop-color="#fff" stop-opacity="0"/></linearGradient><linearGradient id="linearGradient6791" x1="-213.564" x2="253.595" y1="24.514" y2="24.514" gradientTransform="matrix(0,1,-1,0,44.530081,4.498828)" gradientUnits="userSpaceOnUse" xlink:href="#linearGradient3641"/><linearGradient id="linearGradient10554" x1="-219.851" x2="74.444" y1="137.424" y2="137.424" gradientUnits="userSpaceOnUse" xlink:href="#linearGradient3641-6"/><linearGradient id="linearGradient3641-6"><stop id="stop3643-4" offset="0" stop-color="#fff" stop-opacity="1"/><stop id="stop3645-9" offset="1" stop-color="#fff" stop-opacity="0"/></linearGradient><linearGradient id="linearGradient10556" x1="-219.663" x2="279.881" y1="34.625" y2="34.625" gradientUnits="userSpaceOnUse" xlink:href="#linearGradient3641-6"/><linearGradient id="linearGradient3179" x1="-219.663" x2="279.881" y1="34.625" y2="34.625" gradientUnits="userSpaceOnUse" xlink:href="#linearGradient3641-6"/><linearGradient id="linearGradient3641-6-0"><stop id="stop3643-4-4" offset="0" stop-color="#fff" stop-opacity="1"/><stop id="stop3645-9-8" offset="1" stop-color="#fff" stop-opacity="0"/></linearGradient><linearGradient id="linearGradient3275" x1="-219.851" x2="74.444" y1="137.424" y2="137.424" gradientUnits="userSpaceOnUse" xlink:href="#linearGradient3641-6-0"/><linearGradient id="linearGradient3279" x1="-181.867" x2="2.605" y1="212.954" y2="28.482" gradientUnits="userSpaceOnUse" xlink:href="#linearGradient3641-6-0"/><linearGradient id="linearGradient3285" x1="-181.867" x2="2.605" y1="212.954" y2="28.482" gradientUnits="userSpaceOnUse" xlink:href="#linearGradient3641-6-0"/><linearGradient id="linearGradient5003" x1="-181.867" x2="2.605" y1="212.954" y2="28.482" gradientUnits="userSpaceOnUse" xlink:href="#linearGradient3641-6-0"/><linearGradient id="linearGradient5011" x1="-181.867" x2="2.605" y1="212.954" y2="28.482" gradientUnits="userSpaceOnUse" xlink:href="#linearGradient3641-6-0"/><linearGradient id="linearGradient5017" x1="-181.867" x2="2.605" y1="212.954" y2="28.482" gradientUnits="userSpaceOnUse" xlink:href="#linearGradient3641-6-0"/><linearGradient id="linearGradient5022" x1="-181.867" x2="2.605" y1="212.954" y2="28.482" gradientUnits="userSpaceOnUse" xlink:href="#linearGradient3641-6-0"/><linearGradient id="linearGradient3637"><stop id="stop3639" offset="0" stop-color="#f0f0f0" stop-opacity="1"/><stop id="stop3641" offset="1" stop-color="#aaa" stop-opacity="1"/></linearGradient><linearGradient id="linearGradient3741" x1="-189.496" x2="249.49" y1="34.822" y2="34.822" gradientUnits="userSpaceOnUse" xlink:href="#linearGradient3641"/><linearGradient id="linearGradient3765" x1="48" x2="48" y1="76" y2="20" gradientTransform="matrix(9.9895684,0,0,9.9895684,-1275.6462,-551.44847)" gradientUnits="userSpaceOnUse" xlink:href="#linearGradient4081"/><linearGradient id="linearGradient4081"><stop id="stop4083" offset="0" stop-color="#aaa" stop-opacity="1"/><stop id="stop4085" offset="1" stop-color="#f0f0f0" stop-opacity="1"/></linearGradient><linearGradient id="linearGradient3741-4" x1="-189.496" x2="249.49" y1="34.822" y2="34.822" gradientUnits="userSpaceOnUse" xlink:href="#linearGradient3641-9"/><linearGradient id="linearGradient3641-9"><stop id="stop3643-5" offset="0" stop-color="#fff" stop-opacity="1"/><stop id="stop3645-0" offset="1" stop-color="#fff" stop-opacity="0"/></linearGradient><linearGradient id="linearGradient2947" x1="-189.496" x2="249.49" y1="34.822" y2="34.822" gradientTransform="translate(-31.96339,-249.30259)" gradientUnits="userSpaceOnUse" xlink:href="#linearGradient3641-9"/><linearGradient id="linearGradient3765-7" x1="48" x2="48" y1="76" y2="20" gradientUnits="userSpaceOnUse" xlink:href="#linearGradient4081-7"/><linearGradient id="linearGradient4081-7"><stop id="stop4083-6" offset="0" stop-color="#aaa" stop-opacity="1"/><stop id="stop4085-7" offset="1" stop-color="#f0f0f0" stop-opacity="1"/></linearGradient><linearGradient id="linearGradient4118" x1="329.131" x2="718.76" y1="-232.328" y2="-232.328" gradientUnits="userSpaceOnUse" xlink:href="#linearGradient3641"/><linearGradient id="linearGradient4132" x1="329.131" x2="718.76" y1="-232.328" y2="-232.328" gradientUnits="userSpaceOnUse" xlink:href="#linearGradient3641"/><linearGradient id="linearGradient3772" x1="-253.516" x2="313.506" y1="116.797" y2="116.797" gradientUnits="userSpaceOnUse" xlink:href="#linearGradient3641"/><filter id="filter3778" color-interpolation-filters="sRGB"><feGaussianBlur id="feGaussianBlur3780" stdDeviation="7.575"/></filter><linearGradient id="linearGradient2966" x1="-253.516" x2="313.506" y1="116.797" y2="116.797" gradientUnits="userSpaceOnUse" xlink:href="#linearGradient3641"/></defs><metadata id="metadata7"/><g id="layer1" transform="translate(464.16179,164.03236)"><g id="g4082" transform="translate(0,1.552561)"><g id="g4060" transform="matrix(1.5074827,0,0,1.5074827,-9.4212231,-17.89429)"><g id="g2962" transform="translate(0.0280538,17.406685)"><path id="path4473" fill="#2a7fff" fill-opacity="1" stroke="none" stroke-width="19.901" d="m -243.28913,-87.23987 c -7.55637,1.20931 -14.25712,0.27704 -18.42017,6.58368 -4.16305,6.30665 -4.97418,20.03834 -3.01733,28.01007 2.18756,10.13145 9.41932,18.18901 11.97383,28.24983 21.60625,54.068623 38.92239,112.408716 30.74492,171.21892 -6.16164,49.07093 -24.58108,95.67783 -44.375,140.6875 -1.40158,7.95224 -1.84975,22.06692 5.64041,27.41439 7.07127,5.04842 12.61729,2.76494 19.73459,3.30436 11.48763,1.8811 21.69475,-5.56769 32.81613,-6.82356 104.63713,-26.78135 213.8368535,-43.97404 321.86513,-29.93994 66.59145,7.46534 132.10028,22.72066 196.47499,41.23225 3.62568,-5.72778 3.17077,-3.67968 11.45334,-7.74378 8.28258,-4.06411 6.74127,-30.28364 0.0369,-38.96315 -14.27697,-30.3762 -25.39526,-62.38047 -33.59809,-94.95308 -9.91013,-41.57033 -11.303,-85.87269 -0.64215,-127.37124 8.17695,-36.90015 22.22564,-72.17333 38.15625,-106.3125 2.09338,-8.11269 0.29224,-25.39545 -4.60916,-28.82064 -4.90139,-3.4252 -9.4685,-1.83593 -15.67209,-3.30436 -11.51015,-4.72829 -22.59918,3.80635 -33.89648,5.15629 C 166.85324,-52.1471 57.668506,-35.02496 -50.453793,-48.19794 -115.56842,-55.29935 -179.58346,-70.107 -242.69538,-87.45862 l -0.59375,0.21875 z m 498.75,66.25 c -6.17614,17.045033 -11.84613,34.260294 -16.0625,51.90625 -29.60417,0 -59.20833,0 -88.8125,0 0,-10.833333 0,-21.666667 0,-32.5 35.41304,-5.035167 70.4883,-12.180966 105.25,-20.4375 l -0.34174,0.93979 -0.0333,0.0915 4e-5,-4e-5 z m -446.65625,0.53125 c 31.17826,7.434775 62.67077,13.594011 94.375,18.375 0,11 0,22 0,33 -27.54167,0 -55.08333,0 -82.625,0 -4.30455,-17.834333 -10.06382,-35.245602 -16.34375,-52.46875 1.53125,0.36458 3.0625,0.72917 4.59375,1.09375 z m 148.75,25.4375 c 46.9136932,4.567218 94.266291,4.625324 141.1875,0.125 0,8.604167 0,17.208333 0,25.8125 -45.28125,0 -103.9331872,0 -149.214437,0 0,72.89032 -0.815511,4.897652 -0.815511,51.90625 18.645833,0 131.384115,0 150.029948,0 0,20.91667 0,41.83333 0,62.75 -17.972972,0.90672 -131.558698,-0.69405 -149.234576,2.40625 -24.547341,16.37692 -1.177047,21.39406 -1.177047,49.15625 42.5624997,0 107.849123,0 150.411623,0 0,10.10417 0,20.20833 0,30.3125 -47.719373,-4.39982 -95.8654785,-4.06752 -143.53125,0.84375 0.325448,-10.22576 0.53125,-31.125 0.53125,-31.125 0,0 -0.65625,-39.93454 -0.65625,-52.03125 0,0 0.75,-62.03125 0.75,-62.03125 0,0 -0.71875,-54 -0.71875,-54 0,0 -0.07782,-16.250105 0,-24.375 0.8125,0.08333 1.625,0.166667 2.4375,0.25 z m -54.375,77.84375 c 0,20.78125 0,41.5625 0,62.34375 -24.145,-0.22884 -48.30212,0.69974 -72.4375,-0.3125 2.12968,-20.60815 1.99659,-41.44969 -0.375,-62.03125 24.27083,0 48.54167,0 72.8125,0 z m 326.40625,0 c -2.56031,20.69342 -2.48864,41.67335 -0.40625,62.40625 -26.19792,0 -52.39583,0 -78.59375,0 0,-20.80208 0,-41.60417 0,-62.40625 26.33333,0 52.66667,0 79,0 z m -326.40625,114.3125 c 0,12.69792 0,25.39583 0,38.09375 -33.48463,5.21142 -66.7524,11.77088 -99.65625,19.75 7.02178,-18.93104 13.07692,-38.19862 17.8125,-57.84375 27.28125,0 54.5625,0 81.84375,0 z m 335.40625,0 c 4.62351,19.49436 10.74414,38.57744 17.625,57.375 -34.88219,-8.36691 -70.08183,-15.50439 -105.625,-20.46875 0,-12.30208 0,-24.60417 0,-36.90625 29.33333,0 58.66667,0 88,0 z" color="#000" direction="ltr" display="inline" enable-background="accumulate" font-family="Bitstream Vera Sans" font-size="medium" font-stretch="normal" font-style="normal" font-variant="normal" font-weight="normal" letter-spacing="normal" opacity=".7" overflow="visible" text-anchor="start" text-decoration="none" visibility="visible" word-spacing="normal" writing-mode="lr-tb" style="text-indent:0;text-align:start;line-height:normal;text-transform:none;block-progression:tb;marker:none;-inkscape-font-specification:Bitstream Vera Sans"/><path font-stretch="normal" style="text-indent:0;text-align:start;line-height:normal;text-transform:none;block-progression:tb;marker:none;-inkscape-font-specification:Bitstream Vera Sans" id="path4473-9" fill="url(#linearGradient2966)" fill-opacity="1" stroke="none" stroke-width="19.901" d="m -247.28125,-73.125 c -5.21818,-0.0057 -4.47665,6.369921 -4.46875,9.9375 0.89651,16.8894 12.75807,30.47147 17.12235,46.534134 21.99224,56.68305 36.05552,118.992406 24.50265,179.715866 -7.68173,45.96503 -26.73897,89.02429 -43.1875,132.4375 -0.67547,3.66889 0.14485,10.21638 5.375,8.84375 21.59973,1.14229 41.26685,-9.75304 62.28125,-12.96875 104.636326,-25.23294 214.129794,-37.95934 321.1875,-21.375 57.6341,7.92072 114.34751,21.29607 170.34375,36.75 3.01645,-1.61065 9.00885,-2.12267 7.34375,-7 C 313.11649,281.04533 299.6359,266.16743 294.875,248.6875 271.49016,190.08788 258.03723,125.15547 271.09375,62.40625 c 7.63621,-42.137368 24.60267,-81.770364 41,-121.0625 -0.0587,-3.660972 1.0865,-8.214992 -0.875,-11.375 -11.51181,-3.15336 -23.37523,-0.668694 -34.26754,3.419248 -110.97196,29.793926 -227.496352,46.430236 -342.13871,31.049502 -61.38515,-7.719095 -121.3645,-22.95227 -181.25,-37.53125 -0.28297,0.03282 -0.56377,-0.128219 -0.84375,-0.03125 z m 523.9375,34.9375 c -10.16033,27.298905 -20.13065,54.586312 -26.1875,83.09375 -37.95833,0 -75.91667,0 -113.875,0 0,-19.552083 0,-39.1041667 0,-58.65625 47.69211,-6.276133 94.71125,-16.416604 141.34375,-27.96875 -0.42708,1.177083 -0.85417,2.354167 -1.28125,3.53125 z M -214.375,-40.375 c 43.42224,10.748973 87.21098,20.031019 131.5625,26.21875 0,19.6875 0,39.375 0,59.0625 -35.88542,0 -71.77083,0 -107.65625,0 -6.47327,-29.551133 -16.75166,-57.94946 -27.59375,-86.15625 1.22917,0.291667 2.45833,0.583333 3.6875,0.875 z M -56.5,-10.59375 c 56.15954503,6.6212953 113.066469,6.5914262 169.25,0.25 0,18.4166667 0,36.833333 0,55.25 -57.125,0 -114.25,0 -171.375,0 -0.336706,-18.570959 -0.396344,-37.1477124 -0.03125,-55.71875 0.71875,0.07292 1.4375,0.145833 2.15625,0.21875 z M -183.28125,68.8125 c 33.48958,0 66.97917,0 100.46875,0 0,30.125 0,60.25 0,90.375 -33.98676,-0.48829 -68.01903,1.1449 -101.96875,-1.09375 4.06869,-29.52162 4.08546,-59.855122 -0.84375,-89.28125 0.78125,0 1.5625,0 2.34375,0 z m 127.125,0 c 56.30208333,0 112.604167,0 168.90625,0 0,30.104167 0,60.20833 0,90.3125 -57.20206,1.93389 -114.4975793,-0.63387 -171.65625,2.84375 0.103252,-31.05309 0.643849,-62.103178 0.75,-93.15625 l 1,0 1,0 z m 194.75,0 c 35.75,0 71.5,0 107.25,0 -5.58754,29.746807 -5.11142,60.50939 -1.03125,90.40625 -36.07292,0 -72.14583,0 -108.21875,0 0,-30.13542 0,-60.270833 0,-90.40625 l 1,0 1,0 z m -326.75,114.3125 c 35.11458,0 70.22917,0 105.34375,0 0,21.375 0,42.75 0,64.125 -45.93436,6.73551 -91.37868,16.14095 -136.3125,27.65625 12.06302,-29.86304 22.49332,-60.29583 29.375,-91.78125 l 1,0 0.59375,0 z m 132.0625,0 c 56.28125,0 112.5625,0 168.84375,0 0,19.89583 0,39.79167 0,59.6875 -57.119054,-6.149 -114.9411663,-5.88681 -171.96875,1.125 0.649486,-20.26487 0.871117,-40.54009 1.15625,-60.8125 l 1,0 0.96875,0 z m 194.6875,0 c 37.04167,0 74.08333,0 111.125,0 6.67537,31.28609 17.26289,61.3514 28.84375,91.1875 -46.82425,-11.72557 -94.03347,-21.94862 -141.96875,-28.0625 0,-21.04167 0,-42.08333 0,-63.125 l 1,0 1,0 z" color="#000" direction="ltr" display="inline" enable-background="accumulate" filter="url(#filter3778)" font-family="Bitstream Vera Sans" font-size="medium" font-style="normal" font-variant="normal" font-weight="normal" letter-spacing="normal" opacity=".4" overflow="visible" text-anchor="start" text-decoration="none" visibility="visible" word-spacing="normal" writing-mode="lr-tb"/></g></g></g></g></svg>