<svg xmlns="http://www.w3.org/2000/svg" xmlns:svg="http://www.w3.org/2000/svg" xmlns:xlink="http://www.w3.org/1999/xlink" id="svg2" width="1000" height="700" version="1.1"><defs id="defs4"><linearGradient id="linearGradient8562" x1="-213.564" x2="253.595" y1="24.514" y2="24.514" gradientTransform="matrix(0,1,-1,0,44.530081,4.498828)" gradientUnits="userSpaceOnUse" xlink:href="#linearGradient3641"/><linearGradient id="linearGradient3641"><stop id="stop3643" offset="0" stop-color="#fff" stop-opacity="1"/><stop id="stop3645" offset="1" stop-color="#fff" stop-opacity="0"/></linearGradient><linearGradient id="linearGradient6791" x1="-213.564" x2="253.595" y1="24.514" y2="24.514" gradientTransform="matrix(0,1,-1,0,44.530081,4.498828)" gradientUnits="userSpaceOnUse" xlink:href="#linearGradient3641"/><linearGradient id="linearGradient10554" x1="-219.851" x2="74.444" y1="137.424" y2="137.424" gradientUnits="userSpaceOnUse" xlink:href="#linearGradient3641-6"/><linearGradient id="linearGradient3641-6"><stop id="stop3643-4" offset="0" stop-color="#fff" stop-opacity="1"/><stop id="stop3645-9" offset="1" stop-color="#fff" stop-opacity="0"/></linearGradient><linearGradient id="linearGradient10556" x1="-219.663" x2="279.881" y1="34.625" y2="34.625" gradientUnits="userSpaceOnUse" xlink:href="#linearGradient3641-6"/><linearGradient id="linearGradient3179" x1="-219.663" x2="279.881" y1="34.625" y2="34.625" gradientUnits="userSpaceOnUse" xlink:href="#linearGradient3641-6"/><linearGradient id="linearGradient3641-6-0"><stop id="stop3643-4-4" offset="0" stop-color="#fff" stop-opacity="1"/><stop id="stop3645-9-8" offset="1" stop-color="#fff" stop-opacity="0"/></linearGradient><linearGradient id="linearGradient3275" x1="-219.851" x2="74.444" y1="137.424" y2="137.424" gradientUnits="userSpaceOnUse" xlink:href="#linearGradient3641-6-0"/><linearGradient id="linearGradient3279" x1="-181.867" x2="2.605" y1="212.954" y2="28.482" gradientUnits="userSpaceOnUse" xlink:href="#linearGradient3641-6-0"/><linearGradient id="linearGradient3285" x1="-181.867" x2="2.605" y1="212.954" y2="28.482" gradientUnits="userSpaceOnUse" xlink:href="#linearGradient3641-6-0"/><linearGradient id="linearGradient5003" x1="-181.867" x2="2.605" y1="212.954" y2="28.482" gradientUnits="userSpaceOnUse" xlink:href="#linearGradient3641-6-0"/><linearGradient id="linearGradient5011" x1="-181.867" x2="2.605" y1="212.954" y2="28.482" gradientUnits="userSpaceOnUse" xlink:href="#linearGradient3641-6-0"/><linearGradient id="linearGradient5017" x1="-181.867" x2="2.605" y1="212.954" y2="28.482" gradientUnits="userSpaceOnUse" xlink:href="#linearGradient3641-6-0"/><linearGradient id="linearGradient5022" x1="-181.867" x2="2.605" y1="212.954" y2="28.482" gradientUnits="userSpaceOnUse" xlink:href="#linearGradient3641-6-0"/><linearGradient id="linearGradient3637"><stop id="stop3639" offset="0" stop-color="#f0f0f0" stop-opacity="1"/><stop id="stop3641" offset="1" stop-color="#aaa" stop-opacity="1"/></linearGradient><linearGradient id="linearGradient3741" x1="-189.496" x2="249.49" y1="34.822" y2="34.822" gradientUnits="userSpaceOnUse" xlink:href="#linearGradient3641"/><linearGradient id="linearGradient3765" x1="48" x2="48" y1="76" y2="20" gradientTransform="matrix(9.9895684,0,0,9.9895684,-1275.6462,-551.44847)" gradientUnits="userSpaceOnUse" xlink:href="#linearGradient4081"/><linearGradient id="linearGradient4081"><stop id="stop4083" offset="0" stop-color="#aaa" stop-opacity="1"/><stop id="stop4085" offset="1" stop-color="#f0f0f0" stop-opacity="1"/></linearGradient><linearGradient id="linearGradient3741-4" x1="-189.496" x2="249.49" y1="34.822" y2="34.822" gradientUnits="userSpaceOnUse" xlink:href="#linearGradient3641-9"/><linearGradient id="linearGradient3641-9"><stop id="stop3643-5" offset="0" stop-color="#fff" stop-opacity="1"/><stop id="stop3645-0" offset="1" stop-color="#fff" stop-opacity="0"/></linearGradient><linearGradient id="linearGradient2947" x1="-189.496" x2="249.49" y1="34.822" y2="34.822" gradientTransform="translate(-31.96339,-249.30259)" gradientUnits="userSpaceOnUse" xlink:href="#linearGradient3641-9"/><linearGradient id="linearGradient3765-7" x1="48" x2="48" y1="76" y2="20" gradientUnits="userSpaceOnUse" xlink:href="#linearGradient4081-7"/><linearGradient id="linearGradient4081-7"><stop id="stop4083-6" offset="0" stop-color="#aaa" stop-opacity="1"/><stop id="stop4085-7" offset="1" stop-color="#f0f0f0" stop-opacity="1"/></linearGradient><linearGradient id="linearGradient4118" x1="329.131" x2="718.76" y1="-232.328" y2="-232.328" gradientUnits="userSpaceOnUse" xlink:href="#linearGradient3641"/><linearGradient id="linearGradient4132" x1="329.131" x2="718.76" y1="-232.328" y2="-232.328" gradientUnits="userSpaceOnUse" xlink:href="#linearGradient3641"/><linearGradient id="linearGradient18974" x1="-28.656" x2="77.563" y1="36.172" y2="36.172" gradientUnits="userSpaceOnUse" xlink:href="#linearGradient3641"/><linearGradient id="linearGradient4759" x1="-253.501" x2="313.408" y1="133.233" y2="133.233" gradientUnits="userSpaceOnUse" xlink:href="#linearGradient3641"/><filter id="filter4765"><feGaussianBlur id="feGaussianBlur4767" stdDeviation="7.573"/></filter></defs><metadata id="metadata7"/><g id="layer1" transform="translate(464.16179,164.03236)"><g id="g4082" transform="translate(0,1.552561)"><g id="g4060" transform="matrix(1.5074827,0,0,1.5074827,-9.4212231,-17.89429)"><g id="g3382" transform="translate(-9.3814208e-8,98.281568)"><path id="path4473" fill="#2a7fff" fill-opacity="1" stroke="none" stroke-width="19.901" d="m -243.28913,-168.9375 c -7.55637,1.20931 -14.25712,0.27704 -18.42017,6.58368 -4.16305,6.30665 -4.97418,20.03834 -3.01733,28.01007 2.18756,10.13145 9.41932,18.18901 11.97383,28.24983 21.60625,54.068623 38.92239,112.4087166 30.74492,171.21892 -6.16164,49.07093 -24.58108,95.67783 -44.375,140.6875 -1.40158,7.95224 -1.84975,22.06692 5.64041,27.41439 7.07127,5.04842 12.61729,2.76494 19.73459,3.30436 11.48763,1.8811 21.69475,-5.56769 32.81613,-6.82356 104.63713,-26.78135 213.8368536,-43.97404 321.86513,-29.93994 66.59145,7.46534 132.10028,22.72066 196.47499,41.23225 3.62568,-5.72778 3.17077,-3.67968 11.45334,-7.74378 8.28258,-4.06411 6.74127,-30.28364 0.0369,-38.96315 -14.27697,-30.3762 -25.39526,-62.38047 -33.59809,-94.953081 -9.91013,-41.570332 -11.303,-85.872689 -0.64215,-127.371239 8.17695,-36.90015 22.22564,-72.17333 38.15625,-106.3125 2.09338,-8.11269 0.29224,-25.39545 -4.60916,-28.82064 -4.90139,-3.4252 -9.4685,-1.83593 -15.67209,-3.30436 -11.51015,-4.72829 -22.59918,3.80635 -33.89648,5.15629 -104.52365,27.46773 -213.708384,44.58987 -321.830683,31.41689 -65.114627,-7.10141 -129.129667,-21.90906 -192.241587,-39.26068 l -0.59375,0.21875 z m 498.75,66.25 c -6.17614,17.045033 -11.84613,34.260294 -16.0625,51.90625 -29.60417,0 -59.20833,0 -88.8125,0 0,-10.833333 0,-21.666667 0,-32.5 35.41304,-5.035167 70.4883,-12.180966 105.25,-20.4375 l -0.34174,0.93979 -0.0333,0.0915 4e-5,-4e-5 z m -446.65625,0.53125 c 31.17826,7.434775 62.67077,13.594011 94.375,18.375 0,11 0,22 0,33 -27.54167,0 -55.08333,0 -82.625,0 -4.30455,-17.834333 -10.06382,-35.245602 -16.34375,-52.46875 1.53125,0.36458 3.0625,0.72917 4.59375,1.09375 z m 148.75,25.4375 c 46.9136933,4.567218 94.266291,4.625324 141.1875,0.125 0,8.604167 0,17.208333 0,25.8125 -45.28125,0 -76.573898,0 -121.855148,0 93.045157,62.933327 -6.394203,-3.867745 76.632322,51.9062503 18.645833,0 26.576993,0 45.222826,0 0,20.9166667 0,41.8333327 0,62.7499997 C 80.769148,64.781724 78.725139,63.180954 61.049261,66.28125 36.50192,82.658166 12.850879,99.040198 -11.68285,115.4375 c 42.5625,0 67.86247,0 110.42497,0 0,10.10417 0,20.20833 0,30.3125 -47.719373,-4.39982 -95.8654784,-4.06752 -143.53125,0.84375 0.325448,-10.22576 0.53125,-31.125 0.53125,-31.125 0,0 -0.65625,-39.934544 -0.65625,-52.03125 0,0 0.75,-62.0312497 0.75,-62.0312497 0,0 -0.71875,-54.0000003 -0.71875,-54.0000003 0,0 -0.07782,-16.250105 0,-24.375 0.8125,0.08333 1.625,0.166667 2.4375,0.25 z m -54.375,77.8437503 c 0,20.7812497 0,41.5624997 0,62.3437497 -24.145,-0.228841 -48.30212,0.69974 -72.4375,-0.3125 2.12968,-20.608155 1.99659,-41.449689 -0.375,-62.0312497 24.27083,0 48.54167,0 72.8125,0 z m 326.40625,0 c -2.56031,20.6934157 -2.48864,41.6733517 -0.40625,62.4062497 -26.19792,0 -52.39583,0 -78.59375,0 0,-20.802083 0,-41.604167 0,-62.4062497 26.33333,0 52.66667,0 79,0 z M -96.82038,115.4375 c 0,12.69792 0,25.39583 0,38.09375 -33.48463,5.21142 -66.7524,11.77088 -99.65625,19.75 7.02178,-18.93104 13.07692,-38.19862 17.8125,-57.84375 27.28125,0 54.5625,0 81.84375,0 z m 335.40625,0 c 4.62351,19.49436 10.74414,38.57744 17.625,57.375 -34.88219,-8.36691 -70.08183,-15.50439 -105.625,-20.46875 0,-12.30208 0,-24.60417 0,-36.90625 29.33333,0 58.66667,0 88,0 z" color="#000" direction="ltr" display="inline" enable-background="accumulate" font-family="Bitstream Vera Sans" font-size="medium" font-stretch="normal" font-style="normal" font-variant="normal" font-weight="normal" letter-spacing="normal" opacity=".7" overflow="visible" text-anchor="start" text-decoration="none" visibility="visible" word-spacing="normal" writing-mode="lr-tb" style="text-indent:0;text-align:start;line-height:normal;text-transform:none;block-progression:tb;marker:none;-inkscape-font-specification:Bitstream Vera Sans"/><path id="Symbol-4-6-8-8-4" fill="green" fill-opacity="1" stroke="none" d="m -44.658378,-8.695836 0,-56.704624 150.718458,102.186044 -150.718458,100.458626 0,-55.699726 0,-90.24032 z" display="inline" opacity=".7"/></g><path font-stretch="normal" style="text-indent:0;text-align:start;line-height:normal;text-transform:none;block-progression:tb;marker:none;-inkscape-font-specification:Bitstream Vera Sans" id="path4473-3" fill="url(#linearGradient4759)" fill-opacity="1" stroke="none" stroke-width="19.901" d="m -247.34375,-56.5625 c -5.21107,0.08424 -4.39742,6.39087 -4.375,9.9375 0.81504,16.985118 12.79494,30.598111 17.11377,46.64163512 22.29466,57.35413688 36.33423,120.55746488 24.05864,181.93732488 -7.83791,45.5285 -27.16507,87.92213 -42.85991,131.04604 -0.43498,3.39559 0.52191,9.19446 5.25,7.90625 22.25446,1.08095 42.53003,-9.97753 64.1875,-13.34375 104.535771,-25.06652 213.886489,-37.52314 320.78125,-20.84375 57.31257,7.88214 113.7529,21.82643 169.53125,36.34375 2.66382,-1.46641 8.23846,-1.66981 6.84375,-6.0625 0.44998,-18.7981 -13.41878,-33.55462 -18.02793,-51.01164 C 271.12982,206.19895 257.58358,139.45983 271.75,75.46875 279.58265,34.397041 296.68145,-4.1213879 312,-42.75 c -0.11216,-3.729549 2.46275,-10.833483 -3.28125,-11.21875 -16.52193,-3.909288 -31.98547,5.260538 -47.90935,8.169411 -108.11132,27.6676 -221.493011,42.012514 -332.634683,25.903182 -59.141617,-7.8882 -117.089987,-22.611773 -174.893467,-36.666343 -0.21141,0.0388 -0.41649,-0.09145 -0.625,0 z m 524,34.96875 C 266.48175,5.6529542 256.5265,33.000366 250.46875,61.5 c -37.95833,0 -75.91667,0 -113.875,0 0,-19.552083 0,-39.104167 0,-58.65625 47.69579,-6.2581858 94.70208,-16.457456 141.34375,-27.96875 -0.42708,1.177083 -0.85417,2.354167 -1.28125,3.53125 z m -491.03125,-2.1875 c 43.42005,10.777287 87.21995,19.9798232 131.5625,26.25 0,19.677083 0,39.354167 0,59.03125 -35.88542,0 -71.77083,0 -107.65625,0 -6.47327,-29.551133 -16.75166,-57.94946 -27.59375,-86.15625 1.22917,0.291667 2.45833,0.583333 3.6875,0.875 z M -56.5,6 c 56.16083269,6.619967 113.064579,6.573382 169.25,0.25 0,18.416667 0,36.833333 0,55.25 -30.09375,0 -60.1875,0 -90.28125,0 12.145386,7.777383 23.780934,17.178205 36.28125,23.90625 18,0 36,0 54,0 0,29.58333 0,59.16667 0,88.75 -17.369539,6.06563 -38.161458,-3.28478 -53.733177,8.59356 -8.315568,5.70611 -16.710483,11.29516 -25.048073,16.96894 26.260417,0 52.520833,0 78.78125,0 0,19.90625 0,39.8125 0,59.71875 -57.079518,-6.28806 -114.8781594,-5.87486 -171.875,1.09375 1.340638,-84.91168 -0.02433,-169.837965 0.46875,-254.75 C -57.9375,5.8541667 -57.21875,5.9270833 -56.5,6 z m -126.78125,79.40625 c 33.48958,0 66.97917,0 100.46875,0 0,30.11458 0,60.22917 0,90.34375 -33.99819,-0.31921 -68.03321,0.98869 -102,-1 4.12278,-29.54051 4.11331,-59.89587 -0.8125,-89.34375 0.78125,0 1.5625,0 2.34375,0 z m 321.875,0 c 35.75,0 71.5,0 107.25,0 -5.58754,29.74681 -5.11142,60.50939 -1.03125,90.40625 -36.07292,0 -72.14583,0 -108.21875,0 0,-30.13542 0,-60.27083 0,-90.40625 l 1,0 1,0 z m -326.75,114.3125 c 35.11458,0 70.22917,0 105.34375,0 0,21.375 0,42.75 0,64.125 -45.9166,6.71756 -91.33542,16.15081 -136.25,27.65625 11.96877,-29.89754 22.44934,-60.28839 29.3125,-91.78125 l 1,0 0.59375,0 z m 326.75,0 c 37.05208,0 74.10417,0 111.15625,0 6.51292,31.2398 17.34883,61.44146 28.875,91.21875 -46.82586,-11.7484 -94.07635,-21.99727 -142.03125,-28.09375 0,-21.04167 0,-42.08333 0,-63.125 l 1,0 1,0 z" color="#000" direction="ltr" display="inline" enable-background="accumulate" filter="url(#filter4765)" font-family="Bitstream Vera Sans" font-size="medium" font-style="normal" font-variant="normal" font-weight="normal" letter-spacing="normal" opacity=".4" overflow="visible" text-anchor="start" text-decoration="none" visibility="visible" word-spacing="normal" writing-mode="lr-tb"/></g></g></g></svg>