<svg xmlns="http://www.w3.org/2000/svg" xmlns:svg="http://www.w3.org/2000/svg" xmlns:xlink="http://www.w3.org/1999/xlink" id="svg2" width="1000" height="750" version="1.1"><defs id="defs4"><linearGradient id="linearGradient5662"><stop id="stop5664" offset="0" stop-color="#2a7fff" stop-opacity="1"/><stop id="stop5666" offset="1" stop-color="#2a7fff" stop-opacity="0"/></linearGradient><linearGradient id="linearGradient5654"><stop id="stop5656" offset="0" stop-color="#2a7fff" stop-opacity="1"/><stop id="stop5658" offset="1" stop-color="#2a7fff" stop-opacity=".784"/></linearGradient><linearGradient id="linearGradient8562" x1="-213.564" x2="253.595" y1="24.514" y2="24.514" gradientTransform="matrix(0,1,-1,0,44.530081,4.498828)" gradientUnits="userSpaceOnUse" xlink:href="#linearGradient3641"/><linearGradient id="linearGradient3641"><stop id="stop3643" offset="0" stop-color="#fff" stop-opacity="1"/><stop id="stop3645" offset="1" stop-color="#fff" stop-opacity="0"/></linearGradient><linearGradient id="linearGradient6791" x1="-213.564" x2="253.595" y1="24.514" y2="24.514" gradientTransform="matrix(0,1,-1,0,44.530081,4.498828)" gradientUnits="userSpaceOnUse" xlink:href="#linearGradient3641"/><linearGradient id="linearGradient7354" x1="-1.887" x2="323.882" y1="-163.788" y2="-163.788" gradientTransform="translate(-294.13778,123.54099)" gradientUnits="userSpaceOnUse" xlink:href="#linearGradient3641"/><filter id="filter7698" color-interpolation-filters="sRGB"><feGaussianBlur id="feGaussianBlur7700" stdDeviation="5.64"/></filter><linearGradient id="linearGradient3034" x1="29.827" x2="65.694" y1="51.954" y2="51.954" gradientTransform="matrix(0,-3.8560538,-3.8560538,0,-542.02907,16.00419)" gradientUnits="userSpaceOnUse" xlink:href="#linearGradient4081"/><linearGradient id="linearGradient4081"><stop id="stop4083" offset="0" stop-color="#aaa" stop-opacity="1"/><stop id="stop4085" offset="1" stop-color="#f0f0f0" stop-opacity="1"/></linearGradient><linearGradient id="linearGradient3705" x1="29.827" x2="65.694" y1="51.954" y2="51.954" gradientTransform="matrix(0,-3.8560538,-3.8560538,0,-773.39229,16.00419)" gradientUnits="userSpaceOnUse" xlink:href="#linearGradient4081"/><linearGradient id="linearGradient3083"><stop id="stop3085" offset="0" stop-color="#aaa" stop-opacity="1"/><stop id="stop3087" offset="1" stop-color="#f0f0f0" stop-opacity="1"/></linearGradient><linearGradient id="linearGradient3984" x1="48" x2="48" y1="60" y2="8" gradientTransform="matrix(3.8560538,0,0,3.8560538,-865.93746,8.2921123)" gradientUnits="userSpaceOnUse" xlink:href="#linearGradient4081"/><linearGradient id="linearGradient3090"><stop id="stop3092" offset="0" stop-color="#aaa" stop-opacity="1"/><stop id="stop3094" offset="1" stop-color="#f0f0f0" stop-opacity="1"/></linearGradient><linearGradient id="linearGradient2957" x1="-1.887" x2="323.882" y1="-163.788" y2="-163.788" gradientTransform="translate(-294.13778,123.54099)" gradientUnits="userSpaceOnUse" xlink:href="#linearGradient3641"/><linearGradient id="linearGradient2967" x1="48" x2="48" y1="60" y2="8" gradientTransform="matrix(3.8560538,0,0,3.8560538,-865.93746,8.2921123)" gradientUnits="userSpaceOnUse" xlink:href="#linearGradient4081"/><linearGradient id="linearGradient2972" x1="48" x2="48" y1="60" y2="8" gradientTransform="matrix(9.7170219,0,0,9.7170219,-342.65462,-313.58043)" gradientUnits="userSpaceOnUse" xlink:href="#linearGradient4081"/><linearGradient id="linearGradient17644" x1="25.063" x2="25.063" y1="9" y2="28.083" gradientTransform="translate(-2.3577825e-6,-0.9999361)" gradientUnits="userSpaceOnUse" xlink:href="#linearGradient6293"/><linearGradient id="linearGradient6293"><stop id="stop6295" offset="0" stop-color="#888a85" stop-opacity="1"/><stop id="stop6297" offset="1" stop-color="#555753" stop-opacity="0"/></linearGradient><linearGradient id="linearGradient17646" x1="23.959" x2="23.985" y1="10" y2="42" gradientTransform="matrix(11.880574,0,0,11.880574,-242.31274,-256.14172)" gradientUnits="userSpaceOnUse" xlink:href="#linearGradient17648"/><linearGradient id="linearGradient17648"><stop id="stop17650" offset="0" stop-color="#fff" stop-opacity=".6"/><stop id="stop17652" offset="1" stop-color="#fff" stop-opacity="0"/></linearGradient><linearGradient id="linearGradient2095" x1="302.857" x2="302.857" y1="366.648" y2="609.505" gradientTransform="matrix(2.774389,0,0,1.969706,-1892.179,-872.8854)" gradientUnits="userSpaceOnUse" xlink:href="#linearGradient5048"/><linearGradient id="linearGradient5048"><stop id="stop5050" offset="0" stop-color="#000" stop-opacity="0"/><stop id="stop5056" offset=".5" stop-color="#000" stop-opacity="1"/><stop id="stop5052" offset="1" stop-color="#000" stop-opacity="0"/></linearGradient><radialGradient id="radialGradient2097" cx="605.714" cy="486.648" r="117.143" fx="605.714" fy="486.648" gradientTransform="matrix(2.774389,0,0,1.969706,-1891.633,-872.8854)" gradientUnits="userSpaceOnUse" xlink:href="#linearGradient5060"/><linearGradient id="linearGradient5060"><stop id="stop5062" offset="0" stop-color="#000" stop-opacity="1"/><stop id="stop5064" offset="1" stop-color="#000" stop-opacity="0"/></linearGradient><radialGradient id="radialGradient2099" cx="605.714" cy="486.648" r="117.143" fx="605.714" fy="486.648" gradientTransform="matrix(-2.774389,0,0,1.969706,112.7623,-872.8854)" gradientUnits="userSpaceOnUse" xlink:href="#linearGradient5060"/><linearGradient id="linearGradient9133" x1="71.999" x2="71.999" y1="14.258" y2="19.958" gradientTransform="matrix(4.4052713,0,0,1.9800948,-274.34951,-117.53574)" gradientUnits="userSpaceOnUse" xlink:href="#linearGradient9101"/><linearGradient id="linearGradient9101" x1="71.999" x2="71.999" y1="14.258" y2="19.958" gradientTransform="matrix(1.0033404,0,0,1,-8.2374684,8)" gradientUnits="userSpaceOnUse"><stop id="stop9103" offset=".25" stop-color="#97bf60" stop-opacity="0"/><stop id="stop9105" offset="1" stop-color="#709937" stop-opacity="1"/></linearGradient><linearGradient id="linearGradient9645" x1="28.272" x2="28.272" y1="324.689" y2="409.099" gradientTransform="matrix(4.1768047,0,0,4.2207971,-75.266075,-1472.0003)" gradientUnits="userSpaceOnUse" xlink:href="#linearGradient9073"/><linearGradient id="linearGradient9073"><stop id="stop9075" offset="0" stop-color="#aacb7d" stop-opacity="1"/><stop id="stop9077" offset="1" stop-color="#709937" stop-opacity="1"/></linearGradient><linearGradient id="linearGradient9647" x1="163.026" x2="162.992" y1="17" y2="45" gradientTransform="matrix(11.880574,0,0,11.880574,-1834.3094,-279.90367)" gradientUnits="userSpaceOnUse" xlink:href="#linearGradient9087"/><linearGradient id="linearGradient9087"><stop id="stop9089" offset="0" stop-color="#709937" stop-opacity="1"/><stop id="stop9091" offset="1" stop-color="#51751e" stop-opacity="1"/></linearGradient><linearGradient id="linearGradient9649" x1="7.238" x2="132.86" y1="36.005" y2="35.858" gradientTransform="matrix(5.4060209,0,0,11.201112,-306.47211,-461.42945)" gradientUnits="userSpaceOnUse" xlink:href="#linearGradient10176"/><linearGradient id="linearGradient10176" x1="71.999" x2="71.999" y1="14.258" y2="19.958" gradientTransform="matrix(1.0033404,0,0,1,-8.2374684,8)" gradientUnits="userSpaceOnUse"><stop id="stop10178" offset=".004" stop-color="#feebd6" stop-opacity="0"/><stop id="stop10180" offset=".461" stop-color="#f5f5f5" stop-opacity=".53"/><stop id="stop10182" offset="1" stop-color="#f5f5f5" stop-opacity="0"/></linearGradient><linearGradient id="linearGradient2919" x1="25.063" x2="25.063" y1="9" y2="28.083" gradientTransform="matrix(11.880574,0,0,11.880574,-242.31274,-256.14172)" gradientUnits="userSpaceOnUse" xlink:href="#linearGradient6293"/><linearGradient id="linearGradient9645-4" x1="28.272" x2="28.272" y1="324.689" y2="409.099" gradientTransform="matrix(4.1768047,0,0,4.2207971,-75.266075,-1472.0003)" gradientUnits="userSpaceOnUse" xlink:href="#linearGradient9073-9"/><linearGradient id="linearGradient9073-9"><stop id="stop9075-5" offset="0" stop-color="#aacb7d" stop-opacity="1"/><stop id="stop9077-0" offset="1" stop-color="#709937" stop-opacity="1"/></linearGradient><linearGradient id="linearGradient3926" x1="28.272" x2="28.272" y1="324.689" y2="409.099" gradientTransform="matrix(4.1768047,0,0,4.2207971,-75.266076,-1472.0003)" gradientUnits="userSpaceOnUse" xlink:href="#linearGradient9073-9"/><linearGradient id="linearGradient3949" x1="28.272" x2="28.272" y1="324.689" y2="409.099" gradientTransform="matrix(4.1768047,0,0,4.2207971,-75.266076,-1472.0003)" gradientUnits="userSpaceOnUse" xlink:href="#linearGradient9073-9"/><linearGradient id="linearGradient3953" x1="28.272" x2="28.272" y1="324.689" y2="409.099" gradientTransform="matrix(4.1768047,0,0,4.2207971,-75.266076,-1472.0003)" gradientUnits="userSpaceOnUse" xlink:href="#linearGradient9073-9"/><linearGradient id="linearGradient3957" x1="28.272" x2="28.272" y1="324.689" y2="409.099" gradientTransform="matrix(4.1768047,0,0,4.2207971,-75.266076,-1472.0003)" gradientUnits="userSpaceOnUse" xlink:href="#linearGradient9073-9"/><linearGradient id="linearGradient3961" x1="28.272" x2="28.272" y1="324.689" y2="409.099" gradientTransform="matrix(4.1768047,0,0,4.2207971,-75.266076,-1472.0003)" gradientUnits="userSpaceOnUse" xlink:href="#linearGradient9073-9"/><linearGradient id="linearGradient3965" x1="28.272" x2="28.272" y1="324.689" y2="409.099" gradientTransform="matrix(4.1768047,0,0,4.2207971,-75.266076,-1472.0003)" gradientUnits="userSpaceOnUse" xlink:href="#linearGradient9073-9"/><linearGradient id="linearGradient3969" x1="28.272" x2="28.272" y1="324.689" y2="409.099" gradientTransform="matrix(4.1768047,0,0,4.2207971,-75.266076,-1472.0003)" gradientUnits="userSpaceOnUse" xlink:href="#linearGradient9073-9"/><linearGradient id="linearGradient3973" x1="28.272" x2="28.272" y1="324.689" y2="409.099" gradientTransform="matrix(4.1768047,0,0,4.2207971,-75.266076,-1472.0003)" gradientUnits="userSpaceOnUse" xlink:href="#linearGradient9073-9"/><linearGradient id="linearGradient3977" x1="28.272" x2="28.272" y1="324.689" y2="409.099" gradientTransform="matrix(4.1768047,0,0,4.2207971,-75.266076,-1472.0003)" gradientUnits="userSpaceOnUse" xlink:href="#linearGradient9073-9"/><linearGradient id="linearGradient3981" x1="28.272" x2="28.272" y1="324.689" y2="409.099" gradientTransform="matrix(4.1768047,0,0,4.2207971,-75.266076,-1472.0003)" gradientUnits="userSpaceOnUse" xlink:href="#linearGradient9073-9"/><linearGradient id="linearGradient3985" x1="28.272" x2="28.272" y1="324.689" y2="409.099" gradientTransform="matrix(4.1768047,0,0,4.2207971,-75.266076,-1472.0003)" gradientUnits="userSpaceOnUse" xlink:href="#linearGradient9073-9"/><linearGradient id="linearGradient3989" x1="28.272" x2="28.272" y1="324.689" y2="409.099" gradientTransform="matrix(4.1768047,0,0,4.2207971,-75.266076,-1472.0003)" gradientUnits="userSpaceOnUse" xlink:href="#linearGradient9073-9"/><linearGradient id="linearGradient3993" x1="28.272" x2="28.272" y1="324.689" y2="409.099" gradientTransform="matrix(6.2964608,0,0,6.3627786,341.27826,-1771.3244)" gradientUnits="userSpaceOnUse" xlink:href="#linearGradient9073-9"/><linearGradient id="linearGradient4148" x1="28.272" x2="28.272" y1="324.689" y2="409.099" gradientTransform="matrix(6.2964608,0,0,6.3627786,341.27826,-1771.3244)" gradientUnits="userSpaceOnUse" xlink:href="#linearGradient9073-9"/><linearGradient id="linearGradient4175" x1="28.272" x2="28.272" y1="324.689" y2="409.099" gradientTransform="matrix(6.2964608,0,0,6.3627786,341.27826,-1771.3244)" gradientUnits="userSpaceOnUse" xlink:href="#linearGradient9073-9"/><linearGradient id="linearGradient3285" x1="-181.867" x2="2.605" y1="212.954" y2="28.482" gradientUnits="userSpaceOnUse" xlink:href="#linearGradient3641-6-0"/><linearGradient id="linearGradient3641-6-0"><stop id="stop3643-4-4" offset="0" stop-color="#fff" stop-opacity="1"/><stop id="stop3645-9-8" offset="1" stop-color="#fff" stop-opacity="0"/></linearGradient><linearGradient id="linearGradient3308" x1="-181.867" x2="2.605" y1="212.954" y2="28.482" gradientUnits="userSpaceOnUse" xlink:href="#linearGradient3641-6-0"/><linearGradient id="linearGradient4265" x1="-206.469" x2="291.063" y1="88.339" y2="88.339" gradientUnits="userSpaceOnUse" xlink:href="#linearGradient3641"/><filter id="filter4271" color-interpolation-filters="sRGB"><feGaussianBlur id="feGaussianBlur4273" stdDeviation="6.267"/></filter><linearGradient id="linearGradient4321" x1="-190.913" x2="276.472" y1="-108.198" y2="-108.198" gradientUnits="userSpaceOnUse" xlink:href="#linearGradient5060"/><filter id="filter4327" width="1.043" height="1.381" x="-.021" y="-.19" color-interpolation-filters="sRGB"><feGaussianBlur id="feGaussianBlur4329" stdDeviation="4.158"/></filter><linearGradient id="linearGradient4359" x1="-190.913" x2="276.472" y1="-108.198" y2="-108.198" gradientUnits="userSpaceOnUse" xlink:href="#linearGradient5060"/><linearGradient id="linearGradient4426" x1="-206.469" x2="291.063" y1="88.339" y2="88.339" gradientUnits="userSpaceOnUse" xlink:href="#linearGradient3641"/><linearGradient id="linearGradient4439" x1="-190.913" x2="276.472" y1="-108.198" y2="-108.198" gradientUnits="userSpaceOnUse" xlink:href="#linearGradient5060"/><linearGradient id="linearGradient4441" x1="-206.469" x2="291.063" y1="88.339" y2="88.339" gradientUnits="userSpaceOnUse" xlink:href="#linearGradient3641"/><linearGradient id="linearGradient3006" x1="-190.913" x2="276.472" y1="-108.198" y2="-108.198" gradientUnits="userSpaceOnUse" xlink:href="#linearGradient5060"/><linearGradient id="linearGradient3008" x1="-206.469" x2="291.063" y1="88.339" y2="88.339" gradientUnits="userSpaceOnUse" xlink:href="#linearGradient3641"/><linearGradient id="linearGradient9649-0" x1="7.238" x2="132.86" y1="36.005" y2="35.858" gradientTransform="matrix(6.0524697,0,0,12.540534,-372.22762,-462.5655)" gradientUnits="userSpaceOnUse" xlink:href="#linearGradient10176-2"/><linearGradient id="linearGradient10176-2" x1="71.999" x2="71.999" y1="14.258" y2="19.958" gradientTransform="matrix(1.0033404,0,0,1,-8.2374684,8)" gradientUnits="userSpaceOnUse"><stop id="stop10178-4" offset=".004" stop-color="#feebd6" stop-opacity="0"/><stop id="stop10180-9" offset=".461" stop-color="#f5f5f5" stop-opacity=".53"/><stop id="stop10182-0" offset="1" stop-color="#f5f5f5" stop-opacity="0"/></linearGradient><linearGradient id="linearGradient9073-2"><stop id="stop9075-0" offset="0" stop-color="#e47070" stop-opacity="1"/><stop id="stop9077-06" offset="1" stop-color="#c22f2f" stop-opacity="1"/></linearGradient><linearGradient id="linearGradient9101-8" x1="71.999" x2="71.999" y1="14.258" y2="19.958" gradientTransform="matrix(1.0033404,0,0,1,-8.2374684,8)" gradientUnits="userSpaceOnUse"><stop id="stop9103-7" offset=".25" stop-color="#df5757" stop-opacity="0"/><stop id="stop9105-3" offset="1" stop-color="#c22f2f" stop-opacity="1"/></linearGradient><linearGradient id="linearGradient2095-1" x1="302.857" x2="302.857" y1="366.648" y2="609.505" gradientTransform="matrix(2.774389,0,0,1.969706,-1892.179,-872.8854)" gradientUnits="userSpaceOnUse" xlink:href="#linearGradient5048-0"/><linearGradient id="linearGradient5048-0"><stop id="stop5050-0" offset="0" stop-color="#000" stop-opacity="0"/><stop id="stop5056-5" offset=".5" stop-color="#000" stop-opacity="1"/><stop id="stop5052-0" offset="1" stop-color="#000" stop-opacity="0"/></linearGradient><radialGradient id="radialGradient2097-3" cx="605.714" cy="486.648" r="117.143" fx="605.714" fy="486.648" gradientTransform="matrix(2.774389,0,0,1.969706,-1891.633,-872.8854)" gradientUnits="userSpaceOnUse" xlink:href="#linearGradient5060-1"/><linearGradient id="linearGradient5060-1"><stop id="stop5062-8" offset="0" stop-color="#000" stop-opacity="1"/><stop id="stop5064-0" offset="1" stop-color="#000" stop-opacity="0"/></linearGradient><radialGradient id="radialGradient2099-1" cx="605.714" cy="486.648" r="117.143" fx="605.714" fy="486.648" gradientTransform="matrix(-2.774389,0,0,1.969706,112.7623,-872.8854)" gradientUnits="userSpaceOnUse" xlink:href="#linearGradient5060-1"/><linearGradient id="linearGradient17646-7" x1="23.959" x2="23.985" y1="10" y2="42" gradientTransform="matrix(13.301245,0,0,13.301245,-300.39602,-232.72977)" gradientUnits="userSpaceOnUse" xlink:href="#linearGradient17648-9"/><linearGradient id="linearGradient17648-9"><stop id="stop17650-1" offset="0" stop-color="#fff" stop-opacity=".6"/><stop id="stop17652-0" offset="1" stop-color="#fff" stop-opacity="0"/></linearGradient><linearGradient id="linearGradient17644-3" x1="25.063" x2="25.063" y1="9" y2="28.083" gradientTransform="translate(-2.3577825e-6,-0.9999361)" gradientUnits="userSpaceOnUse" xlink:href="#linearGradient6293-5"/><linearGradient id="linearGradient6293-5"><stop id="stop6295-9" offset="0" stop-color="#888a85" stop-opacity="1"/><stop id="stop6297-4" offset="1" stop-color="#555753" stop-opacity="0"/></linearGradient><linearGradient id="linearGradient5660" x1="18.836" x2="18.836" y1="339.223" y2="-617.669" gradientUnits="userSpaceOnUse" xlink:href="#linearGradient5654"/><linearGradient id="linearGradient5668" x1="-12.328" x2="-9.364" y1="-39.862" y2="-272.206" gradientUnits="userSpaceOnUse" xlink:href="#linearGradient5662"/><linearGradient id="linearGradient3846" x1="10.306" x2="10.306" y1="6.966" y2="19.051" gradientTransform="translate(0,-4)" gradientUnits="userSpaceOnUse" xlink:href="#linearGradient3317-0"/><linearGradient id="linearGradient3317-0" x1="11.794" x2="11.794" y1="3.213" y2="20.137" gradientTransform="scale(1.0598527,0.9435274)" gradientUnits="userSpaceOnUse"><stop id="stop3319-7" offset="0" stop-color="#c29556" stop-opacity="1"/><stop id="stop3321-1" offset="1" stop-color="#aa7932" stop-opacity="1"/></linearGradient><linearGradient id="linearGradient3003" x1="10.306" x2="10.306" y1="6.966" y2="19.051" gradientTransform="matrix(24.01818,0,0,24.01818,-243.11281,-159.23075)" gradientUnits="userSpaceOnUse" xlink:href="#linearGradient3317-0"/><linearGradient id="linearGradient3003-6" x1="10.306" x2="10.306" y1="6.966" y2="19.051" gradientTransform="matrix(24.01818,0,0,24.01818,-243.11281,-159.23075)" gradientUnits="userSpaceOnUse" xlink:href="#linearGradient3317-0-4"/><linearGradient id="linearGradient3317-0-4" x1="11.794" x2="11.794" y1="3.213" y2="20.137" gradientTransform="scale(1.0598527,0.9435274)" gradientUnits="userSpaceOnUse"><stop id="stop3319-7-9" offset="0" stop-color="#c29556" stop-opacity="1"/><stop id="stop3321-1-5" offset="1" stop-color="#aa7932" stop-opacity="1"/></linearGradient><linearGradient id="linearGradient3857" x1="10.306" x2="10.306" y1="6.966" y2="19.051" gradientTransform="matrix(24.01818,0,0,24.01818,-243.11282,-159.23075)" gradientUnits="userSpaceOnUse" xlink:href="#linearGradient3317-0-4"/><linearGradient id="linearGradient3879" x1="18.836" x2="18.836" y1="339.223" y2="-617.669" gradientUnits="userSpaceOnUse" xlink:href="#linearGradient5654"/><linearGradient id="linearGradient3883" x1="18.836" x2="18.836" y1="339.223" y2="-617.669" gradientUnits="userSpaceOnUse" xlink:href="#linearGradient5654"/><linearGradient id="linearGradient3887" x1="18.836" x2="18.836" y1="339.223" y2="-617.669" gradientUnits="userSpaceOnUse" xlink:href="#linearGradient5654"/><linearGradient id="linearGradient3891" x1="18.836" x2="18.836" y1="339.223" y2="-617.669" gradientUnits="userSpaceOnUse" xlink:href="#linearGradient5654"/><linearGradient id="linearGradient3895" x1="18.836" x2="18.836" y1="339.223" y2="-617.669" gradientTransform="matrix(1.5074827,0,0,1.5074827,454.74057,197.69063)" gradientUnits="userSpaceOnUse" xlink:href="#linearGradient5654"/></defs><metadata id="metadata7"/><g id="layer1" transform="translate(464.16179,214.03236)"><g id="g4082" transform="translate(0,1.552561)"><g id="g4060" transform="matrix(1.5074827,0,0,1.5074827,-9.4212231,-17.89429)"><path id="path15-4-9" fill="#fff" stroke="none" d="M 316.84375 45.4375 C 316.12896 45.437933 315.40139 45.434078 314.6875 45.46875 C 241.232 47.535768 167.51615 43.078884 94.21875 47.78125 C 80.892678 52.624383 79.472438 68.841326 81.03125 80.96875 C 80.095495 204.20529 80.899935 327.44755 80.5625 450.6875 L 80.5625 690.53125 L 885.75 690.53125 C 884.63666 500.35646 887.74825 310.05155 884 119.96875 C 878.74532 105.70151 860.32 104.90065 847.3125 106.34375 C 694.84271 104.93287 542.13904 107.57775 389.8125 104.84375 C 378.31352 99.365112 372.04274 87.05051 362.28125 79.15625 C 349.71169 66.055859 337.1068 50.141664 318.96875 45.46875 C 318.25488 45.432344 317.55854 45.437067 316.84375 45.4375 z M 512.5625 211.09375 C 632.54228 211.09375 729.78125 308.36399 729.78125 428.34375 C 729.78125 548.32297 632.54228 645.59375 512.5625 645.59375 C 472.99261 645.59375 435.89164 634.64133 403.9375 616.15625 L 440.125 552.8125 C 461.45378 565.17791 486.13418 573.1875 512.5625 573.1875 C 592.54883 573.1875 657.375 508.33007 657.375 428.34375 C 657.375 348.35742 592.54883 283.53125 512.5625 283.53125 C 432.95879 283.53125 368.33552 347.75967 367.71875 427.21875 L 423.15625 427.21875 L 329.25 574.3125 L 236.46875 427.21875 L 295.3125 427.21875 C 295.91617 307.75532 392.95717 211.09375 512.5625 211.09375 z M 486.53125 319.71875 L 522.75 319.71875 L 522.75 428.34375 L 604.1875 428.34375 L 604.1875 464.5625 L 486.53125 464.5625 L 486.53125 428.34375 L 486.53125 319.71875 z M 362.5 584.90625 C 365.06864 587.41552 367.71169 589.89174 370.40625 592.28125 C 367.70906 589.89362 365.07534 587.42542 362.5 584.90625 z" opacity=".4" transform="matrix(0.66335753,0,0,0.66335753,-301.65558,-131.13957)"/><path id="path15-4" fill="none" fill-opacity="1" stroke="#2a7fff" stroke-dasharray="none" stroke-miterlimit="4" stroke-width="13.3" d="m 291.50931,-39.862583 c 0.12037,-19.869931 -6.54658,-26.601586 -26.60239,-26.601586 l -305.928566,0 -33.253231,-33.253038 c -3.541682,-3.450443 -8.293462,-6.651453 -13.301304,-6.651453 l -139.662989,0 c -19.78352,0 -27.01827,6.869614 -26.6026,26.602394 l 0,412.338736 545.35108,0 0,-372.435053 z" opacity=".7"/><path id="path7263" fill="none" stroke="url(#linearGradient17646-7)" stroke-dasharray="none" stroke-miterlimit="4" stroke-opacity="1" stroke-width="13.301" d="m 278.20822,-39.86158 c -0.10025,-12.150946 -0.73789,-13.154319 -13.3013,-13.301295 l -312.579214,0 -33.253235,-33.253037 c -5.841571,-8.197812 -7.303328,-6.234981 -19.951741,-6.650647 l -133.01256,0 c -9.50175,0 -6.65065,4.154048 -6.65065,13.301295 l 0,399.036454 518.7487,0 0,-359.13277 z" opacity=".4"/><g id="g13071" display="inline" transform="matrix(0.31444501,0,0,0.29196398,298.51246,283.46178)"><rect id="rect13073" width="1339.633" height="478.357" x="-1559.252" y="-150.697" fill="url(#linearGradient2095-1)" fill-opacity="1" fill-rule="nonzero" stroke="none" stroke-width="1" display="inline" opacity=".402" overflow="visible" visibility="visible" style="marker:none"/><path id="path13075" fill="url(#radialGradient2097-3)" fill-opacity="1" fill-rule="nonzero" stroke="none" stroke-width="1" d="m -219.61876,-150.68038 c 0,0 0,478.33079 0,478.33079 142.874166,0.90045 345.40022,-107.16966 345.40014,-239.196175 0,-132.026537 -159.436816,-239.134595 -345.40014,-239.134615 z" display="inline" opacity=".402" overflow="visible" visibility="visible" style="marker:none"/><path id="path13077" fill="url(#radialGradient2099-1)" fill-opacity="1" fill-rule="nonzero" stroke="none" stroke-width="1" d="m -1559.2523,-150.68038 c 0,0 0,478.33079 0,478.33079 -142.8742,0.90045 -345.4002,-107.16966 -345.4002,-239.196175 0,-132.026537 159.4368,-239.134595 345.4002,-239.134615 z" display="inline" opacity=".402" overflow="visible" visibility="visible" style="marker:none"/></g><path id="path39053" fill="url(#linearGradient5668)" fill-opacity="1" d="m -247.18109,-46.51303 c 0.04,3.879546 0.0802,8.324339 0.12036,13.301095 l 531.79353,0 c 0.04,-4.976756 0.0802,-9.421549 0.12036,-13.301095 l -532.04997,0 0.0105,0 z" display="inline" enable-background="new" opacity=".5"/><path id="path39063-6" fill="url(#linearGradient3895)" fill-opacity="1" stroke="none" d="M 911.78125 145.6875 C 911.29095 145.69458 910.83016 145.69012 910.34375 145.71875 C 625.79287 147.07008 341.20537 145.10132 56.65625 146.71875 C 42.821267 144.06367 28.463463 151.31726 23.1875 164.4375 C 16.212905 179.0043 23.115371 195.20978 22.125 210.53125 C 30.381694 368.94519 37.016727 527.45896 46.6875 685.78125 C 52.544372 706.00387 76.83076 713.76082 95.875 710.53125 C 361.05801 710.14479 626.29692 711.31085 891.4375 709.84375 C 911.29299 707.17786 924.80754 685.79668 921.34375 666.65625 C 929.3174 501.64811 938.66488 336.67634 945.46875 171.625 C 943.79096 155.50688 926.98065 145.46789 911.78125 145.6875 z M 512.5625 211.09375 C 632.54229 211.09375 729.78125 308.36399 729.78125 428.34375 C 729.78125 548.32297 632.54229 645.59375 512.5625 645.59375 C 472.9926 645.59375 435.89164 634.64133 403.9375 616.15625 L 440.125 552.8125 C 461.45378 565.17791 486.13417 573.1875 512.5625 573.1875 C 592.54884 573.1875 657.375 508.33007 657.375 428.34375 C 657.375 348.35741 592.54884 283.53125 512.5625 283.53125 C 432.95879 283.53125 368.33551 347.75967 367.71875 427.21875 L 423.15625 427.21875 L 329.25 574.3125 L 236.46875 427.21875 L 295.3125 427.21875 C 295.91617 307.75533 392.95716 211.09375 512.5625 211.09375 z M 486.53125 319.71875 L 522.75 319.71875 L 522.75 428.34375 L 604.1875 428.34375 L 604.1875 464.5625 L 486.53125 464.5625 L 486.53125 428.34375 L 486.53125 319.71875 z M 362.5 584.90625 C 365.06864 587.41552 367.71169 589.89174 370.40625 592.28125 C 367.70906 589.89362 365.07534 587.42542 362.5 584.90625 z" display="inline" enable-background="new" opacity=".7" transform="matrix(0.66335753,0,0,0.66335753,-301.65558,-131.13957)"/><rect id="rect3521-5" width="585.255" height="13.301" x="-273.793" y="-19.911" fill="url(#linearGradient9649-0)" fill-opacity="1" stroke="none" display="inline" enable-background="new" rx="0" ry="0"/></g></g></g></svg>