<svg xmlns="http://www.w3.org/2000/svg" xmlns:svg="http://www.w3.org/2000/svg" xmlns:xlink="http://www.w3.org/1999/xlink" id="svg2" width="1000" height="1000" version="1.1"><defs id="defs4"><linearGradient id="linearGradient3827"><stop id="stop3829" offset="0" stop-color="#2a7fff" stop-opacity="1"/><stop id="stop3831" offset="1" stop-color="#2a7fff" stop-opacity=".699"/></linearGradient><linearGradient id="linearGradient8562" x1="-213.564" x2="253.595" y1="24.514" y2="24.514" gradientTransform="matrix(0,1,-1,0,44.530081,4.498828)" gradientUnits="userSpaceOnUse" xlink:href="#linearGradient3641"/><linearGradient id="linearGradient3641"><stop id="stop3643" offset="0" stop-color="#fff" stop-opacity="1"/><stop id="stop3645" offset="1" stop-color="#fff" stop-opacity="0"/></linearGradient><linearGradient id="linearGradient6791" x1="-213.564" x2="253.595" y1="24.514" y2="24.514" gradientTransform="matrix(0,1,-1,0,44.530081,4.498828)" gradientUnits="userSpaceOnUse" xlink:href="#linearGradient3641"/><linearGradient id="linearGradient10554" x1="-219.851" x2="74.444" y1="137.424" y2="137.424" gradientUnits="userSpaceOnUse" xlink:href="#linearGradient3641-6"/><linearGradient id="linearGradient3641-6"><stop id="stop3643-4" offset="0" stop-color="#fff" stop-opacity="1"/><stop id="stop3645-9" offset="1" stop-color="#fff" stop-opacity="0"/></linearGradient><linearGradient id="linearGradient10556" x1="-219.663" x2="279.881" y1="34.625" y2="34.625" gradientUnits="userSpaceOnUse" xlink:href="#linearGradient3641-6"/><linearGradient id="linearGradient3179" x1="-219.663" x2="279.881" y1="34.625" y2="34.625" gradientUnits="userSpaceOnUse" xlink:href="#linearGradient3641-6"/><linearGradient id="linearGradient3641-6-0"><stop id="stop3643-4-4" offset="0" stop-color="#fff" stop-opacity="1"/><stop id="stop3645-9-8" offset="1" stop-color="#fff" stop-opacity="0"/></linearGradient><linearGradient id="linearGradient3275" x1="-219.851" x2="74.444" y1="137.424" y2="137.424" gradientUnits="userSpaceOnUse" xlink:href="#linearGradient3641-6-0"/><linearGradient id="linearGradient3279" x1="-181.867" x2="2.605" y1="212.954" y2="28.482" gradientUnits="userSpaceOnUse" xlink:href="#linearGradient3641-6-0"/><linearGradient id="linearGradient3285" x1="-181.867" x2="2.605" y1="212.954" y2="28.482" gradientUnits="userSpaceOnUse" xlink:href="#linearGradient3641-6-0"/><linearGradient id="linearGradient5003" x1="-181.867" x2="2.605" y1="212.954" y2="28.482" gradientUnits="userSpaceOnUse" xlink:href="#linearGradient3641-6-0"/><linearGradient id="linearGradient5011" x1="-181.867" x2="2.605" y1="212.954" y2="28.482" gradientUnits="userSpaceOnUse" xlink:href="#linearGradient3641-6-0"/><linearGradient id="linearGradient5017" x1="-181.867" x2="2.605" y1="212.954" y2="28.482" gradientUnits="userSpaceOnUse" xlink:href="#linearGradient3641-6-0"/><linearGradient id="linearGradient5022" x1="-181.867" x2="2.605" y1="212.954" y2="28.482" gradientUnits="userSpaceOnUse" xlink:href="#linearGradient3641-6-0"/><linearGradient id="linearGradient5026" x1="88.061" x2="-223.343" y1="99.427" y2="99.427" gradientUnits="userSpaceOnUse" xlink:href="#linearGradient3641-6-0"/><radialGradient id="radialGradient23368" cx="133.841" cy="23.914" r="21.333" fx="133.841" fy="23.914" gradientTransform="matrix(-0.57127754,0.1570549,-1.4534802,-5.2869834,-345.97414,294.95963)" gradientUnits="userSpaceOnUse" xlink:href="#linearGradient3435"/><linearGradient id="linearGradient3435" x1="12.274" x2="35.391" y1="32.416" y2="14.203" gradientUnits="userSpaceOnUse"><stop id="stop3437" offset="0" stop-color="#FFFFC8" stop-opacity="1"/><stop id="stop3439" offset="1" stop-color="#9A91EF" stop-opacity="0"/></linearGradient><radialGradient id="radialGradient23371" cx="35.511" cy="21.618" r="21.333" fx="35.511" fy="21.618" gradientTransform="matrix(1.1985894,-0.21662341,1.1858357,6.5613363,-552.78948,-70.860999)" gradientUnits="userSpaceOnUse" xlink:href="#linearGradient3435"/><linearGradient id="linearGradient4284" x1="12.274" x2="35.391" y1="32.416" y2="14.203" gradientUnits="userSpaceOnUse"><stop id="stop4286" offset="0" stop-color="#FFFFC8" stop-opacity="1"/><stop id="stop4288" offset="1" stop-color="#9A91EF" stop-opacity="0"/></linearGradient><radialGradient id="radialGradient23374" cx="16.885" cy="33.378" r="21.333" fx="16.885" fy="33.378" gradientTransform="matrix(0.05866727,-1.3903347,6.1623309,0.2600308,-735.88523,146.32861)" gradientUnits="userSpaceOnUse" xlink:href="#linearGradient3435"/><linearGradient id="linearGradient4291" x1="12.274" x2="35.391" y1="32.416" y2="14.203" gradientUnits="userSpaceOnUse"><stop id="stop4293" offset="0" stop-color="#FFFFC8" stop-opacity="1"/><stop id="stop4295" offset="1" stop-color="#9A91EF" stop-opacity="0"/></linearGradient><radialGradient id="radialGradient23377" cx="53.557" cy="48.238" r="21.333" fx="53.557" fy="48.238" gradientTransform="matrix(1.7930858,-1.7991741,4.898955,4.8823652,-777.5396,18.379606)" gradientUnits="userSpaceOnUse" xlink:href="#linearGradient3421"/><linearGradient id="linearGradient3421" x1="12.274" x2="35.391" y1="32.416" y2="14.203" gradientUnits="userSpaceOnUse"><stop id="stop3423" offset="0" stop-color="#FFF" stop-opacity="1"/><stop id="stop3427" offset="1" stop-color="#B8C04C" stop-opacity="0"/></linearGradient><radialGradient id="radialGradient23380" cx="26.138" cy="38.807" r="21.333" fx="26.138" fy="38.807" gradientTransform="matrix(8.7079921,-14.060645,7.5853925,4.6979076,-993.1734,316.73122)" gradientUnits="userSpaceOnUse" xlink:href="#linearGradient3406"/><linearGradient id="linearGradient3406" x1="12.274" x2="35.391" y1="32.416" y2="14.203" gradientUnits="userSpaceOnUse"><stop id="stop3408" offset="0" stop-color="#B307FF" stop-opacity=".822"/><stop id="stop3410" offset="1" stop-color="#F0FF8B" stop-opacity=".644"/><stop id="stop3412" offset="1" stop-color="#FFF" stop-opacity="0"/></linearGradient><radialGradient id="radialGradient23383" cx="37.751" cy="27.569" r="21.333" fx="37.751" fy="27.569" gradientTransform="matrix(9.6040598,10.841351,-8.8507827,7.8403966,-535.19691,-383.65757)" gradientUnits="userSpaceOnUse" xlink:href="#linearGradient3394"/><linearGradient id="linearGradient3394" x1="12.274" x2="35.391" y1="32.416" y2="14.203" gradientUnits="userSpaceOnUse"><stop id="stop3396" offset="0" stop-color="#FFF307" stop-opacity="1"/><stop id="stop3398" offset=".5" stop-color="#166EFF" stop-opacity="1"/><stop id="stop3400" offset="1" stop-color="#FFF" stop-opacity="0"/></linearGradient><linearGradient id="linearGradient23353" x1="28.703" x2="17.743" y1="31.495" y2="18.367" gradientUnits="userSpaceOnUse" xlink:href="#linearGradient6028"/><linearGradient id="linearGradient6028"><stop id="stop6030" offset="0" stop-color="#FFF" stop-opacity="1"/><stop id="stop6032" offset="1" stop-color="#FFF" stop-opacity="0"/></linearGradient><linearGradient id="linearGradient23387" x1="10.502" x2="48.799" y1="3.61" y2="54.698" gradientTransform="matrix(11.316414,0,0,11.316414,-746.71812,-151.37903)" gradientUnits="userSpaceOnUse" xlink:href="#linearGradient6036"/><linearGradient id="linearGradient6036"><stop id="stop6038" offset="0" stop-color="#FFF" stop-opacity="1"/><stop id="stop6040" offset="1" stop-color="#FFF" stop-opacity="0"/></linearGradient><linearGradient id="linearGradient23390" x1="21.125" x2="29" y1="14.625" y2="28" gradientTransform="matrix(14.145518,0,0,14.145518,-810.6894,-180.84895)" gradientUnits="userSpaceOnUse" xlink:href="#linearGradient4236"/><linearGradient id="linearGradient4236"><stop id="stop4238" offset="0" stop-color="#FFF" stop-opacity=".327"/><stop id="stop4240" offset="1" stop-color="#FFF" stop-opacity=".604"/></linearGradient><linearGradient id="linearGradient23393" x1="21.125" x2="29" y1="14.625" y2="28" gradientTransform="matrix(14.145518,0,0,14.145518,-810.6894,-180.84895)" gradientUnits="userSpaceOnUse" xlink:href="#linearGradient4236"/><linearGradient id="linearGradient4324"><stop id="stop4326" offset="0" stop-color="#FFF" stop-opacity=".327"/><stop id="stop4328" offset="1" stop-color="#FFF" stop-opacity=".604"/></linearGradient><linearGradient id="aigrd2" x1="12.274" x2="35.391" y1="32.416" y2="14.203" gradientUnits="userSpaceOnUse"><stop id="stop3043" offset="0" stop-color="#FBFBFB"/><stop id="stop3045" offset=".5" stop-color="#B6B6B6"/><stop id="stop3047" offset="1" stop-color="#E4E4E4"/></linearGradient><linearGradient id="linearGradient23400" x1="14.997" x2="32.511" y1="11.188" y2="34.307" gradientTransform="matrix(13.471965,0,0,13.471965,-794.52299,-179.67015)" gradientUnits="userSpaceOnUse" xlink:href="#aigrd1"/><linearGradient id="aigrd1" x1="14.997" x2="32.511" y1="11.188" y2="34.307" gradientUnits="userSpaceOnUse"><stop id="stop3034" offset="0" stop-color="#EBEBEB"/><stop id="stop3036" offset=".5" stop-color="#FFF"/><stop id="stop3038" offset="1" stop-color="#EBEBEB"/></linearGradient><radialGradient id="radialGradient23425" cx="23.335" cy="41.636" r="22.627" fx="23.335" fy="41.636" gradientTransform="matrix(1,0,0,0.25,0,31.227)" gradientUnits="userSpaceOnUse" xlink:href="#linearGradient23419"/><linearGradient id="linearGradient23419"><stop id="stop23421" offset="0" stop-color="#000" stop-opacity="1"/><stop id="stop23423" offset="1" stop-color="#000" stop-opacity="0"/></linearGradient><radialGradient id="radialGradient4358" cx="23.335" cy="41.636" r="22.627" fx="23.335" fy="41.636" gradientTransform="matrix(1,0,0,0.25,0,31.227)" gradientUnits="userSpaceOnUse" xlink:href="#linearGradient23419"/><linearGradient id="linearGradient3053" x1="88.061" x2="-223.343" y1="99.427" y2="99.427" gradientUnits="userSpaceOnUse" xlink:href="#linearGradient3641-6-0"/><radialGradient id="radialGradient3835" cx="-471.197" cy="131.531" r="241.417" fx="-471.197" fy="131.531" gradientTransform="translate(0,2.7241546e-6)" gradientUnits="userSpaceOnUse" xlink:href="#linearGradient3827"/><radialGradient id="radialGradient3022" cx="23.335" cy="41.636" r="22.627" fx="23.335" fy="41.636" gradientTransform="matrix(1,0,0,0.25,0,31.227)" gradientUnits="userSpaceOnUse" xlink:href="#linearGradient23419"/><linearGradient id="linearGradient3034" x1="28.703" x2="17.743" y1="31.495" y2="18.367" gradientUnits="userSpaceOnUse" xlink:href="#linearGradient6028"/><radialGradient id="radialGradient3049" cx="133.841" cy="23.914" r="21.333" fx="133.841" fy="23.914" gradientTransform="matrix(-0.62651876,0.17224175,-1.5940284,-5.7982225,167.50958,206.42591)" gradientUnits="userSpaceOnUse" xlink:href="#linearGradient3435"/><radialGradient id="radialGradient3052" cx="35.511" cy="21.618" r="21.333" fx="35.511" fy="21.618" gradientTransform="matrix(1.3144902,-0.2375704,1.3005033,7.1958024,-59.304331,-194.76873)" gradientUnits="userSpaceOnUse" xlink:href="#linearGradient3435"/><radialGradient id="radialGradient3055" cx="16.885" cy="33.378" r="21.333" fx="16.885" fy="33.378" gradientTransform="matrix(0.06434026,-1.5247769,6.7582141,0.28517518,-260.10502,43.42261)" gradientUnits="userSpaceOnUse" xlink:href="#linearGradient3435"/><radialGradient id="radialGradient3058" cx="53.557" cy="48.238" r="21.333" fx="53.557" fy="48.238" gradientTransform="matrix(1.9664731,-1.9731501,5.3726727,5.3544787,-388.08969,-71.385017)" gradientUnits="userSpaceOnUse" xlink:href="#linearGradient3421"/><radialGradient id="radialGradient3061" cx="26.138" cy="38.807" r="21.333" fx="26.138" fy="38.807" gradientTransform="matrix(9.5500349,-15.420277,8.3188825,5.1521845,-884.65044,164.46082)" gradientUnits="userSpaceOnUse" xlink:href="#linearGradient3406"/><radialGradient id="radialGradient3064" cx="37.751" cy="27.569" r="21.333" fx="37.751" fy="27.569" gradientTransform="matrix(10.53275,11.889685,-9.706633,8.5985449,-288.56392,-551.80342)" gradientUnits="userSpaceOnUse" xlink:href="#linearGradient3394"/><linearGradient id="linearGradient3068" x1="10.502" x2="48.799" y1="3.61" y2="54.698" gradientTransform="matrix(12.410685,0,0,12.410685,-271.98542,-283.07267)" gradientUnits="userSpaceOnUse" xlink:href="#linearGradient6036"/><linearGradient id="linearGradient3071" x1="21.125" x2="29" y1="14.625" y2="28" gradientTransform="matrix(15.513357,0,0,15.513357,-342.14258,-315.39227)" gradientUnits="userSpaceOnUse" xlink:href="#linearGradient4236"/><linearGradient id="linearGradient3074" x1="21.125" x2="29" y1="14.625" y2="28" gradientTransform="matrix(15.513357,0,0,15.513357,-342.14258,-315.39227)" gradientUnits="userSpaceOnUse" xlink:href="#linearGradient4236"/><radialGradient id="radialGradient3078" cx="-471.197" cy="131.531" r="241.417" fx="-471.197" fy="131.531" gradientTransform="matrix(1.0966977,0,0,1.0966977,546.93862,-117.05564)" gradientUnits="userSpaceOnUse" xlink:href="#linearGradient3827"/><linearGradient id="linearGradient3081" x1="14.997" x2="32.511" y1="11.188" y2="34.307" gradientTransform="matrix(14.774673,0,0,14.774673,-324.41292,-314.09948)" gradientUnits="userSpaceOnUse" xlink:href="#aigrd1"/><linearGradient id="linearGradient3074-6" x1="21.125" x2="29" y1="14.625" y2="28" gradientTransform="matrix(15.513357,0,0,15.513357,-342.14258,-315.39227)" gradientUnits="userSpaceOnUse" xlink:href="#linearGradient4236-4"/><linearGradient id="linearGradient4236-4"><stop id="stop4238-9" offset="0" stop-color="#FFF" stop-opacity=".327"/><stop id="stop4240-5" offset="1" stop-color="#FFF" stop-opacity=".604"/></linearGradient><linearGradient id="linearGradient3873" x1="21.125" x2="29" y1="14.625" y2="28" gradientTransform="matrix(15.513357,0,0,15.513357,-342.14257,-315.39227)" gradientUnits="userSpaceOnUse" xlink:href="#linearGradient4236-4"/><radialGradient id="radialGradient3899" cx="-471.197" cy="131.531" r="241.417" fx="-471.197" fy="131.531" gradientTransform="matrix(1.0966977,0,0,1.0966977,546.93862,-117.05564)" gradientUnits="userSpaceOnUse" xlink:href="#linearGradient3827"/><radialGradient id="radialGradient3903" cx="-471.197" cy="131.531" r="241.417" fx="-471.197" fy="131.531" gradientTransform="matrix(1.0966977,0,0,1.0966977,546.93862,-117.05564)" gradientUnits="userSpaceOnUse" xlink:href="#linearGradient3827"/><radialGradient id="radialGradient3907" cx="-471.197" cy="131.531" r="241.417" fx="-471.197" fy="131.531" gradientTransform="matrix(1.0966977,0,0,1.0966977,546.93862,-117.05564)" gradientUnits="userSpaceOnUse" xlink:href="#linearGradient3827"/><radialGradient id="radialGradient3911" cx="-471.197" cy="131.531" r="241.417" fx="-471.197" fy="131.531" gradientTransform="matrix(1.6532528,0,0,1.6532528,1279.2411,271.23128)" gradientUnits="userSpaceOnUse" xlink:href="#linearGradient3827"/><linearGradient id="linearGradient3915" x1="21.125" x2="29" y1="14.625" y2="28" gradientTransform="matrix(15.513357,0,0,15.513357,-342.14257,-315.39227)" gradientUnits="userSpaceOnUse" xlink:href="#linearGradient4236-4"/><radialGradient id="radialGradient3932" cx="-471.197" cy="131.531" r="241.417" fx="-471.197" fy="131.531" gradientTransform="matrix(1.0966977,0,0,1.0966977,663.80808,-172.19826)" gradientUnits="userSpaceOnUse" xlink:href="#linearGradient3827"/><radialGradient id="radialGradient3938" cx="-471.197" cy="131.531" r="241.417" fx="-471.197" fy="131.531" gradientTransform="matrix(1.6532528,0,0,1.6532528,1279.2411,271.23128)" gradientUnits="userSpaceOnUse" xlink:href="#linearGradient3827"/><radialGradient id="radialGradient3947" cx="-471.197" cy="131.531" r="241.417" fx="-471.197" fy="131.531" gradientTransform="matrix(1.6532528,0,0,1.6532528,1279.2411,271.23128)" gradientUnits="userSpaceOnUse" xlink:href="#linearGradient3827"/><radialGradient id="radialGradient3950" cx="-471.197" cy="131.531" r="241.417" fx="-471.197" fy="131.531" gradientTransform="matrix(1.0966977,0,0,1.0966977,803.7222,-168.08314)" gradientUnits="userSpaceOnUse" xlink:href="#linearGradient3827"/><radialGradient id="radialGradient3954" cx="-471.197" cy="131.531" r="241.417" fx="-471.197" fy="131.531" gradientTransform="matrix(1.6532528,0,0,1.6532528,1279.2411,271.23128)" gradientUnits="userSpaceOnUse" xlink:href="#linearGradient3827"/><radialGradient id="radialGradient3963" cx="-471.197" cy="131.531" r="241.417" fx="-471.197" fy="131.531" gradientTransform="matrix(1.6532528,0,0,1.6532528,1279.2411,271.23128)" gradientUnits="userSpaceOnUse" xlink:href="#linearGradient3827"/><radialGradient id="radialGradient3974" cx="-471.197" cy="131.531" r="241.417" fx="-471.197" fy="131.531" gradientTransform="matrix(1.6532528,0,0,1.6532528,1279.2411,271.23128)" gradientUnits="userSpaceOnUse" xlink:href="#linearGradient3827"/><radialGradient id="radialGradient3978" cx="-471.197" cy="131.531" r="241.417" fx="-471.197" fy="131.531" gradientTransform="matrix(1.6532528,0,0,1.6532528,1279.2411,271.23128)" gradientUnits="userSpaceOnUse" xlink:href="#linearGradient3827"/><linearGradient id="linearGradient3980" x1="10.502" x2="48.799" y1="3.61" y2="54.698" gradientTransform="matrix(12.410685,0,0,12.410685,-271.98542,-283.07267)" gradientUnits="userSpaceOnUse" xlink:href="#linearGradient6036"/><linearGradient id="linearGradient3982" x1="28.703" x2="17.743" y1="31.495" y2="18.367" gradientUnits="userSpaceOnUse" xlink:href="#linearGradient6028"/><linearGradient id="linearGradient3768" x1="537.25" x2="818.406" y1="425.5" y2="127.031" gradientUnits="userSpaceOnUse" xlink:href="#linearGradient3827"/></defs><metadata id="metadata7"/><g id="layer1" transform="translate(464.16179,464.03236)"><g id="g4082" transform="translate(0,1.552561)"><g id="g4060" transform="matrix(1.5074827,0,0,1.5074827,-9.4212231,-17.89429)"><g id="g3966" transform="matrix(1.1317736,0,0,1.1317736,-4.2158025,1.3570318)"><path id="path3049" fill="url(#radialGradient3974)" fill-opacity="1" fill-rule="nonzero" stroke="none" d="m 499.34375,93.21875 c -1.39182,0.0096 -2.79898,0.03487 -4.1875,0.0625 -139.35254,0.306803 -275.10086,81.084 -341.28125,203.65625 -63.177861,114.01215 -65.954854,259.91219 -4.3125,375.25 52.88869,101.56897 151.60227,178.69178 264,202.5 113.93987,25.30055 238.9687,-1.24258 330.46875,-74.09375 95.21995,-74.03858 153.46161,-193.18569 151.75,-314 C 895.40162,366.89455 838.29199,248.34173 742.8125,175.875 674.79905,123.44052 589.55383,93.435859 503.5,93.21875 c -1.38797,-0.0035 -2.76443,-0.0096 -4.15625,0 z m 105.1875,33.8125 c 90.29919,23.12138 166.44347,79.95628 213.875,157.21875 L 586.5625,425.5 C 575.1317,407.48202 558.29194,394.44747 537.25,388.84375 l 67.28125,-261.8125 z M 498.21875,400.6875 c 0.68822,-0.002 1.37158,0.0153 2.0625,0.0312 50.68513,-1.29875 95.15917,48.79938 87.375,99.03125 -5.62152,46.58466 -52.81237,84.12109 -99.5625,76.21875 -44.87992,-6.30875 -81.53825,-50.4695 -75.4375,-96.15625 4.41291,-42.82037 42.20464,-78.97807 85.5625,-79.125 z M 411,543.8125 c 1.2388,2.36213 2.58219,4.62829 4,6.84375 1.41781,2.21546 2.90701,4.37851 4.5,6.4375 1.59299,2.05899 3.29815,4.01353 5.0625,5.90625 1.76435,1.89272 3.59937,3.72085 5.53125,5.4375 1.93188,1.71665 3.93567,3.34422 6.03125,4.875 2.09558,1.53078 4.2758,2.94614 6.53125,4.28125 2.25545,1.33511 4.5885,2.5891 7,3.71875 2.4115,1.12965 4.90503,2.14811 7.46875,3.0625 l -88.59375,255.40625 c -5.50575,-1.90431 -10.94204,-3.93951 -16.3125,-6.09375 -5.37046,-2.15424 -10.67761,-4.41539 -15.90625,-6.8125 -5.22864,-2.39711 -10.38846,-4.92957 -15.46875,-7.5625 -5.08029,-2.63293 -10.07459,-5.38831 -15,-8.25 -4.92541,-2.86169 -9.76725,-5.82286 -14.53125,-8.90625 -4.764,-3.08339 -9.4352,-6.29572 -14.03125,-9.59375 -4.59605,-3.29803 -9.10968,-6.68188 -13.53125,-10.1875 -4.42157,-3.50562 -8.75943,-7.10635 -13,-10.8125 -4.24057,-3.70615 -8.38448,-7.53788 -12.4375,-11.4375 -4.05302,-3.89962 -8.01605,-7.88271 -11.875,-11.96875 -3.85895,-4.08604 -7.62291,-8.26585 -11.28125,-12.53125 -3.65834,-4.2654 -7.20504,-8.6248 -10.65625,-13.0625 -3.45121,-4.4377 -6.79371,-8.95956 -10.03125,-13.5625 -3.23754,-4.60294 -6.38891,-9.27012 -9.40625,-14.03125 -3.01734,-4.76113 -5.92815,-9.61899 -8.71875,-14.53125 -2.7906,-4.91226 -5.44266,-9.88117 -8,-14.9375 L 411,543.8125 z" transform="matrix(0.66335753,0,0,0.66335753,-301.65558,-296.97895)"/><path id="path3943" fill="url(#linearGradient3768)" fill-opacity="1" fill-rule="nonzero" stroke="none" d="M 604.53125,127.03125 537.25,388.84375 c 2.63024,0.70047 5.19127,1.54124 7.6875,2.46875 2.49623,0.92751 4.92365,1.94864 7.28125,3.09375 2.3576,1.14511 4.66064,2.39675 6.875,3.75 2.21436,1.35325 4.33976,2.82305 6.40625,4.375 2.06649,1.55195 4.05474,3.1963 5.96875,4.9375 1.91401,1.7412 3.74309,3.579 5.5,5.5 1.75691,1.921 3.43606,3.90865 5.03125,6 1.59519,2.09135 3.13365,4.279 4.5625,6.53125 L 818.40625,284.25 c -2.96447,-4.8289 -6.0649,-9.58386 -9.25,-14.25 -3.1851,-4.66614 -6.47636,-9.22188 -9.875,-13.71875 -3.39864,-4.49687 -6.89491,-8.92888 -10.5,-13.25 -3.60509,-4.32112 -7.32055,-8.54864 -11.125,-12.6875 -3.80445,-4.13886 -7.69079,-8.17489 -11.6875,-12.125 -3.99671,-3.95011 -8.09936,-7.80764 -12.28125,-11.5625 -4.18189,-3.75486 -8.45252,-7.41563 -12.8125,-10.96875 -4.35998,-3.55312 -8.81277,-6.99887 -13.34375,-10.34375 -4.53098,-3.34488 -9.14887,-6.58861 -13.84375,-9.71875 -4.69488,-3.13014 -9.4608,-6.15359 -14.3125,-9.0625 -4.8517,-2.90891 -9.77982,-5.69382 -14.78125,-8.375 -5.00143,-2.68118 -10.07469,-5.24055 -15.21875,-7.6875 -5.14406,-2.44695 -10.34539,-4.79377 -15.625,-7 -5.27961,-2.20623 -10.62319,-4.29099 -16.03125,-6.25 -5.40806,-1.95901 -10.87682,-3.7947 -16.40625,-5.5 -5.52943,-1.7053 -11.13755,-3.27366 -16.78125,-4.71875 z" opacity=".7" transform="matrix(0.66335753,0,0,0.66335753,-301.65558,-296.97895)"/><path id="path3959" fill="url(#radialGradient3978)" fill-opacity="1" fill-rule="nonzero" stroke="none" d="M 411,543.8125 168.34375,665.5 c 2.55734,5.05633 5.2094,10.02524 8,14.9375 2.7906,4.91226 5.70141,9.77012 8.71875,14.53125 3.01734,4.76113 6.16871,9.42831 9.40625,14.03125 3.23754,4.60294 6.58004,9.1248 10.03125,13.5625 3.45121,4.4377 6.99791,8.7971 10.65625,13.0625 3.65834,4.2654 7.4223,8.44521 11.28125,12.53125 3.85895,4.08604 7.82198,8.06913 11.875,11.96875 4.05302,3.89962 8.19693,7.73135 12.4375,11.4375 4.24057,3.70615 8.57843,7.30688 13,10.8125 4.42157,3.50562 8.9352,6.88947 13.53125,10.1875 4.59605,3.29803 9.26725,6.51036 14.03125,9.59375 4.764,3.08339 9.60584,6.04456 14.53125,8.90625 4.92541,2.86169 9.91971,5.61707 15,8.25 5.08029,2.63293 10.24011,5.16539 15.46875,7.5625 5.22864,2.39711 10.53579,4.65826 15.90625,6.8125 5.37046,2.15424 10.80675,4.18944 16.3125,6.09375 L 457.125,584.375 c -2.56372,-0.91439 -5.05725,-1.93285 -7.46875,-3.0625 -2.4115,-1.12965 -4.74455,-2.38364 -7,-3.71875 -2.25545,-1.33511 -4.43567,-2.75047 -6.53125,-4.28125 -2.09558,-1.53078 -4.09937,-3.15835 -6.03125,-4.875 -1.93188,-1.71665 -3.7669,-3.54478 -5.53125,-5.4375 -1.76435,-1.89272 -3.46951,-3.84726 -5.0625,-5.90625 -1.59299,-2.05899 -3.08219,-4.22204 -4.5,-6.4375 -1.41781,-2.21546 -2.7612,-4.48162 -4,-6.84375 z" opacity=".7" transform="matrix(0.66335753,0,0,0.66335753,-301.65558,-296.97895)"/><path id="path3051" fill="#2a7fff" fill-rule="nonzero" stroke="none" d="m 30.178064,-98.205211 c -70.028327,0 -125.399728,56.999826 -125.399728,125.399733 0,70.028316 56.999822,125.399538 125.399728,125.399538 70.028326,0 125.399536,-56.99983 125.399536,-125.399538 0,-70.028516 -56.999817,-125.399733 -125.399536,-125.399733 l 0,0 z m 0,193.799441 c -37.4570743,0 -68.399906,-30.942821 -68.399906,-68.399708 0,-37.457081 30.9428317,-68.399907 68.399906,-68.399907 37.456887,0 68.399719,30.942826 68.399719,68.399907 0,37.456887 -30.942832,68.399708 -68.399719,68.399708 z" opacity=".7"/><path id="path5264" fill="none" stroke="url(#linearGradient3980)" stroke-miterlimit="4" stroke-opacity="1" stroke-width="12.411" d="m 30.178064,-218.5077 c -136.189334,0 -245.702224,109.51288 -245.702224,245.702035 0,136.189335 109.51289,245.702215 245.702224,245.702215 136.189146,0 245.702036,-109.51288 245.702036,-245.702215 0,-136.189155 -109.51289,-245.702035 -245.702036,-245.702035 l 0,0 z" opacity=".546"/><path id="path6026" fill="none" stroke="url(#linearGradient3982)" stroke-dashoffset="0" stroke-linecap="butt" stroke-linejoin="miter" stroke-miterlimit="4" stroke-opacity="1" stroke-width=".931" d="m 30.405591,24.930641 c 0,3.368272 -2.730524,6.098796 -6.098796,6.098796 -3.368272,0 -6.098796,-2.730524 -6.098796,-6.098796 0,-3.368272 2.730524,-6.098796 6.098796,-6.098796 3.368272,0 6.098796,2.730524 6.098796,6.098796 z" color="#000" display="inline" opacity=".672" overflow="visible" transform="matrix(12.410685,0,0,12.410685,-270.88808,-281.97576)" visibility="visible" style="marker:none"/></g></g></g></g></svg>