<svg xmlns="http://www.w3.org/2000/svg" xmlns:svg="http://www.w3.org/2000/svg" xmlns:xlink="http://www.w3.org/1999/xlink" id="svg2" width="1000" height="1000" version="1.1"><defs id="defs4"><linearGradient id="linearGradient3698"><stop id="stop3700" offset="0" stop-color="#0f0" stop-opacity="1"/><stop id="stop3702" offset="1" stop-color="#81ff00" stop-opacity="1"/></linearGradient><linearGradient id="linearGradient8562" x1="-213.564" x2="253.595" y1="24.514" y2="24.514" gradientTransform="matrix(0,1,-1,0,44.530081,4.498828)" gradientUnits="userSpaceOnUse" xlink:href="#linearGradient3641"/><linearGradient id="linearGradient3641"><stop id="stop3643" offset="0" stop-color="#fff" stop-opacity="1"/><stop id="stop3645" offset="1" stop-color="#fff" stop-opacity="0"/></linearGradient><linearGradient id="linearGradient6791" x1="-213.564" x2="253.595" y1="24.514" y2="24.514" gradientTransform="matrix(0,1,-1,0,44.530081,4.498828)" gradientUnits="userSpaceOnUse" xlink:href="#linearGradient3641"/><linearGradient id="linearGradient10554" x1="-219.851" x2="74.444" y1="137.424" y2="137.424" gradientUnits="userSpaceOnUse" xlink:href="#linearGradient3641-6"/><linearGradient id="linearGradient3641-6"><stop id="stop3643-4" offset="0" stop-color="#fff" stop-opacity="1"/><stop id="stop3645-9" offset="1" stop-color="#fff" stop-opacity="0"/></linearGradient><linearGradient id="linearGradient10556" x1="-219.663" x2="279.881" y1="34.625" y2="34.625" gradientUnits="userSpaceOnUse" xlink:href="#linearGradient3641-6"/><linearGradient id="linearGradient3179" x1="-219.663" x2="279.881" y1="34.625" y2="34.625" gradientUnits="userSpaceOnUse" xlink:href="#linearGradient3641-6"/><linearGradient id="linearGradient3641-6-0"><stop id="stop3643-4-4" offset="0" stop-color="#fff" stop-opacity="1"/><stop id="stop3645-9-8" offset="1" stop-color="#fff" stop-opacity="0"/></linearGradient><linearGradient id="linearGradient3275" x1="-219.851" x2="74.444" y1="137.424" y2="137.424" gradientUnits="userSpaceOnUse" xlink:href="#linearGradient3641-6-0"/><linearGradient id="linearGradient3279" x1="-181.867" x2="2.605" y1="212.954" y2="28.482" gradientUnits="userSpaceOnUse" xlink:href="#linearGradient3641-6-0"/><linearGradient id="linearGradient3285" x1="-181.867" x2="2.605" y1="212.954" y2="28.482" gradientUnits="userSpaceOnUse" xlink:href="#linearGradient3641-6-0"/><linearGradient id="linearGradient5003" x1="-181.867" x2="2.605" y1="212.954" y2="28.482" gradientUnits="userSpaceOnUse" xlink:href="#linearGradient3641-6-0"/><linearGradient id="linearGradient5011" x1="-181.867" x2="2.605" y1="212.954" y2="28.482" gradientUnits="userSpaceOnUse" xlink:href="#linearGradient3641-6-0"/><linearGradient id="linearGradient5017" x1="-181.867" x2="2.605" y1="212.954" y2="28.482" gradientUnits="userSpaceOnUse" xlink:href="#linearGradient3641-6-0"/><linearGradient id="linearGradient5022" x1="-181.867" x2="2.605" y1="212.954" y2="28.482" gradientUnits="userSpaceOnUse" xlink:href="#linearGradient3641-6-0"/><linearGradient id="linearGradient5026" x1="88.061" x2="-223.343" y1="99.427" y2="99.427" gradientUnits="userSpaceOnUse" xlink:href="#linearGradient3641-6-0"/><linearGradient id="linearGradient51" x1="3.011" x2="426.853" y1="8.209" y2="8.209" gradientTransform="matrix(0.67295399,0,0,0.65389792,-1039.0913,-245.10125)" gradientUnits="userSpaceOnUse" xlink:href="#linearGradient53"/><linearGradient id="linearGradient53"><stop id="stop54" offset="0" stop-color="#FAFF00" stop-opacity="1"/><stop id="stop55" offset="1" stop-color="#026D00" stop-opacity="1"/></linearGradient><linearGradient id="linearGradient3795" x1="-429.219" x2="-913.406" y1="-54.969" y2="-54.969" gradientUnits="userSpaceOnUse" xlink:href="#linearGradient3641"/><linearGradient id="linearGradient3704" x1="-954.7" x2="-190.842" y1="214.731" y2="-490.348" gradientUnits="userSpaceOnUse" xlink:href="#linearGradient3698"/><linearGradient id="linearGradient3683" x1="-954.7" x2="-190.842" y1="214.731" y2="-490.348" gradientUnits="userSpaceOnUse" xlink:href="#linearGradient3698"/><linearGradient id="linearGradient3683-5" x1="-954.7" x2="-190.842" y1="214.731" y2="-490.348" gradientTransform="translate(-698.66914,4.5017348)" gradientUnits="userSpaceOnUse" xlink:href="#linearGradient3698-0"/><linearGradient id="linearGradient3698-0"><stop id="stop3700-4" offset="0" stop-color="#0f0" stop-opacity="1"/><stop id="stop3702-8" offset="1" stop-color="#81ff00" stop-opacity="1"/></linearGradient></defs><metadata id="metadata7"/><g id="layer1" transform="translate(464.16179,464.03236)"><g id="g4082" transform="translate(0,1.552561)"><g id="g4060" transform="matrix(1.5074827,0,0,1.5074827,-9.4212231,-17.89429)"><g id="g3805" transform="matrix(0.935,0,0,0.935,636.05171,120.4313)"><path id="path2996-9" fill="green" fill-opacity="1" stroke="none" d="M 816.8125 104 L 341.59375 579.1875 L 183.1875 420.8125 L 24.78125 579.1875 L 341.59375 896 L 975.21875 262.40625 L 816.8125 104 z M 816.78125 195.15625 L 884.03125 262.375 L 341.59375 804.84375 L 115.9375 579.1875 L 183.15625 511.96875 C 216.10066 544.87425 249.04775 577.78983 281.96875 610.71875 C 302.451 646.26222 358.47644 654.78385 387.1875 624.78125 L 816.78125 195.15625 z" opacity="1" transform="matrix(0.70947329,0,0,0.70947329,-1002.8955,-446.42808)"/></g></g></g></g></svg>