<svg xmlns="http://www.w3.org/2000/svg" xmlns:svg="http://www.w3.org/2000/svg" xmlns:xlink="http://www.w3.org/1999/xlink" id="svg2" width="1000" height="1000" version="1.1"><defs id="defs4"><linearGradient id="linearGradient3698"><stop id="stop3700" offset="0" stop-color="#0f0" stop-opacity="1"/><stop id="stop3702" offset="1" stop-color="#81ff00" stop-opacity="1"/></linearGradient><linearGradient id="linearGradient8562" x1="-213.564" x2="253.595" y1="24.514" y2="24.514" gradientTransform="matrix(0,1,-1,0,44.530081,4.498828)" gradientUnits="userSpaceOnUse" xlink:href="#linearGradient3641"/><linearGradient id="linearGradient3641"><stop id="stop3643" offset="0" stop-color="#fff" stop-opacity="1"/><stop id="stop3645" offset="1" stop-color="#fff" stop-opacity="0"/></linearGradient><linearGradient id="linearGradient6791" x1="-213.564" x2="253.595" y1="24.514" y2="24.514" gradientTransform="matrix(0,1,-1,0,44.530081,4.498828)" gradientUnits="userSpaceOnUse" xlink:href="#linearGradient3641"/><linearGradient id="linearGradient10554" x1="-219.851" x2="74.444" y1="137.424" y2="137.424" gradientUnits="userSpaceOnUse" xlink:href="#linearGradient3641-6"/><linearGradient id="linearGradient3641-6"><stop id="stop3643-4" offset="0" stop-color="#fff" stop-opacity="1"/><stop id="stop3645-9" offset="1" stop-color="#fff" stop-opacity="0"/></linearGradient><linearGradient id="linearGradient10556" x1="-219.663" x2="279.881" y1="34.625" y2="34.625" gradientUnits="userSpaceOnUse" xlink:href="#linearGradient3641-6"/><linearGradient id="linearGradient3179" x1="-219.663" x2="279.881" y1="34.625" y2="34.625" gradientUnits="userSpaceOnUse" xlink:href="#linearGradient3641-6"/><linearGradient id="linearGradient3641-6-0"><stop id="stop3643-4-4" offset="0" stop-color="#fff" stop-opacity="1"/><stop id="stop3645-9-8" offset="1" stop-color="#fff" stop-opacity="0"/></linearGradient><linearGradient id="linearGradient3275" x1="-219.851" x2="74.444" y1="137.424" y2="137.424" gradientUnits="userSpaceOnUse" xlink:href="#linearGradient3641-6-0"/><linearGradient id="linearGradient3279" x1="-181.867" x2="2.605" y1="212.954" y2="28.482" gradientUnits="userSpaceOnUse" xlink:href="#linearGradient3641-6-0"/><linearGradient id="linearGradient3285" x1="-181.867" x2="2.605" y1="212.954" y2="28.482" gradientUnits="userSpaceOnUse" xlink:href="#linearGradient3641-6-0"/><linearGradient id="linearGradient5003" x1="-181.867" x2="2.605" y1="212.954" y2="28.482" gradientUnits="userSpaceOnUse" xlink:href="#linearGradient3641-6-0"/><linearGradient id="linearGradient5011" x1="-181.867" x2="2.605" y1="212.954" y2="28.482" gradientUnits="userSpaceOnUse" xlink:href="#linearGradient3641-6-0"/><linearGradient id="linearGradient5017" x1="-181.867" x2="2.605" y1="212.954" y2="28.482" gradientUnits="userSpaceOnUse" xlink:href="#linearGradient3641-6-0"/><linearGradient id="linearGradient5022" x1="-181.867" x2="2.605" y1="212.954" y2="28.482" gradientUnits="userSpaceOnUse" xlink:href="#linearGradient3641-6-0"/><linearGradient id="linearGradient5026" x1="88.061" x2="-223.343" y1="99.427" y2="99.427" gradientUnits="userSpaceOnUse" xlink:href="#linearGradient3641-6-0"/><linearGradient id="linearGradient51" x1="3.011" x2="426.853" y1="8.209" y2="8.209" gradientTransform="matrix(0.67295399,0,0,0.65389792,-1039.0913,-245.10125)" gradientUnits="userSpaceOnUse" xlink:href="#linearGradient53"/><linearGradient id="linearGradient53"><stop id="stop54" offset="0" stop-color="#FAFF00" stop-opacity="1"/><stop id="stop55" offset="1" stop-color="#026D00" stop-opacity="1"/></linearGradient><linearGradient id="linearGradient3795" x1="-429.219" x2="-913.406" y1="-54.969" y2="-54.969" gradientUnits="userSpaceOnUse" xlink:href="#linearGradient3641"/><linearGradient id="linearGradient3704" x1="-954.7" x2="-190.842" y1="214.731" y2="-490.348" gradientUnits="userSpaceOnUse" xlink:href="#linearGradient3698"/><linearGradient id="linearGradient5409" x1="-174.73" x2="332.472" y1="190.948" y2="-225.758" gradientUnits="userSpaceOnUse" xlink:href="#linearGradient53-8"/><linearGradient id="linearGradient53-8"><stop id="stop54-8" offset="0" stop-color="#FAFF00" stop-opacity="1"/><stop id="stop55-3" offset="1" stop-color="#026D00" stop-opacity="1"/></linearGradient><filter id="filter4027-9" color-interpolation-filters="sRGB"><feGaussianBlur id="feGaussianBlur4029-7" stdDeviation="5.317"/></filter><linearGradient id="linearGradient7256" x1="-174.73" x2="332.472" y1="190.948" y2="-225.758" gradientUnits="userSpaceOnUse" xlink:href="#linearGradient53-8"/></defs><metadata id="metadata7"/><g id="layer1" transform="translate(464.16179,464.03236)"><g id="g4082" transform="translate(0,1.552561)"><g id="g4060" transform="matrix(1.5074827,0,0,1.5074827,-9.4212231,-17.89429)"><g id="g3805" transform="matrix(0.935,0,0,0.935,636.05171,120.4313)"><path id="path2996-6" fill="green" fill-opacity="1" stroke="none" d="m -872.92705,-147.88347 112.3841,112.3841 337.1523,-337.1523 112.38411,112.38409 -449.53641,449.53639 -224.7682,-224.76818 z" opacity=".4"/><path id="path2996-5-7" fill="url(#linearGradient7256)" fill-opacity="1" stroke="none" d="m -36,74.75 c -8.643701,8.711736 -24.163454,3.054435 -29.375,-6.875 -16.822917,-16.822917 -33.645833,-33.645833 -50.46875,-50.46875 -15.375,15.364583 -30.75,30.729167 -46.125,46.09375 38.23958,38.22917 76.479167,76.45833 114.71875,114.6875 83.96875,-83.958333 167.9375,-167.916667 251.90625,-251.875 -15.375,-15.375 -30.75,-30.75 -46.125,-46.125 C 93.6875,-54.958333 28.84375,9.8958333 -36,74.75 z" filter="url(#filter4027-9)" opacity=".3" transform="matrix(1.6382503,0,0,1.6382503,-683.12975,-139.52548)"/></g></g></g></g></svg>