<svg xmlns="http://www.w3.org/2000/svg" xmlns:svg="http://www.w3.org/2000/svg" xmlns:xlink="http://www.w3.org/1999/xlink" id="page" width="1000" height="1000" version="1.0" viewBox="0 0 2000 2000" xml:space="preserve"><metadata id="metadata14"/><defs id="defs38"><linearGradient id="linearGradient2178"><stop id="stop2180" offset="0" stop-color="#999" stop-opacity="1"/><stop id="stop2182" offset="1" stop-color="#555" stop-opacity="1"/></linearGradient><linearGradient id="linearGradient2184" x1="231.984" x2="231.984" y1="128.613" y2="755.796" gradientTransform="translate(152.54238,639.83051)" gradientUnits="userSpaceOnUse" xlink:href="#linearGradient2178"/><linearGradient id="linearGradient1307-8-6"><stop id="stop1309-9-1" offset="0" stop-color="#999" stop-opacity="1"/><stop id="stop1311-2-7" offset="1" stop-color="#555" stop-opacity="1"/></linearGradient><linearGradient id="linearGradient2880" x1="266.774" x2="2010.349" y1="2251.682" y2="2251.682" gradientTransform="matrix(0.5,0,0,0.5,880.88725,-20.973472)" gradientUnits="userSpaceOnUse" xlink:href="#linearGradient1307-8-6"/><linearGradient id="linearGradient3680" x1="235.732" x2="1672.479" y1="1019.628" y2="1019.628" gradientTransform="scale(0.5,0.5)" gradientUnits="userSpaceOnUse" xlink:href="#linearGradient1307-8-6"/><linearGradient id="linearGradient3680-4" x1="235.732" x2="1672.479" y1="1019.628" y2="1019.628" gradientUnits="userSpaceOnUse" xlink:href="#linearGradient1307-8-6-9"/><linearGradient id="linearGradient1307-8-6-9"><stop id="stop1309-9-1-8" offset="0" stop-color="#999" stop-opacity="1"/><stop id="stop1311-2-7-1" offset="1" stop-color="#555" stop-opacity="1"/></linearGradient><linearGradient id="linearGradient3721" x1="235.732" x2="1672.479" y1="1019.628" y2="1019.628" gradientTransform="translate(-1.8861914e-5,-3.5e-5)" gradientUnits="userSpaceOnUse" xlink:href="#linearGradient1307-8-6-9"/><linearGradient id="linearGradient3801" x1="235.732" x2="1672.479" y1="1019.628" y2="1019.628" gradientTransform="scale(0.5,0.5)" gradientUnits="userSpaceOnUse" xlink:href="#linearGradient1307-8-6"/><linearGradient id="linearGradient3826-6" x1="235.732" x2="1672.479" y1="1019.628" y2="1019.628" gradientTransform="scale(0.5,0.5)" gradientUnits="userSpaceOnUse" xlink:href="#linearGradient1307-8-6-8"/><linearGradient id="linearGradient1307-8-6-8"><stop id="stop1309-9-1-9" offset="0" stop-color="#999" stop-opacity="1"/><stop id="stop1311-2-7-2" offset="1" stop-color="#555" stop-opacity="1"/></linearGradient><linearGradient id="linearGradient5716"><stop id="stop5718" offset="0" stop-color="#fff" stop-opacity="1"/><stop id="stop5720" offset="1" stop-color="#d9d9d9" stop-opacity="1"/></linearGradient><linearGradient id="linearGradient3314"><stop id="stop3316" offset="0" stop-color="#fff" stop-opacity="1"/><stop id="stop3318" offset="1" stop-color="#d9d9d9" stop-opacity="1"/></linearGradient><filter id="filter5894-6" color-interpolation-filters="sRGB"><feGaussianBlur id="feGaussianBlur5896-8" stdDeviation=".698"/></filter><linearGradient id="linearGradient5886-9" x1="112.128" x2="112.128" y1="14.445" y2="17.633" gradientUnits="userSpaceOnUse" xlink:href="#linearGradient5716-2"/><linearGradient id="linearGradient5716-2"><stop id="stop5718-6" offset="0" stop-color="#fff" stop-opacity="1"/><stop id="stop5720-6" offset="1" stop-color="#d9d9d9" stop-opacity="1"/></linearGradient><filter id="filter5712-4" color-interpolation-filters="sRGB"><feGaussianBlur id="feGaussianBlur5714-9" stdDeviation=".646"/></filter><linearGradient id="linearGradient3372"><stop id="stop3374" offset="0" stop-color="#fff" stop-opacity="1"/><stop id="stop3376" offset="1" stop-color="#d9d9d9" stop-opacity="1"/></linearGradient><linearGradient id="linearGradient6304" x1="112.43" x2="112.43" y1="15.218" y2="21.002" gradientTransform="matrix(1,0,0,0.7178393,-14.056043,14.042946)" gradientUnits="userSpaceOnUse" xlink:href="#linearGradient5716-2"/><linearGradient id="linearGradient3383"><stop id="stop3385" offset="0" stop-color="#fff" stop-opacity="1"/><stop id="stop3387" offset="1" stop-color="#d9d9d9" stop-opacity="1"/></linearGradient><linearGradient id="linearGradient10554" x1="-219.851" x2="74.444" y1="137.424" y2="137.424" gradientUnits="userSpaceOnUse" xlink:href="#linearGradient3641"/><linearGradient id="linearGradient3641"><stop id="stop3643" offset="0" stop-color="#fff" stop-opacity="1"/><stop id="stop3645" offset="1" stop-color="#fff" stop-opacity="0"/></linearGradient><linearGradient id="linearGradient11016" x1="-219.851" x2="74.444" y1="137.424" y2="137.424" gradientUnits="userSpaceOnUse" xlink:href="#linearGradient3641"/><linearGradient id="linearGradient11557" x1="278.842" x2="1742.346" y1="1023.85" y2="1023.85" gradientUnits="userSpaceOnUse" xlink:href="#linearGradient3641"/><filter id="filter11563"><feGaussianBlur id="feGaussianBlur11565" stdDeviation="24.937"/></filter><linearGradient id="linearGradient2950" x1="30.016" x2="30.016" y1="-133.495" y2="229.558" gradientUnits="userSpaceOnUse" xlink:href="#linearGradient3641-36"/><linearGradient id="linearGradient3641-36"><stop id="stop3643-5" offset="0" stop-color="#fff" stop-opacity="1"/><stop id="stop3645-6" offset="1" stop-color="#fff" stop-opacity="0"/></linearGradient><linearGradient id="linearGradient3849" x1="30.016" x2="30.016" y1="-133.495" y2="229.558" gradientUnits="userSpaceOnUse" xlink:href="#linearGradient3641-36"/><radialGradient id="radialGradient4056" cx="-1724.563" cy="1529.687" r="802.75" fx="-1724.563" fy="1529.687" gradientTransform="translate(0,-3.8111175e-4)" gradientUnits="userSpaceOnUse" xlink:href="#linearGradient3641"/><filter id="filter4062"><feGaussianBlur id="feGaussianBlur4064" stdDeviation="25.688"/></filter><linearGradient id="linearGradient4072" x1="278.842" x2="1742.346" y1="1023.85" y2="1023.85" gradientUnits="userSpaceOnUse" xlink:href="#linearGradient3641"/><linearGradient id="linearGradient4074" x1="278.842" x2="1742.346" y1="1023.85" y2="1023.85" gradientUnits="userSpaceOnUse" xlink:href="#linearGradient3641"/><radialGradient id="radialGradient4080" cx="-1724.563" cy="1529.687" r="802.75" fx="-1724.563" fy="1529.687" gradientTransform="translate(0,-3.8111175e-4)" gradientUnits="userSpaceOnUse" xlink:href="#linearGradient3641"/><linearGradient id="linearGradient4521" x1="278.842" x2="1742.346" y1="1023.85" y2="1023.85" gradientUnits="userSpaceOnUse" xlink:href="#linearGradient3641"/><linearGradient id="linearGradient4523" x1="278.842" x2="1742.346" y1="1023.85" y2="1023.85" gradientUnits="userSpaceOnUse" xlink:href="#linearGradient3641"/><filter id="filter4552"><feGaussianBlur id="feGaussianBlur4554" stdDeviation="7.772"/></filter><linearGradient id="linearGradient4562" x1="139.084" x2="780.408" y1="536.059" y2="536.059" gradientUnits="userSpaceOnUse" xlink:href="#linearGradient3641-36"/><linearGradient id="linearGradient4568" x1="139.084" x2="780.408" y1="536.059" y2="536.059" gradientUnits="userSpaceOnUse" xlink:href="#linearGradient3641-36"/><linearGradient id="linearGradient4572" x1="139.084" x2="780.408" y1="536.059" y2="536.059" gradientUnits="userSpaceOnUse" xlink:href="#linearGradient3641-36"/><filter id="filter4642" width="1.216" height="1.386" x="-.108" y="-.193"><feGaussianBlur id="feGaussianBlur4644" stdDeviation="20.181"/></filter><linearGradient id="linearGradient4656" x1="139.084" x2="780.408" y1="536.059" y2="536.059" gradientUnits="userSpaceOnUse" xlink:href="#linearGradient3641-36"/></defs><g id="g4076" transform="translate(2724.5625,-528.98198)"><path id="path3922" fill="#2a7fff" fill-opacity="1" fill-rule="evenodd" stroke="none" d="m -902.1875,347.46875 c -0.18975,0 -0.34375,0.154 -0.34375,0.34375 l 0,294.1875 c -38.98431,12.77079 -69.81419,43.58217 -82.59375,82.5625 l -294.1875,0 c -0.1898,0 -0.3437,0.154 -0.3437,0.34375 l 0,79.84375 c 0,0.18975 0.1539,0.34375 0.3437,0.34375 l 294.1875,0 c 12.77389,38.99379 43.59996,69.81986 82.59375,82.59375 l 0,294.1875 c 0,0.1898 0.154,0.3438 0.34375,0.3438 l 79.8125,0 c 0.18975,0 0.34375,-0.154 0.34375,-0.3438 l 0,-294.1875 c 38.99378,-12.77389 69.81985,-43.59996 82.59375,-82.59375 l 294.1875,0 c 0.18975,0 0.34375,-0.154 0.34375,-0.34375 l 0,-79.84375 c 0,-0.18975 -0.154,-0.34375 -0.34375,-0.34375 l -294.1875,0 C -752.21707,685.58217 -783.04695,654.77079 -822.03125,642 l 0,-294.1875 c 0,-0.18975 -0.154,-0.34375 -0.34375,-0.34375 l -79.8125,0 z M -878.75,636.625 c -2.1561,0.27413 -4.28464,0.62096 -6.40625,1 2.11787,-0.3809 4.25389,-0.72401 6.40625,-1 z m 32.9375,0 c 2.15236,0.27599 4.28838,0.6191 6.40625,1 -2.12161,-0.37904 -4.25015,-0.72587 -6.40625,-1 z m -16.46875,62.53125 c 36.2729,0 65.68755,29.4146 65.6875,65.6875 0,36.2729 -29.4146,65.6875 -65.6875,65.6875 -36.27295,0 -65.6875,-29.4146 -65.6875,-65.6875 0,-36.2729 29.41455,-65.6875 65.6875,-65.6875 z M -989.5,741.96875 c -0.37904,2.12161 -0.72587,4.25015 -1,6.40625 0.27599,-2.15236 0.6191,-4.28838 1,-6.40625 z m 254.4375,0 c 0.3809,2.11787 0.72401,4.25389 1,6.40625 -0.27413,-2.1561 -0.62096,-4.28464 -1,-6.40625 z M -990.5,781.3125 c 0.27413,2.1561 0.62096,4.28464 1,6.40625 -0.3809,-2.11787 -0.72401,-4.25389 -1,-6.40625 z m 256.4375,0 c -0.27599,2.15236 -0.6191,4.28838 -1,6.40625 0.37904,-2.12161 0.72587,-4.25015 1,-6.40625 z m -151.09375,110.75 c 2.12161,0.37904 4.25015,0.72587 6.40625,1 -2.15236,-0.27599 -4.28838,-0.6191 -6.40625,-1 z m 45.75,0 c -2.11787,0.3809 -4.25389,0.72401 -6.40625,1 2.1561,-0.27413 4.28464,-0.62096 6.40625,-1 z" opacity=".7" transform="scale(2,2)"/><path id="path3922-9" fill="url(#radialGradient4080)" fill-opacity="1" fill-rule="evenodd" stroke="none" d="m -1773.0625,1284 c -0.6187,18.6231 -17.8661,32.3797 -35.2813,34.9375 -68.4498,27.5056 -122.2278,89.7916 -137.6562,162.1875 -193.7708,0 -387.5417,0 -581.3125,0 0,32.3542 0,64.7083 0,97.0625 193.8542,0 387.7083,0 581.5625,0 16.1726,79.5807 79.8415,145.7351 156.8125,169.4375 15.5474,9.9288 18.1025,30.6817 15.875,47.6562 -0.057,179.0521 0.029,358.1042 0,537.1563 32.3333,0 64.6667,0 97,0 0,-193.8542 0,-387.7083 0,-581.5625 76.4036,-15.553 140.5293,-74.8881 166.375,-147.625 1.5589,-7.8575 5.8139,-14.8437 12.8125,-18.875 13.7699,-9.0346 30.8917,-6.608 46.4687,-6.2169 176.198,0.053 352.3959,0.021 528.5938,0.029 0,-32.3542 0,-64.7083 0,-97.0625 -193.8333,0 -387.6667,0 -581.5,0 -16.3934,-80.0496 -80.6286,-146.6074 -158.5625,-169.7188 -14.5227,-11.5478 -15.6181,-32.131 -14.264,-49.3405 0.2333,-178.3624 -0.08,-356.75442 0.076,-535.1282 -32.3333,0 -64.6667,0 -97,0 0,185.6875 0,371.375 0,557.0625 z m 49.6875,81.9375 c 79.4573,-0.5897 153.2802,64.9999 161.386,144.0532 9.3049,73.3089 -36.9051,150.0102 -107.0699,173.8044 -64.5855,23.1756 -143.6057,1.8851 -184.7536,-53.6701 -38.0686,-49.3356 -46.122,-121.5219 -15.6337,-176.5525 28.1505,-52.5678 85.7662,-88.9008 146.0712,-87.635 z" filter="url(#filter4062)" opacity=".4"/></g><g id="g4646"><path id="path3747" fill="#2a7fff" fill-opacity="1" stroke="none" stroke-linecap="butt" stroke-linejoin="miter" stroke-opacity="1" stroke-width="2.21" d="m 148.40998,550.45417 622.67157,0 -311.33579,-348.7897 z" opacity=".7"/><path id="path4570" fill="url(#linearGradient4572)" fill-opacity="1" stroke="none" d="m 459.75,420.5 -223.875,250.8125 447.75,0 L 459.75,420.5 z" filter="url(#filter4642)" opacity=".4" transform="translate(0,-160)"/></g><g id="g4650" transform="matrix(1,0,0,-1,0,2001.4106)"><path id="path4652" fill="#2a7fff" fill-opacity="1" stroke="none" d="m 148.40998,550.45417 622.67157,0 -311.33579,-348.7897 z" opacity=".7"/><path id="path4654" fill="url(#linearGradient4656)" fill-opacity="1" stroke="none" d="m 459.75,420.5 -223.875,250.8125 447.75,0 L 459.75,420.5 z" filter="url(#filter4642)" opacity=".4" transform="translate(0,-160)"/></g></svg>