<svg xmlns="http://www.w3.org/2000/svg" xmlns:svg="http://www.w3.org/2000/svg" xmlns:xlink="http://www.w3.org/1999/xlink" id="svg2" width="1000" height="1000" version="1.1"><defs id="defs4"><linearGradient id="linearGradient3625"><stop id="stop3627" offset="0" stop-color="#fff" stop-opacity="1"/><stop id="stop3629" offset="1" stop-color="#fff" stop-opacity="0"/></linearGradient><linearGradient id="linearGradient3631" x1="-274.272" x2="334.303" y1="34.445" y2="34.445" gradientUnits="userSpaceOnUse" xlink:href="#linearGradient3625"/><linearGradient id="linearGradient3206" x1="-274.272" x2="334.303" y1="34.445" y2="34.445" gradientTransform="translate(769.49471,0)" gradientUnits="userSpaceOnUse" xlink:href="#linearGradient3625"/><linearGradient id="linearGradient4041" x1="-223.374" x2="283.421" y1="34.7" y2="34.7" gradientUnits="userSpaceOnUse" xlink:href="#linearGradient3625"/><linearGradient id="linearGradient4043" x1="-223.374" x2="283.421" y1="34.7" y2="34.7" gradientUnits="userSpaceOnUse" xlink:href="#linearGradient3625"/><linearGradient id="linearGradient4045" x1="-223.374" x2="283.421" y1="34.7" y2="34.7" gradientUnits="userSpaceOnUse" xlink:href="#linearGradient3625"/><linearGradient id="linearGradient4077" x1="-223.374" x2="283.421" y1="34.7" y2="34.7" gradientUnits="userSpaceOnUse" xlink:href="#linearGradient3625"/><linearGradient id="linearGradient4079" x1="-223.374" x2="283.421" y1="34.7" y2="34.7" gradientUnits="userSpaceOnUse" xlink:href="#linearGradient3625"/><linearGradient id="linearGradient4081" x1="-223.374" x2="283.421" y1="34.7" y2="34.7" gradientUnits="userSpaceOnUse" xlink:href="#linearGradient3625"/><linearGradient id="linearGradient4084" x1="-223.374" x2="283.421" y1="34.7" y2="34.7" gradientTransform="translate(-33.672971,35.35662)" gradientUnits="userSpaceOnUse" xlink:href="#linearGradient3625"/><linearGradient id="linearGradient4087" x1="-223.374" x2="283.421" y1="34.7" y2="34.7" gradientTransform="translate(-33.672971,35.35662)" gradientUnits="userSpaceOnUse" xlink:href="#linearGradient3625"/><linearGradient id="linearGradient4091" x1="-223.374" x2="283.421" y1="34.7" y2="34.7" gradientTransform="translate(-33.672971,35.35662)" gradientUnits="userSpaceOnUse" xlink:href="#linearGradient3625"/><linearGradient id="linearGradient4095" x1="-223.374" x2="283.421" y1="34.7" y2="34.7" gradientTransform="translate(-33.672971,35.35662)" gradientUnits="userSpaceOnUse" xlink:href="#linearGradient3625"/><linearGradient id="linearGradient4099" x1="-223.374" x2="283.421" y1="34.7" y2="34.7" gradientTransform="translate(-33.672971,35.35662)" gradientUnits="userSpaceOnUse" xlink:href="#linearGradient3625"/><linearGradient id="linearGradient4103" x1="-223.374" x2="283.421" y1="34.7" y2="34.7" gradientTransform="translate(-33.672971,35.35662)" gradientUnits="userSpaceOnUse" xlink:href="#linearGradient3625"/><linearGradient id="linearGradient4107" x1="-223.374" x2="283.421" y1="34.7" y2="34.7" gradientTransform="translate(-33.672971,35.35662)" gradientUnits="userSpaceOnUse" xlink:href="#linearGradient3625"/><linearGradient id="linearGradient4111" x1="-223.374" x2="283.421" y1="34.7" y2="34.7" gradientTransform="translate(-33.672971,35.35662)" gradientUnits="userSpaceOnUse" xlink:href="#linearGradient3625"/><linearGradient id="linearGradient4115" x1="-223.374" x2="283.421" y1="34.7" y2="34.7" gradientTransform="translate(-33.672971,35.35662)" gradientUnits="userSpaceOnUse" xlink:href="#linearGradient3625"/><linearGradient id="linearGradient4119" x1="-223.374" x2="283.421" y1="34.7" y2="34.7" gradientTransform="translate(-33.672971,35.35662)" gradientUnits="userSpaceOnUse" xlink:href="#linearGradient3625"/><linearGradient id="linearGradient4123" x1="-223.374" x2="283.421" y1="34.7" y2="34.7" gradientTransform="translate(-33.672971,35.35662)" gradientUnits="userSpaceOnUse" xlink:href="#linearGradient3625"/><linearGradient id="linearGradient4127" x1="-223.374" x2="283.421" y1="34.7" y2="34.7" gradientTransform="translate(-33.672971,35.35662)" gradientUnits="userSpaceOnUse" xlink:href="#linearGradient3625"/><linearGradient id="linearGradient4131" x1="-223.374" x2="283.421" y1="34.7" y2="34.7" gradientTransform="translate(-33.672971,35.35662)" gradientUnits="userSpaceOnUse" xlink:href="#linearGradient3625"/><linearGradient id="linearGradient4135" x1="-223.374" x2="283.421" y1="34.7" y2="34.7" gradientTransform="translate(-33.672971,35.35662)" gradientUnits="userSpaceOnUse" xlink:href="#linearGradient3625"/><linearGradient id="linearGradient4139" x1="-223.374" x2="283.421" y1="34.7" y2="34.7" gradientTransform="translate(-33.672971,35.35662)" gradientUnits="userSpaceOnUse" xlink:href="#linearGradient3625"/><linearGradient id="linearGradient4143" x1="-223.374" x2="283.421" y1="34.7" y2="34.7" gradientTransform="translate(-33.672971,35.35662)" gradientUnits="userSpaceOnUse" xlink:href="#linearGradient3625"/><linearGradient id="linearGradient4149" x1="-181.283" x2="246.026" y1="51.536" y2="51.536" gradientTransform="translate(-33.672971,35.35662)" gradientUnits="userSpaceOnUse" xlink:href="#linearGradient3625"/><linearGradient id="linearGradient4151" x1="-12.918" x2="71.281" y1="-91.574" y2="-91.574" gradientTransform="translate(-33.672971,35.35662)" gradientUnits="userSpaceOnUse" xlink:href="#linearGradient3625"/><linearGradient id="linearGradient4154" x1="-12.918" x2="71.281" y1="-91.574" y2="-91.574" gradientTransform="translate(0.125176,0.013274)" gradientUnits="userSpaceOnUse" xlink:href="#linearGradient3625"/><linearGradient id="linearGradient4157" x1="-181.283" x2="246.026" y1="51.536" y2="51.536" gradientTransform="translate(0.12517641,0.013274)" gradientUnits="userSpaceOnUse" xlink:href="#linearGradient3625"/><filter id="filter4171" color-interpolation-filters="sRGB"><feGaussianBlur id="feGaussianBlur4173" stdDeviation="10.146"/></filter><filter id="filter4183" width="1.855" height="1.228" x="-.427" y="-.114" color-interpolation-filters="sRGB"><feGaussianBlur id="feGaussianBlur4185" stdDeviation="10.792"/></filter><linearGradient id="linearGradient4004" x1="-181.283" x2="246.026" y1="51.536" y2="51.536" gradientTransform="translate(0.12517641,0.013274)" gradientUnits="userSpaceOnUse" xlink:href="#linearGradient3625"/><linearGradient id="linearGradient4006" x1="-12.918" x2="71.281" y1="-91.574" y2="-91.574" gradientTransform="translate(0.125176,0.013274)" gradientUnits="userSpaceOnUse" xlink:href="#linearGradient3625"/><linearGradient id="linearGradient4784" x1="-181.283" x2="246.026" y1="51.536" y2="51.536" gradientTransform="translate(0.12517641,0.013274)" gradientUnits="userSpaceOnUse" xlink:href="#linearGradient3625"/><linearGradient id="linearGradient4786" x1="-12.918" x2="71.281" y1="-91.574" y2="-91.574" gradientTransform="translate(0.125176,0.013274)" gradientUnits="userSpaceOnUse" xlink:href="#linearGradient3625"/><linearGradient id="linearGradient5308" x1="-181.283" x2="246.026" y1="51.536" y2="51.536" gradientTransform="translate(0.12517641,0.013274)" gradientUnits="userSpaceOnUse" xlink:href="#linearGradient3625"/></defs><metadata id="metadata7"/><g id="layer1" transform="translate(464.16179,464.03236)"><g id="g4082" transform="translate(0,1.552561)"><g id="g4060" transform="matrix(1.5074827,0,0,1.5074827,-9.4212231,-17.89429)"><path font-stretch="normal" style="line-height:normal;-inkscape-font-specification:Sans;text-indent:0;text-align:start;text-decoration-line:none;text-transform:none;block-progression:tb;marker:none" id="path3977" fill="#2a7fff" fill-opacity="1" stroke="none" stroke-width="110" d="m -87.653525,-158.75326 c -87.136425,43.5003 -147.275765,133.659853 -147.275765,237.280341 0,145.822809 119.11747,264.940279 264.940276,264.940279 145.822804,0 264.964674,-119.11748 264.964674,-264.940279 0,-103.620488 -60.15661,-193.780031 -147.30016,-237.280341 l 0,101.883222 c 37.71413,32.757839 61.44214,81.144873 61.44214,135.397119 0,99.421679 -79.68498,179.082259 -179.106654,179.082259 -99.421681,0 -179.082266,-79.66058 -179.082266,-179.082259 0,-54.252237 23.71023,-102.63928 61.417755,-135.397119 l 0,-101.883222 z" baseline-shift="baseline" color="#000" direction="ltr" display="inline" enable-background="accumulate" font-family="Sans" font-size="medium" font-style="normal" font-variant="normal" font-weight="normal" letter-spacing="normal" opacity="1" overflow="visible" text-anchor="start" text-decoration="none" visibility="visible" word-spacing="normal" writing-mode="lr-tb"/><path id="rect3983" fill="#2a7fff" fill-opacity="1" stroke="none" d="m 30.013512,-273.7939 c 28.485098,0 51.417145,22.93204 51.417145,51.41714 l 0,197.392642 c 0,28.485098 -22.932047,51.417145 -51.417145,51.417145 -28.4850987,0 -51.417145,-22.932047 -51.417145,-51.417145 l 0,-197.392642 c 0,-28.4851 22.9320463,-51.41714 51.417145,-51.41714 z" opacity="1"/><path font-stretch="normal" style="line-height:normal;-inkscape-font-specification:Sans;text-indent:0;text-align:start;text-decoration-line:none;text-transform:none;block-progression:tb;marker:none" id="path4023" fill="url(#linearGradient5308)" fill-opacity="1" stroke="none" stroke-width="110" d="m -84.608103,-105.4371 c -69.642327,44.661782 -109.181527,132.532075 -93.258607,214.29637 13.44009,76.22164 71.66655,143.2426 146.284938,164.94906 63.759636,19.74658 137.047852,7.32543 189.485042,-34.04264 52.7998,-40.15991 85.69439,-105.52517 83.40508,-172.233816 -1.10889,-66.410105 -35.55286,-131.377207 -90.58266,-168.808374 -4.78391,-4.26562 -8.27846,-5.48626 -6.58379,2.558154 0,16.385417 0,32.770833 0,49.15625 56.14382,50.91672 69.13892,143.45002 28.40625,207.718746 C 138.78498,214.62906 69.263351,247.80003 4.0071204,236.11437 -56.222649,226.76969 -110.23476,182.44137 -127.97661,123.61087 -146.551,66.724854 -132.57655,-0.395256 -90.264353,-43.093346 c 2.88248,-3.521257 8.08026,-5.790521 6.35861,-11.187433 -0.11159,-17.197889 0.33825,-34.397473 -0.0461,-51.593821 l -0.65625,0.4375 z" baseline-shift="baseline" color="#000" direction="ltr" display="inline" enable-background="accumulate" filter="url(#filter4171)" font-family="Sans" font-size="medium" font-style="normal" font-variant="normal" font-weight="normal" letter-spacing="normal" opacity=".4" overflow="visible" text-anchor="start" text-decoration="none" transform="matrix(1.1766316,0,0,1.1766316,-5.3030442,-5.9921746)" visibility="visible" word-spacing="normal" writing-mode="lr-tb"/><path id="path4025" fill="url(#linearGradient4786)" fill-opacity="1" stroke="none" d="m 29.516897,-213.5621 c -19.01785,-0.45893 -33.405125,20.68617 -29.0625,38.625 0.840363,56.26749 -1.826979,112.660516 1.53125,168.843754 6.247713,19.868021 36.47712,27.037079 49.75,10.375 9.811776,-10.238045 8.975246,-25.328196 8.00686,-38.374926 -0.690159,-53.435465 2.126278,-107.079548 -1.72561,-160.375078 -4.401797,-11.34603 -16.205972,-19.72291 -28.5,-19.09375 z" filter="url(#filter4183)" opacity=".4" transform="matrix(1.1766316,0,0,1.1766316,-5.3030443,-5.9921746)"/></g></g></g></svg>