<svg xmlns="http://www.w3.org/2000/svg" xmlns:svg="http://www.w3.org/2000/svg" xmlns:xlink="http://www.w3.org/1999/xlink" id="svg2" width="1000" height="1000" version="1.1"><defs id="defs4"><linearGradient id="linearGradient3625"><stop id="stop3627" offset="0" stop-color="#fff" stop-opacity="1"/><stop id="stop3629" offset="1" stop-color="#fff" stop-opacity="0"/></linearGradient><linearGradient id="linearGradient3631" x1="-274.272" x2="334.303" y1="34.445" y2="34.445" gradientUnits="userSpaceOnUse" xlink:href="#linearGradient3625"/><linearGradient id="linearGradient3206" x1="-274.272" x2="334.303" y1="34.445" y2="34.445" gradientTransform="translate(769.49471,0)" gradientUnits="userSpaceOnUse" xlink:href="#linearGradient3625"/><linearGradient id="linearGradient4041" x1="-223.374" x2="283.421" y1="34.7" y2="34.7" gradientUnits="userSpaceOnUse" xlink:href="#linearGradient3625"/><linearGradient id="linearGradient4043" x1="-223.374" x2="283.421" y1="34.7" y2="34.7" gradientUnits="userSpaceOnUse" xlink:href="#linearGradient3625"/><linearGradient id="linearGradient4045" x1="-223.374" x2="283.421" y1="34.7" y2="34.7" gradientUnits="userSpaceOnUse" xlink:href="#linearGradient3625"/><linearGradient id="linearGradient4077" x1="-223.374" x2="283.421" y1="34.7" y2="34.7" gradientUnits="userSpaceOnUse" xlink:href="#linearGradient3625"/><linearGradient id="linearGradient4079" x1="-223.374" x2="283.421" y1="34.7" y2="34.7" gradientUnits="userSpaceOnUse" xlink:href="#linearGradient3625"/><linearGradient id="linearGradient4081" x1="-223.374" x2="283.421" y1="34.7" y2="34.7" gradientUnits="userSpaceOnUse" xlink:href="#linearGradient3625"/><linearGradient id="linearGradient4084" x1="-223.374" x2="283.421" y1="34.7" y2="34.7" gradientTransform="translate(-33.672971,35.35662)" gradientUnits="userSpaceOnUse" xlink:href="#linearGradient3625"/><linearGradient id="linearGradient4087" x1="-223.374" x2="283.421" y1="34.7" y2="34.7" gradientTransform="translate(-33.672971,35.35662)" gradientUnits="userSpaceOnUse" xlink:href="#linearGradient3625"/><linearGradient id="linearGradient4091" x1="-223.374" x2="283.421" y1="34.7" y2="34.7" gradientTransform="translate(-33.672971,35.35662)" gradientUnits="userSpaceOnUse" xlink:href="#linearGradient3625"/><linearGradient id="linearGradient4095" x1="-223.374" x2="283.421" y1="34.7" y2="34.7" gradientTransform="translate(-33.672971,35.35662)" gradientUnits="userSpaceOnUse" xlink:href="#linearGradient3625"/><linearGradient id="linearGradient4099" x1="-223.374" x2="283.421" y1="34.7" y2="34.7" gradientTransform="translate(-33.672971,35.35662)" gradientUnits="userSpaceOnUse" xlink:href="#linearGradient3625"/><linearGradient id="linearGradient4103" x1="-223.374" x2="283.421" y1="34.7" y2="34.7" gradientTransform="translate(-33.672971,35.35662)" gradientUnits="userSpaceOnUse" xlink:href="#linearGradient3625"/><linearGradient id="linearGradient4107" x1="-223.374" x2="283.421" y1="34.7" y2="34.7" gradientTransform="translate(-33.672971,35.35662)" gradientUnits="userSpaceOnUse" xlink:href="#linearGradient3625"/><linearGradient id="linearGradient4111" x1="-223.374" x2="283.421" y1="34.7" y2="34.7" gradientTransform="translate(-33.672971,35.35662)" gradientUnits="userSpaceOnUse" xlink:href="#linearGradient3625"/><linearGradient id="linearGradient4115" x1="-223.374" x2="283.421" y1="34.7" y2="34.7" gradientTransform="translate(-33.672971,35.35662)" gradientUnits="userSpaceOnUse" xlink:href="#linearGradient3625"/><linearGradient id="linearGradient4119" x1="-223.374" x2="283.421" y1="34.7" y2="34.7" gradientTransform="translate(-33.672971,35.35662)" gradientUnits="userSpaceOnUse" xlink:href="#linearGradient3625"/><linearGradient id="linearGradient4123" x1="-223.374" x2="283.421" y1="34.7" y2="34.7" gradientTransform="translate(-33.672971,35.35662)" gradientUnits="userSpaceOnUse" xlink:href="#linearGradient3625"/><linearGradient id="linearGradient4127" x1="-223.374" x2="283.421" y1="34.7" y2="34.7" gradientTransform="translate(-33.672971,35.35662)" gradientUnits="userSpaceOnUse" xlink:href="#linearGradient3625"/><linearGradient id="linearGradient4131" x1="-223.374" x2="283.421" y1="34.7" y2="34.7" gradientTransform="translate(-33.672971,35.35662)" gradientUnits="userSpaceOnUse" xlink:href="#linearGradient3625"/><linearGradient id="linearGradient4135" x1="-223.374" x2="283.421" y1="34.7" y2="34.7" gradientTransform="translate(-33.672971,35.35662)" gradientUnits="userSpaceOnUse" xlink:href="#linearGradient3625"/><linearGradient id="linearGradient4139" x1="-223.374" x2="283.421" y1="34.7" y2="34.7" gradientTransform="translate(-33.672971,35.35662)" gradientUnits="userSpaceOnUse" xlink:href="#linearGradient3625"/><linearGradient id="linearGradient4143" x1="-223.374" x2="283.421" y1="34.7" y2="34.7" gradientTransform="translate(-33.672971,35.35662)" gradientUnits="userSpaceOnUse" xlink:href="#linearGradient3625"/><linearGradient id="linearGradient4149" x1="-181.283" x2="246.026" y1="51.536" y2="51.536" gradientTransform="translate(-33.672971,35.35662)" gradientUnits="userSpaceOnUse" xlink:href="#linearGradient3625"/><linearGradient id="linearGradient4151" x1="-12.918" x2="71.281" y1="-91.574" y2="-91.574" gradientTransform="translate(-33.672971,35.35662)" gradientUnits="userSpaceOnUse" xlink:href="#linearGradient3625"/><linearGradient id="linearGradient4154" x1="-12.918" x2="71.281" y1="-91.574" y2="-91.574" gradientTransform="translate(0.125176,0.013274)" gradientUnits="userSpaceOnUse" xlink:href="#linearGradient3625"/><linearGradient id="linearGradient4157" x1="-181.283" x2="246.026" y1="51.536" y2="51.536" gradientTransform="translate(0.12517641,0.013274)" gradientUnits="userSpaceOnUse" xlink:href="#linearGradient3625"/><linearGradient id="linearGradient4195" x1="-181.283" x2="246.026" y1="51.536" y2="51.536" gradientTransform="translate(0.12517641,0.013274)" gradientUnits="userSpaceOnUse" xlink:href="#linearGradient3625"/><linearGradient id="linearGradient4197" x1="-12.918" x2="71.281" y1="-91.574" y2="-91.574" gradientTransform="translate(0.125176,0.013274)" gradientUnits="userSpaceOnUse" xlink:href="#linearGradient3625"/><filter id="filter4183" width="1.855" height="1.228" x="-.427" y="-.114" color-interpolation-filters="sRGB"><feGaussianBlur id="feGaussianBlur4185" stdDeviation="10.792"/></filter><linearGradient id="linearGradient4157-2" x1="-181.283" x2="246.026" y1="51.536" y2="51.536" gradientTransform="translate(0.12517641,0.013274)" gradientUnits="userSpaceOnUse" xlink:href="#linearGradient3625-4"/><linearGradient id="linearGradient4154-0" x1="-12.918" x2="71.281" y1="-91.574" y2="-91.574" gradientTransform="translate(0.125176,0.013274)" gradientUnits="userSpaceOnUse" xlink:href="#linearGradient3625-4"/><linearGradient id="linearGradient4151-6" x1="-12.918" x2="71.281" y1="-91.574" y2="-91.574" gradientTransform="translate(-33.672971,35.35662)" gradientUnits="userSpaceOnUse" xlink:href="#linearGradient3625-4"/><linearGradient id="linearGradient4149-8" x1="-181.283" x2="246.026" y1="51.536" y2="51.536" gradientTransform="translate(-33.672971,35.35662)" gradientUnits="userSpaceOnUse" xlink:href="#linearGradient3625-4"/><linearGradient id="linearGradient4143-2" x1="-223.374" x2="283.421" y1="34.7" y2="34.7" gradientTransform="translate(-33.672971,35.35662)" gradientUnits="userSpaceOnUse" xlink:href="#linearGradient3625-4"/><linearGradient id="linearGradient4139-0" x1="-223.374" x2="283.421" y1="34.7" y2="34.7" gradientTransform="translate(-33.672971,35.35662)" gradientUnits="userSpaceOnUse" xlink:href="#linearGradient3625-4"/><linearGradient id="linearGradient4135-5" x1="-223.374" x2="283.421" y1="34.7" y2="34.7" gradientTransform="translate(-33.672971,35.35662)" gradientUnits="userSpaceOnUse" xlink:href="#linearGradient3625-4"/><linearGradient id="linearGradient4131-6" x1="-223.374" x2="283.421" y1="34.7" y2="34.7" gradientTransform="translate(-33.672971,35.35662)" gradientUnits="userSpaceOnUse" xlink:href="#linearGradient3625-4"/><linearGradient id="linearGradient4127-8" x1="-223.374" x2="283.421" y1="34.7" y2="34.7" gradientTransform="translate(-33.672971,35.35662)" gradientUnits="userSpaceOnUse" xlink:href="#linearGradient3625-4"/><linearGradient id="linearGradient4123-9" x1="-223.374" x2="283.421" y1="34.7" y2="34.7" gradientTransform="translate(-33.672971,35.35662)" gradientUnits="userSpaceOnUse" xlink:href="#linearGradient3625-4"/><linearGradient id="linearGradient4119-1" x1="-223.374" x2="283.421" y1="34.7" y2="34.7" gradientTransform="translate(-33.672971,35.35662)" gradientUnits="userSpaceOnUse" xlink:href="#linearGradient3625-4"/><linearGradient id="linearGradient4115-3" x1="-223.374" x2="283.421" y1="34.7" y2="34.7" gradientTransform="translate(-33.672971,35.35662)" gradientUnits="userSpaceOnUse" xlink:href="#linearGradient3625-4"/><linearGradient id="linearGradient4111-9" x1="-223.374" x2="283.421" y1="34.7" y2="34.7" gradientTransform="translate(-33.672971,35.35662)" gradientUnits="userSpaceOnUse" xlink:href="#linearGradient3625-4"/><linearGradient id="linearGradient4107-7" x1="-223.374" x2="283.421" y1="34.7" y2="34.7" gradientTransform="translate(-33.672971,35.35662)" gradientUnits="userSpaceOnUse" xlink:href="#linearGradient3625-4"/><linearGradient id="linearGradient4103-7" x1="-223.374" x2="283.421" y1="34.7" y2="34.7" gradientTransform="translate(-33.672971,35.35662)" gradientUnits="userSpaceOnUse" xlink:href="#linearGradient3625-4"/><linearGradient id="linearGradient4099-2" x1="-223.374" x2="283.421" y1="34.7" y2="34.7" gradientTransform="translate(-33.672971,35.35662)" gradientUnits="userSpaceOnUse" xlink:href="#linearGradient3625-4"/><linearGradient id="linearGradient4095-4" x1="-223.374" x2="283.421" y1="34.7" y2="34.7" gradientTransform="translate(-33.672971,35.35662)" gradientUnits="userSpaceOnUse" xlink:href="#linearGradient3625-4"/><linearGradient id="linearGradient4091-7" x1="-223.374" x2="283.421" y1="34.7" y2="34.7" gradientTransform="translate(-33.672971,35.35662)" gradientUnits="userSpaceOnUse" xlink:href="#linearGradient3625-4"/><linearGradient id="linearGradient4087-8" x1="-223.374" x2="283.421" y1="34.7" y2="34.7" gradientTransform="translate(-33.672971,35.35662)" gradientUnits="userSpaceOnUse" xlink:href="#linearGradient3625-4"/><linearGradient id="linearGradient4084-3" x1="-223.374" x2="283.421" y1="34.7" y2="34.7" gradientTransform="translate(-33.672971,35.35662)" gradientUnits="userSpaceOnUse" xlink:href="#linearGradient3625-4"/><linearGradient id="linearGradient4081-1" x1="-223.374" x2="283.421" y1="34.7" y2="34.7" gradientUnits="userSpaceOnUse" xlink:href="#linearGradient3625-4"/><linearGradient id="linearGradient4079-1" x1="-223.374" x2="283.421" y1="34.7" y2="34.7" gradientUnits="userSpaceOnUse" xlink:href="#linearGradient3625-4"/><linearGradient id="linearGradient4077-4" x1="-223.374" x2="283.421" y1="34.7" y2="34.7" gradientUnits="userSpaceOnUse" xlink:href="#linearGradient3625-4"/><linearGradient id="linearGradient4045-3" x1="-223.374" x2="283.421" y1="34.7" y2="34.7" gradientUnits="userSpaceOnUse" xlink:href="#linearGradient3625-4"/><linearGradient id="linearGradient4043-3" x1="-223.374" x2="283.421" y1="34.7" y2="34.7" gradientUnits="userSpaceOnUse" xlink:href="#linearGradient3625-4"/><linearGradient id="linearGradient4041-2" x1="-223.374" x2="283.421" y1="34.7" y2="34.7" gradientUnits="userSpaceOnUse" xlink:href="#linearGradient3625-4"/><linearGradient id="linearGradient3206-1" x1="-274.272" x2="334.303" y1="34.445" y2="34.445" gradientTransform="translate(769.49471,0)" gradientUnits="userSpaceOnUse" xlink:href="#linearGradient3625-4"/><linearGradient id="linearGradient3631-3" x1="-274.272" x2="334.303" y1="34.445" y2="34.445" gradientUnits="userSpaceOnUse" xlink:href="#linearGradient3625-4"/><linearGradient id="linearGradient3625-4"><stop id="stop3627-0" offset="0" stop-color="#fff" stop-opacity="1"/><stop id="stop3629-9" offset="1" stop-color="#fff" stop-opacity="0"/></linearGradient><linearGradient id="linearGradient4082" x1="-12.918" x2="71.281" y1="-91.574" y2="-91.574" gradientTransform="translate(0.125176,0.013274)" gradientUnits="userSpaceOnUse" xlink:href="#linearGradient3625-4"/><linearGradient id="linearGradient4088" x1="-12.918" x2="71.281" y1="-91.574" y2="-91.574" gradientTransform="translate(0.125176,0.013274)" gradientUnits="userSpaceOnUse" xlink:href="#linearGradient3625-4"/><linearGradient id="linearGradient4092" x1="-12.918" x2="71.281" y1="-91.574" y2="-91.574" gradientTransform="translate(583.87979,3.473256)" gradientUnits="userSpaceOnUse" xlink:href="#linearGradient3625-4"/><linearGradient id="linearGradient4100" x1="-12.918" x2="71.281" y1="-91.574" y2="-91.574" gradientTransform="translate(583.87979,3.473256)" gradientUnits="userSpaceOnUse" xlink:href="#linearGradient3625-4"/><linearGradient id="linearGradient4008" x1="-12.918" x2="71.281" y1="-91.574" y2="-91.574" gradientTransform="translate(583.87979,3.473256)" gradientUnits="userSpaceOnUse" xlink:href="#linearGradient3625-4"/><linearGradient id="linearGradient4796" x1="-12.918" x2="71.281" y1="-91.574" y2="-91.574" gradientTransform="translate(583.87979,3.473256)" gradientUnits="userSpaceOnUse" xlink:href="#linearGradient3625-4"/></defs><metadata id="metadata7"/><g id="layer1" transform="translate(464.16179,464.03236)"><g id="g4082" transform="translate(0,1.552561)"><g id="g4060" transform="matrix(1.5074827,0,0,1.5074827,-9.4212231,-17.89429)"><path font-stretch="normal" style="line-height:normal;-inkscape-font-specification:Sans;text-indent:0;text-align:start;text-decoration-line:none;text-transform:none;block-progression:tb;marker:none" id="path3832" fill="#2a7fff" fill-opacity=".652" stroke="none" stroke-width="50.67" d="M -88.785465,-132.68836 C -165.40086,-90.572569 -217.44459,-9.0709456 -217.44459,84.344206 c 0,136.440714 111.02492,247.465634 247.465635,247.465634 136.440715,0 247.490635,-111.02492 247.490635,-247.465634 0,-93.41656 -52.06684,-174.917327 -128.68413,-217.032566 l 0,46.787414 c 53.64352,37.457766 88.64852,99.665345 88.64852,170.245152 0,114.817384 -92.63765,207.455024 -207.455025,207.455024 -114.817372,0 -207.455025,-92.63764 -207.455025,-207.455024 0,-70.579807 34.99781,-132.787386 88.648515,-170.245152 l 0,-46.787414 z" baseline-shift="baseline" color="#000" direction="ltr" display="inline" enable-background="accumulate" font-family="Sans" font-size="medium" font-style="normal" font-variant="normal" font-weight="normal" letter-spacing="normal" opacity=".7" overflow="visible" text-anchor="start" text-decoration="none" visibility="visible" word-spacing="normal" writing-mode="lr-tb"/><path id="rect3983" fill="#2a7fff" fill-opacity="1" stroke="none" d="m 30.011126,-273.3333 c 29.203489,0 52.713888,23.51038 52.713888,52.71387 l 0,202.370865 c 0,29.203488 -23.510399,52.713879 -52.713888,52.713879 -29.20348822,0 -52.713875,-23.510391 -52.713875,-52.713879 l 0,-202.370865 c 0,-29.20349 23.51038678,-52.71387 52.713875,-52.71387 z" opacity="1"/><path id="path4025" fill="url(#linearGradient4796)" fill-opacity="1" stroke="none" d="m 613.27151,-210.10212 c -19.01785,-0.45893 -33.40513,20.68617 -29.0625,38.625 0.84036,56.26749 -1.82698,112.660518 1.53125,168.843756 6.24771,19.868021 36.47712,27.037079 49.75,10.375 9.81177,-10.238045 8.97524,-25.328196 8.00686,-38.374926 -0.69016,-53.435465 2.12627,-107.07955 -1.72561,-160.37508 -4.4018,-11.34603 -16.20598,-19.72291 -28.5,-19.09375 z" filter="url(#filter4183)" opacity=".4" transform="matrix(1.2063061,0,0,1.2063061,-710.38285,-2.9514445)"/></g></g></g></svg>