<svg xmlns="http://www.w3.org/2000/svg" xmlns:svg="http://www.w3.org/2000/svg" xmlns:xlink="http://www.w3.org/1999/xlink" id="svg2" width="1000" height="1000" version="1.1"><defs id="defs4"><linearGradient id="linearGradient8562" x1="-213.564" x2="253.595" y1="24.514" y2="24.514" gradientTransform="matrix(0,1,-1,0,44.530081,4.498828)" gradientUnits="userSpaceOnUse" xlink:href="#linearGradient3641"/><linearGradient id="linearGradient3641"><stop id="stop3643" offset="0" stop-color="#fff" stop-opacity="1"/><stop id="stop3645" offset="1" stop-color="#fff" stop-opacity="0"/></linearGradient><linearGradient id="linearGradient6791" x1="-213.564" x2="253.595" y1="24.514" y2="24.514" gradientTransform="matrix(0,1,-1,0,44.530081,4.498828)" gradientUnits="userSpaceOnUse" xlink:href="#linearGradient3641"/><linearGradient id="linearGradient10554" x1="-219.851" x2="74.444" y1="137.424" y2="137.424" gradientUnits="userSpaceOnUse" xlink:href="#linearGradient3641-6"/><linearGradient id="linearGradient3641-6"><stop id="stop3643-4" offset="0" stop-color="#fff" stop-opacity="1"/><stop id="stop3645-9" offset="1" stop-color="#fff" stop-opacity="0"/></linearGradient><linearGradient id="linearGradient10556" x1="-219.663" x2="279.881" y1="34.625" y2="34.625" gradientUnits="userSpaceOnUse" xlink:href="#linearGradient3641-6"/><linearGradient id="linearGradient3179" x1="-219.663" x2="279.881" y1="34.625" y2="34.625" gradientUnits="userSpaceOnUse" xlink:href="#linearGradient3641-6"/><linearGradient id="linearGradient3641-6-0"><stop id="stop3643-4-4" offset="0" stop-color="#fff" stop-opacity="1"/><stop id="stop3645-9-8" offset="1" stop-color="#fff" stop-opacity="0"/></linearGradient><linearGradient id="linearGradient3275" x1="-219.851" x2="74.444" y1="137.424" y2="137.424" gradientUnits="userSpaceOnUse" xlink:href="#linearGradient3641-6-0"/><linearGradient id="linearGradient3279" x1="-181.867" x2="2.605" y1="212.954" y2="28.482" gradientUnits="userSpaceOnUse" xlink:href="#linearGradient3641-6-0"/><linearGradient id="linearGradient3285" x1="-181.867" x2="2.605" y1="212.954" y2="28.482" gradientUnits="userSpaceOnUse" xlink:href="#linearGradient3641-6-0"/><linearGradient id="linearGradient5003" x1="-181.867" x2="2.605" y1="212.954" y2="28.482" gradientUnits="userSpaceOnUse" xlink:href="#linearGradient3641-6-0"/><linearGradient id="linearGradient5011" x1="-181.867" x2="2.605" y1="212.954" y2="28.482" gradientUnits="userSpaceOnUse" xlink:href="#linearGradient3641-6-0"/><linearGradient id="linearGradient5017" x1="-181.867" x2="2.605" y1="212.954" y2="28.482" gradientUnits="userSpaceOnUse" xlink:href="#linearGradient3641-6-0"/><linearGradient id="linearGradient5022" x1="-181.867" x2="2.605" y1="212.954" y2="28.482" gradientUnits="userSpaceOnUse" xlink:href="#linearGradient3641-6-0"/><linearGradient id="linearGradient3637"><stop id="stop3639" offset="0" stop-color="#f0f0f0" stop-opacity="1"/><stop id="stop3641" offset="1" stop-color="#aaa" stop-opacity="1"/></linearGradient><linearGradient id="linearGradient3741" x1="-189.496" x2="249.49" y1="34.822" y2="34.822" gradientUnits="userSpaceOnUse" xlink:href="#linearGradient3641"/><filter id="filter3747"><feGaussianBlur id="feGaussianBlur3749" stdDeviation="7.699"/></filter><linearGradient id="linearGradient16627" x1="-189.496" x2="249.49" y1="34.822" y2="34.822" gradientTransform="translate(4.0070574,3.8050462)" gradientUnits="userSpaceOnUse" xlink:href="#linearGradient3641"/><linearGradient id="linearGradient43137" x1="-189.496" x2="249.49" y1="34.822" y2="34.822" gradientTransform="translate(-699.1519,3.8050462)" gradientUnits="userSpaceOnUse" xlink:href="#linearGradient3641"/><linearGradient id="linearGradient43179" x1="-189.496" x2="249.49" y1="34.822" y2="34.822" gradientTransform="translate(-699.1519,3.8050462)" gradientUnits="userSpaceOnUse" xlink:href="#linearGradient3641"/></defs><metadata id="metadata7"/><g id="layer1" transform="translate(464.16179,464.03236)"><g id="g4082" transform="translate(0,1.552561)"><g id="g4060" transform="matrix(1.5074827,0,0,1.5074827,-9.4212231,-17.89429)"><g id="g43659" transform="translate(-2.3789744,1.7223274)"><g id="g43647" transform="matrix(0.9310975,0,0,0.93198238,-0.38787973,0.3733583)"><path id="path3109" fill="#2a7fff" fill-opacity="1" fill-rule="nonzero" stroke="none" stroke-width="2" d="m -16.59694,-266.35119 c -18.735146,0 -33.817983,15.10418 -33.817983,33.8659 l 0,358.01116 c 0,18.76172 15.082837,33.86591 33.817983,33.86591 l 280.20641,0 c 18.73518,0 33.818,-15.10419 33.818,-33.86591 l 0,-358.01116 c 0,-18.76172 -15.08282,-33.8659 -33.818,-33.8659 z m 41.064734,58.05579 198.076936,0 c 9.36753,0 16.90893,7.55209 16.90893,16.93302 l 0,275.765354 c 0,9.380765 -7.5414,16.932876 -16.90893,16.932876 l -198.076936,0 c -9.367696,0 -16.9090707,-7.552111 -16.9090707,-16.932876 l 0,-275.765354 c 0,-9.38093 7.5413747,-16.93302 16.9090707,-16.93302 z" color="#000" display="inline" enable-background="accumulate" opacity=".7" overflow="visible" visibility="visible" style="marker:none"/><path id="path3109-4" fill="url(#linearGradient16627)" fill-opacity="1" fill-rule="nonzero" stroke="none" stroke-width="2" d="m 253.13511,-249.54175 c -103.15838,1.60519 -206.361214,-1.04819 -309.500002,1.34375 -13.21081,2.67071 -19.52928,18.13253 -17.54765,30.46549 0.98429,43.64442 0.13158,87.31595 0.39275,130.971981 -0.0143,86.327082 -0.63317,172.710084 0.87365,259.000029 4.134623,13.46246 20.333967,19.01289 33.124988,16.15132 101.024499,-0.60992 202.190274,1.26741 303.125014,-1.02632 13.11329,-4.35414 18.49363,-20.28979 15.71618,-33 -0.46104,-129.020306 0.99958,-258.04869 -0.84118,-387.0625 -3.11331,-10.70301 -14.56262,-17.42207 -25.34375,-16.84375 z M -5.3023914,-213.948 c 74.7201434,1.28121 149.4992714,-1.08236 224.1875014,1.25 17.85722,3.60897 27.78181,23.40239 25.34897,40.53108 -1.58621,100.575866 1.39707,201.195652 -1.53647,301.75017 -5.14156,18.0656 -25.96995,26.83722 -43.46872,23.33667 -71.59016,-0.77492 -143.305958,1.76014 -214.812532,-1.43042 -17.994254,-5.60342 -25.938869,-26.71631 -22.496581,-44.15624 0.483817,-98.802591 -1.106855,-197.687388 0.934081,-296.43751 3.330951,-14.25309 17.434226,-24.49784 31.8437506,-24.84375 z" color="#000" display="inline" enable-background="accumulate" filter="url(#filter3747)" opacity=".4" overflow="visible" transform="matrix(0.91327113,0,0,0.91456487,29.545245,-25.723656)" visibility="visible" style="marker:none"/></g><g id="g43655" transform="matrix(0.9310975,0,0,0.93198238,-12.740891,12.738109)"><path id="path43133" fill="#2a7fff" fill-opacity="1" fill-rule="nonzero" stroke="none" stroke-width="2" d="m -179.86146,-102.87421 c -18.73515,0 -33.81797,15.10419 -33.81797,33.865903 l 0,358.011167 c 0,18.76171 15.08282,33.8659 33.81797,33.8659 l 280.20645,0 c 18.73516,0 33.81798,-15.10419 33.81798,-33.8659 l 0,-24.19003 -74.882726,0 -198.076894,0 c -9.3677,0 -16.90907,-7.55209 -16.90907,-16.93288 l 0,-275.765345 0,-74.988815 z" color="#000" display="inline" enable-background="accumulate" opacity=".2" overflow="visible" visibility="visible" style="marker:none"/><path id="path43135" fill="url(#linearGradient43137)" fill-opacity="1" fill-rule="nonzero" stroke="none" stroke-width="2" d="m -839.18009,-164.448 c -15.60044,-0.0529 -25.91975,17.86701 -22.15625,32 0.6416,129.88877 -1.27317,259.83629 1.03125,389.6875 4.31487,13.30899 20.3163,18.57679 33.03124,15.80757 101.02409,-0.63137 202.10994,1.30975 303.09374,-1.05757 13.18663,-4.30662 18.5657,-20.44222 15.56251,-33.21875 -2.85875,-2.75323 -11.6462,-0.45766 -16.8124,-1.24602 -92.13223,-0.3217 -184.29823,1.19614 -276.40634,-0.94148 -18.4899,-4.66933 -27.63583,-25.99587 -24.03125,-43.71875 l 0,-357.34375 c -4.43752,0.007 -8.87518,-0.0219 -13.3125,0.0312 z" color="#000" display="inline" enable-background="accumulate" filter="url(#filter3747)" opacity=".4" overflow="visible" transform="matrix(0.91327113,0,0,0.91456487,585.75384,60.345517)" visibility="visible" style="marker:none"/></g><g id="g43651" transform="matrix(0.9310975,0,0,0.93198238,-0.38787973,0.3733583)"><path id="path43175" fill="#2a7fff" fill-opacity="1" fill-rule="nonzero" stroke="none" stroke-width="2" d="m -103.08962,-179.6858 c -18.73515,0 -33.81797,15.10418 -33.81797,33.8659 l 0,358.01116 c 0,18.76171 15.08282,33.86589 33.81797,33.86589 l 280.20645,0 c 18.73516,0 33.81798,-15.10418 33.81798,-33.86589 l 0,-24.19003 -74.88273,0 -198.076888,0 c -9.367695,0 -16.909068,-7.55209 -16.909068,-16.93288 l 0,-275.76535 0,-74.9888 z" color="#000" display="inline" enable-background="accumulate" opacity=".4" overflow="visible" visibility="visible" style="marker:none"/><path id="path43177" fill="url(#linearGradient43179)" fill-opacity="1" fill-rule="nonzero" stroke="none" stroke-width="2" d="m -839.18009,-164.448 c -15.60044,-0.0529 -25.91975,17.86701 -22.15625,32 0.6416,129.88877 -1.27317,259.83629 1.03125,389.6875 4.31487,13.30899 20.3163,18.57679 33.03124,15.80757 101.02409,-0.63137 202.10994,1.30975 303.09374,-1.05757 13.18663,-4.30662 18.5657,-20.44222 15.56251,-33.21875 -2.85875,-2.75323 -11.6462,-0.45766 -16.8124,-1.24602 -92.13223,-0.3217 -184.29823,1.19614 -276.40634,-0.94148 -18.4899,-4.66933 -27.63583,-25.99587 -24.03125,-43.71875 l 0,-357.34375 c -4.43752,0.007 -8.87518,-0.0219 -13.3125,0.0312 z" color="#000" display="inline" enable-background="accumulate" filter="url(#filter3747)" opacity=".4" overflow="visible" transform="matrix(0.91327113,0,0,0.91456487,662.52568,-16.466082)" visibility="visible" style="marker:none"/></g></g></g></g></g></svg>