<svg xmlns="http://www.w3.org/2000/svg" xmlns:svg="http://www.w3.org/2000/svg" xmlns:xlink="http://www.w3.org/1999/xlink" id="svg2" width="1000" height="1000" version="1.1"><defs id="defs4"><linearGradient id="linearGradient8562" x1="-213.564" x2="253.595" y1="24.514" y2="24.514" gradientTransform="matrix(0,1,-1,0,44.530081,4.498828)" gradientUnits="userSpaceOnUse" xlink:href="#linearGradient3641"/><linearGradient id="linearGradient3641"><stop id="stop3643" offset="0" stop-color="#fff" stop-opacity="1"/><stop id="stop3645" offset="1" stop-color="#fff" stop-opacity="0"/></linearGradient><linearGradient id="linearGradient6791" x1="-213.564" x2="253.595" y1="24.514" y2="24.514" gradientTransform="matrix(0,1,-1,0,44.530081,4.498828)" gradientUnits="userSpaceOnUse" xlink:href="#linearGradient3641"/><linearGradient id="linearGradient10554" x1="-219.851" x2="74.444" y1="137.424" y2="137.424" gradientUnits="userSpaceOnUse" xlink:href="#linearGradient3641-6"/><linearGradient id="linearGradient3641-6"><stop id="stop3643-4" offset="0" stop-color="#fff" stop-opacity="1"/><stop id="stop3645-9" offset="1" stop-color="#fff" stop-opacity="0"/></linearGradient><linearGradient id="linearGradient10556" x1="-219.663" x2="279.881" y1="34.625" y2="34.625" gradientUnits="userSpaceOnUse" xlink:href="#linearGradient3641-6"/><linearGradient id="linearGradient3179" x1="-219.663" x2="279.881" y1="34.625" y2="34.625" gradientUnits="userSpaceOnUse" xlink:href="#linearGradient3641-6"/><linearGradient id="linearGradient3641-6-0"><stop id="stop3643-4-4" offset="0" stop-color="#fff" stop-opacity="1"/><stop id="stop3645-9-8" offset="1" stop-color="#fff" stop-opacity="0"/></linearGradient><linearGradient id="linearGradient3275" x1="-219.851" x2="74.444" y1="137.424" y2="137.424" gradientUnits="userSpaceOnUse" xlink:href="#linearGradient3641-6-0"/><linearGradient id="linearGradient3279" x1="-181.867" x2="2.605" y1="212.954" y2="28.482" gradientUnits="userSpaceOnUse" xlink:href="#linearGradient3641-6-0"/><linearGradient id="linearGradient3285" x1="-181.867" x2="2.605" y1="212.954" y2="28.482" gradientUnits="userSpaceOnUse" xlink:href="#linearGradient3641-6-0"/><linearGradient id="linearGradient5003" x1="-181.867" x2="2.605" y1="212.954" y2="28.482" gradientUnits="userSpaceOnUse" xlink:href="#linearGradient3641-6-0"/><linearGradient id="linearGradient5011" x1="-181.867" x2="2.605" y1="212.954" y2="28.482" gradientUnits="userSpaceOnUse" xlink:href="#linearGradient3641-6-0"/><linearGradient id="linearGradient5017" x1="-181.867" x2="2.605" y1="212.954" y2="28.482" gradientUnits="userSpaceOnUse" xlink:href="#linearGradient3641-6-0"/><linearGradient id="linearGradient5022" x1="-181.867" x2="2.605" y1="212.954" y2="28.482" gradientUnits="userSpaceOnUse" xlink:href="#linearGradient3641-6-0"/><linearGradient id="linearGradient3724" x1="-167.815" x2="227.877" y1="34.627" y2="34.627" gradientUnits="userSpaceOnUse" xlink:href="#linearGradient3641"/><filter id="filter3730" width="1.044" height="1.297" x="-.022" y="-.148"><feGaussianBlur id="feGaussianBlur3732" stdDeviation="3.633"/></filter><linearGradient id="linearGradient3969" x1="-167.815" x2="227.877" y1="34.627" y2="34.627" gradientUnits="userSpaceOnUse" xlink:href="#linearGradient3641"/></defs><metadata id="metadata7"/><g id="layer1" transform="translate(464.16179,464.03236)"><g id="g4082" transform="translate(0,1.552561)"><g id="g4060" transform="matrix(1.5074827,0,0,1.5074827,-9.4212231,-17.89429)"><g id="g3193" transform="matrix(1.434458,0,0,1.434458,-13.043809,-15.075611)"><path id="path1468-9-2-0-9-7" fill="#a00" fill-opacity="1" stroke="none" d="m 75.203115,79.896352 156.728635,0 c 3.98909,0.09022 7.74398,-1.885153 9.92783,-5.225201 1.10839,-1.898639 1.65267,-4.074261 1.56765,-6.270245 l 0,-67.40512734 C 243.39768,-5.3399419 238.26711,-10.469349 231.93175,-10.499684 l -156.728635,1e-6 -90.368547,-1e-6 -156.728608,-4e-6 c -6.33575,0.02985 -11.4653,5.1597399 -11.49546,11.49546044 l 0,67.40514056 c 0.0294,6.335729 5.15993,11.465015 11.49545,11.495439 l 156.728617,0 90.368548,0 z" opacity=".7"/><path id="path1468-9-2-0-9-7-6" fill="url(#linearGradient3969)" fill-opacity="1" stroke="#000" stroke-dasharray="none" stroke-miterlimit="4" stroke-opacity="1" stroke-width=".349" d="M 214.21875,5.3125 C 86.959312,5.992669 -40.305177,4.7948995 -167.5625,6 c 1.68954,19.304142 -1.50557,38.720952 0.78125,58 131.415848,-0.690922 262.838908,0.875824 394.25,-0.8125 -1.46848,-19.293789 1.74226,-38.693085 -0.75,-57.9375 -4.16671,0.00185 -8.33334,0.043824 -12.5,0.0625 z" filter="url(#filter3730)" opacity=".4"/></g></g></g></g></svg>