<svg xmlns="http://www.w3.org/2000/svg" xmlns:svg="http://www.w3.org/2000/svg" xmlns:xlink="http://www.w3.org/1999/xlink" id="svg2" width="1000" height="1000" version="1.1"><defs id="defs4"><linearGradient id="linearGradient3201" x1="56" x2="56" y1="-26" y2="30" gradientTransform="matrix(1,0,0,-1,-92,48)" gradientUnits="userSpaceOnUse" xlink:href="#linearGradient4081"/><linearGradient id="linearGradient4081"><stop id="stop4083" offset="0" stop-color="#aaa" stop-opacity="1"/><stop id="stop4085" offset="1" stop-color="#f0f0f0" stop-opacity="1"/></linearGradient><linearGradient id="linearGradient5152" x1="56" x2="56" y1="-26" y2="30" gradientTransform="matrix(10.984289,0,0,-10.984289,-957.07363,-112.68977)" gradientUnits="userSpaceOnUse" xlink:href="#linearGradient4081"/><radialGradient id="radialGradient7847" cx="30.031" cy="34.688" r="317.298" fx="30.031" fy="34.688" gradientTransform="matrix(1.4452614,0,0,1.4177194,-13.371756,-14.489643)" gradientUnits="userSpaceOnUse" xlink:href="#linearGradient3641"/><linearGradient id="linearGradient3641"><stop id="stop3643" offset="0" stop-color="#fff" stop-opacity="1"/><stop id="stop3645" offset="1" stop-color="#fff" stop-opacity="0"/></linearGradient><radialGradient id="radialGradient8203" cx="30.031" cy="34.688" r="317.298" fx="30.031" fy="34.688" gradientTransform="matrix(1.4452614,0,0,1.4177194,-38.843582,-39.941093)" gradientUnits="userSpaceOnUse" xlink:href="#linearGradient3641"/><filter id="filter8742"><feGaussianBlur id="feGaussianBlur8744" stdDeviation="8.738"/></filter><radialGradient id="radialGradient8752" cx="30.031" cy="34.703" r="304.675" fx="30.031" fy="34.703" gradientTransform="matrix(1.4282682,0,0,1.4116388,-12.86143,-14.285154)" gradientUnits="userSpaceOnUse" xlink:href="#linearGradient3641"/><radialGradient id="radialGradient5078" cx="30.031" cy="34.703" r="304.675" fx="30.031" fy="34.703" gradientTransform="matrix(1.4282682,0,0,1.4116388,-12.86143,-14.285154)" gradientUnits="userSpaceOnUse" xlink:href="#linearGradient3641"/></defs><metadata id="metadata7"/><g id="layer1" transform="translate(464.16179,464.03236)"><g id="g4082" transform="translate(0,1.552561)"><g id="g4060" transform="matrix(1.5074827,0,0,1.5074827,-9.4212231,-17.89429)"><path id="path2893-3" fill="#000" fill-opacity="1" stroke="none" d="m -655.60206,-298.88212 -92.26806,123.02402 184.53597,0 -92.26791,-123.02402 z m -98.3552,184.53596 c -13.63106,1.5e-4 -24.66882,11.03792 -24.66882,24.668969 l 0,221.379251 246.04805,0 0,-221.379251 c 0,-13.631049 -11.03791,-24.668969 -24.66896,-24.668969 l -196.71027,0 z m 108.60709,20.504078 c 5.67961,0 10.25204,4.572426 10.25204,10.252052 0,5.679594 -4.57243,10.251887 -10.25204,10.251887 -5.67961,0 -10.25189,-4.572293 -10.25189,-10.251887 0,-5.679626 4.57228,-10.252052 10.25189,-10.252052 z m 41.00801,0 c 5.67961,0 10.25204,4.572426 10.25204,10.252052 0,5.679594 -4.57243,10.251887 -10.25204,10.251887 -5.67961,0 -10.25189,-4.572293 -10.25189,-10.251887 0,-5.679626 4.57228,-10.252052 10.25189,-10.252052 z m 41.00801,0 c 5.67961,0 10.25204,4.572426 10.25204,10.252052 0,5.679594 -4.57243,10.251887 -10.25204,10.251887 -5.67961,0 -10.25189,-4.572293 -10.25189,-10.251887 0,-5.679626 4.57228,-10.252052 10.25189,-10.252052 z m -276.80402,10.252052 -123.024,92.2679055 123.024,92.2680645 0,-184.53597 z m 369.07207,0 0,184.53597 L -348.04207,8.6778755 -471.0661,-83.59003 z m -265.59084,30.755966 163.0709,0 0,143.20773 -163.0709,0 0,-143.20773 z m -11.21318,246.048054 92.26806,123.02405 92.26791,-123.02405 -184.53597,0 z" display="inline"/><g id="g5074" transform="matrix(1.097677,0,0,1.097677,-2.9325739,-3.389375)"><path id="path2887" fill="#2a7fff" fill-opacity="1" stroke="none" d="m -62.244858,-252.35633 92.268057,123.02418 92.268061,-123.02418 -184.536118,0 z m -6.087162,164.032188 c -13.631059,0 -24.668809,11.037747 -24.668809,24.668817 l 0,221.379235 246.048049,0 0,-221.379235 c 0,-13.63107 -11.03776,-24.668817 -24.66882,-24.668817 l -196.71042,0 z M 40.27524,-67.82022 c 5.67961,0 10.251887,4.57243 10.251887,10.25204 0,5.67961 -4.572277,10.252039 -10.251887,10.252039 -5.67961,0 -10.252041,-4.572429 -10.252041,-10.252039 0,-5.67961 4.572431,-10.25204 10.252041,-10.25204 z m 41.008009,0 c 5.67961,0 10.251887,4.57243 10.251887,10.25204 0,5.67961 -4.572277,10.252039 -10.251887,10.252039 -5.67961,0 -10.252041,-4.572429 -10.252041,-10.252039 0,-5.67961 4.572431,-10.25204 10.252041,-10.25204 z m 41.008011,0 c 5.67961,0 10.25204,4.57243 10.25204,10.25204 0,5.67961 -4.57243,10.252039 -10.25204,10.252039 -5.67961,0 -10.25204,-4.572429 -10.25204,-10.252039 0,-5.67961 4.57243,-10.25204 10.25204,-10.25204 z m -379.32414,10.25204 0,184.53596 123.02404,-92.267901 -123.02404,-92.268059 z m 574.11213,0 -123.02402,92.268059 123.02402,92.267901 0,-184.53596 z m -368.11095,30.755969 163.07092,0 0,143.207731 -163.07092,0 0,-143.207731 z m 81.054899,225.544121 -92.268057,123.02405 184.536118,0 -92.268061,-123.02405 z" display="inline" opacity=".7"/><path id="path3611" fill="url(#radialGradient5078)" fill-opacity="1" stroke="none" d="m -11.0625,-74.40625 c -20.89507,0.518935 -42.150032,-0.609957 -62.8125,1.625 -8.842534,6.824254 -4.439197,19.547025 -5.125,29.125 0,62.458333 0,124.916667 0,187.375 72.6875,0 145.375,0 218.0625,0 -0.44071,-60.95 0.8189,-122.461684 -0.40625,-183.0625 -3.53121,3.13287 -7.87258,5.33013 -12.625,5.8125 0,54.645833 0,109.291667 0,163.9375 -63.6875,0 -127.375,0 -191.0625,0 0,-57.072917 0,-114.145833 0,-171.21875 29.019363,-0.104469 59.047084,0.208737 87.4375,-0.15625 -9.028329,-8.838747 -8.585673,-24.835279 0.53125,-33.4375 -11.333327,-0.02972 -22.6666988,-0.05281 -34,0 z" display="inline" filter="url(#filter8742)" opacity=".4"/></g></g></g></g></svg>