<svg xmlns="http://www.w3.org/2000/svg" xmlns:svg="http://www.w3.org/2000/svg" xmlns:xlink="http://www.w3.org/1999/xlink" id="svg2" width="1000" height="1000" version="1.1"><defs id="defs4"><linearGradient id="linearGradient8562" x1="-213.564" x2="253.595" y1="24.514" y2="24.514" gradientTransform="matrix(0,1,-1,0,44.530081,4.498828)" gradientUnits="userSpaceOnUse" xlink:href="#linearGradient3641"/><linearGradient id="linearGradient3641"><stop id="stop3643" offset="0" stop-color="#fff" stop-opacity="1"/><stop id="stop3645" offset="1" stop-color="#fff" stop-opacity="0"/></linearGradient><linearGradient id="linearGradient6791" x1="-213.564" x2="253.595" y1="24.514" y2="24.514" gradientTransform="matrix(0,1,-1,0,44.530081,4.498828)" gradientUnits="userSpaceOnUse" xlink:href="#linearGradient3641"/><linearGradient id="linearGradient10554" x1="-219.851" x2="74.444" y1="137.424" y2="137.424" gradientUnits="userSpaceOnUse" xlink:href="#linearGradient3641-6"/><linearGradient id="linearGradient3641-6"><stop id="stop3643-4" offset="0" stop-color="#fff" stop-opacity="1"/><stop id="stop3645-9" offset="1" stop-color="#fff" stop-opacity="0"/></linearGradient><linearGradient id="linearGradient10556" x1="-219.663" x2="279.881" y1="34.625" y2="34.625" gradientUnits="userSpaceOnUse" xlink:href="#linearGradient3641-6"/><linearGradient id="linearGradient3179" x1="-219.663" x2="279.881" y1="34.625" y2="34.625" gradientUnits="userSpaceOnUse" xlink:href="#linearGradient3641-6"/><linearGradient id="linearGradient3641-6-0"><stop id="stop3643-4-4" offset="0" stop-color="#fff" stop-opacity="1"/><stop id="stop3645-9-8" offset="1" stop-color="#fff" stop-opacity="0"/></linearGradient><filter id="filter10492-7" color-interpolation-filters="sRGB"><feGaussianBlur id="feGaussianBlur10494-1" stdDeviation="4.704"/></filter><linearGradient id="linearGradient3275" x1="-219.851" x2="74.444" y1="137.424" y2="137.424" gradientUnits="userSpaceOnUse" xlink:href="#linearGradient3641-6-0"/><linearGradient id="linearGradient3279" x1="-181.867" x2="2.605" y1="212.954" y2="28.482" gradientUnits="userSpaceOnUse" xlink:href="#linearGradient3641-6-0"/><linearGradient id="linearGradient3285" x1="-181.867" x2="2.605" y1="212.954" y2="28.482" gradientUnits="userSpaceOnUse" xlink:href="#linearGradient3641-6-0"/><linearGradient id="linearGradient3285-1" x1="-181.867" x2="2.605" y1="212.954" y2="28.482" gradientUnits="userSpaceOnUse" xlink:href="#linearGradient3641-6-0-0"/><linearGradient id="linearGradient3641-6-0-0"><stop id="stop3643-4-4-6" offset="0" stop-color="#fff" stop-opacity="1"/><stop id="stop3645-9-8-1" offset="1" stop-color="#fff" stop-opacity="0"/></linearGradient><linearGradient id="linearGradient3230" x1="-181.867" x2="2.605" y1="212.954" y2="28.482" gradientUnits="userSpaceOnUse" xlink:href="#linearGradient3641-6-0-0"/></defs><metadata id="metadata7"/><g id="layer1" transform="translate(464.16179,464.03236)"><g id="g4082" transform="translate(0,1.552561)"><g id="g4060" transform="matrix(1.5074827,0,0,1.5074827,-9.4212231,-17.89429)"><g id="g3281" transform="matrix(1.2747061,-1.2747061,1.2747061,1.2747061,-5.9569254,48.449833)"><path id="path1468-9-2-0-9-7" fill="#2a7fff" fill-opacity="1" stroke="none" d="m 120.6356,-130.23026 c -3.58146,-3.54836 -9.35425,-3.548 -12.93613,-1e-5 l -88.185243,88.18524 -88.18527,-88.18527 c -2.193747,-2.29527 -5.417949,-3.29654 -8.526036,-2.64599 -1.691944,0.44464 -3.222325,1.36254 -4.410089,2.64597 l -37.926312,37.926313 c -3.54824,3.5815 -3.54759,9.354396 1e-5,12.936133 L -31.348199,8.8173958 -119.53345,97.002649 c -3.54825,3.581511 -3.5476,9.354241 2e-5,12.936121 l 37.910835,37.91084 c 3.581666,3.54809 9.354277,3.54804 12.936102,0 L 19.49876,59.664355 107.68401,147.84961 c 3.58168,3.54809 9.35428,3.5479 12.93612,0 l 37.92632,-37.92632 c 3.54832,-3.58143 3.54763,-9.35423 -1e-5,-12.936107 L 70.361186,8.8019293 158.54643,-79.383315 c 3.54833,-3.581437 3.5476,-9.354293 1e-5,-12.93611 L 120.6356,-130.23026 z" opacity=".7"/><path id="path1468-9-2-0-9-9-2" fill="url(#linearGradient3285)" fill-opacity="1" stroke="#000" stroke-dasharray="none" stroke-miterlimit="4" stroke-opacity="1" stroke-width=".263" d="m -85.28125,-9.5625 c -2.341736,0.7845217 -6.18795,-0.837081 -7.71875,0.65625 0.793132,39.576836 -0.09673,79.235196 0.25,118.84375 2.622214,8.63118 -4.521456,7.65961 -10.90618,7.41811 -38.58152,0.48676 -77.18218,-0.96142 -115.75007,0.58189 0.62101,13.2896 -1.04058,26.60164 0.0937,39.875 36.03079,-0.95828 72.08355,0.14743 108.125,-0.3125 6.09375,0 12.1875,0 18.28125,0 1.098831,42.23322 -1.22238,84.50621 0.9375,126.71875 13.131314,-0.71964 26.2853,0.89894 39.40625,-0.15625 -0.32624,-42.1347 0.0949,-84.27094 -0.0625,-126.40625 42.223983,-0.98669 84.478049,1.03977 126.6875,-0.8125 -0.885317,-13.05412 1.185911,-26.76851 -0.3125,-39.4375 -42.010276,0.0223 -84.156858,-0.1588 -126.21875,-0.0625 -1.221646,-42.190744 1.475958,-84.843707 -1.125,-126.75 -10.561209,0.3442251 -21.12545,-0.2968191 -31.6875,-0.15625 z" filter="url(#filter10492-7)" opacity=".4" transform="matrix(0.74644811,0.74644811,-0.74644811,0.74644811,176.35058,-39.510423)"/></g></g></g></g></svg>