<svg xmlns="http://www.w3.org/2000/svg" xmlns:svg="http://www.w3.org/2000/svg" xmlns:xlink="http://www.w3.org/1999/xlink" id="svg2" width="1000" height="1000" version="1.1"><defs id="defs4"><linearGradient id="linearGradient3707"><stop id="stop3709" offset="0" stop-color="#2a7fff" stop-opacity="1"/><stop id="stop3711" offset="1" stop-color="#2a7fff" stop-opacity=".784"/></linearGradient><linearGradient id="linearGradient8562" x1="-213.564" x2="253.595" y1="24.514" y2="24.514" gradientTransform="matrix(0,1,-1,0,44.530081,4.498828)" gradientUnits="userSpaceOnUse" xlink:href="#linearGradient3641"/><linearGradient id="linearGradient3641"><stop id="stop3643" offset="0" stop-color="#fff" stop-opacity="1"/><stop id="stop3645" offset="1" stop-color="#fff" stop-opacity="0"/></linearGradient><linearGradient id="linearGradient6791" x1="-213.564" x2="253.595" y1="24.514" y2="24.514" gradientTransform="matrix(0,1,-1,0,44.530081,4.498828)" gradientUnits="userSpaceOnUse" xlink:href="#linearGradient3641"/><linearGradient id="linearGradient10554" x1="-219.851" x2="74.444" y1="137.424" y2="137.424" gradientUnits="userSpaceOnUse" xlink:href="#linearGradient3641-6"/><linearGradient id="linearGradient3641-6"><stop id="stop3643-4" offset="0" stop-color="#fff" stop-opacity="1"/><stop id="stop3645-9" offset="1" stop-color="#fff" stop-opacity="0"/></linearGradient><linearGradient id="linearGradient10556" x1="-219.663" x2="279.881" y1="34.625" y2="34.625" gradientUnits="userSpaceOnUse" xlink:href="#linearGradient3641-6"/><linearGradient id="linearGradient3179" x1="-219.663" x2="279.881" y1="34.625" y2="34.625" gradientUnits="userSpaceOnUse" xlink:href="#linearGradient3641-6"/><linearGradient id="linearGradient3641-6-0"><stop id="stop3643-4-4" offset="0" stop-color="#fff" stop-opacity="1"/><stop id="stop3645-9-8" offset="1" stop-color="#fff" stop-opacity="0"/></linearGradient><linearGradient id="linearGradient3275" x1="-219.851" x2="74.444" y1="137.424" y2="137.424" gradientUnits="userSpaceOnUse" xlink:href="#linearGradient3641-6-0"/><linearGradient id="linearGradient3279" x1="-181.867" x2="2.605" y1="212.954" y2="28.482" gradientUnits="userSpaceOnUse" xlink:href="#linearGradient3641-6-0"/><linearGradient id="linearGradient3285" x1="-181.867" x2="2.605" y1="212.954" y2="28.482" gradientUnits="userSpaceOnUse" xlink:href="#linearGradient3641-6-0"/><linearGradient id="linearGradient3285-1" x1="-181.867" x2="2.605" y1="212.954" y2="28.482" gradientUnits="userSpaceOnUse" xlink:href="#linearGradient3641-6-0-0"/><linearGradient id="linearGradient3641-6-0-0"><stop id="stop3643-4-4-6" offset="0" stop-color="#fff" stop-opacity="1"/><stop id="stop3645-9-8-1" offset="1" stop-color="#fff" stop-opacity="0"/></linearGradient><linearGradient id="linearGradient3230" x1="-181.867" x2="2.605" y1="212.954" y2="28.482" gradientUnits="userSpaceOnUse" xlink:href="#linearGradient3641-6-0-0"/><linearGradient id="StandardGradient-2" x1="10.71" x2="10.71" y1="1.996" y2="18.974" gradientTransform="matrix(0.9984539,0,0,0.9984539,-0.0459776,0.05767558)" gradientUnits="userSpaceOnUse"><stop id="stop3277-0" offset="0" stop-color="#000" stop-opacity=".863"/><stop id="stop3279-6" offset="1" stop-color="#000" stop-opacity=".471"/></linearGradient><linearGradient id="linearGradient3713" x1="-183.302" x2="311.499" y1="-179.078" y2="326.41" gradientUnits="userSpaceOnUse" xlink:href="#linearGradient3707"/><linearGradient id="linearGradient3721" x1="-183.302" x2="311.499" y1="-179.078" y2="326.41" gradientUnits="userSpaceOnUse" xlink:href="#linearGradient3707"/></defs><metadata id="metadata7"/><g id="layer1" transform="translate(464.16179,464.03236)"><g id="g4082" transform="translate(0,1.552561)"><g id="g4060" transform="matrix(1.5074827,0,0,1.5074827,-9.4212231,-17.89429)"><g id="g3715" transform="translate(-5.3342359,2.1045655)"><path id="path3801" fill="url(#linearGradient3721)" fill-opacity="1" stroke="none" d="m -136.95712,-260.03351 -103.4898,103.49032 379.46294,379.46295 172.48335,68.99303 -68.99354,-172.48282 z m 311.35658,378.46293 34.99026,35.68713 33.11611,68.80321 -70.12151,-32.67563 -33.88053,-35.17488 z m -380.35013,138.98712 c -19.04198,0 -34.49625,15.45427 -34.49625,34.49625 0,19.04249 15.45427,34.49677 34.49625,34.49677 19.04249,0 34.49677,-15.45428 34.49677,-34.49677 0,-19.04198 -15.45428,-34.49625 -34.49677,-34.49625 z m 103.49033,0 c -19.04249,0 -34.49678,15.45427 -34.49678,34.49625 0,19.04249 15.45429,34.49677 34.49678,34.49677 19.041972,0 34.496246,-15.45428 34.496246,-34.49677 0,-19.04198 -15.454274,-34.49625 -34.496246,-34.49625 z m 103.4897916,0 c -19.0419756,0 -34.4967726,15.45427 -34.4967726,34.49625 0,19.04249 15.454797,34.49677 34.4967726,34.49677 19.0419764,0 34.4967734,-15.45428 34.4967734,-34.49677 0,-19.04198 -15.454797,-34.49625 -34.4967734,-34.49625 z" display="inline" opacity=".7"/><path id="path3824" fill="#2a7fff" fill-opacity="1" stroke="none" d="m -136.95712,-260.03351 -103.4898,103.49032 17.24786,17.24787 86.24194,-86.24141 379.46295,379.46295 52.82318,131.51842 16.17036,6.46815 -68.99354,-172.48282 -379.46295,-379.46348 z m 292.14351,432.28614 -16.17037,17.24838 33.41875,35.57481 70.07106,32.34072 -21.5605,-44.199 -48.51056,-22.63852 -17.24838,-18.32639 z m -361.13706,85.16391 c -19.04198,0 -34.49625,15.45427 -34.49625,34.49625 0,6.45878 2.29853,12.07823 5.39013,17.24838 6.02559,-10.07299 16.52292,-17.24838 29.10612,-17.24838 12.58371,0 23.08106,7.17539 29.10665,17.24838 3.09418,-5.16911 5.39012,-10.7896 5.39012,-17.24838 0,-19.04198 -15.45428,-34.49625 -34.49677,-34.49625 z m 103.49033,0 c -19.04249,0 -34.49678,15.45427 -34.49678,34.49625 0,6.45878 2.29853,12.07823 5.39012,17.24838 6.02559,-10.07299 16.52295,-17.24838 29.10666,-17.24838 12.583192,0 23.080525,7.17539 29.106117,17.24838 3.094199,-5.16911 5.390129,-10.7896 5.390129,-17.24838 0,-19.04198 -15.454274,-34.49625 -34.496246,-34.49625 z m 103.4897916,0 c -19.0419756,0 -34.4967726,15.45427 -34.4967726,34.49625 0,6.45878 2.298536,12.07823 5.390108,17.24838 6.025613,-10.07299 16.522955,-17.24838 29.1066646,-17.24838 12.5837094,0 23.0810524,7.17539 29.1066444,17.24838 3.094188,-5.16911 5.390129,-10.7896 5.390129,-17.24838 0,-19.04198 -15.454797,-34.49625 -34.4967734,-34.49625 z" display="inline" opacity=".5"/></g></g></g></g></svg>