<svg xmlns="http://www.w3.org/2000/svg" xmlns:svg="http://www.w3.org/2000/svg" xmlns:xlink="http://www.w3.org/1999/xlink" id="svg2" width="1000" height="1000" version="1.1"><defs id="defs4"><linearGradient id="linearGradient8300" x1="173.719" x2="289.438" y1="235.281" y2="235.281" gradientUnits="userSpaceOnUse" xlink:href="#linearGradient3641"/><linearGradient id="linearGradient3641"><stop id="stop3643" offset="0" stop-color="#fff" stop-opacity="1"/><stop id="stop3645" offset="1" stop-color="#fff" stop-opacity="0"/></linearGradient><filter id="filter8306" color-interpolation-filters="sRGB"><feGaussianBlur id="feGaussianBlur8308" stdDeviation="1.861"/></filter><linearGradient id="linearGradient8368" x1="-263.002" x2="222.292" y1="-16.222" y2="-16.222" gradientUnits="userSpaceOnUse" xlink:href="#linearGradient3641"/><linearGradient id="linearGradient8659" x1="-263.002" x2="222.292" y1="-16.222" y2="-16.222" gradientUnits="userSpaceOnUse" xlink:href="#linearGradient3641"/><linearGradient id="linearGradient8724" x1="-263.002" x2="222.292" y1="-16.222" y2="-16.222" gradientTransform="translate(1.3147295,1.3593836)" gradientUnits="userSpaceOnUse" xlink:href="#linearGradient3641"/><linearGradient id="linearGradient8727" x1="173.719" x2="289.438" y1="235.281" y2="235.281" gradientTransform="translate(1.3147295,1.3593836)" gradientUnits="userSpaceOnUse" xlink:href="#linearGradient3641"/><linearGradient id="linearGradient2904" x1="-263.002" x2="222.292" y1="-16.222" y2="-16.222" gradientUnits="userSpaceOnUse" xlink:href="#linearGradient3641-2"/><linearGradient id="linearGradient3641-2"><stop id="stop3643-6" offset="0" stop-color="#fff" stop-opacity="1"/><stop id="stop3645-1" offset="1" stop-color="#fff" stop-opacity="0"/></linearGradient><linearGradient id="linearGradient3708" x1="173.719" x2="289.438" y1="235.281" y2="235.281" gradientTransform="translate(1.3147295,1.3593836)" gradientUnits="userSpaceOnUse" xlink:href="#linearGradient3641"/><linearGradient id="linearGradient3726" x1="-268.962" x2="216.554" y1="-22.264" y2="-22.264" gradientTransform="translate(-180.70032,-122.18902)" gradientUnits="userSpaceOnUse" xlink:href="#linearGradient3641-3"/><linearGradient id="linearGradient3641-3"><stop id="stop3643-4" offset="0" stop-color="#fff" stop-opacity="1"/><stop id="stop3645-6" offset="1" stop-color="#fff" stop-opacity="0"/></linearGradient><filter id="filter3703-1" color-interpolation-filters="sRGB"><feGaussianBlur id="feGaussianBlur3705-5" stdDeviation="7.759"/></filter><linearGradient id="linearGradient3770" x1="-268.962" x2="216.554" y1="-22.264" y2="-22.264" gradientTransform="translate(-0.15518481,-0.04960095)" gradientUnits="userSpaceOnUse" xlink:href="#linearGradient3641-3"/><linearGradient id="linearGradient3631" x1="-274.272" x2="334.303" y1="34.445" y2="34.445" gradientUnits="userSpaceOnUse" xlink:href="#linearGradient3641"/><filter id="filter4666"><feGaussianBlur id="feGaussianBlur4668" stdDeviation="8.787"/></filter></defs><metadata id="metadata7"/><g id="layer1" transform="translate(464.16179,464.03236)"><g id="g4082" transform="translate(0,1.552561)"><g id="g4060" transform="matrix(1.5074827,0,0,1.5074827,-9.4212231,-17.89429)"><path id="path3869" fill="#2a7fff" fill-opacity="1" fill-rule="nonzero" stroke="none" stroke-width="1" d="m -26.665087,-280.45974 c -66.17364,0 -132.276483,26.47321 -182.729063,76.82637 -100.90331,100.70669 -100.90331,263.593004 0,364.2997 79.88365,79.72592 198.373128,95.8091 294.678702,49.30232 2.533043,-1.22446 5.723363,-2.3959 8.224778,-3.70694 15.01339,-5.91822 51.46491,-17.23861 72.72556,0.23168 l 37.48645,-37.48644 c -20.25494,-26.45927 1.52332,-75.47448 2.96556,-78.564 46.59732,-96.1149491 29.67782,-214.35014 -50.2059,-294.07632 -50.45257,-50.35316 -116.972433,-76.82637 -183.146087,-76.82637 z m 0,65.72872 c 107.025717,0 194.243747,86.64048 194.243747,193.456013 0,106.815519 -87.21803,193.849887 -194.243747,193.849887 -107.025573,0 -193.826713,-87.034368 -193.826713,-193.849887 0,-106.815533 86.80114,-193.456013 193.826713,-193.456013 z" color="#000" display="inline" enable-background="accumulate" opacity=".7" overflow="visible" visibility="visible" style="marker:none"/><path id="path3803-5" fill="#2a7fff" fill-opacity="1" fill-rule="nonzero" stroke="none" stroke-width="1" d="m 203.72134,169.00695 -37.48645,37.48644 c 0.87554,0.71944 1.75037,1.40443 2.57169,2.22417 15.40337,15.37275 10.19375,35.63245 33.75634,59.14889 l 82.89648,81.99292 59.6586,-63.18019 -80.81134,-80.41747 c -23.56258,-23.51641 -42.21634,-18.31408 -57.61976,-33.68683 -1.11911,-1.11694 -2.03174,-2.34808 -2.96556,-3.56793 z" color="#000" display="inline" enable-background="accumulate" opacity=".7" overflow="visible" visibility="visible" style="marker:none"/><path id="path3803-1" fill="url(#linearGradient3708)" fill-opacity="1" fill-rule="nonzero" stroke="none" stroke-width="1" d="m 187.28348,178.48438 c -3.80781,4.42565 -9.81474,7.98801 -12.25,13.03125 8.46134,15.2102 10.93367,34.92821 25.95417,45.58503 19.24984,19.58985 39.11074,38.46054 58.48333,57.97747 9.8579,-11.54584 21.83337,-21.76305 31.28125,-33.4375 -8.69514,-7.27896 -15.70438,-16.29486 -24.18317,-24.02015 -16.647,-16.64163 -32.38229,-34.36307 -51.91058,-47.5111 -9.01605,-4.03934 -18.68939,-6.81106 -27.125,-11.90625 l -0.25,0.28125 z" color="#000" display="inline" enable-background="accumulate" filter="url(#filter8306)" opacity=".4" overflow="visible" transform="matrix(1.1176301,0,0,1.1176301,-4.9962446,-5.6010279)" visibility="visible" style="marker:none"/><path id="path3869-6-6" fill="url(#linearGradient3770)" fill-opacity="1" fill-rule="nonzero" stroke="none" stroke-width="1" d="m -29.686435,-264.48712 c -95.607055,0.51987 -186.765375,63.90879 -222.031245,152.125 -31.80076,77.947669 -19.55484,172.668858 32.99404,238.75412 46.33142,59.72303 121.641445,96.51595 197.599705,93.30839 38.99369,-0.89335 76.69708,-12.2385 111.500002,-29.125 22.796423,-9.81433 49.718183,-13.15512 73.343753,-4.25 6.06682,-7.41694 14.3238,-12.93577 19.96875,-20.5625 -10.46179,-27.82452 -2.01817,-58.63741 9.84375,-84.65625 14.71908,-32.920367 23.64829,-68.537081 22.8125,-104.781241 -0.94626,-77.495889 -40.56873,-153.759269 -105.06627,-196.858939 -41.062385,-28.57369 -90.845305,-44.84561 -140.964985,-43.95358 z m 2.9375,33.5 C 64.627085,-231.9983 152.10732,-166.50663 175.79704,-78.272781 195.75156,-6.9586309 175.59916,74.75957 122.46186,126.5521 72.529194,176.55108 -3.6877848,200.17941 -72.944695,183.64347 -144.75184,167.21581 -206.75947,111.43191 -227.55585,40.382582 c -20.56367,-66.924093 -5.74899,-144.432002 40.58817,-197.150952 39.34528,-46.29678 99.120775,-74.59794 160.218745,-74.21875 z" color="#000" display="inline" enable-background="accumulate" filter="url(#filter3703-1)" opacity=".4" overflow="visible" visibility="visible" style="marker:none"/><g id="g3136" transform="matrix(0.49424597,0,0,0.49326773,-40.479264,-35.662423)"><path id="path2923" fill="#2a7fff" fill-opacity="1" fill-rule="nonzero" stroke="none" d="m -156.50868,-251.72429 0,99.83932 -99.9452,0 0,83.305281 99.9452,0 0,289.864299 289.75849,0 0,99.83931 83.30524,0 0,-99.83931 99.9452,0 0,-83.30526 -99.9452,0 0,-289.86432 -289.758379,0 0,-99.83932 -83.305351,0 z m 83.305351,183.144601 206.453139,0 0,206.559039 -206.453139,0 0,-206.559039 z" opacity=".7"/><path id="path2923-4" fill="url(#linearGradient3631)" fill-opacity="1" fill-rule="nonzero" stroke="none" d="m -143.8125,-240.09375 c -2.30149,4.18302 0.20869,10.01235 -0.71875,14.6875 0.0252,27.58342 0.27165,55.17234 -0.4375,82.75 -20.42606,5.77416 -41.86118,1.19447 -62.75,2.78125 -12.25,0 -24.5,0 -36.75,0 0,19.76042 0,39.52083 0,59.28125 33.32292,0 66.64583,0 99.96875,0 0,96.625 0,193.25 0,289.875 96.583333,0 193.166667,0 289.75,0 0,33.28125 0,66.5625 0,99.84375 19.77083,0 39.54167,0 59.3125,0 0,-33.28125 0,-66.5625 0,-99.84375 33.3125,0 66.625,0 99.9375,0 0,-19.77083 0,-39.54167 0,-59.3125 -33.3125,0 -66.625,0 -99.9375,0 0,-96.614583 0,-193.229167 0,-289.84375 -96.59375,0 -193.1875,0 -289.78125,0 0,-33.28125 0,-66.5625 0,-99.84375 -18.93879,-0.28558 -38.02261,0.54663 -56.875,-0.375 -0.55057,-0.11881 -1.18228,-0.24686 -1.71875,0 z m 60.59375,159.5 c 76.15625,0 152.3125,0 228.46875,0 0,76.8541667 0,153.708333 0,230.5625 -76.822917,0 -153.6458333,0 -230.46875,0 0,-76.854167 0,-153.7083333 0,-230.5625 l 1,0 1,0 z" filter="url(#filter4666)" opacity=".4"/></g></g></g></g></svg>