<svg xmlns="http://www.w3.org/2000/svg" xmlns:svg="http://www.w3.org/2000/svg" xmlns:xlink="http://www.w3.org/1999/xlink" id="svg2" width="1000" height="1000" version="1.1"><defs id="defs4"><linearGradient id="linearGradient8562" x1="-213.564" x2="253.595" y1="24.514" y2="24.514" gradientTransform="matrix(0,1,-1,0,44.530081,4.498828)" gradientUnits="userSpaceOnUse" xlink:href="#linearGradient3641"/><linearGradient id="linearGradient3641"><stop id="stop3643" offset="0" stop-color="#fff" stop-opacity="1"/><stop id="stop3645" offset="1" stop-color="#fff" stop-opacity="0"/></linearGradient><linearGradient id="linearGradient6791" x1="-213.564" x2="253.595" y1="24.514" y2="24.514" gradientTransform="matrix(0,1,-1,0,44.530081,4.498828)" gradientUnits="userSpaceOnUse" xlink:href="#linearGradient3641"/><linearGradient id="linearGradient7354" x1="-1.887" x2="323.882" y1="-163.788" y2="-163.788" gradientTransform="translate(-294.13778,123.54099)" gradientUnits="userSpaceOnUse" xlink:href="#linearGradient3641"/><linearGradient id="linearGradient4076" x1="24.508" x2="55.492" y1="35.528" y2="35.528" gradientUnits="userSpaceOnUse" xlink:href="#linearGradient4281-6"/><linearGradient id="linearGradient4281-6"><stop id="stop4283-9" offset="0" stop-color="#1e1e1e" stop-opacity="1"/><stop id="stop4285-8" offset="1" stop-color="#505050" stop-opacity="1"/></linearGradient><linearGradient id="linearGradient3019" x1="24.508" x2="55.492" y1="35.528" y2="35.528" gradientUnits="userSpaceOnUse" xlink:href="#linearGradient4281-6"/><linearGradient id="linearGradient3738" x1="-1134.58" x2="-938.5" y1="-62.75" y2="-62.75" gradientUnits="userSpaceOnUse" xlink:href="#linearGradient3641"/><linearGradient id="linearGradient3748" x1="-1134.58" x2="-938.5" y1="-62.75" y2="-62.75" gradientUnits="userSpaceOnUse" xlink:href="#linearGradient3641"/><linearGradient id="linearGradient3156" x1="38" x2="38" y1="28" y2="68" gradientTransform="translate(-100,0)" gradientUnits="userSpaceOnUse" xlink:href="#linearGradient4281-6-6"/><linearGradient id="linearGradient4281-6-6"><stop id="stop4283-9-8" offset="0" stop-color="#1e1e1e" stop-opacity="1"/><stop id="stop4285-8-9" offset="1" stop-color="#505050" stop-opacity="1"/></linearGradient><linearGradient id="linearGradient3505" x1="38" x2="38" y1="28" y2="68" gradientTransform="matrix(8.7469494,0,0,8.7469494,-1270.6103,-459.51553)" gradientUnits="userSpaceOnUse" xlink:href="#linearGradient4281-6-6"/><linearGradient id="linearGradient3745" x1="-1692.313" x2="-1390" y1="-331.063" y2="-331.063" gradientUnits="userSpaceOnUse" xlink:href="#linearGradient3641"/><filter id="filter3751"><feGaussianBlur id="feGaussianBlur3753" stdDeviation="4.838"/></filter><linearGradient id="linearGradient3759" x1="-1692.313" x2="-1390" y1="-331.063" y2="-331.063" gradientUnits="userSpaceOnUse" xlink:href="#linearGradient3641"/><linearGradient id="linearGradient2911" x1="-1692.313" x2="-1390" y1="-331.063" y2="-331.063" gradientUnits="userSpaceOnUse" xlink:href="#linearGradient3641"/></defs><metadata id="metadata7"/><g id="layer1" transform="translate(464.16179,464.03236)"><g id="g4082" transform="translate(0,1.552561)"><g id="g4060" transform="matrix(1.5074827,0,0,1.5074827,-9.4212231,-17.89429)"><g id="g2900" transform="matrix(1.53,0,0,1.53,-15.912291,-18.390904)"><g id="g3755" transform="matrix(0.97021629,0,0,0.97021629,1525.2615,355.80495)"><path id="path3146" fill="#2a7fff" fill-opacity="1" fill-rule="nonzero" stroke="none" stroke-width="2" d="m -1698.5844,-505.9014 c -9.6916,0 -17.4937,7.80221 -17.4937,17.49383 l 0,314.8903 c 0,9.69161 7.8021,17.49383 17.4937,17.49383 104.9636,0 209.9271,0 314.8906,0 9.6913,0 17.4936,-7.80222 17.4936,-17.49383 l 0,-314.8903 c 0,-9.69162 -7.8023,-17.49383 -17.4936,-17.49383 -104.9635,0 -209.927,0 -314.8906,0 z" color="#000" display="inline" enable-background="accumulate" opacity=".7" overflow="visible" visibility="visible" style="marker:none"/><path id="path3146-6" fill="url(#linearGradient2911)" fill-opacity="1" fill-rule="nonzero" stroke="none" stroke-width="2" d="m -1398.2188,-482.1875 c -98.0276,1.24561 -196.0744,-1.04337 -294.0937,1.15625 0.9127,50.60418 0.078,101.22991 0.1789,151.84371 -0.117,49.79247 -0.1188,99.58991 0.8524,149.37504 48.1379,-0.79259 96.2921,0.0322 144.4374,-0.16739 52.2819,0.11615 104.5672,0.0996 156.8438,-0.73886 -0.8393,-43.5824 -0.056,-87.18876 -0.1656,-130.78122 0.2201,-56.9381 0.3438,-113.88517 -0.9594,-170.81253 -2.3646,0.0417 -4.7292,0.0833 -7.0938,0.125 z" color="#000" display="inline" enable-background="accumulate" filter="url(#filter3751)" opacity=".4" overflow="visible" visibility="visible" style="marker:none"/></g></g></g></g></g></svg>