<svg xmlns="http://www.w3.org/2000/svg" xmlns:svg="http://www.w3.org/2000/svg" xmlns:xlink="http://www.w3.org/1999/xlink" id="svg2" width="1000" height="750" version="1.1"><defs id="defs4"><linearGradient id="linearGradient5662"><stop id="stop5664" offset="0" stop-color="#2a7fff" stop-opacity="1"/><stop id="stop5666" offset="1" stop-color="#2a7fff" stop-opacity="0"/></linearGradient><linearGradient id="linearGradient5654"><stop id="stop5656" offset="0" stop-color="#2a7fff" stop-opacity="1"/><stop id="stop5658" offset="1" stop-color="#2a7fff" stop-opacity=".784"/></linearGradient><linearGradient id="linearGradient8562" x1="-213.564" x2="253.595" y1="24.514" y2="24.514" gradientTransform="matrix(0,1,-1,0,44.530081,4.498828)" gradientUnits="userSpaceOnUse" xlink:href="#linearGradient3641"/><linearGradient id="linearGradient3641"><stop id="stop3643" offset="0" stop-color="#fff" stop-opacity="1"/><stop id="stop3645" offset="1" stop-color="#fff" stop-opacity="0"/></linearGradient><linearGradient id="linearGradient6791" x1="-213.564" x2="253.595" y1="24.514" y2="24.514" gradientTransform="matrix(0,1,-1,0,44.530081,4.498828)" gradientUnits="userSpaceOnUse" xlink:href="#linearGradient3641"/><linearGradient id="linearGradient7354" x1="-1.887" x2="323.882" y1="-163.788" y2="-163.788" gradientTransform="translate(-294.13778,123.54099)" gradientUnits="userSpaceOnUse" xlink:href="#linearGradient3641"/><filter id="filter7698" color-interpolation-filters="sRGB"><feGaussianBlur id="feGaussianBlur7700" stdDeviation="5.64"/></filter><linearGradient id="linearGradient3034" x1="29.827" x2="65.694" y1="51.954" y2="51.954" gradientTransform="matrix(0,-3.8560538,-3.8560538,0,-542.02907,16.00419)" gradientUnits="userSpaceOnUse" xlink:href="#linearGradient4081"/><linearGradient id="linearGradient4081"><stop id="stop4083" offset="0" stop-color="#aaa" stop-opacity="1"/><stop id="stop4085" offset="1" stop-color="#f0f0f0" stop-opacity="1"/></linearGradient><linearGradient id="linearGradient3705" x1="29.827" x2="65.694" y1="51.954" y2="51.954" gradientTransform="matrix(0,-3.8560538,-3.8560538,0,-773.39229,16.00419)" gradientUnits="userSpaceOnUse" xlink:href="#linearGradient4081"/><linearGradient id="linearGradient3083"><stop id="stop3085" offset="0" stop-color="#aaa" stop-opacity="1"/><stop id="stop3087" offset="1" stop-color="#f0f0f0" stop-opacity="1"/></linearGradient><linearGradient id="linearGradient3984" x1="48" x2="48" y1="60" y2="8" gradientTransform="matrix(3.8560538,0,0,3.8560538,-865.93746,8.2921123)" gradientUnits="userSpaceOnUse" xlink:href="#linearGradient4081"/><linearGradient id="linearGradient3090"><stop id="stop3092" offset="0" stop-color="#aaa" stop-opacity="1"/><stop id="stop3094" offset="1" stop-color="#f0f0f0" stop-opacity="1"/></linearGradient><linearGradient id="linearGradient2957" x1="-1.887" x2="323.882" y1="-163.788" y2="-163.788" gradientTransform="translate(-294.13778,123.54099)" gradientUnits="userSpaceOnUse" xlink:href="#linearGradient3641"/><linearGradient id="linearGradient2967" x1="48" x2="48" y1="60" y2="8" gradientTransform="matrix(3.8560538,0,0,3.8560538,-865.93746,8.2921123)" gradientUnits="userSpaceOnUse" xlink:href="#linearGradient4081"/><linearGradient id="linearGradient2972" x1="48" x2="48" y1="60" y2="8" gradientTransform="matrix(9.7170219,0,0,9.7170219,-342.65462,-313.58043)" gradientUnits="userSpaceOnUse" xlink:href="#linearGradient4081"/><linearGradient id="linearGradient17644" x1="25.063" x2="25.063" y1="9" y2="28.083" gradientTransform="translate(-2.3577825e-6,-0.9999361)" gradientUnits="userSpaceOnUse" xlink:href="#linearGradient6293"/><linearGradient id="linearGradient6293"><stop id="stop6295" offset="0" stop-color="#888a85" stop-opacity="1"/><stop id="stop6297" offset="1" stop-color="#555753" stop-opacity="0"/></linearGradient><linearGradient id="linearGradient17646" x1="23.959" x2="23.985" y1="10" y2="42" gradientTransform="matrix(11.880574,0,0,11.880574,-242.31274,-256.14172)" gradientUnits="userSpaceOnUse" xlink:href="#linearGradient17648"/><linearGradient id="linearGradient17648"><stop id="stop17650" offset="0" stop-color="#fff" stop-opacity=".6"/><stop id="stop17652" offset="1" stop-color="#fff" stop-opacity="0"/></linearGradient><linearGradient id="linearGradient2095" x1="302.857" x2="302.857" y1="366.648" y2="609.505" gradientTransform="matrix(2.774389,0,0,1.969706,-1892.179,-872.8854)" gradientUnits="userSpaceOnUse" xlink:href="#linearGradient5048"/><linearGradient id="linearGradient5048"><stop id="stop5050" offset="0" stop-color="#000" stop-opacity="0"/><stop id="stop5056" offset=".5" stop-color="#000" stop-opacity="1"/><stop id="stop5052" offset="1" stop-color="#000" stop-opacity="0"/></linearGradient><radialGradient id="radialGradient2097" cx="605.714" cy="486.648" r="117.143" fx="605.714" fy="486.648" gradientTransform="matrix(2.774389,0,0,1.969706,-1891.633,-872.8854)" gradientUnits="userSpaceOnUse" xlink:href="#linearGradient5060"/><linearGradient id="linearGradient5060"><stop id="stop5062" offset="0" stop-color="#000" stop-opacity="1"/><stop id="stop5064" offset="1" stop-color="#000" stop-opacity="0"/></linearGradient><radialGradient id="radialGradient2099" cx="605.714" cy="486.648" r="117.143" fx="605.714" fy="486.648" gradientTransform="matrix(-2.774389,0,0,1.969706,112.7623,-872.8854)" gradientUnits="userSpaceOnUse" xlink:href="#linearGradient5060"/><linearGradient id="linearGradient9133" x1="71.999" x2="71.999" y1="14.258" y2="19.958" gradientTransform="matrix(4.4052713,0,0,1.9800948,-274.34951,-117.53574)" gradientUnits="userSpaceOnUse" xlink:href="#linearGradient9101"/><linearGradient id="linearGradient9101" x1="71.999" x2="71.999" y1="14.258" y2="19.958" gradientTransform="matrix(1.0033404,0,0,1,-8.2374684,8)" gradientUnits="userSpaceOnUse"><stop id="stop9103" offset=".25" stop-color="#97bf60" stop-opacity="0"/><stop id="stop9105" offset="1" stop-color="#709937" stop-opacity="1"/></linearGradient><linearGradient id="linearGradient9645" x1="28.272" x2="28.272" y1="324.689" y2="409.099" gradientTransform="matrix(4.1768047,0,0,4.2207971,-75.266075,-1472.0003)" gradientUnits="userSpaceOnUse" xlink:href="#linearGradient9073"/><linearGradient id="linearGradient9073"><stop id="stop9075" offset="0" stop-color="#aacb7d" stop-opacity="1"/><stop id="stop9077" offset="1" stop-color="#709937" stop-opacity="1"/></linearGradient><linearGradient id="linearGradient9647" x1="163.026" x2="162.992" y1="17" y2="45" gradientTransform="matrix(11.880574,0,0,11.880574,-1834.3094,-279.90367)" gradientUnits="userSpaceOnUse" xlink:href="#linearGradient9087"/><linearGradient id="linearGradient9087"><stop id="stop9089" offset="0" stop-color="#709937" stop-opacity="1"/><stop id="stop9091" offset="1" stop-color="#51751e" stop-opacity="1"/></linearGradient><linearGradient id="linearGradient9649" x1="7.238" x2="132.86" y1="36.005" y2="35.858" gradientTransform="matrix(5.4060209,0,0,11.201112,-306.47211,-461.42945)" gradientUnits="userSpaceOnUse" xlink:href="#linearGradient10176"/><linearGradient id="linearGradient10176" x1="71.999" x2="71.999" y1="14.258" y2="19.958" gradientTransform="matrix(1.0033404,0,0,1,-8.2374684,8)" gradientUnits="userSpaceOnUse"><stop id="stop10178" offset=".004" stop-color="#feebd6" stop-opacity="0"/><stop id="stop10180" offset=".461" stop-color="#f5f5f5" stop-opacity=".53"/><stop id="stop10182" offset="1" stop-color="#f5f5f5" stop-opacity="0"/></linearGradient><linearGradient id="linearGradient2919" x1="25.063" x2="25.063" y1="9" y2="28.083" gradientTransform="matrix(11.880574,0,0,11.880574,-242.31274,-256.14172)" gradientUnits="userSpaceOnUse" xlink:href="#linearGradient6293"/><linearGradient id="linearGradient9645-4" x1="28.272" x2="28.272" y1="324.689" y2="409.099" gradientTransform="matrix(4.1768047,0,0,4.2207971,-75.266075,-1472.0003)" gradientUnits="userSpaceOnUse" xlink:href="#linearGradient9073-9"/><linearGradient id="linearGradient9073-9"><stop id="stop9075-5" offset="0" stop-color="#aacb7d" stop-opacity="1"/><stop id="stop9077-0" offset="1" stop-color="#709937" stop-opacity="1"/></linearGradient><linearGradient id="linearGradient3926" x1="28.272" x2="28.272" y1="324.689" y2="409.099" gradientTransform="matrix(4.1768047,0,0,4.2207971,-75.266076,-1472.0003)" gradientUnits="userSpaceOnUse" xlink:href="#linearGradient9073-9"/><linearGradient id="linearGradient3949" x1="28.272" x2="28.272" y1="324.689" y2="409.099" gradientTransform="matrix(4.1768047,0,0,4.2207971,-75.266076,-1472.0003)" gradientUnits="userSpaceOnUse" xlink:href="#linearGradient9073-9"/><linearGradient id="linearGradient3953" x1="28.272" x2="28.272" y1="324.689" y2="409.099" gradientTransform="matrix(4.1768047,0,0,4.2207971,-75.266076,-1472.0003)" gradientUnits="userSpaceOnUse" xlink:href="#linearGradient9073-9"/><linearGradient id="linearGradient3957" x1="28.272" x2="28.272" y1="324.689" y2="409.099" gradientTransform="matrix(4.1768047,0,0,4.2207971,-75.266076,-1472.0003)" gradientUnits="userSpaceOnUse" xlink:href="#linearGradient9073-9"/><linearGradient id="linearGradient3961" x1="28.272" x2="28.272" y1="324.689" y2="409.099" gradientTransform="matrix(4.1768047,0,0,4.2207971,-75.266076,-1472.0003)" gradientUnits="userSpaceOnUse" xlink:href="#linearGradient9073-9"/><linearGradient id="linearGradient3965" x1="28.272" x2="28.272" y1="324.689" y2="409.099" gradientTransform="matrix(4.1768047,0,0,4.2207971,-75.266076,-1472.0003)" gradientUnits="userSpaceOnUse" xlink:href="#linearGradient9073-9"/><linearGradient id="linearGradient3969" x1="28.272" x2="28.272" y1="324.689" y2="409.099" gradientTransform="matrix(4.1768047,0,0,4.2207971,-75.266076,-1472.0003)" gradientUnits="userSpaceOnUse" xlink:href="#linearGradient9073-9"/><linearGradient id="linearGradient3973" x1="28.272" x2="28.272" y1="324.689" y2="409.099" gradientTransform="matrix(4.1768047,0,0,4.2207971,-75.266076,-1472.0003)" gradientUnits="userSpaceOnUse" xlink:href="#linearGradient9073-9"/><linearGradient id="linearGradient3977" x1="28.272" x2="28.272" y1="324.689" y2="409.099" gradientTransform="matrix(4.1768047,0,0,4.2207971,-75.266076,-1472.0003)" gradientUnits="userSpaceOnUse" xlink:href="#linearGradient9073-9"/><linearGradient id="linearGradient3981" x1="28.272" x2="28.272" y1="324.689" y2="409.099" gradientTransform="matrix(4.1768047,0,0,4.2207971,-75.266076,-1472.0003)" gradientUnits="userSpaceOnUse" xlink:href="#linearGradient9073-9"/><linearGradient id="linearGradient3985" x1="28.272" x2="28.272" y1="324.689" y2="409.099" gradientTransform="matrix(4.1768047,0,0,4.2207971,-75.266076,-1472.0003)" gradientUnits="userSpaceOnUse" xlink:href="#linearGradient9073-9"/><linearGradient id="linearGradient3989" x1="28.272" x2="28.272" y1="324.689" y2="409.099" gradientTransform="matrix(4.1768047,0,0,4.2207971,-75.266076,-1472.0003)" gradientUnits="userSpaceOnUse" xlink:href="#linearGradient9073-9"/><linearGradient id="linearGradient3993" x1="28.272" x2="28.272" y1="324.689" y2="409.099" gradientTransform="matrix(6.2964608,0,0,6.3627786,341.27826,-1771.3244)" gradientUnits="userSpaceOnUse" xlink:href="#linearGradient9073-9"/><linearGradient id="linearGradient4148" x1="28.272" x2="28.272" y1="324.689" y2="409.099" gradientTransform="matrix(6.2964608,0,0,6.3627786,341.27826,-1771.3244)" gradientUnits="userSpaceOnUse" xlink:href="#linearGradient9073-9"/><linearGradient id="linearGradient4175" x1="28.272" x2="28.272" y1="324.689" y2="409.099" gradientTransform="matrix(6.2964608,0,0,6.3627786,341.27826,-1771.3244)" gradientUnits="userSpaceOnUse" xlink:href="#linearGradient9073-9"/><linearGradient id="linearGradient3285" x1="-181.867" x2="2.605" y1="212.954" y2="28.482" gradientUnits="userSpaceOnUse" xlink:href="#linearGradient3641-6-0"/><linearGradient id="linearGradient3641-6-0"><stop id="stop3643-4-4" offset="0" stop-color="#fff" stop-opacity="1"/><stop id="stop3645-9-8" offset="1" stop-color="#fff" stop-opacity="0"/></linearGradient><linearGradient id="linearGradient3308" x1="-181.867" x2="2.605" y1="212.954" y2="28.482" gradientUnits="userSpaceOnUse" xlink:href="#linearGradient3641-6-0"/><linearGradient id="linearGradient4265" x1="-206.469" x2="291.063" y1="88.339" y2="88.339" gradientUnits="userSpaceOnUse" xlink:href="#linearGradient3641"/><filter id="filter4271" color-interpolation-filters="sRGB"><feGaussianBlur id="feGaussianBlur4273" stdDeviation="6.267"/></filter><linearGradient id="linearGradient4321" x1="-190.913" x2="276.472" y1="-108.198" y2="-108.198" gradientUnits="userSpaceOnUse" xlink:href="#linearGradient5060"/><filter id="filter4327" width="1.043" height="1.381" x="-.021" y="-.19" color-interpolation-filters="sRGB"><feGaussianBlur id="feGaussianBlur4329" stdDeviation="4.158"/></filter><linearGradient id="linearGradient4359" x1="-190.913" x2="276.472" y1="-108.198" y2="-108.198" gradientUnits="userSpaceOnUse" xlink:href="#linearGradient5060"/><linearGradient id="linearGradient4426" x1="-206.469" x2="291.063" y1="88.339" y2="88.339" gradientUnits="userSpaceOnUse" xlink:href="#linearGradient3641"/><linearGradient id="linearGradient4439" x1="-190.913" x2="276.472" y1="-108.198" y2="-108.198" gradientUnits="userSpaceOnUse" xlink:href="#linearGradient5060"/><linearGradient id="linearGradient4441" x1="-206.469" x2="291.063" y1="88.339" y2="88.339" gradientUnits="userSpaceOnUse" xlink:href="#linearGradient3641"/><linearGradient id="linearGradient3006" x1="-190.913" x2="276.472" y1="-108.198" y2="-108.198" gradientUnits="userSpaceOnUse" xlink:href="#linearGradient5060"/><linearGradient id="linearGradient3008" x1="-206.469" x2="291.063" y1="88.339" y2="88.339" gradientUnits="userSpaceOnUse" xlink:href="#linearGradient3641"/><linearGradient id="linearGradient9649-0" x1="7.238" x2="132.86" y1="36.005" y2="35.858" gradientTransform="matrix(6.0524697,0,0,12.540534,-372.22762,-462.5655)" gradientUnits="userSpaceOnUse" xlink:href="#linearGradient10176-2"/><linearGradient id="linearGradient10176-2" x1="71.999" x2="71.999" y1="14.258" y2="19.958" gradientTransform="matrix(1.0033404,0,0,1,-8.2374684,8)" gradientUnits="userSpaceOnUse"><stop id="stop10178-4" offset=".004" stop-color="#feebd6" stop-opacity="0"/><stop id="stop10180-9" offset=".461" stop-color="#f5f5f5" stop-opacity=".53"/><stop id="stop10182-0" offset="1" stop-color="#f5f5f5" stop-opacity="0"/></linearGradient><linearGradient id="linearGradient9073-2"><stop id="stop9075-0" offset="0" stop-color="#e47070" stop-opacity="1"/><stop id="stop9077-06" offset="1" stop-color="#c22f2f" stop-opacity="1"/></linearGradient><linearGradient id="linearGradient9101-8" x1="71.999" x2="71.999" y1="14.258" y2="19.958" gradientTransform="matrix(1.0033404,0,0,1,-8.2374684,8)" gradientUnits="userSpaceOnUse"><stop id="stop9103-7" offset=".25" stop-color="#df5757" stop-opacity="0"/><stop id="stop9105-3" offset="1" stop-color="#c22f2f" stop-opacity="1"/></linearGradient><linearGradient id="linearGradient2095-1" x1="302.857" x2="302.857" y1="366.648" y2="609.505" gradientTransform="matrix(2.774389,0,0,1.969706,-1892.179,-872.8854)" gradientUnits="userSpaceOnUse" xlink:href="#linearGradient5048-0"/><linearGradient id="linearGradient5048-0"><stop id="stop5050-0" offset="0" stop-color="#000" stop-opacity="0"/><stop id="stop5056-5" offset=".5" stop-color="#000" stop-opacity="1"/><stop id="stop5052-0" offset="1" stop-color="#000" stop-opacity="0"/></linearGradient><radialGradient id="radialGradient2097-3" cx="605.714" cy="486.648" r="117.143" fx="605.714" fy="486.648" gradientTransform="matrix(2.774389,0,0,1.969706,-1891.633,-872.8854)" gradientUnits="userSpaceOnUse" xlink:href="#linearGradient5060-1"/><linearGradient id="linearGradient5060-1"><stop id="stop5062-8" offset="0" stop-color="#000" stop-opacity="1"/><stop id="stop5064-0" offset="1" stop-color="#000" stop-opacity="0"/></linearGradient><radialGradient id="radialGradient2099-1" cx="605.714" cy="486.648" r="117.143" fx="605.714" fy="486.648" gradientTransform="matrix(-2.774389,0,0,1.969706,112.7623,-872.8854)" gradientUnits="userSpaceOnUse" xlink:href="#linearGradient5060-1"/><linearGradient id="linearGradient17646-7" x1="23.959" x2="23.985" y1="10" y2="42" gradientTransform="matrix(13.301245,0,0,13.301245,-300.39602,-232.72977)" gradientUnits="userSpaceOnUse" xlink:href="#linearGradient17648-9"/><linearGradient id="linearGradient17648-9"><stop id="stop17650-1" offset="0" stop-color="#fff" stop-opacity=".6"/><stop id="stop17652-0" offset="1" stop-color="#fff" stop-opacity="0"/></linearGradient><linearGradient id="linearGradient17644-3" x1="25.063" x2="25.063" y1="9" y2="28.083" gradientTransform="translate(-2.3577825e-6,-0.9999361)" gradientUnits="userSpaceOnUse" xlink:href="#linearGradient6293-5"/><linearGradient id="linearGradient6293-5"><stop id="stop6295-9" offset="0" stop-color="#888a85" stop-opacity="1"/><stop id="stop6297-4" offset="1" stop-color="#555753" stop-opacity="0"/></linearGradient><linearGradient id="linearGradient5660" x1="18.836" x2="18.836" y1="339.223" y2="-617.669" gradientUnits="userSpaceOnUse" xlink:href="#linearGradient5654"/><linearGradient id="linearGradient5668" x1="-12.328" x2="-9.364" y1="-39.862" y2="-272.206" gradientUnits="userSpaceOnUse" xlink:href="#linearGradient5662"/></defs><metadata id="metadata7"/><g id="layer1" transform="translate(464.16179,214.03236)"><g id="g4082" transform="translate(0,1.552561)"><g id="g4060" transform="matrix(1.5074827,0,0,1.5074827,-9.4212231,-17.89429)"><path id="path15-4-9" fill="#fff" stroke="none" d="m -92.90625,-100.96875 c -48.72726,1.371172 -97.62762,-1.5881 -146.25,1.53125 -8.83995,3.212729 -9.78871,13.966536 -8.75466,22.011354 -0.62074,81.7498889 -0.084,163.50442 -0.30784,245.256566 0,53.0357 0,106.07139 0,159.10708 178.041667,0 356.08333,0 534.125,0 -0.73854,-126.15388 1.33018,-252.407146 -1.15625,-378.5 -3.48573,-9.464278 -15.69814,-9.994823 -24.32676,-9.037532 -101.14198,-0.935916 -202.438781,0.8199 -303.48574,-0.993718 -7.627935,-3.634296 -11.805891,-11.794533 -18.28125,-17.03125 -8.338114,-8.690243 -16.686736,-19.243937 -28.71875,-22.34375 -0.947099,-0.0483 -1.896619,-0.046 -2.84375,0 z" opacity=".4"/><path id="path15-4" fill="none" fill-opacity="1" stroke="#2a7fff" stroke-dasharray="none" stroke-miterlimit="4" stroke-width="13.3" d="m 291.50931,-39.862583 c 0.12037,-19.869931 -6.54658,-26.601586 -26.60239,-26.601586 l -305.928566,0 -33.253231,-33.253038 c -3.541682,-3.450443 -8.293462,-6.651453 -13.301304,-6.651453 l -139.662989,0 c -19.78352,0 -27.01827,6.869614 -26.6026,26.602394 l 0,412.338736 545.35108,0 0,-372.435053 z" opacity=".7"/><path id="path4532" fill="#2a7fff" fill-opacity="1" fill-rule="nonzero" stroke="none" d="m -1338.8572,-89.642939 -186.445,0 c -0.6269,0 -1.1401,0.5132 -1.1401,1.140145 l 0,390.468834 c 0,0.62694 0.5132,1.14014 1.1401,1.14014 l 309.9746,0 c 0.6269,0 1.1194,-0.5132 1.1194,-1.14014 l 0,-119.42509 -123.3638,0 c -0.3603,0 -0.677,-0.13804 -0.9121,-0.37314 -0.2351,-0.2351 -0.3731,-0.57255 -0.3731,-0.93284 l 0,-270.877909 z" opacity=".25"/><rect id="rect2886-6-4-4-1-3" width="312.234" height="392.744" x="-1306.67" y="-239.533" fill="#2a7fff" fill-opacity="1" fill-rule="nonzero" stroke="none" opacity=".7" ry="1.132"/><path id="rect2827-7-3" fill="#2a7fff" fill-opacity="1" fill-rule="nonzero" stroke="none" d="m -1337.5693,-268.8654 c -0.7207,0 -1.3036,0.58299 -1.3036,1.30358 l 0,448.79813 c -10e-5,0.72058 0.5829,1.30358 1.3036,1.30358 l 374.02556,0 c 0.72055,0 1.30358,-0.583 1.30358,-1.30358 l 0,-448.79813 c 0,-0.72059 -0.58303,-1.30358 -1.30358,-1.30358 l -374.02556,0 z m 32.0395,29.33055 309.96688,0 c 0.62694,0 1.12026,0.51369 1.12026,1.14063 l 0,390.4833 c 0,0.62694 -0.49332,1.12026 -1.12026,1.12026 l -309.96688,0 c -0.6269,0 -1.1406,-0.49332 -1.1406,-1.12026 l 0,-390.4833 c 0,-0.62694 0.5137,-1.14063 1.1406,-1.14063 z" opacity=".8"/><path id="path4557" fill="#2a7fff" fill-opacity="1" fill-rule="nonzero" stroke="none" d="m -1338.8572,-118.97578 -218.4727,0 c -0.7206,0 -1.306,0.5854 -1.306,1.30599 l 0,448.80283 c 0,0.72058 0.5854,1.30598 1.306,1.30598 l 374.03,0 c 0.7206,0 1.2853,-0.5854 1.2853,-1.30598 l 0,-148.59209 -32.1936,0 0,119.44582 c 0,0.62694 -0.4925,1.11941 -1.1194,1.11941 l -309.9746,0 c -0.6269,0 -1.1401,-0.49247 -1.1401,-1.11941 l 0,-390.489564 c 0,-0.626945 0.5132,-1.140145 1.1401,-1.140145 l 186.445,0 0,-29.332841 z" opacity=".8"/><rect id="rect2886-6-4-4-1-3-8" width="312.234" height="392.744" x="-296.025" y="-236.62" fill="url(#linearGradient2957)" fill-opacity="1" fill-rule="nonzero" stroke="none" filter="url(#filter7698)" opacity=".4" ry="1.132" transform="matrix(-1,0,0,1,-1290.4612,-2.9130049)"/><g id="g2994" transform="translate(652.40459,62.680863)"><g id="g4428" transform="translate(-12.23342,16.517987)"><g id="g4354" transform="translate(0,-41.264362)"><path id="path15" fill="#2a7fff" fill-opacity="1" stroke="none" d="m 187.96875,230.4375 c -26.63796,0 -36.37218,9.24286 -35.8125,35.8125 l 0,72.90625 734.28125,0 0,-19.1875 c 0.16199,-26.75458 -8.80794,-35.8125 -35.8125,-35.8125 l -411.9375,0 -44.75,-44.78125 C 389.16873,234.72906 382.74291,230.4375 376,230.4375 l -188.03125,0 z" opacity=".7" transform="matrix(0.66335753,0,0,0.66335753,-301.65558,-296.97895)"/><path id="path15-7" fill="#2a7fff" fill-opacity="1" stroke="none" d="m 241.3125,209.4375 c -3.01557,0.004 -6.01599,0.0325 -9.03125,0.0625 -24.25874,0.58971 -48.82064,0.42827 -72.625,4.71875 -23.3893,10.38873 -32.52913,39.24666 -27.75,62.90625 -0.038,20.7508 -0.004,41.49919 -0.0312,62.25 0.77849,-0.0874 1.53589,-0.21875 2.34375,-0.21875 l 17.9375,0 0,-72.90625 c -0.55967,-26.56964 9.17454,-35.8125 35.8125,-35.8125 l 188.03125,0 c 6.74291,0 13.16873,4.29156 17.9375,8.9375 l 44.75,44.78125 411.9375,0 c 27.00456,0 35.97449,9.05792 35.8125,35.8125 l 0,19.1875 17.90625,0 c 0.3313,0 0.642,0.0788 0.96875,0.0937 -0.36539,-14.85436 -0.68371,-29.71153 -1.1875,-44.5625 C 894.27731,268.32188 862.20139,258.35298 836.5,264 c -129.97255,-0.60029 -259.93304,-0.13056 -389.90625,-0.3125 -21.01409,-19.81039 -38.17864,-48.32754 -68.6875,-53.65625 -24.24135,-1.06998 -48.85789,1.17192 -73.25,0.15625 -21.10425,-0.23553 -42.23474,-0.78102 -63.34375,-0.75 z" opacity=".8" transform="matrix(0.66335753,0,0,0.66335753,-301.65558,-296.97895)"/><path id="path15-6" fill="url(#linearGradient3006)" fill-opacity="1" stroke="none" d="m -57.71875,-134.375 c -42.55335,1.18267 -85.23349,-0.99743 -127.71875,0.96875 -7.12171,2.06669 -4.52496,11.08492 -5.40625,16.75 -0.2994,11.53335 0.48866,23.061334 0.28125,34.59375 155.624936,0.135953 311.25001,0.02795 466.875,0.0625 0.19745,-5.352417 1.19698,-14.589706 -5.96875,-15.5 -16.5692,-2.74654 -33.54265,0.266279 -50.28125,-0.96875 -78.21875,0 -156.4375,0 -234.65625,0 -13.448587,-11.10257 -23.122172,-26.65107 -38.375,-35.65625 -1.552248,-0.30741 -3.170196,-0.30588 -4.75,-0.25 z" filter="url(#filter4327)" opacity=".4"/></g><g id="g4420" transform="translate(0,-27.749696)"><path id="path39063-7" fill="#2a7fff" fill-opacity="1" stroke="none" d="m 899.15625,317.21875 c -0.60955,0.0135 -1.23831,0.0252 -1.84375,0.0625 -148.14408,1.64654 -296.44879,0.4985 -444.65625,0.625 -109.8601,0.17875 -219.80582,-0.36096 -329.59375,1.40625 -23.099157,6.01856 -33.105832,33.89743 -27.03125,55.53125 8.22478,146.85913 12.92557,293.98661 23.46875,440.6875 7.97306,23.3049 36.21677,32.42898 58.84375,28.3125 236.8732,-0.72609 473.8157,1.5014 710.65625,-1.34375 24.32189,-5.44329 36.8527,-32.85177 32.90625,-56.0625 6.7536,-146.39407 16.1488,-292.74931 20.6875,-439.1875 -3.97711,-19.49129 -24.54138,-30.44972 -43.4375,-30.03125 z m -765.71875,21.84375 770.125,0 c 10.4245,0 18.70217,7.47066 17.90625,17.9375 l -22.375,447.71875 c -0.54265,10.48575 -11.98207,17.9375 -22.40625,17.9375 l -716.375,0 c -10.42417,0 -21.85656,-7.45175 -22.40625,-17.9375 L 115.53125,357 c -0.75866,-10.46684 7.4818,-17.9375 17.90625,-17.9375 z" display="inline" enable-background="new" opacity=".8" transform="matrix(0.66335753,0,0,0.66335753,-301.65558,-296.97895)"/><path id="path39063" fill="#2a7fff" fill-opacity="1" stroke="none" d="m 295.28324,236.90142 c -0.35998,6.9558 -7.93563,11.88295 -14.85058,11.88295 l -475.22309,0 c -6.91496,0 -14.48595,-4.92715 -14.8506,-11.88295 L -224.4918,-60.112935 c -0.50326,-6.943255 4.96548,-11.883126 11.88062,-11.883126 l 510.86457,0 c 6.91516,0 12.40861,4.939871 11.88064,11.883126 l -14.85079,297.014355 0,0 z" display="inline" enable-background="new" opacity=".7"/><path id="path4097" fill="red" fill-opacity="1" stroke="none" d="m 153.53125,821.46875 c -0.0823,-0.0269 -0.16792,-0.0348 -0.25,-0.0625 -0.38322,-0.12955 -0.74801,-0.32147 -1.125,-0.46875 l 0,0.53125 1.375,0 z" transform="matrix(0.66335753,0,0,0.66335753,-301.65558,-296.97895)"/><path id="path39063-2" fill="url(#linearGradient3008)" fill-opacity="1" stroke="none" d="m 277.53125,-54.46875 c -161.33108,1.247531 -322.674614,-1.088216 -484,1.1875 5.84453,94.705532 8.28771,189.60833 15.28125,284.25 12.40647,1.12861 24.86432,-1.35186 37.28124,-0.009 143.9564368,-0.52234 288.18246,1.2722 431.96876,-1.08453 0.51522,-10.51098 -0.28706,-21.06747 1.16536,-31.52422 3.97343,-84.31266 9.65163,-168.555103 11.83464,-252.94453 -4.51042,0.04167 -9.02083,0.08333 -13.53125,0.125 z" display="inline" enable-background="new" filter="url(#filter4271)" opacity=".4"/></g></g></g><path id="path7263" fill="none" stroke="url(#linearGradient17646-7)" stroke-dasharray="none" stroke-miterlimit="4" stroke-opacity="1" stroke-width="13.301" d="m 278.20822,-39.86158 c -0.10025,-12.150946 -0.73789,-13.154319 -13.3013,-13.301295 l -312.579214,0 -33.253235,-33.253037 c -5.841571,-8.197812 -7.303328,-6.234981 -19.951741,-6.650647 l -133.01256,0 c -9.50175,0 -6.65065,4.154048 -6.65065,13.301295 l 0,399.036454 518.7487,0 0,-359.13277 z" opacity=".4"/><g id="g13071" display="inline" transform="matrix(0.31444501,0,0,0.29196398,298.51246,283.46178)"><rect id="rect13073" width="1339.633" height="478.357" x="-1559.252" y="-150.697" fill="url(#linearGradient2095-1)" fill-opacity="1" fill-rule="nonzero" stroke="none" stroke-width="1" display="inline" opacity=".402" overflow="visible" visibility="visible" style="marker:none"/><path id="path13075" fill="url(#radialGradient2097-3)" fill-opacity="1" fill-rule="nonzero" stroke="none" stroke-width="1" d="m -219.61876,-150.68038 c 0,0 0,478.33079 0,478.33079 142.874166,0.90045 345.40022,-107.16966 345.40014,-239.196175 0,-132.026537 -159.436816,-239.134595 -345.40014,-239.134615 z" display="inline" opacity=".402" overflow="visible" visibility="visible" style="marker:none"/><path id="path13077" fill="url(#radialGradient2099-1)" fill-opacity="1" fill-rule="nonzero" stroke="none" stroke-width="1" d="m -1559.2523,-150.68038 c 0,0 0,478.33079 0,478.33079 -142.8742,0.90045 -345.4002,-107.16966 -345.4002,-239.196175 0,-132.026537 159.4368,-239.134595 345.4002,-239.134615 z" display="inline" opacity=".402" overflow="visible" visibility="visible" style="marker:none"/></g><path id="path39053" fill="url(#linearGradient5668)" fill-opacity="1" d="m -247.18109,-46.51303 c 0.04,3.879546 0.0802,8.324339 0.12036,13.301095 l 531.79353,0 c 0.04,-4.976756 0.0802,-9.421549 0.12036,-13.301095 l -532.04997,0 0.0105,0 z" display="inline" enable-background="new" opacity=".5"/><path id="path39063-6" fill="url(#linearGradient5660)" fill-opacity="1" stroke="#2a7fff" stroke-dasharray="none" stroke-miterlimit="4" stroke-width="13.296" d="m 301.48529,319.27119 c -0.40303,7.78756 -8.88457,13.30388 -16.62643,13.30388 l -532.04997,0 c -7.74186,0 -16.21818,-5.51632 -16.62643,-13.30388 l -16.62661,-332.531183 c -0.56345,-7.773525 5.55924,-13.304101 13.30128,-13.304101 l 571.95348,0 c 7.74205,0 13.89241,5.530576 13.30129,13.304101 l -16.62661,332.531183 0,0 z" display="inline" enable-background="new" opacity=".7"/><rect id="rect3521-5" width="585.255" height="13.301" x="-273.793" y="-19.911" fill="url(#linearGradient9649-0)" fill-opacity="1" stroke="none" display="inline" enable-background="new" rx="0" ry="0"/></g></g></g></svg>