<svg xmlns="http://www.w3.org/2000/svg" xmlns:svg="http://www.w3.org/2000/svg" xmlns:xlink="http://www.w3.org/1999/xlink" id="svg2" width="1000" height="750" version="1.1"><defs id="defs4"><linearGradient id="linearGradient4429"><stop id="stop4431" offset="0" stop-color="#06f" stop-opacity="1"/><stop id="stop4433" offset="1" stop-color="#06f" stop-opacity="0"/></linearGradient><linearGradient id="linearGradient4421"><stop id="stop4423" offset="0" stop-color="#2a7fff" stop-opacity="1"/><stop id="stop4425" offset="1" stop-color="#2a7fff" stop-opacity=".784"/></linearGradient><linearGradient id="linearGradient8562" x1="-213.564" x2="253.595" y1="24.514" y2="24.514" gradientTransform="matrix(0,1,-1,0,44.530081,4.498828)" gradientUnits="userSpaceOnUse" xlink:href="#linearGradient3641"/><linearGradient id="linearGradient3641"><stop id="stop3643" offset="0" stop-color="#fff" stop-opacity="1"/><stop id="stop3645" offset="1" stop-color="#fff" stop-opacity="0"/></linearGradient><linearGradient id="linearGradient6791" x1="-213.564" x2="253.595" y1="24.514" y2="24.514" gradientTransform="matrix(0,1,-1,0,44.530081,4.498828)" gradientUnits="userSpaceOnUse" xlink:href="#linearGradient3641"/><linearGradient id="linearGradient7354" x1="-1.887" x2="323.882" y1="-163.788" y2="-163.788" gradientTransform="translate(-294.13778,123.54099)" gradientUnits="userSpaceOnUse" xlink:href="#linearGradient3641"/><linearGradient id="linearGradient3034" x1="29.827" x2="65.694" y1="51.954" y2="51.954" gradientTransform="matrix(0,-3.8560538,-3.8560538,0,-542.02907,16.00419)" gradientUnits="userSpaceOnUse" xlink:href="#linearGradient4081"/><linearGradient id="linearGradient4081"><stop id="stop4083" offset="0" stop-color="#aaa" stop-opacity="1"/><stop id="stop4085" offset="1" stop-color="#f0f0f0" stop-opacity="1"/></linearGradient><linearGradient id="linearGradient3705" x1="29.827" x2="65.694" y1="51.954" y2="51.954" gradientTransform="matrix(0,-3.8560538,-3.8560538,0,-773.39229,16.00419)" gradientUnits="userSpaceOnUse" xlink:href="#linearGradient4081"/><linearGradient id="linearGradient3083"><stop id="stop3085" offset="0" stop-color="#aaa" stop-opacity="1"/><stop id="stop3087" offset="1" stop-color="#f0f0f0" stop-opacity="1"/></linearGradient><linearGradient id="linearGradient3984" x1="48" x2="48" y1="60" y2="8" gradientTransform="matrix(3.8560538,0,0,3.8560538,-865.93746,8.2921123)" gradientUnits="userSpaceOnUse" xlink:href="#linearGradient4081"/><linearGradient id="linearGradient3090"><stop id="stop3092" offset="0" stop-color="#aaa" stop-opacity="1"/><stop id="stop3094" offset="1" stop-color="#f0f0f0" stop-opacity="1"/></linearGradient><linearGradient id="linearGradient2957" x1="-1.887" x2="323.882" y1="-163.788" y2="-163.788" gradientTransform="translate(-294.13778,123.54099)" gradientUnits="userSpaceOnUse" xlink:href="#linearGradient3641"/><linearGradient id="linearGradient2967" x1="48" x2="48" y1="60" y2="8" gradientTransform="matrix(3.8560538,0,0,3.8560538,-865.93746,8.2921123)" gradientUnits="userSpaceOnUse" xlink:href="#linearGradient4081"/><linearGradient id="linearGradient2972" x1="48" x2="48" y1="60" y2="8" gradientTransform="matrix(9.7170219,0,0,9.7170219,-342.65462,-313.58043)" gradientUnits="userSpaceOnUse" xlink:href="#linearGradient4081"/><linearGradient id="linearGradient17644" x1="25.063" x2="25.063" y1="9" y2="28.083" gradientTransform="translate(-2.3577825e-6,-0.9999361)" gradientUnits="userSpaceOnUse" xlink:href="#linearGradient6293"/><linearGradient id="linearGradient6293"><stop id="stop6295" offset="0" stop-color="#888a85" stop-opacity="1"/><stop id="stop6297" offset="1" stop-color="#555753" stop-opacity="0"/></linearGradient><linearGradient id="linearGradient17646" x1="23.959" x2="23.985" y1="10" y2="42" gradientTransform="matrix(11.880574,0,0,11.880574,-242.31274,-256.14172)" gradientUnits="userSpaceOnUse" xlink:href="#linearGradient17648"/><linearGradient id="linearGradient17648"><stop id="stop17650" offset="0" stop-color="#fff" stop-opacity=".6"/><stop id="stop17652" offset="1" stop-color="#fff" stop-opacity="0"/></linearGradient><linearGradient id="linearGradient2095" x1="302.857" x2="302.857" y1="366.648" y2="609.505" gradientTransform="matrix(2.774389,0,0,1.969706,-1892.179,-872.8854)" gradientUnits="userSpaceOnUse" xlink:href="#linearGradient5048"/><linearGradient id="linearGradient5048"><stop id="stop5050" offset="0" stop-color="#000" stop-opacity="0"/><stop id="stop5056" offset=".5" stop-color="#000" stop-opacity="1"/><stop id="stop5052" offset="1" stop-color="#000" stop-opacity="0"/></linearGradient><radialGradient id="radialGradient2097" cx="605.714" cy="486.648" r="117.143" fx="605.714" fy="486.648" gradientTransform="matrix(2.774389,0,0,1.969706,-1891.633,-872.8854)" gradientUnits="userSpaceOnUse" xlink:href="#linearGradient5060"/><linearGradient id="linearGradient5060"><stop id="stop5062" offset="0" stop-color="#000" stop-opacity="1"/><stop id="stop5064" offset="1" stop-color="#000" stop-opacity="0"/></linearGradient><radialGradient id="radialGradient2099" cx="605.714" cy="486.648" r="117.143" fx="605.714" fy="486.648" gradientTransform="matrix(-2.774389,0,0,1.969706,112.7623,-872.8854)" gradientUnits="userSpaceOnUse" xlink:href="#linearGradient5060"/><linearGradient id="linearGradient9133" x1="71.999" x2="71.999" y1="14.258" y2="19.958" gradientTransform="matrix(4.4052713,0,0,1.9800948,-274.34951,-117.53574)" gradientUnits="userSpaceOnUse" xlink:href="#linearGradient9101"/><linearGradient id="linearGradient9101" x1="71.999" x2="71.999" y1="14.258" y2="19.958" gradientTransform="matrix(1.0033404,0,0,1,-8.2374684,8)" gradientUnits="userSpaceOnUse"><stop id="stop9103" offset=".25" stop-color="#97bf60" stop-opacity="0"/><stop id="stop9105" offset="1" stop-color="#709937" stop-opacity="1"/></linearGradient><linearGradient id="linearGradient9645" x1="28.272" x2="28.272" y1="324.689" y2="409.099" gradientTransform="matrix(4.1768047,0,0,4.2207971,-75.266075,-1472.0003)" gradientUnits="userSpaceOnUse" xlink:href="#linearGradient9073"/><linearGradient id="linearGradient9073"><stop id="stop9075" offset="0" stop-color="#aacb7d" stop-opacity="1"/><stop id="stop9077" offset="1" stop-color="#709937" stop-opacity="1"/></linearGradient><linearGradient id="linearGradient9647" x1="163.026" x2="162.992" y1="17" y2="45" gradientTransform="matrix(11.880574,0,0,11.880574,-1834.3094,-279.90367)" gradientUnits="userSpaceOnUse" xlink:href="#linearGradient9087"/><linearGradient id="linearGradient9087"><stop id="stop9089" offset="0" stop-color="#709937" stop-opacity="1"/><stop id="stop9091" offset="1" stop-color="#51751e" stop-opacity="1"/></linearGradient><linearGradient id="linearGradient9649" x1="7.238" x2="132.86" y1="36.005" y2="35.858" gradientTransform="matrix(5.4060209,0,0,11.201112,-306.47211,-461.42945)" gradientUnits="userSpaceOnUse" xlink:href="#linearGradient10176"/><linearGradient id="linearGradient10176" x1="71.999" x2="71.999" y1="14.258" y2="19.958" gradientTransform="matrix(1.0033404,0,0,1,-8.2374684,8)" gradientUnits="userSpaceOnUse"><stop id="stop10178" offset=".004" stop-color="#feebd6" stop-opacity="0"/><stop id="stop10180" offset=".461" stop-color="#f5f5f5" stop-opacity=".53"/><stop id="stop10182" offset="1" stop-color="#f5f5f5" stop-opacity="0"/></linearGradient><linearGradient id="linearGradient2919" x1="25.063" x2="25.063" y1="9" y2="28.083" gradientTransform="matrix(11.880574,0,0,11.880574,-242.31274,-256.14172)" gradientUnits="userSpaceOnUse" xlink:href="#linearGradient6293"/><linearGradient id="linearGradient9645-4" x1="28.272" x2="28.272" y1="324.689" y2="409.099" gradientTransform="matrix(4.1768047,0,0,4.2207971,-75.266075,-1472.0003)" gradientUnits="userSpaceOnUse" xlink:href="#linearGradient9073-9"/><linearGradient id="linearGradient9073-9"><stop id="stop9075-5" offset="0" stop-color="#aacb7d" stop-opacity="1"/><stop id="stop9077-0" offset="1" stop-color="#709937" stop-opacity="1"/></linearGradient><linearGradient id="linearGradient3926" x1="28.272" x2="28.272" y1="324.689" y2="409.099" gradientTransform="matrix(4.1768047,0,0,4.2207971,-75.266076,-1472.0003)" gradientUnits="userSpaceOnUse" xlink:href="#linearGradient9073-9"/><linearGradient id="linearGradient3949" x1="28.272" x2="28.272" y1="324.689" y2="409.099" gradientTransform="matrix(4.1768047,0,0,4.2207971,-75.266076,-1472.0003)" gradientUnits="userSpaceOnUse" xlink:href="#linearGradient9073-9"/><linearGradient id="linearGradient3953" x1="28.272" x2="28.272" y1="324.689" y2="409.099" gradientTransform="matrix(4.1768047,0,0,4.2207971,-75.266076,-1472.0003)" gradientUnits="userSpaceOnUse" xlink:href="#linearGradient9073-9"/><linearGradient id="linearGradient3957" x1="28.272" x2="28.272" y1="324.689" y2="409.099" gradientTransform="matrix(4.1768047,0,0,4.2207971,-75.266076,-1472.0003)" gradientUnits="userSpaceOnUse" xlink:href="#linearGradient9073-9"/><linearGradient id="linearGradient3961" x1="28.272" x2="28.272" y1="324.689" y2="409.099" gradientTransform="matrix(4.1768047,0,0,4.2207971,-75.266076,-1472.0003)" gradientUnits="userSpaceOnUse" xlink:href="#linearGradient9073-9"/><linearGradient id="linearGradient3965" x1="28.272" x2="28.272" y1="324.689" y2="409.099" gradientTransform="matrix(4.1768047,0,0,4.2207971,-75.266076,-1472.0003)" gradientUnits="userSpaceOnUse" xlink:href="#linearGradient9073-9"/><linearGradient id="linearGradient3969" x1="28.272" x2="28.272" y1="324.689" y2="409.099" gradientTransform="matrix(4.1768047,0,0,4.2207971,-75.266076,-1472.0003)" gradientUnits="userSpaceOnUse" xlink:href="#linearGradient9073-9"/><linearGradient id="linearGradient3973" x1="28.272" x2="28.272" y1="324.689" y2="409.099" gradientTransform="matrix(4.1768047,0,0,4.2207971,-75.266076,-1472.0003)" gradientUnits="userSpaceOnUse" xlink:href="#linearGradient9073-9"/><linearGradient id="linearGradient3977" x1="28.272" x2="28.272" y1="324.689" y2="409.099" gradientTransform="matrix(4.1768047,0,0,4.2207971,-75.266076,-1472.0003)" gradientUnits="userSpaceOnUse" xlink:href="#linearGradient9073-9"/><linearGradient id="linearGradient3981" x1="28.272" x2="28.272" y1="324.689" y2="409.099" gradientTransform="matrix(4.1768047,0,0,4.2207971,-75.266076,-1472.0003)" gradientUnits="userSpaceOnUse" xlink:href="#linearGradient9073-9"/><linearGradient id="linearGradient3985" x1="28.272" x2="28.272" y1="324.689" y2="409.099" gradientTransform="matrix(4.1768047,0,0,4.2207971,-75.266076,-1472.0003)" gradientUnits="userSpaceOnUse" xlink:href="#linearGradient9073-9"/><linearGradient id="linearGradient3989" x1="28.272" x2="28.272" y1="324.689" y2="409.099" gradientTransform="matrix(4.1768047,0,0,4.2207971,-75.266076,-1472.0003)" gradientUnits="userSpaceOnUse" xlink:href="#linearGradient9073-9"/><linearGradient id="linearGradient3993" x1="28.272" x2="28.272" y1="324.689" y2="409.099" gradientTransform="matrix(6.2964608,0,0,6.3627786,341.27826,-1771.3244)" gradientUnits="userSpaceOnUse" xlink:href="#linearGradient9073-9"/><linearGradient id="linearGradient4148" x1="28.272" x2="28.272" y1="324.689" y2="409.099" gradientTransform="matrix(6.2964608,0,0,6.3627786,341.27826,-1771.3244)" gradientUnits="userSpaceOnUse" xlink:href="#linearGradient9073-9"/><linearGradient id="linearGradient4175" x1="28.272" x2="28.272" y1="324.689" y2="409.099" gradientTransform="matrix(6.2964608,0,0,6.3627786,341.27826,-1771.3244)" gradientUnits="userSpaceOnUse" xlink:href="#linearGradient9073-9"/><linearGradient id="linearGradient3285" x1="-181.867" x2="2.605" y1="212.954" y2="28.482" gradientUnits="userSpaceOnUse" xlink:href="#linearGradient3641-6-0"/><linearGradient id="linearGradient3641-6-0"><stop id="stop3643-4-4" offset="0" stop-color="#fff" stop-opacity="1"/><stop id="stop3645-9-8" offset="1" stop-color="#fff" stop-opacity="0"/></linearGradient><linearGradient id="linearGradient3308" x1="-181.867" x2="2.605" y1="212.954" y2="28.482" gradientUnits="userSpaceOnUse" xlink:href="#linearGradient3641-6-0"/><linearGradient id="linearGradient4265" x1="-206.469" x2="291.063" y1="88.339" y2="88.339" gradientUnits="userSpaceOnUse" xlink:href="#linearGradient3641"/><filter id="filter4271" color-interpolation-filters="sRGB"><feGaussianBlur id="feGaussianBlur4273" stdDeviation="6.267"/></filter><linearGradient id="linearGradient4321" x1="-190.913" x2="276.472" y1="-108.198" y2="-108.198" gradientUnits="userSpaceOnUse" xlink:href="#linearGradient5060"/><filter id="filter4327" width="1.043" height="1.381" x="-.021" y="-.19" color-interpolation-filters="sRGB"><feGaussianBlur id="feGaussianBlur4329" stdDeviation="4.158"/></filter><linearGradient id="linearGradient4359" x1="-190.913" x2="276.472" y1="-108.198" y2="-108.198" gradientUnits="userSpaceOnUse" xlink:href="#linearGradient5060"/><linearGradient id="linearGradient4426" x1="-206.469" x2="291.063" y1="88.339" y2="88.339" gradientUnits="userSpaceOnUse" xlink:href="#linearGradient3641"/><linearGradient id="linearGradient4439" x1="-190.913" x2="276.472" y1="-108.198" y2="-108.198" gradientUnits="userSpaceOnUse" xlink:href="#linearGradient5060"/><linearGradient id="linearGradient4441" x1="-206.469" x2="291.063" y1="88.339" y2="88.339" gradientUnits="userSpaceOnUse" xlink:href="#linearGradient3641"/><linearGradient id="linearGradient4439-6" x1="-190.913" x2="276.472" y1="-108.198" y2="-108.198" gradientUnits="userSpaceOnUse" xlink:href="#linearGradient5060-4"/><linearGradient id="linearGradient5060-4"><stop id="stop5062-9" offset="0" stop-color="#000" stop-opacity="1"/><stop id="stop5064-5" offset="1" stop-color="#000" stop-opacity="0"/></linearGradient><filter id="filter4327-0" width="1.043" height="1.381" x="-.021" y="-.19" color-interpolation-filters="sRGB"><feGaussianBlur id="feGaussianBlur4329-4" stdDeviation="4.158"/></filter><linearGradient id="linearGradient4441-8" x1="-206.469" x2="291.063" y1="88.339" y2="88.339" gradientUnits="userSpaceOnUse" xlink:href="#linearGradient3641-7"/><linearGradient id="linearGradient3641-7"><stop id="stop3643-1" offset="0" stop-color="#fff" stop-opacity="1"/><stop id="stop3645-7" offset="1" stop-color="#fff" stop-opacity="0"/></linearGradient><filter id="filter4271-2" color-interpolation-filters="sRGB"><feGaussianBlur id="feGaussianBlur4273-7" stdDeviation="6.267"/></filter><linearGradient id="linearGradient3091" x1="-206.469" x2="291.063" y1="88.339" y2="88.339" gradientUnits="userSpaceOnUse" xlink:href="#linearGradient3641-7"/><linearGradient id="linearGradient3094" x1="-206.469" x2="291.063" y1="88.339" y2="88.339" gradientTransform="translate(-3.4236625,-10.517314)" gradientUnits="userSpaceOnUse" xlink:href="#linearGradient3641-7"/><linearGradient id="linearGradient3131" x1="-206.469" x2="291.063" y1="88.339" y2="88.339" gradientTransform="translate(-3.4236625,-10.517314)" gradientUnits="userSpaceOnUse" xlink:href="#linearGradient3641-7"/><linearGradient id="linearGradient3145" x1="-190.913" x2="276.472" y1="-108.198" y2="-108.198" gradientUnits="userSpaceOnUse" xlink:href="#linearGradient5060-4"/><linearGradient id="linearGradient3147" x1="-206.469" x2="291.063" y1="88.339" y2="88.339" gradientTransform="translate(-3.4236625,-10.517314)" gradientUnits="userSpaceOnUse" xlink:href="#linearGradient3641-7"/><linearGradient id="linearGradient3147-3" x1="-206.469" x2="291.063" y1="88.339" y2="88.339" gradientTransform="translate(-3.4236625,-10.517314)" gradientUnits="userSpaceOnUse" xlink:href="#linearGradient3641-7-6"/><linearGradient id="linearGradient3641-7-6"><stop id="stop3643-1-5" offset="0" stop-color="#fff" stop-opacity="1"/><stop id="stop3645-7-6" offset="1" stop-color="#fff" stop-opacity="0"/></linearGradient><linearGradient id="linearGradient3213" x1="-206.469" x2="291.063" y1="88.339" y2="88.339" gradientTransform="translate(-3.4236625,-10.517314)" gradientUnits="userSpaceOnUse" xlink:href="#linearGradient3641-7-6"/><linearGradient id="linearGradient3299" x1="-190.913" x2="276.472" y1="-108.198" y2="-108.198" gradientUnits="userSpaceOnUse" xlink:href="#linearGradient5060-4"/><linearGradient id="linearGradient3302" x1="-190.913" x2="276.472" y1="-108.198" y2="-108.198" gradientTransform="translate(-36.838873,-24.746378)" gradientUnits="userSpaceOnUse" xlink:href="#linearGradient5060-4"/><linearGradient id="linearGradient4104" x1="-206.469" x2="291.063" y1="88.339" y2="88.339" gradientTransform="translate(-3.4236625,-10.517314)" gradientUnits="userSpaceOnUse" xlink:href="#linearGradient3641-7"/><linearGradient id="linearGradient4122" x1="-206.469" x2="291.063" y1="88.339" y2="88.339" gradientTransform="translate(-3.4236625,-10.517314)" gradientUnits="userSpaceOnUse" xlink:href="#linearGradient3641-7"/><linearGradient id="linearGradient4126" x1="-206.469" x2="291.063" y1="88.339" y2="88.339" gradientTransform="translate(-3.4236625,-10.517314)" gradientUnits="userSpaceOnUse" xlink:href="#linearGradient3641-7"/><linearGradient id="linearGradient4130" x1="-206.469" x2="291.063" y1="88.339" y2="88.339" gradientTransform="translate(-3.4236625,-10.517314)" gradientUnits="userSpaceOnUse" xlink:href="#linearGradient3641-7"/><linearGradient id="linearGradient4134" x1="-206.469" x2="291.063" y1="88.339" y2="88.339" gradientTransform="translate(-3.4236625,-10.517314)" gradientUnits="userSpaceOnUse" xlink:href="#linearGradient3641-7"/><linearGradient id="linearGradient4138" x1="-206.469" x2="291.063" y1="88.339" y2="88.339" gradientTransform="translate(-3.4236625,-10.517314)" gradientUnits="userSpaceOnUse" xlink:href="#linearGradient3641-7"/><linearGradient id="linearGradient4142" x1="-206.469" x2="291.063" y1="88.339" y2="88.339" gradientTransform="translate(-3.4236625,-10.517314)" gradientUnits="userSpaceOnUse" xlink:href="#linearGradient3641-7"/><linearGradient id="linearGradient4146" x1="-206.469" x2="291.063" y1="88.339" y2="88.339" gradientTransform="translate(-3.4236625,-10.517314)" gradientUnits="userSpaceOnUse" xlink:href="#linearGradient3641-7"/><linearGradient id="linearGradient4150" x1="-206.469" x2="291.063" y1="88.339" y2="88.339" gradientTransform="translate(-3.4236625,-10.517314)" gradientUnits="userSpaceOnUse" xlink:href="#linearGradient3641-7"/><linearGradient id="linearGradient5325" x1="51.172" x2="57.829" y1="232.485" y2="-55.836" gradientTransform="translate(-3.4236625,-10.517314)" gradientUnits="userSpaceOnUse" xlink:href="#linearGradient3641-7"/><linearGradient id="linearGradient4026" x1="-190.913" x2="276.472" y1="-108.198" y2="-108.198" gradientTransform="translate(-36.838873,-24.746378)" gradientUnits="userSpaceOnUse" xlink:href="#linearGradient5060-4"/><linearGradient id="linearGradient4028" x1="51.172" x2="57.829" y1="232.485" y2="-55.836" gradientTransform="translate(-3.4236625,-10.517314)" gradientUnits="userSpaceOnUse" xlink:href="#linearGradient3641-7"/><linearGradient id="linearGradient9649-6" x1="7.238" x2="132.86" y1="36.005" y2="35.858" gradientTransform="matrix(5.9767268,0,0,12.383596,-353.15224,-349.83309)" gradientUnits="userSpaceOnUse" xlink:href="#linearGradient10176-8"/><linearGradient id="linearGradient10176-8" x1="71.999" x2="71.999" y1="14.258" y2="19.958" gradientTransform="matrix(1.0033404,0,0,1,-8.2374684,8)" gradientUnits="userSpaceOnUse"><stop id="stop10178-9" offset=".004" stop-color="#feebd6" stop-opacity="0"/><stop id="stop10180-2" offset=".461" stop-color="#f5f5f5" stop-opacity=".53"/><stop id="stop10182-6" offset="1" stop-color="#f5f5f5" stop-opacity="0"/></linearGradient><linearGradient id="linearGradient9073-4"><stop id="stop9075-9" offset="0" stop-color="#e47070" stop-opacity="1"/><stop id="stop9077-5" offset="1" stop-color="#c22f2f" stop-opacity="1"/></linearGradient><linearGradient id="linearGradient9101-7" x1="71.999" x2="71.999" y1="14.258" y2="19.958" gradientTransform="matrix(1.0033404,0,0,1,-8.2374684,8)" gradientUnits="userSpaceOnUse"><stop id="stop9103-2" offset=".25" stop-color="#df5757" stop-opacity="0"/><stop id="stop9105-7" offset="1" stop-color="#c22f2f" stop-opacity="1"/></linearGradient><linearGradient id="linearGradient2095-2" x1="302.857" x2="302.857" y1="366.648" y2="609.505" gradientTransform="matrix(2.774389,0,0,1.969706,-1892.179,-872.8854)" gradientUnits="userSpaceOnUse" xlink:href="#linearGradient5048-2"/><linearGradient id="linearGradient5048-2"><stop id="stop5050-6" offset="0" stop-color="#000" stop-opacity="0"/><stop id="stop5056-1" offset=".5" stop-color="#000" stop-opacity="1"/><stop id="stop5052-0" offset="1" stop-color="#000" stop-opacity="0"/></linearGradient><radialGradient id="radialGradient2097-6" cx="605.714" cy="486.648" r="117.143" fx="605.714" fy="486.648" gradientTransform="matrix(2.774389,0,0,1.969706,-1891.633,-872.8854)" gradientUnits="userSpaceOnUse" xlink:href="#linearGradient5060-1"/><linearGradient id="linearGradient5060-1"><stop id="stop5062-5" offset="0" stop-color="#000" stop-opacity="1"/><stop id="stop5064-9" offset="1" stop-color="#000" stop-opacity="0"/></linearGradient><radialGradient id="radialGradient2099-4" cx="605.714" cy="486.648" r="117.143" fx="605.714" fy="486.648" gradientTransform="matrix(-2.774389,0,0,1.969706,112.7623,-872.8854)" gradientUnits="userSpaceOnUse" xlink:href="#linearGradient5060-1"/><linearGradient id="linearGradient17646-9" x1="23.959" x2="23.985" y1="10" y2="42" gradientTransform="matrix(13.134789,0,0,13.134789,-282.21966,-227.95189)" gradientUnits="userSpaceOnUse" xlink:href="#linearGradient17648-0"/><linearGradient id="linearGradient17648-0"><stop id="stop17650-9" offset="0" stop-color="#fff" stop-opacity=".6"/><stop id="stop17652-1" offset="1" stop-color="#fff" stop-opacity="0"/></linearGradient><linearGradient id="linearGradient4809"><stop id="stop4811" offset="0" stop-color="#eeeeec" stop-opacity="1"/><stop id="stop4813" offset="1" stop-color="#fff" stop-opacity="1"/></linearGradient><linearGradient id="linearGradient4817"><stop id="stop4819" offset="0" stop-color="#555753" stop-opacity="1"/><stop id="stop4821" offset="1" stop-color="#555753" stop-opacity="0"/></linearGradient><linearGradient id="linearGradient17644-7" x1="25.063" x2="25.063" y1="9" y2="35.103" gradientTransform="translate(-2.5577825e-6,-0.9999364)" gradientUnits="userSpaceOnUse" xlink:href="#linearGradient6293-7"/><linearGradient id="linearGradient6293-7"><stop id="stop6295-1" offset="0" stop-color="#888a85" stop-opacity="1"/><stop id="stop6297-1" offset="1" stop-color="#555753" stop-opacity="0"/></linearGradient><linearGradient id="linearGradient4427" x1="33.017" x2="33.017" y1="336.843" y2="-514.265" gradientUnits="userSpaceOnUse" xlink:href="#linearGradient4421"/><linearGradient id="linearGradient4435" x1="33.009" x2="33.009" y1="67.58" y2="-203.908" gradientUnits="userSpaceOnUse" xlink:href="#linearGradient4429"/><linearGradient id="linearGradient4815-6" x1="106.025" x2="72.15" y1="10.204" y2="28.023" gradientTransform="matrix(13.134789,0,0,13.134789,-1188.5175,-227.95268)" gradientUnits="userSpaceOnUse" xlink:href="#linearGradient4809-7"/><linearGradient id="linearGradient4809-7"><stop id="stop4811-3" offset="0" stop-color="#eeeeec" stop-opacity="1"/><stop id="stop4813-6" offset="1" stop-color="#fff" stop-opacity="1"/></linearGradient><linearGradient id="linearGradient5304" x1="106.025" x2="72.15" y1="10.204" y2="28.023" gradientTransform="matrix(13.134789,0,0,13.134789,-1705.0779,-132.968)" gradientUnits="userSpaceOnUse" xlink:href="#linearGradient4809-7"/></defs><metadata id="metadata7"/><g id="layer1" transform="translate(464.16179,214.03236)"><g id="g4082" transform="translate(0,1.552561)"><g id="g4060" transform="matrix(1.5074827,0,0,1.5074827,-9.4212231,-17.89429)"><path id="path15-5-8" fill="#2a7fff" fill-opacity="1" stroke="none" d="m -181.15625,-114.28125 c -16.6289,1.05851 -34.07585,-1.24395 -50.0625,4.09375 -13.6524,7.50284 -18.28793,24.742676 -15.75244,39.343747 -0.46474,137.36411 -0.11201,274.729213 -0.24756,412.093753 186.833333,0 373.66667,0 560.5,0 -0.80433,-131.22138 1.60101,-262.510495 -1.375,-393.6875 -4.52492,-17.021715 -24.11227,-25.03765 -40.46771,-22.279267 -81.23322,0.08224 -162.4807,-0.151991 -243.719784,-0.01399 -16.552076,-0.02411 -33.1041673,-0.01961 -49.656256,-0.01924 -15.210245,-13.747774 -27.351769,-34.30827 -48.71875,-39.125 -22.982218,-0.53863 -46.02312,0.10595 -69.03122,-0.32399 -13.82271,-0.0725 -27.6459,-0.14075 -41.46878,-0.0823 z m 58.34375,11.75 c 18.00299,0.28064 36.146374,-0.42772 54.0625,0.5625 11.005225,3.989793 17.140156,15.31652 26.074747,22.574747 5.798998,5.197191 10.921236,12.088739 17.112753,16.300253 102.966094,0.202795 205.95345,-0.404984 308.90625,0.3125 8.61896,0.405038 17.05358,6.605307 17.5,15.65625 1.85266,14.492537 0.0234,29.367199 0.75,44 0,110.90625 0,221.8125 0,332.71875 -179.0625,0 -358.125,0 -537.1875,0 0.20512,-137.97677 -0.32672,-275.972605 0.25,-413.9375 0.30556,-8.985161 7.27117,-17.12392 16.5625,-17.5625 22.55865,-1.39236 45.42417,-0.11984 68.09371,-0.60683 9.29167,-0.0242 18.58335,-0.0178 27.87504,-0.0182 z" opacity=".7"/><g id="g4428" transform="translate(-1143.2268,-7.2923993)"><g id="g4354" transform="translate(0,-41.264362)"><path id="path15" fill="#2a7fff" fill-opacity="1" stroke="none" d="m 187.96875,230.4375 c -26.63796,0 -36.37218,9.24286 -35.8125,35.8125 l 0,72.90625 734.28125,0 0,-19.1875 c 0.16199,-26.75458 -8.80794,-35.8125 -35.8125,-35.8125 l -411.9375,0 -44.75,-44.78125 C 389.16873,234.72906 382.74291,230.4375 376,230.4375 l -188.03125,0 z" opacity=".7" transform="matrix(0.66335753,0,0,0.66335753,-301.65558,-296.97895)"/><path id="path15-7" fill="#2a7fff" fill-opacity="1" stroke="none" d="m 241.3125,209.4375 c -3.01557,0.004 -6.01599,0.0325 -9.03125,0.0625 -24.25874,0.58971 -48.82064,0.42827 -72.625,4.71875 -23.3893,10.38873 -32.52913,39.24666 -27.75,62.90625 -0.038,20.7508 -0.004,41.49919 -0.0312,62.25 0.77849,-0.0874 1.53589,-0.21875 2.34375,-0.21875 l 17.9375,0 0,-72.90625 c -0.55967,-26.56964 9.17454,-35.8125 35.8125,-35.8125 l 188.03125,0 c 6.74291,0 13.16873,4.29156 17.9375,8.9375 l 44.75,44.78125 411.9375,0 c 27.00456,0 35.97449,9.05792 35.8125,35.8125 l 0,19.1875 17.90625,0 c 0.3313,0 0.642,0.0788 0.96875,0.0937 -0.36539,-14.85436 -0.68371,-29.71153 -1.1875,-44.5625 C 894.27731,268.32188 862.20139,258.35298 836.5,264 c -129.97255,-0.60029 -259.93304,-0.13056 -389.90625,-0.3125 -21.01409,-19.81039 -38.17864,-48.32754 -68.6875,-53.65625 -24.24135,-1.06998 -48.85789,1.17192 -73.25,0.15625 -21.10425,-0.23553 -42.23474,-0.78102 -63.34375,-0.75 z" opacity=".8" transform="matrix(0.66335753,0,0,0.66335753,-301.65558,-296.97895)"/><path id="path15-6" fill="url(#linearGradient4439)" fill-opacity="1" stroke="none" d="m -57.71875,-134.375 c -42.55335,1.18267 -85.23349,-0.99743 -127.71875,0.96875 -7.12171,2.06669 -4.52496,11.08492 -5.40625,16.75 -0.2994,11.53335 0.48866,23.061334 0.28125,34.59375 155.624936,0.135953 311.25001,0.02795 466.875,0.0625 0.19745,-5.352417 1.19698,-14.589706 -5.96875,-15.5 -16.5692,-2.74654 -33.54265,0.266279 -50.28125,-0.96875 -78.21875,0 -156.4375,0 -234.65625,0 -13.448587,-11.10257 -23.122172,-26.65107 -38.375,-35.65625 -1.552248,-0.30741 -3.170196,-0.30588 -4.75,-0.25 z" filter="url(#filter4327)" opacity=".4"/></g><g id="g4420" transform="translate(0,-27.749696)"><path id="path39063-7" fill="#2a7fff" fill-opacity="1" stroke="none" d="m 899.15625,317.21875 c -0.60955,0.0135 -1.23831,0.0252 -1.84375,0.0625 -148.14408,1.64654 -296.44879,0.4985 -444.65625,0.625 -109.8601,0.17875 -219.80582,-0.36096 -329.59375,1.40625 -23.099157,6.01856 -33.105832,33.89743 -27.03125,55.53125 8.22478,146.85913 12.92557,293.98661 23.46875,440.6875 7.97306,23.3049 36.21677,32.42898 58.84375,28.3125 236.8732,-0.72609 473.8157,1.5014 710.65625,-1.34375 24.32189,-5.44329 36.8527,-32.85177 32.90625,-56.0625 6.7536,-146.39407 16.1488,-292.74931 20.6875,-439.1875 -3.97711,-19.49129 -24.54138,-30.44972 -43.4375,-30.03125 z m -765.71875,21.84375 770.125,0 c 10.4245,0 18.70217,7.47066 17.90625,17.9375 l -22.375,447.71875 c -0.54265,10.48575 -11.98207,17.9375 -22.40625,17.9375 l -716.375,0 c -10.42417,0 -21.85656,-7.45175 -22.40625,-17.9375 L 115.53125,357 c -0.75866,-10.46684 7.4818,-17.9375 17.90625,-17.9375 z" display="inline" enable-background="new" opacity=".8" transform="matrix(0.66335753,0,0,0.66335753,-301.65558,-296.97895)"/><path id="path39063" fill="#2a7fff" fill-opacity="1" stroke="none" d="m 295.28324,236.90142 c -0.35998,6.9558 -7.93563,11.88295 -14.85058,11.88295 l -475.22309,0 c -6.91496,0 -14.48595,-4.92715 -14.8506,-11.88295 L -224.4918,-60.112935 c -0.50326,-6.943255 4.96548,-11.883126 11.88062,-11.883126 l 510.86457,0 c 6.91516,0 12.40861,4.939871 11.88064,11.883126 l -14.85079,297.014355 0,0 z" display="inline" enable-background="new" opacity=".7"/><path id="path4097" fill="red" fill-opacity="1" stroke="none" d="m 153.53125,821.46875 c -0.0823,-0.0269 -0.16792,-0.0348 -0.25,-0.0625 -0.38322,-0.12955 -0.74801,-0.32147 -1.125,-0.46875 l 0,0.53125 1.375,0 z" transform="matrix(0.66335753,0,0,0.66335753,-301.65558,-296.97895)"/><path id="path39063-2" fill="url(#linearGradient4441)" fill-opacity="1" stroke="none" d="m 277.53125,-54.46875 c -161.33108,1.247531 -322.674614,-1.088216 -484,1.1875 5.84453,94.705532 8.28771,189.60833 15.28125,284.25 12.40647,1.12861 24.86432,-1.35186 37.28124,-0.009 143.9564368,-0.52234 288.18246,1.2722 431.96876,-1.08453 0.51522,-10.51098 -0.28706,-21.06747 1.16536,-31.52422 3.97343,-84.31266 9.65163,-168.555103 11.83464,-252.94453 -4.51042,0.04167 -9.02083,0.08333 -13.53125,0.125 z" display="inline" enable-background="new" filter="url(#filter4271)" opacity=".4"/></g></g><g id="g4011" transform="translate(794.6785,12.208392)"><path id="path15-61" fill="#2a7fff" fill-opacity="1" stroke="none" d="m 132.4375,193.125 c -26.63797,0 -36.372168,9.24286 -35.8125,35.8125 l 0,72.90625 17.09375,0 c -5.77908,0.0625 -11.56534,0.11454 -17.34375,0.1875 l 0,20.09375 751.65625,0 c 0.35538,0 0.68113,0.0766 1.03125,0.0937 l 35.0625,0 c -7.25199,-14.35686 -24.42681,-22.29345 -40.5,-21.9375 -0.60955,0.0136 -1.2383,0.0252 -1.84375,0.0625 -3.6245,0.0403 -7.25031,0.088 -10.875,0.125 l 0,-17.8125 c 0.16199,-26.75458 -8.80794,-35.8125 -35.8125,-35.8125 l -411.9375,0 -44.75,-44.78125 c -4.76877,-4.64594 -11.19459,-8.9375 -17.9375,-8.9375 l -188.03125,0 z" opacity=".4" transform="matrix(0.66335753,0,0,0.66335753,-301.65558,-296.97895)"/><path id="path15-6-6" fill="url(#linearGradient4026)" fill-opacity="1" stroke="none" d="m -94.557623,-159.12138 c -42.553347,1.18267 -85.233487,-0.99743 -127.718747,0.96875 -7.12171,2.06669 -4.52496,11.08492 -5.40625,16.75 -0.2994,11.53335 0.48866,23.06134 0.28125,34.59375 155.624933,0.13596 311.250007,0.028 466.875,0.0625 0.19745,-5.35241 1.19698,-14.5897 -5.96875,-15.5 -16.5692,-2.74654 -33.54265,0.26628 -50.28125,-0.96875 -78.21875,0 -156.437503,0 -234.656253,0 -13.448587,-11.10257 -23.122172,-26.65107 -38.375,-35.65625 -1.552248,-0.30741 -3.170196,-0.30588 -4.75,-0.25 z" filter="url(#filter4327-0)" opacity=".4"/><g id="g4808"><path id="path39063-9-9" fill="#2a7fff" fill-opacity="1" stroke="none" d="m 176.1875,322.21875 c -10.42445,0 -20.17865,7.43941 -21.5625,17.90625 l -69.28125,447.75 c -1.59668,10.48575 8.294567,17.9375 18.71875,17.9375 l 716.40625,0 c 10.42417,0 23.3422,-7.45175 26.03125,-17.9375 l 114.0625,-447.75 c 2.93842,-10.46684 -3.82552,-17.90625 -14.25,-17.90625 l -770.125,0 z M 929.28125,342.875 c 2.61518,-0.007 5.23102,2.1e-4 7.84375,0.0937 -32.5011,135.94469 -68.73572,270.94167 -102.65625,406.5313 -5.26206,10.89435 -1.7607,25.49594 -10.90625,34.21875 -200.29256,1.92769 -400.71826,0.82047 -601.0625,0.90625 -38.24102,0.3842 -76.4808,-0.67409 -114.65625,0.3125 19.43433,-137.05537 42.01762,-273.63957 62.75,-410.5 3.56969,-9.67867 0.64336,-20.85939 5.15625,-30.15625 248.32411,-2.38497 497.16692,0.1626 745.6875,-1.375 2.61381,-0.0166 5.22857,-0.0238 7.84375,-0.0312 z" display="inline" enable-background="new" opacity=".9" transform="matrix(0.66335753,0,0,0.66335753,-301.65558,-296.97895)"/><path id="path39063-9" fill="#2a7fff" fill-opacity="1" stroke="none" d="m 309.59375,-69.5 c -164.858,1.01998 -329.928582,-0.675837 -494.65625,0.90625 -2.99366,6.167148 -1.0576,13.588113 -3.42558,20.008534 -13.75298,90.787396 -28.74501,181.387266 -41.63692,272.303966 25.32397,-0.65445 50.69503,0.0361 76.0625,-0.21875 132.899856,-0.0569 265.85317,0.68501 398.71875,-0.59375 6.06677,-5.78633 3.74529,-15.46321 7.23592,-22.69007 C 274.39361,110.27178 298.44015,20.711158 320,-69.46875 c -3.46635,-0.124102 -6.93847,-0.0532 -10.40625,-0.03125 z" display="inline" enable-background="new" opacity=".5"/><path id="path39063-2-9" fill="url(#linearGradient4028)" fill-opacity="1" stroke="none" d="m 267.34375,-50.96875 c -154.12307,1.10078 -308.25525,-0.887925 -462.375,0.9375 4.95966,85.507497 7.55605,171.14389 13.53125,256.59375 147.529622,-0.92171 295.07216,1.27961 442.59375,-1.09375 3.4314,-85.5177 9.69689,-170.907027 12.09375,-256.46875 -1.94792,0.01042 -3.89583,0.02083 -5.84375,0.03125 z" display="inline" enable-background="new" filter="url(#filter4271-2)" opacity=".4" transform="matrix(1,0,-0.20469544,1,14.366984,-0.71439767)"/></g><path id="path3188" fill="#2a7fff" fill-opacity="1" stroke="none" d="m 839.4375,798.46875 c -0.96382,0.82025 -1.9875,1.6139 -3.0625,2.3125 -1.21857,0.79191 -2.498,1.50547 -3.8125,2.125 -1.3145,0.61953 -2.63945,1.13241 -4,1.5625 -1.36055,0.43009 -2.73703,0.77642 -4.09375,1 -1.35672,0.22358 -2.69698,0.34375 -4,0.34375 l 1.5,0 c 6.36146,0 13.06395,-2.80447 17.46875,-7.34375 z" display="inline" enable-background="new" opacity=".7" transform="matrix(0.66335753,0,0,0.66335753,-301.65558,-296.97895)"/><path id="path39063-9-1" fill="#2a7fff" fill-opacity="1" stroke="none" d="m 78.6875,322.21875 c -10.424454,0 -18.664906,7.43941 -17.90625,17.90625 l 22.40625,447.75 c 0.214284,4.08764 2.092359,7.69443 4.90625,10.59375 -0.08456,-0.11041 -0.199904,-0.2 -0.28125,-0.3125 -0.684928,-0.94721 -1.254605,-1.97705 -1.6875,-3.0625 -0.432895,-1.08545 -0.705693,-2.23088 -0.84375,-3.4375 -0.138057,-1.20662 -0.137085,-2.47053 0.0625,-3.78125 L 154.625,340.125 c 0.17298,-1.30836 0.4551,-2.54467 0.875,-3.75 0.4199,-1.20533 0.95712,-2.35248 1.59375,-3.4375 0.63663,-1.08502 1.39557,-2.11509 2.21875,-3.0625 0.82318,-0.94741 1.70797,-1.83249 2.6875,-2.625 0.97953,-0.79251 2.05055,-1.50468 3.15625,-2.125 1.1057,-0.62032 2.26708,-1.13166 3.46875,-1.5625 1.20167,-0.43084 2.42004,-0.77593 3.6875,-1 1.26746,-0.22407 2.57194,-0.34375 3.875,-0.34375 l -97.5,0 z" display="inline" enable-background="new" opacity=".4" transform="matrix(0.66335753,0,0,0.66335753,-301.65558,-296.97895)"/><path id="path15-7-0" fill="#2a7fff" fill-opacity="1" stroke="none" d="m -178.41799,-182.79339 c -2.0004,0.003 -3.99075,0.0216 -5.99094,0.0415 -16.09222,0.39119 -32.38554,0.2841 -48.17634,3.13022 -15.51547,6.89144 -21.57845,26.03457 -18.40818,41.72934 -0.0252,13.76519 -0.003,27.5288 -0.0207,41.294002 0.51641,-0.05798 1.01884,-0.14511 1.55474,-0.14511 l 11.89898,0 0,-48.362912 c -0.37126,-17.62517 6.086,-23.75649 23.75649,-23.75649 l 124.731944,0 c 4.472961,0 8.735577,2.84684 11.898976,5.92876 l 29.68525,29.70598 273.26184,0 c 17.91368,0 23.86395,6.00864 23.75649,23.75649 l 0,12.728172 11.87825,0 c 0.21977,0 0.42587,0.05227 0.64263,0.06216 -0.24239,-9.853752 -0.45355,-19.709372 -0.78774,-29.560872 -6.53257,-17.4898 -27.81038,-24.10275 -44.85959,-20.35675 -86.21827,-0.39821 -172.428536,-0.0866 -258.647243,-0.2073 -13.939855,-13.14137 -25.326088,-32.05844 -45.56437,-35.59328 -16.080687,-0.70978 -32.410247,0.7774 -48.590937,0.10365 -13.99967,-0.15624 -28.01674,-0.51809 -42.01956,-0.49752 z" opacity=".8"/><path id="path3249" fill="#2a7fff" fill-opacity="1" stroke="none" d="m 824.71875,805.40625 c -1.18771,0.18425 -2.38353,0.3125 -3.5625,0.3125 l -716.375,0 c -4.63417,0 -9.4183,-1.53646 -13.40625,-4.09375 0.580377,0.43583 1.143846,0.90891 1.78125,1.28125 1.060579,0.61953 2.190802,1.13241 3.375,1.5625 1.184198,0.43009 2.422487,0.77642 3.6875,1 1.26501,0.22358 2.54073,0.34375 3.84375,0.34375 l 716.40625,0 c 1.30302,0 2.64328,-0.12017 4,-0.34375 0.083,-0.0137 0.16694,-0.048 0.25,-0.0625 z" display="inline" enable-background="new" opacity=".8" transform="matrix(0.66335753,0,0,0.66335753,-301.65558,-296.97895)"/><path id="path3247" fill="#2a7fff" fill-opacity="1" stroke="none" d="m 832.6875,802.8125 c -0.37859,0.19775 -0.79873,0.3209 -1.1875,0.5 0.3527,-0.15125 0.71432,-0.24215 1.0625,-0.40625 0.0466,-0.022 0.0785,-0.0716 0.125,-0.0937 z" display="inline" enable-background="new" opacity=".8" transform="matrix(0.66335753,0,0,0.66335753,-301.65558,-296.97895)"/><path id="path3307" fill="#2a7fff" fill-opacity="1" stroke="none" d="m 96.375,302.03125 c -9.612923,0.12137 -19.233082,0.18905 -28.84375,0.34375 -23.099157,6.01856 -33.105832,33.89743 -27.03125,55.53125 8.22478,146.85913 12.925582,293.98661 23.46875,440.6875 7.973061,23.3049 36.21677,32.42897 58.84375,28.3125 236.8732,-0.72609 473.8157,1.5014 710.65625,-1.34375 24.32189,-5.44329 36.8527,-32.85177 32.90625,-56.0625 1.13857,-24.68013 2.40345,-49.35275 3.65625,-74.03125 L 846.5,787.875 c -0.33613,1.31072 -0.80595,2.57463 -1.4375,3.78125 -0.63155,1.20662 -1.40415,2.35205 -2.28125,3.4375 -0.8771,1.08545 -1.86473,2.11529 -2.9375,3.0625 -1.07277,0.94721 -2.25018,1.8331 -3.46875,2.625 -1.17535,0.76381 -2.42209,1.42752 -3.6875,2.03125 -0.0465,0.0222 -0.0784,0.0718 -0.125,0.0937 -0.34818,0.1641 -0.7098,0.255 -1.0625,0.40625 -2.16906,0.99924 -4.44895,1.73194 -6.78125,2.09375 -0.0831,0.0145 -0.16704,0.0488 -0.25,0.0625 -1.35672,0.22358 -2.69698,0.34375 -4,0.34375 l -716.40625,0 c -1.30302,0 -2.57874,-0.12017 -3.84375,-0.34375 -1.265013,-0.22358 -2.503302,-0.56991 -3.6875,-1 -1.184198,-0.43009 -2.314421,-0.94297 -3.375,-1.5625 -0.637404,-0.37234 -1.200873,-0.84542 -1.78125,-1.28125 -4.982597,-3.19512 -8.694681,-8.01955 -9,-13.84375 L 60,340.0625 C 59.241344,329.59566 67.481796,322.125 77.90625,322.125 l 18.46875,0 0,-20.09375 z" display="inline" enable-background="new" opacity=".8" transform="matrix(0.66335753,0,0,0.66335753,-301.65558,-296.97895)"/><path id="path4097-4" fill="red" fill-opacity="1" stroke="none" d="m -236.64834,236.71682 c -0.0546,-0.0178 -0.11139,-0.0231 -0.16584,-0.0415 -0.25421,-0.0859 -0.4962,-0.21325 -0.74628,-0.31095 l 0,0.35241 0.91212,0 z"/></g><path id="path15-5" fill="#eeeeec" fill-opacity="1" stroke="none" stroke-dasharray="none" stroke-miterlimit="4" stroke-width="13.133" d="M 138.1875 42.15625 C 108.73738 42.15625 97.974989 52.375439 98.59375 81.75 L 98.59375 695.5625 L 910.40625 695.5625 L 910.40625 141.15625 C 910.58537 111.57752 900.66794 101.5625 870.8125 101.5625 L 415.40625 101.5625 L 365.90625 52.0625 C 360.63405 46.92608 353.54849 42.15625 346.09375 42.15625 L 138.1875 42.15625 z M 784.59375 194.4375 C 788.59042 194.15419 792.59862 195.9765 795.375 198.875 C 805.11233 226.69852 799.06223 257.14238 799.90625 286.15625 C 602.83442 286.42478 405.75945 286.26042 208.6875 286.3125 C 208.7265 268.06345 208.52493 249.81117 208.4375 231.5625 C 208.78963 219.51356 204.93778 201.7117 218.625 195.75 C 407.27673 194.11162 595.94418 196.51381 784.59375 194.4375 z" opacity=".4" transform="matrix(0.66335753,0,0,0.66335753,-301.65558,-131.13957)"/><path id="path7263" fill="none" stroke="url(#linearGradient17646-9)" stroke-dasharray="none" stroke-miterlimit="4" stroke-opacity="1" stroke-width="13.134" d="m 289.14379,-37.497359 c -0.099,-11.998885 -0.72865,-12.989699 -13.13482,-13.134852 l -308.667476,0 -32.837082,-32.836895 c -5.768477,-8.095224 -7.211932,-6.156944 -19.702067,-6.567402 l -131.347985,0 c -9.38285,0 -6.56743,4.102061 -6.56743,13.134828 l 0,394.04275 512.25686,0 0,-354.638429 z" opacity=".4"/><rect id="rect4787" width="380.535" height="223.151" x="-157.395" y="1.83" fill="none" stroke="#fff" stroke-dasharray="none" stroke-dashoffset="1.5" stroke-linecap="square" stroke-linejoin="round" stroke-miterlimit="4" stroke-opacity="1" stroke-width="13.135" display="inline" opacity=".7" overflow="visible" visibility="visible" style="marker:none"/><g id="g13071" display="inline" transform="matrix(0.31050992,0,0,0.28831023,309.19395,281.77982)"><rect id="rect13073" width="1339.633" height="478.357" x="-1559.252" y="-150.697" fill="url(#linearGradient2095-2)" fill-opacity="1" fill-rule="nonzero" stroke="none" stroke-width="1" display="inline" opacity=".402" overflow="visible" visibility="visible" style="marker:none"/><path id="path13075" fill="url(#radialGradient2097-6)" fill-opacity="1" fill-rule="nonzero" stroke="none" stroke-width="1" d="m -219.61876,-150.68038 c 0,0 0,478.33079 0,478.33079 142.874166,0.90045 345.40022,-107.16966 345.40014,-239.196175 0,-132.026537 -159.436816,-239.134595 -345.40014,-239.134615 z" display="inline" opacity=".402" overflow="visible" visibility="visible" style="marker:none"/><path id="path13077" fill="url(#radialGradient2099-4)" fill-opacity="1" fill-rule="nonzero" stroke="none" stroke-width="1" d="m -1559.2523,-150.68038 c 0,0 0,478.33079 0,478.33079 -142.8742,0.90045 -345.4002,-107.16966 -345.4002,-239.196175 0,-132.026537 159.4368,-239.134595 345.4002,-239.134615 z" display="inline" opacity=".402" overflow="visible" visibility="visible" style="marker:none"/></g><path id="path39053" fill="url(#linearGradient4435)" fill-opacity="1" d="m -229.67078,61.01272 c 0.0397,3.830991 0.0791,8.22016 0.11881,13.134641 l 525.13846,0 c 0.0397,-4.914481 0.0791,-9.30365 0.11883,-13.134641 l -525.39169,0 0.009,0 z" display="inline" enable-background="new" opacity=".5"/><path id="path39063-97" fill="url(#linearGradient4427)" fill-opacity="1" stroke="#2a7fff" stroke-dasharray="none" stroke-miterlimit="4" stroke-width="13.129" d="m 312.12958,317.14107 c -0.398,7.69011 -8.7734,13.13741 -16.41836,13.13741 l -525.39169,0 c -7.64497,0 -16.01523,-5.4473 -16.41835,-13.13741 L -262.51737,93.849618 c -0.5564,-7.676241 5.48968,-13.137609 13.13483,-13.137609 l 564.79583,0 c 7.64515,0 13.71855,5.461368 13.13483,13.137609 l -16.41854,223.291452 0,0 z" display="inline" enable-background="new" opacity=".9"/><rect id="rect3521-5" width="577.931" height="13.135" x="-255.95" y="87.282" fill="url(#linearGradient9649-6)" fill-opacity="1" stroke="none" display="inline" enable-background="new" rx="0" ry="0"/><path id="rect5376" fill="#2a7fff" fill-opacity="1" fill-rule="nonzero" stroke="#2a7fff" stroke-dasharray="none" stroke-dashoffset="0" stroke-miterlimit="4" stroke-opacity="1" stroke-width="0" d="M 219.4375 171.3125 C 200.15893 171.3125 184.65625 190.43254 184.65625 214.15625 L 184.65625 305.53125 C 184.65625 307.1367 184.89289 308.66024 185.03125 310.21875 L 207.59375 310.21875 C 202.72436 285.6934 206.9424 259.67005 206.1875 234.71875 C 205.40165 220.98003 202.12309 201.28245 216.46875 193.3125 C 406.82222 191.1734 597.26572 193.22863 787.65625 192.21875 C 787.93853 192.18748 788.22246 192.19063 788.5 192.1875 C 792.66305 192.14053 796.273 195.16079 798.59375 198.40625 C 807.48499 225.71088 801.78542 255.38667 802.71875 283.71875 C 802.9865 291.85439 804.29075 301.65486 802.78125 310.21875 L 823.875 310.21875 C 824.01362 308.66024 824.25 307.1367 824.25 305.53125 L 824.25 214.15625 C 824.25 190.43254 808.71607 171.3125 789.4375 171.3125 L 219.4375 171.3125 z" opacity=".9" transform="matrix(0.66335753,0,0,0.66335753,-301.65558,-131.13957)"/></g></g></g></svg>