<svg xmlns="http://www.w3.org/2000/svg" xmlns:svg="http://www.w3.org/2000/svg" xmlns:xlink="http://www.w3.org/1999/xlink" id="svg2" width="1000" height="1000" version="1.1"><defs id="defs4"><linearGradient id="linearGradient6901" x1="-203.313" x2="263.344" y1="30.719" y2="30.719" gradientUnits="userSpaceOnUse" xlink:href="#linearGradient3641"/><linearGradient id="linearGradient3641"><stop id="stop3643" offset="0" stop-color="#fff" stop-opacity="1"/><stop id="stop3645" offset="1" stop-color="#fff" stop-opacity="0"/></linearGradient><filter id="filter6903" color-interpolation-filters="sRGB"><feGaussianBlur id="feGaussianBlur6905" stdDeviation="5.37"/></filter><linearGradient id="linearGradient7800" x1="-203.313" x2="263.344" y1="30.719" y2="30.719" gradientTransform="translate(-85.455639,-190.15401)" gradientUnits="userSpaceOnUse" xlink:href="#linearGradient3641"/><filter id="filter7841"><feGaussianBlur id="feGaussianBlur7843" stdDeviation="9.1"/></filter><radialGradient id="radialGradient7847" cx="30.031" cy="34.688" r="317.298" fx="30.031" fy="34.688" gradientTransform="matrix(1.4452614,0,0,1.4177194,-13.371756,-14.489643)" gradientUnits="userSpaceOnUse" xlink:href="#linearGradient3641"/><radialGradient id="radialGradient5540" cx="30.031" cy="34.688" r="317.298" fx="30.031" fy="34.688" gradientTransform="matrix(1.4452614,0,0,1.4177194,-13.371756,-14.489643)" gradientUnits="userSpaceOnUse" xlink:href="#linearGradient3641"/></defs><metadata id="metadata7"/><g id="layer1" transform="translate(464.16179,464.03236)"><g id="g4082" transform="translate(0,1.552561)"><g id="g4060" transform="matrix(1.5074827,0,0,1.5074827,-9.4212231,-17.89429)"><g id="g5536" transform="matrix(1.024499,0,0,1.024499,-0.73554239,-0.85010684)"><path id="path2893" fill="#2a7fff" fill-opacity="1" stroke="none" d="m 30.023239,-272.86015 -92.26804,123.02399 184.535901,0 -92.267861,-123.02399 z m -98.35518,184.535903 c -13.63106,1.59e-4 -24.668813,11.037923 -24.668813,24.66897 l 0,221.379147 246.047964,0 0,-221.379147 c 0,-13.631047 -11.03791,-24.66897 -24.66896,-24.66897 l -196.710191,0 z m 108.60706,20.504085 c 5.67961,0 10.25203,4.572422 10.25203,10.252027 0,5.679605 -4.57242,10.251884 -10.25203,10.251884 -5.67962,0 -10.25188,-4.572279 -10.25188,-10.251884 0,-5.679605 4.57226,-10.252027 10.25188,-10.252027 z m 41.00798,0 c 5.67962,0 10.25204,4.572422 10.25204,10.252027 0,5.679605 -4.57242,10.251884 -10.25204,10.251884 -5.6796,0 -10.25187,-4.572279 -10.25187,-10.251884 0,-5.679605 4.57227,-10.252027 10.25187,-10.252027 z m 41.008001,0 c 5.6796,0 10.25204,4.572422 10.25204,10.252027 0,5.679605 -4.57244,10.251884 -10.25204,10.251884 -5.67961,0 -10.25189,-4.572279 -10.25189,-10.251884 0,-5.679605 4.57228,-10.252027 10.25189,-10.252027 z m -276.80392,10.252027 -123.02392,92.267877 123.02392,92.268018 0,-184.535895 z m 369.07195,0 0,184.535895 123.02399,-92.268018 -123.02399,-92.267877 z m -265.590761,30.755969 163.070841,0 0,143.207666 -163.070841,0 0,-143.207666 z m -11.21317,246.047946 92.26804,123.02399 92.267861,-123.02399 -184.535901,0 z" display="inline" opacity=".7"/><path id="path3390" fill="url(#radialGradient5540)" fill-opacity="1" stroke="none" d="m -11.0625,-74.40625 c -20.89507,0.518935 -42.150032,-0.609957 -62.8125,1.625 -8.842534,6.824254 -4.439197,19.547025 -5.125,29.125 0,62.458333 0,124.916667 0,187.375 72.6875,0 145.375,0 218.0625,0 -0.44071,-60.95 0.8189,-122.461684 -0.40625,-183.0625 -3.53121,3.13287 -7.87258,5.33013 -12.625,5.8125 0,54.645833 0,109.291667 0,163.9375 -63.6875,0 -127.375,0 -191.0625,0 0,-57.072917 0,-114.145833 0,-171.21875 29.019363,-0.104469 59.047084,0.208737 87.4375,-0.15625 -9.028329,-8.838747 -8.585673,-24.835279 0.53125,-33.4375 -11.333327,-0.02972 -22.6666988,-0.05281 -34,0 z" display="inline" filter="url(#filter7841)" opacity=".4"/></g></g></g></g></svg>