<svg xmlns="http://www.w3.org/2000/svg" xmlns:svg="http://www.w3.org/2000/svg" xmlns:xlink="http://www.w3.org/1999/xlink" id="svg2" width="1000" height="1000" version="1.1"><defs id="defs4"><linearGradient id="linearGradient8562" x1="-213.564" x2="253.595" y1="24.514" y2="24.514" gradientTransform="matrix(0,1,-1,0,44.530081,4.498828)" gradientUnits="userSpaceOnUse" xlink:href="#linearGradient3641"/><linearGradient id="linearGradient3641"><stop id="stop3643" offset="0" stop-color="#fff" stop-opacity="1"/><stop id="stop3645" offset="1" stop-color="#fff" stop-opacity="0"/></linearGradient><linearGradient id="linearGradient6791" x1="-213.564" x2="253.595" y1="24.514" y2="24.514" gradientTransform="matrix(0,1,-1,0,44.530081,4.498828)" gradientUnits="userSpaceOnUse" xlink:href="#linearGradient3641"/><linearGradient id="linearGradient7354" x1="-1.887" x2="323.882" y1="-163.788" y2="-163.788" gradientTransform="translate(-294.13778,123.54099)" gradientUnits="userSpaceOnUse" xlink:href="#linearGradient3641"/><linearGradient id="linearGradient4076" x1="24.508" x2="55.492" y1="35.528" y2="35.528" gradientUnits="userSpaceOnUse" xlink:href="#linearGradient4281-6"/><linearGradient id="linearGradient4281-6"><stop id="stop4283-9" offset="0" stop-color="#1e1e1e" stop-opacity="1"/><stop id="stop4285-8" offset="1" stop-color="#505050" stop-opacity="1"/></linearGradient><linearGradient id="linearGradient3019" x1="24.508" x2="55.492" y1="35.528" y2="35.528" gradientUnits="userSpaceOnUse" xlink:href="#linearGradient4281-6"/><linearGradient id="linearGradient3738" x1="-1134.58" x2="-938.5" y1="-62.75" y2="-62.75" gradientUnits="userSpaceOnUse" xlink:href="#linearGradient3641"/><filter id="filter3740" width="1.885" height="1.679" x="-.442" y="-.339"><feGaussianBlur id="feGaussianBlur3742" stdDeviation="36.136"/></filter><linearGradient id="linearGradient3748" x1="-1134.58" x2="-938.5" y1="-62.75" y2="-62.75" gradientUnits="userSpaceOnUse" xlink:href="#linearGradient3641"/><linearGradient id="linearGradient3295" x1="-1134.58" x2="-938.5" y1="-62.75" y2="-62.75" gradientUnits="userSpaceOnUse" xlink:href="#linearGradient3641"/></defs><metadata id="metadata7"/><g id="layer1" transform="translate(464.16179,464.03236)"><g id="g4082" transform="translate(0,1.552561)"><g id="g4060" transform="matrix(1.5074827,0,0,1.5074827,-9.4212231,-17.89429)"><g id="g3290" transform="matrix(1.53,0,0,1.53,-15.912305,-18.390902)"><g id="g3744" transform="translate(1066.5633,97.449814)"><path id="path4074" fill="#2a7fff" fill-opacity="1" fill-rule="nonzero" stroke="none" stroke-width="2" d="m 39.90625,20.125 a 1.98949,1.98949 0 0 0 -1.625,1 l -15.5,26.8125 a 1.98949,1.98949 0 0 0 1.71875,3 l 31,0 a 1.98949,1.98949 0 0 0 1.71875,-3 l -15.5,-26.8125 a 1.98949,1.98949 0 0 0 -1.8125,-1 z" color="#000" display="inline" enable-background="accumulate" opacity=".7" overflow="visible" transform="matrix(0,9.7018394,-8.5812388,0,-726.35143,-450.75602)" visibility="visible" style="marker:none"/><path id="path4074-9" fill="url(#linearGradient3295)" fill-opacity="1" fill-rule="nonzero" stroke="none" stroke-width="2" d="m -1134.0938,-186.375 c 0.3248,83.81139 -1.6994,167.642653 0.7188,251.4375 64.7371,-42.97559 130.4603,-84.488904 194.875,-127.875 -65.1334,-42.69768 -130.1625,-85.55718 -195.625,-127.75 0.01,1.39583 0.021,2.79167 0.031,4.1875 z" color="#000" display="inline" enable-background="accumulate" filter="url(#filter3740)" opacity=".4" overflow="visible" visibility="visible" style="marker:none"/></g></g></g></g></g></svg>