<svg xmlns="http://www.w3.org/2000/svg" xmlns:svg="http://www.w3.org/2000/svg" xmlns:xlink="http://www.w3.org/1999/xlink" id="svg2" width="1000" height="1000" version="1.1"><title id="title11905">gtk-zoom-100</title><defs id="defs4"><linearGradient id="linearGradient7354" x1="-1.887" x2="154.23" y1="-163.788" y2="-163.788" gradientTransform="translate(-294.13778,123.54099)" gradientUnits="userSpaceOnUse" xlink:href="#linearGradient3641"/><linearGradient id="linearGradient3641"><stop id="stop3643" offset="0" stop-color="#fff" stop-opacity="1"/><stop id="stop3645" offset="1" stop-color="#fff" stop-opacity="0"/></linearGradient><filter id="filter8306"><feGaussianBlur id="feGaussianBlur8308" stdDeviation="1.861"/></filter><linearGradient id="linearGradient8368" x1="-263.002" x2="222.292" y1="-16.222" y2="-16.222" gradientUnits="userSpaceOnUse" xlink:href="#linearGradient3641"/><linearGradient id="linearGradient2888" x1="-263.002" x2="222.292" y1="-16.222" y2="-16.222" gradientUnits="userSpaceOnUse" xlink:href="#linearGradient3641"/><linearGradient id="linearGradient2892" x1="-263.002" x2="222.292" y1="-16.222" y2="-16.222" gradientUnits="userSpaceOnUse" xlink:href="#linearGradient3641"/><linearGradient id="linearGradient2896" x1="-263.002" x2="222.292" y1="-16.222" y2="-16.222" gradientUnits="userSpaceOnUse" xlink:href="#linearGradient3641"/><linearGradient id="linearGradient2900" x1="-263.002" x2="222.292" y1="-16.222" y2="-16.222" gradientUnits="userSpaceOnUse" xlink:href="#linearGradient3641"/><linearGradient id="linearGradient3697" x1="-268.962" x2="216.554" y1="-22.264" y2="-22.264" gradientUnits="userSpaceOnUse" xlink:href="#linearGradient3641"/><filter id="filter3703"><feGaussianBlur id="feGaussianBlur3705" stdDeviation="7.759"/></filter><linearGradient id="linearGradient3697-3" x1="-268.962" x2="216.554" y1="-22.264" y2="-22.264" gradientUnits="userSpaceOnUse" xlink:href="#linearGradient3641-3"/><linearGradient id="linearGradient3641-3"><stop id="stop3643-4" offset="0" stop-color="#fff" stop-opacity="1"/><stop id="stop3645-6" offset="1" stop-color="#fff" stop-opacity="0"/></linearGradient><linearGradient id="linearGradient3726" x1="-268.962" x2="216.554" y1="-22.264" y2="-22.264" gradientTransform="translate(-180.70032,-122.18902)" gradientUnits="userSpaceOnUse" xlink:href="#linearGradient3641-3"/><linearGradient id="linearGradient3560" x1="173.719" x2="289.438" y1="235.281" y2="235.281" gradientUnits="userSpaceOnUse" xlink:href="#linearGradient3641"/></defs><metadata id="metadata7"/><g id="layer1" transform="translate(464.16179,464.03236)"><g id="g4082" transform="translate(0,1.552561)"><g id="g4060" transform="matrix(1.5074827,0,0,1.5074827,-9.4212231,-17.89429)"><path id="path3803" fill="#2a7fff" fill-opacity="1" fill-rule="nonzero" stroke="none" stroke-width="1" d="m 203.72134,169.00694 -37.48645,37.48645 c 0.87553,0.71944 1.75037,1.40442 2.57169,2.22416 15.40337,15.37275 10.19374,35.63246 33.75634,59.14889 l 82.89648,81.99292 59.65859,-63.18019 -80.81132,-80.41746 c -23.56259,-23.51641 -42.21635,-18.31409 -57.61978,-33.68684 -1.1191,-1.11693 -2.03174,-2.34808 -2.96555,-3.56793 z" color="#000" display="inline" enable-background="accumulate" opacity=".7" overflow="visible" visibility="visible" style="marker:none"/><path id="path3869" fill="#2a7fff" fill-opacity="1" fill-rule="nonzero" stroke="none" stroke-width="1" d="m -26.66509,-280.45974 c -66.173639,0 -132.27648,26.47321 -182.72906,76.82637 -100.90331,100.70668 -100.90331,263.593 0,364.29969 79.88366,79.72593 198.373125,95.80911 294.6787,49.30233 2.533042,-1.22446 5.723362,-2.3959 8.224777,-3.70694 15.013383,-5.91823 51.464903,-17.23862 72.725563,0.23168 l 37.48645,-37.48645 C 183.46639,142.54768 205.24466,93.532467 206.68689,90.442946 253.28421,-5.6720027 236.36472,-123.9072 156.481,-203.63337 106.02842,-253.98653 39.508565,-280.45974 -26.66509,-280.45974 z m 0,65.72871 c 107.025716,0 194.24375,86.64049 194.24375,193.45602 0,106.815518 -87.218034,193.84988 -194.24375,193.84988 -107.02557,0 -193.82671,-87.034362 -193.82671,-193.84988 0,-106.81553 86.80114,-193.45602 193.82671,-193.45602 z" color="#000" display="inline" enable-background="accumulate" opacity=".7" overflow="visible" visibility="visible" style="marker:none"/><path id="path3803-1" fill="url(#linearGradient3560)" fill-opacity="1" fill-rule="nonzero" stroke="none" stroke-width="1" d="m 185.96875,177.125 c -3.80781,4.42565 -9.81474,7.98801 -12.25,13.03125 8.46134,15.2102 10.93367,34.92821 25.95417,45.58503 19.24984,19.58985 39.11074,38.46054 58.48333,57.97747 9.8579,-11.54584 21.83337,-21.76305 31.28125,-33.4375 -8.69514,-7.27896 -15.70438,-16.29486 -24.18317,-24.02015 -16.647,-16.64163 -32.38229,-34.36307 -51.91058,-47.5111 -9.01605,-4.03934 -18.68939,-6.81106 -27.125,-11.90625 l -0.25,0.28125 z" color="#000" display="inline" enable-background="accumulate" filter="url(#filter8306)" opacity=".4" overflow="visible" transform="matrix(1.1176301,0,0,1.1176301,-3.5268616,-4.0817439)" visibility="visible" style="marker:none"/><path id="path3869-6" fill="url(#linearGradient3697)" fill-opacity="1" fill-rule="nonzero" stroke="none" stroke-width="1" d="m -29.53125,-264.4375 c -95.60706,0.51987 -186.76538,63.90879 -222.03125,152.125 -31.80076,77.947653 -19.55484,172.668848 32.99404,238.75411 46.33142,59.72303 121.64145,96.51596 197.59971,93.30839 38.993685,-0.89335 76.69708,-12.2385 111.5,-29.125 22.79642,-9.81433 49.71818,-13.15512 73.34375,-4.25 6.06682,-7.41694 14.3238,-12.93577 19.96875,-20.5625 -10.46179,-27.82452 -2.01817,-58.63741 9.84375,-84.65625 C 208.40658,48.235883 217.33579,12.619166 216.5,-23.625 215.55374,-101.12087 175.93127,-177.38425 111.43373,-220.48392 70.37135,-249.05761 20.58843,-265.32953 -29.53125,-264.4375 z m 2.9375,33.5 c 91.376014,-1.01118 178.85625,64.48049 202.54597,152.714326 C 195.90674,-6.9090243 175.75434,74.80918 122.61704,126.60171 72.684375,176.60069 -3.5326025,200.22902 -72.789516,183.69308 -144.59666,167.26542 -206.60429,111.48152 -227.40067,40.432192 c -20.56367,-66.924097 -5.74899,-144.431992 40.58817,-197.150942 39.34528,-46.29678 99.120784,-74.59794 160.21875,-74.21875 z" color="#000" display="inline" enable-background="accumulate" filter="url(#filter3703)" opacity=".4" overflow="visible" visibility="visible" style="marker:none"/><path id="path11691" fill="#2a7fff" fill-opacity="1" stroke="none" d="m -76.845794,108.80298 -50.059526,0 0,-188.658502 c -18.2899,17.102359 -23.15307,18.622383 -47.97494,26.817017 l 0,-45.427679 c 13.06413,-4.275346 10.56386,-1.222912 25.88463,-13.099636 15.32061,-11.99505 25.83133,-25.94995 31.53214,-41.86473 l 40.617696,0 0,262.23353" font-family="Arial" font-size="550" font-stretch="normal" font-style="normal" font-variant="normal" font-weight="bold" letter-spacing="-60" opacity=".7" word-spacing="0" style="line-height:125%;-inkscape-font-specification:Arial Bold"/><path id="path11693" fill="#2a7fff" fill-opacity="1" stroke="none" d="m 95.627169,108.80298 -50.059525,0 0,-188.658502 c -18.289911,17.102359 -23.153081,18.622383 -47.9749516,26.817017 l 0,-45.427679 c 13.0641296,-4.275346 10.56386,-1.222912 25.8846306,-13.099636 15.320621,-11.99505 25.831332,-25.94995 31.532152,-41.86473 l 40.617694,0 0,262.23353" font-family="Arial" font-size="550" font-stretch="normal" font-style="normal" font-variant="normal" font-weight="bold" letter-spacing="-60" opacity=".7" word-spacing="0" style="line-height:125%;-inkscape-font-specification:Arial Bold"/><g id="g11709" transform="translate(0,-11.02574)"><path id="path11687" fill="#2a7fff" fill-opacity="1" stroke="none" d="m -43.526754,119.82872 0,-50.05952 50.0595207,0 0,50.05952 -50.0595207,0" font-family="Arial" font-size="550" font-stretch="normal" font-style="normal" font-variant="normal" font-weight="bold" letter-spacing="-60" opacity=".7" word-spacing="0" style="line-height:125%;-inkscape-font-specification:Arial Bold"/><path id="path11695" fill="#2a7fff" fill-opacity="1" stroke="none" d="m -43.526754,35.606222 0,-50.059523 50.0595207,0 0,50.059523 -50.0595207,0" font-family="Arial" font-size="550" font-stretch="normal" font-style="normal" font-variant="normal" font-weight="bold" letter-spacing="-60" opacity=".7" word-spacing="0" style="line-height:125%;-inkscape-font-specification:Arial Bold"/></g></g></g></g></svg>