<svg xmlns="http://www.w3.org/2000/svg" xmlns:svg="http://www.w3.org/2000/svg" xmlns:xlink="http://www.w3.org/1999/xlink" id="svg2" width="1000" height="1000" version="1.1"><defs id="defs4"><linearGradient id="linearGradient8562" x1="-213.564" x2="253.595" y1="24.514" y2="24.514" gradientTransform="matrix(0,1,-1,0,44.530081,4.498828)" gradientUnits="userSpaceOnUse" xlink:href="#linearGradient3641"/><linearGradient id="linearGradient3641"><stop id="stop3643" offset="0" stop-color="#fff" stop-opacity="1"/><stop id="stop3645" offset="1" stop-color="#fff" stop-opacity="0"/></linearGradient><linearGradient id="linearGradient6791" x1="-213.564" x2="253.595" y1="24.514" y2="24.514" gradientTransform="matrix(0,1,-1,0,44.530081,4.498828)" gradientUnits="userSpaceOnUse" xlink:href="#linearGradient3641"/><linearGradient id="linearGradient10554" x1="-219.851" x2="74.444" y1="137.424" y2="137.424" gradientUnits="userSpaceOnUse" xlink:href="#linearGradient3641-6"/><linearGradient id="linearGradient3641-6"><stop id="stop3643-4" offset="0" stop-color="#fff" stop-opacity="1"/><stop id="stop3645-9" offset="1" stop-color="#fff" stop-opacity="0"/></linearGradient><linearGradient id="linearGradient10556" x1="-219.663" x2="279.881" y1="34.625" y2="34.625" gradientUnits="userSpaceOnUse" xlink:href="#linearGradient3641-6"/><linearGradient id="linearGradient3179" x1="-219.663" x2="279.881" y1="34.625" y2="34.625" gradientUnits="userSpaceOnUse" xlink:href="#linearGradient3641-6"/><linearGradient id="linearGradient3641-6-0"><stop id="stop3643-4-4" offset="0" stop-color="#fff" stop-opacity="1"/><stop id="stop3645-9-8" offset="1" stop-color="#fff" stop-opacity="0"/></linearGradient><linearGradient id="linearGradient3275" x1="-219.851" x2="74.444" y1="137.424" y2="137.424" gradientUnits="userSpaceOnUse" xlink:href="#linearGradient3641-6-0"/><linearGradient id="linearGradient3279" x1="-181.867" x2="2.605" y1="212.954" y2="28.482" gradientUnits="userSpaceOnUse" xlink:href="#linearGradient3641-6-0"/><linearGradient id="linearGradient3285" x1="-181.867" x2="2.605" y1="212.954" y2="28.482" gradientUnits="userSpaceOnUse" xlink:href="#linearGradient3641-6-0"/><linearGradient id="linearGradient5003" x1="-181.867" x2="2.605" y1="212.954" y2="28.482" gradientUnits="userSpaceOnUse" xlink:href="#linearGradient3641-6-0"/><linearGradient id="linearGradient5011" x1="-181.867" x2="2.605" y1="212.954" y2="28.482" gradientUnits="userSpaceOnUse" xlink:href="#linearGradient3641-6-0"/><linearGradient id="linearGradient5017" x1="-181.867" x2="2.605" y1="212.954" y2="28.482" gradientUnits="userSpaceOnUse" xlink:href="#linearGradient3641-6-0"/><linearGradient id="linearGradient5022" x1="-181.867" x2="2.605" y1="212.954" y2="28.482" gradientUnits="userSpaceOnUse" xlink:href="#linearGradient3641-6-0"/><linearGradient id="linearGradient3637"><stop id="stop3639" offset="0" stop-color="#f0f0f0" stop-opacity="1"/><stop id="stop3641" offset="1" stop-color="#aaa" stop-opacity="1"/></linearGradient><linearGradient id="linearGradient3741" x1="-189.496" x2="249.49" y1="34.822" y2="34.822" gradientUnits="userSpaceOnUse" xlink:href="#linearGradient3641"/><filter id="filter3747"><feGaussianBlur id="feGaussianBlur3749" stdDeviation="7.699"/></filter><linearGradient id="linearGradient16627" x1="-189.496" x2="249.49" y1="34.822" y2="34.822" gradientUnits="userSpaceOnUse" xlink:href="#linearGradient3641"/></defs><metadata id="metadata7"/><g id="layer1" transform="translate(464.16179,464.03236)"><g id="g4082" transform="translate(0,1.552561)"><g id="g4060" transform="matrix(1.5074827,0,0,1.5074827,-9.4212231,-17.89429)"><g id="g16623" transform="translate(-672.6176,-22.729255)"><path id="path3109" fill="#2a7fff" fill-opacity="1" fill-rule="nonzero" stroke="none" stroke-width="2" d="m -81.06544,-240.37678 c -20.51433,0 -37.02951,16.51516 -37.02951,37.02952 l 0,391.45519 c 0,20.51436 16.51518,37.02952 37.02951,37.02952 l 306.81624,0 c 20.51436,0 37.02952,-16.51516 37.02952,-37.02952 l 0,-391.45519 c 0,-20.51436 -16.51516,-37.02952 -37.02952,-37.02952 l -306.81624,0 z m 44.96445,63.47913 216.88733,0 c 10.25711,0 18.51469,8.25758 18.51469,18.51484 l 0,301.52629 c 0,10.25709 -8.25758,18.51468 -18.51469,18.51468 l -216.88733,0 c -10.257299,0 -18.514841,-8.25759 -18.514841,-18.51468 l 0,-301.52629 c 0,-10.25726 8.257542,-18.51484 18.514841,-18.51484 z m -129.60345,21.15982 c -20.51433,0 -37.0295,16.51516 -37.0295,37.02952 l 0,391.45519 c 0,20.51436 16.51517,37.02952 37.0295,37.02952 l 306.81629,0 c 20.51436,0 37.02952,-16.51516 37.02952,-37.02952 l 0,-26.44977 -81.993978,0 -216.887292,0 c -10.2573,0 -18.51484,-8.25758 -18.51484,-18.51468 l 0,-301.526279 0,-81.993981 -26.4497,0 z" color="#000" display="inline" enable-background="accumulate" opacity=".7" overflow="visible" visibility="visible" style="marker:none"/><path id="path3109-4" fill="url(#linearGradient16627)" fill-opacity="1" fill-rule="nonzero" stroke="none" stroke-width="2" d="m 222.59375,-226.8125 c -103.15838,1.60519 -206.361212,-1.04819 -309.5,1.34375 -13.21081,2.67071 -19.52928,18.13253 -17.54765,30.46549 0.98429,43.64442 0.13158,87.31595 0.39275,130.971986 -0.0143,86.327082 -0.63317,172.710084 0.87365,259.000024 4.134623,13.46246 20.333967,19.01289 33.124988,16.15132 101.024499,-0.60992 202.190272,1.26741 303.125012,-1.02632 13.11329,-4.35414 18.49363,-20.28979 15.71618,-33 -0.46104,-129.020301 0.99958,-258.048685 -0.84118,-387.0625 -3.11331,-10.70301 -14.56262,-17.42207 -25.34375,-16.84375 z m -258.4375,35.59375 c 74.720144,1.28121 149.49927,-1.08236 224.1875,1.25 17.85722,3.60897 27.78181,23.40239 25.34897,40.53108 -1.58621,100.575871 1.39707,201.195657 -1.53647,301.75017 -5.14156,18.0656 -25.96995,26.83722 -43.46872,23.33667 -71.590164,-0.77492 -143.305956,1.76014 -214.81253,-1.43042 -17.994254,-5.60342 -25.938869,-26.71631 -22.496581,-44.15624 0.483817,-98.802586 -1.106855,-197.687383 0.934081,-296.43751 3.330951,-14.25309 17.434226,-24.49784 31.84375,-24.84375 z m -130.71875,49.5 c -15.60044,-0.0529 -25.91975,17.86701 -22.15625,32 0.6416,129.888775 -1.27317,259.83629 1.03125,389.6875 4.31487,13.30899 20.3163,18.57679 33.03124,15.80757 101.024093,-0.63137 202.109951,1.30975 303.09376,-1.05757 C 161.62413,290.41213 167.00319,274.27653 164,261.5 c -2.85875,-2.75323 -11.6462,-0.45766 -16.8124,-1.24602 -92.132223,-0.3217 -184.29823,1.19614 -276.40635,-0.94148 -18.4899,-4.66933 -27.63583,-25.99587 -24.03125,-43.71875 0,-119.114583 0,-238.229167 0,-357.34375 -4.43752,0.007 -8.87518,-0.0219 -13.3125,0.0312 z" color="#000" display="inline" enable-background="accumulate" filter="url(#filter3747)" opacity=".4" overflow="visible" visibility="visible" style="marker:none"/></g><g id="g17225" transform="matrix(1.0910534,0,0,1.0910534,28.496338,-25.206787)"><path id="rect15282" fill="#2a7fff" fill-opacity="1" fill-rule="nonzero" stroke="none" d="m -86.988701,-31.810511 c -18.418969,0 -33.250799,14.83182 -33.250799,33.2508003 l 0,283.7097207 c 0,18.41897 14.83183,33.25079 33.250799,33.25079 l 309.787961,0 c 18.41897,0 33.2508,-14.83182 33.2508,-33.25079 l 0,-283.7097207 c 0,-18.4189803 -14.83183,-33.2508003 -33.2508,-33.2508003 l -309.787961,0 z m 8.58219,33.6861203 292.623581,0 c 5.2228,0 9.43212,4.18859 9.43212,9.4113897 l 0,264.016291 c 0,5.2228 -4.20932,9.41139 -9.43212,9.41139 l -292.623581,0 c -5.2228,0 -9.43212,-4.18859 -9.43212,-9.41139 l 0,-264.016291 c 0,-5.2227997 4.20932,-9.4113897 9.43212,-9.4113897 z" opacity=".9"/><path id="rect15284" fill="#2a7fff" fill-opacity="1" fill-rule="nonzero" stroke="none" d="m -78.406511,1.8756093 c -5.2228,0 -9.43212,4.18859 -9.43212,9.4113897 l 0,264.016291 c 0,5.2228 4.20932,9.41139 9.43212,9.41139 l 292.623581,0 c 5.2228,0 9.43212,-4.18859 9.43212,-9.41139 l 0,-264.016291 c 0,-5.2227997 -4.20932,-9.4113897 -9.43212,-9.4113897 l -292.623581,0 z m 41.0867,34.5153197 210.450181,0 0,28.6073 -210.450181,0 0,-28.6073 z m 0,92.600571 210.450181,0 0,28.60729 -210.450181,0 0,-28.60729 z m 0,92.60056 210.450181,0 0,28.6073 -210.450181,0 0,-28.6073 z" opacity=".8"/><path id="rect15284-3" fill="#2a7fff" fill-opacity="1" fill-rule="nonzero" stroke="none" d="m 136.03125,184.03125 c -7.87328,0 -14.21875,6.31422 -14.21875,14.1875 l 0,398 c 0,7.87328 6.34547,14.1875 14.21875,14.1875 l 137.4375,0 0,-52.03125 -75.5,0 0,-43.125 75.5,0 0,-65.375 c 0,-1.73539 0.11071,-3.46724 0.28125,-5.15625 0.17054,-1.68901 0.4172,-3.3344 0.75,-4.96875 0.6656,-3.26869 1.64126,-6.43712 2.90625,-9.4375 1.26499,-3.00038 2.82684,-5.83414 4.625,-8.5 0.73111,-1.0839 1.6572,-2.01035 2.46875,-3.03125 l -86.53125,0 0,-43.125 317.25,0 0,24.09375 76.15625,0 0,-201.53125 c 0,-7.87328 -6.34547,-14.1875 -14.21875,-14.1875 l -441.125,0 z m 61.9375,52.03125 317.25,0 0,43.125 -317.25,0 0,-43.125 z" opacity=".4" transform="matrix(0.66335753,0,0,0.66335753,-301.65558,-296.97895)"/><path id="rect15282-6" fill="#2a7fff" fill-opacity="1" fill-rule="nonzero" stroke="none" d="m 123.09375,133.25 c -27.766279,0 -50.125,22.35871 -50.125,50.125 l 0,427.6875 c 0,27.76628 22.358721,50.125 50.125,50.125 l 150.375,0 0,-50.78125 -137.4375,0 c -7.87328,0 -14.21875,-6.31422 -14.21875,-14.1875 l 0,-398 c 0,-7.87328 6.34547,-14.1875 14.21875,-14.1875 l 441.125,0 c 7.87328,0 14.21875,6.31422 14.21875,14.1875 l 0,201.53125 48.84375,0 0,-216.375 c 0,-27.76629 -22.35872,-50.125 -50.125,-50.125 l -467,0 z" opacity=".7" transform="matrix(0.66335753,0,0,0.66335753,-301.65558,-296.97895)"/></g></g></g></g></svg>