<svg xmlns="http://www.w3.org/2000/svg" xmlns:svg="http://www.w3.org/2000/svg" xmlns:xlink="http://www.w3.org/1999/xlink" id="svg2" width="1000" height="1000" version="1.1"><defs id="defs4"><linearGradient id="linearGradient8724" x1="-263.002" x2="222.292" y1="-16.222" y2="-16.222" gradientTransform="translate(1.3147295,1.3593836)" gradientUnits="userSpaceOnUse" xlink:href="#linearGradient3641"/><linearGradient id="linearGradient3641"><stop id="stop3643" offset="0" stop-color="#fff" stop-opacity="1"/><stop id="stop3645" offset="1" stop-color="#fff" stop-opacity="0"/></linearGradient><linearGradient id="linearGradient8903" x1="173.719" x2="289.438" y1="235.281" y2="235.281" gradientTransform="translate(1.3147295,1.3593836)" gradientUnits="userSpaceOnUse" xlink:href="#linearGradient3641"/><linearGradient id="linearGradient9288" x1="173.719" x2="289.438" y1="235.281" y2="235.281" gradientTransform="translate(1.3147295,1.3593836)" gradientUnits="userSpaceOnUse" xlink:href="#linearGradient3641"/><linearGradient id="linearGradient8724-6" x1="-263.002" x2="222.292" y1="-16.222" y2="-16.222" gradientTransform="translate(1.3147295,1.3593836)" gradientUnits="userSpaceOnUse" xlink:href="#linearGradient3641-4"/><linearGradient id="linearGradient3641-4"><stop id="stop3643-9" offset="0" stop-color="#fff" stop-opacity="1"/><stop id="stop3645-5" offset="1" stop-color="#fff" stop-opacity="0"/></linearGradient><linearGradient id="linearGradient3914" x1="-263.002" x2="222.292" y1="-16.222" y2="-16.222" gradientTransform="translate(-196.84836,11.83551)" gradientUnits="userSpaceOnUse" xlink:href="#linearGradient3641-4"/><linearGradient id="linearGradient2904" x1="-263.002" x2="222.292" y1="-16.222" y2="-16.222" gradientUnits="userSpaceOnUse" xlink:href="#linearGradient3641-1"/><linearGradient id="linearGradient3641-1"><stop id="stop3643-2" offset="0" stop-color="#fff" stop-opacity="1"/><stop id="stop3645-9" offset="1" stop-color="#fff" stop-opacity="0"/></linearGradient><linearGradient id="linearGradient2925" x1="-263.002" x2="222.292" y1="-16.222" y2="-16.222" gradientTransform="translate(1.3376094,1.3704321)" gradientUnits="userSpaceOnUse" xlink:href="#linearGradient3641-1"/><linearGradient id="linearGradient8300" x1="173.719" x2="289.438" y1="235.281" y2="235.281" gradientUnits="userSpaceOnUse" xlink:href="#linearGradient3641-6"/><linearGradient id="linearGradient3641-6"><stop id="stop3643-7" offset="0" stop-color="#fff" stop-opacity="1"/><stop id="stop3645-3" offset="1" stop-color="#fff" stop-opacity="0"/></linearGradient><filter id="filter8306-6" color-interpolation-filters="sRGB"><feGaussianBlur id="feGaussianBlur8308-5" stdDeviation="1.861"/></filter><linearGradient id="linearGradient4436" x1="173.719" x2="289.438" y1="235.281" y2="235.281" gradientUnits="userSpaceOnUse" xlink:href="#linearGradient3641-6"/><linearGradient id="linearGradient4507" x1="173.719" x2="289.438" y1="235.281" y2="235.281" gradientTransform="translate(1.3147295,1.3593836)" gradientUnits="userSpaceOnUse" xlink:href="#linearGradient3641"/><linearGradient id="linearGradient4519" x1="173.719" x2="289.438" y1="235.281" y2="235.281" gradientUnits="userSpaceOnUse" xlink:href="#linearGradient3641-6"/><linearGradient id="linearGradient3770" x1="-268.962" x2="216.554" y1="-22.264" y2="-22.264" gradientTransform="translate(-0.15518481,-0.04960095)" gradientUnits="userSpaceOnUse" xlink:href="#linearGradient3641-3"/><linearGradient id="linearGradient3641-3"><stop id="stop3643-4" offset="0" stop-color="#fff" stop-opacity="1"/><stop id="stop3645-6" offset="1" stop-color="#fff" stop-opacity="0"/></linearGradient><filter id="filter3703-1" color-interpolation-filters="sRGB"><feGaussianBlur id="feGaussianBlur3705-5" stdDeviation="7.759"/></filter><linearGradient id="linearGradient4057" x1="-268.962" x2="216.554" y1="-22.264" y2="-22.264" gradientTransform="translate(-0.15520928,-0.04959213)" gradientUnits="userSpaceOnUse" xlink:href="#linearGradient3641-3"/></defs><metadata id="metadata7"/><g id="layer1" transform="translate(464.16179,464.03236)"><g id="g4082" transform="translate(0,1.552561)"><g id="g4060" transform="matrix(1.5074827,0,0,1.5074827,-9.4212231,-17.89429)"><g id="g4509" transform="matrix(1.1176301,0,0,1.1176301,-773.14544,12.853518)"><g id="g8611" transform="translate(688.61652,-15.152833)"><g id="g7625"><g id="g5564"><path id="path3803" fill="#2a7fff" fill-opacity="1" fill-rule="nonzero" stroke="none" stroke-width="1" d="m 734.28125,681.15625 -50.5625,50.5625 c 1.18094,0.9704 2.36093,1.89431 3.46875,3 20.77638,20.73508 13.74953,48.06179 45.53125,79.78125 L 844.53125,925.09375 925,839.875 816,731.40625 c -31.7817,-31.71941 -56.94229,-24.70242 -77.71875,-45.4375 -1.50946,-1.50654 -2.74045,-3.16714 -4,-4.8125 z" color="#000" display="inline" enable-background="accumulate" opacity=".7" overflow="visible" transform="matrix(0.66335753,0,0,0.66335753,-301.65558,-296.97895)" visibility="visible" style="marker:none"/><path id="path3869" fill="#2a7fff" fill-opacity="1" fill-rule="nonzero" stroke="none" stroke-width="1" d="m 423.53125,74.90625 c -89.25638,0 -178.41726,35.70761 -246.46875,103.625 -136.100483,135.83527 -136.100483,355.53972 0,491.375 107.74873,107.53599 267.56979,129.22931 397.46875,66.5 3.41662,-1.65158 7.71979,-3.23163 11.09375,-5 20.25037,-7.98262 69.41693,-23.2518 98.09375,0.3125 l 50.5625,-50.5625 c -27.32029,-35.6888 2.05469,-101.80154 4,-105.96875 C 801.13268,445.54566 778.31132,286.06757 670.5625,178.53125 602.51102,110.61386 512.78765,74.90625 423.53125,74.90625 z m 0,88.65625 c 144.35851,0 262,116.86249 262,260.9375 0,144.07499 -117.64149,261.46875 -262,261.46875 -144.35831,0 -261.4375,-117.39376 -261.4375,-261.46875 0,-144.07501 117.07919,-260.9375 261.4375,-260.9375 z" color="#000" display="inline" enable-background="accumulate" opacity=".7" overflow="visible" transform="matrix(0.66335753,0,0,0.66335753,-301.65558,-296.97895)" visibility="visible" style="marker:none"/></g></g><path id="path3803-1-6" fill="url(#linearGradient4519)" fill-opacity="1" fill-rule="nonzero" stroke="none" stroke-width="1" d="m 185.96875,177.125 c -3.80781,4.42565 -9.81474,7.98801 -12.25,13.03125 8.46134,15.2102 10.93367,34.92821 25.95417,45.58503 19.24984,19.58985 39.11074,38.46054 58.48333,57.97747 9.8579,-11.54584 21.83337,-21.76305 31.28125,-33.4375 -8.69514,-7.27896 -15.70438,-16.29486 -24.18317,-24.02015 -16.647,-16.64163 -32.38229,-34.36307 -51.91058,-47.5111 -9.01605,-4.03934 -18.68939,-6.81106 -27.125,-11.90625 l -0.25,0.28125 z" color="#000" display="inline" enable-background="accumulate" filter="url(#filter8306-6)" opacity=".4" overflow="visible" visibility="visible" style="marker:none"/></g><g id="g9561-5-8" fill="#2a7fff" transform="translate(1479.7841,-38.906246)"><path id="path1468-9-2-0-9-7-2-6-1" fill="#2a7fff" fill-opacity="1" stroke="#000" stroke-dasharray="none" stroke-miterlimit="4" stroke-opacity="1" stroke-width=".164" d="m -911.55023,-11.379524 c -0.523,0.89407 -0.7795,1.91798 -0.7394,2.95204 l 0,31.737 c 0.014,2.98346 2.4338,5.39817 5.423,5.41246 l 73.9496,0 42.6442,0 73.94957,0 c 2.98932,-0.014 5.40877,-2.429 5.423,-5.41246 l 0,-31.737 c -0.0139,-2.98345 -2.43378,-5.39818 -5.423,-5.41251 l -73.94957,0 -42.6442,0 -73.9496,0 c -1.8822,-0.0425 -3.6529,0.88761 -4.6833,2.46042 l -3e-4,5e-5 z" opacity=".7"/></g></g><path id="path3869-6-6" fill="url(#linearGradient4057)" fill-opacity="1" fill-rule="nonzero" stroke="none" stroke-width="1" d="m -29.686459,-264.48712 c -95.607061,0.51987 -186.765381,63.90879 -222.031251,152.125 -31.80076,77.947678 -19.55484,172.668867 32.99404,238.75412 46.33142,59.72303 121.641451,96.51595 197.599711,93.30839 38.99369,-0.89335 76.69708,-12.2385 111.5,-29.125 22.796429,-9.81433 49.718179,-13.15512 73.343749,-4.25 6.06682,-7.41694 14.3238,-12.93577 19.96875,-20.5625 -10.46179,-27.82452 -2.01817,-58.6374 9.84375,-84.656241 14.71908,-32.920367 23.64829,-68.537081 22.8125,-104.781241 -0.94626,-77.495898 -40.56873,-153.759278 -105.06626,-196.858948 -41.062389,-28.57369 -90.845309,-44.84561 -140.964989,-43.95358 z m 2.9375,33.5 C 64.627061,-231.9983 152.10729,-166.50663 175.79701,-78.272776 195.75153,-6.9586221 175.59913,74.759579 122.46183,126.5521 72.529171,176.55108 -3.6878093,200.17941 -72.944719,183.64347 -144.75187,167.21581 -206.7595,111.43192 -227.55588,40.382591 c -20.56367,-66.924093 -5.74899,-144.432011 40.58817,-197.150961 39.34528,-46.29678 99.120781,-74.59794 160.218751,-74.21875 z" color="#000" display="inline" enable-background="accumulate" filter="url(#filter3703-1)" opacity=".4" overflow="visible" visibility="visible" style="marker:none"/></g></g></g></svg>