<svg xmlns="http://www.w3.org/2000/svg" xmlns:svg="http://www.w3.org/2000/svg" xmlns:xlink="http://www.w3.org/1999/xlink" id="svg2" width="1000" height="700" version="1.1"><defs id="defs4"><linearGradient id="linearGradient8562" x1="-213.564" x2="253.595" y1="24.514" y2="24.514" gradientTransform="matrix(0,1,-1,0,44.530081,4.498828)" gradientUnits="userSpaceOnUse" xlink:href="#linearGradient3641"/><linearGradient id="linearGradient3641"><stop id="stop3643" offset="0" stop-color="#fff" stop-opacity="1"/><stop id="stop3645" offset="1" stop-color="#fff" stop-opacity="0"/></linearGradient><linearGradient id="linearGradient6791" x1="-213.564" x2="253.595" y1="24.514" y2="24.514" gradientTransform="matrix(0,1,-1,0,44.530081,4.498828)" gradientUnits="userSpaceOnUse" xlink:href="#linearGradient3641"/><linearGradient id="linearGradient7354" x1="-1.887" x2="323.882" y1="-163.788" y2="-163.788" gradientTransform="translate(-294.13778,123.54099)" gradientUnits="userSpaceOnUse" xlink:href="#linearGradient3641"/><linearGradient id="linearGradient3637"><stop id="stop3639" offset="0" stop-color="#f0f0f0" stop-opacity="1"/><stop id="stop3641" offset="1" stop-color="#aaa" stop-opacity="1"/></linearGradient><linearGradient id="linearGradient3738" x1="-112.938" x2="357.156" y1="8.984" y2="8.984" gradientUnits="userSpaceOnUse" xlink:href="#linearGradient3641"/><filter id="filter3744" color-interpolation-filters="sRGB"><feGaussianBlur id="feGaussianBlur3746" stdDeviation="6.665"/></filter><filter id="filter3788" width="1.401" height="1.042" x="-.2" y="-.021" color-interpolation-filters="sRGB"><feGaussianBlur id="feGaussianBlur3790" stdDeviation="3.404"/></filter><linearGradient id="linearGradient3798" x1="-217.22" x2="-151.811" y1="8.984" y2="8.984" gradientUnits="userSpaceOnUse" xlink:href="#linearGradient3641"/><linearGradient id="linearGradient3806" x1="-112.938" x2="357.156" y1="8.984" y2="8.984" gradientUnits="userSpaceOnUse" xlink:href="#linearGradient3641"/><linearGradient id="linearGradient3808" x1="-217.22" x2="-151.811" y1="8.984" y2="8.984" gradientUnits="userSpaceOnUse" xlink:href="#linearGradient3641"/></defs><metadata id="metadata7"/><g id="layer1" transform="translate(464.16179,164.03236)"><g id="g4082" transform="translate(0,1.552561)"><g id="g4060" transform="matrix(1.5074827,0,0,1.5074827,-9.4212231,-17.89429)"><g id="g3800" transform="matrix(0.79611238,0,0,0.79611238,-32.972383,127.0526)"><path id="path2916" fill="#2a7fff" fill-opacity="1" stroke="none" d="m 377.1572,-104.56947 -184.47638,0 0,-104.23808 -342.80514,217.7897487 342.80514,217.7897513 0,-103.16346 184.47638,0 0,-228.17796 z" display="inline" opacity=".7"/><path id="Symbol" fill="#2a7fff" fill-opacity="1" stroke="none" d="m -150.12432,8.9821987 0,-206.3272587 -68.7749,0 0,412.65452 68.7749,0 0,-206.3272613 z" display="inline" opacity=".7"/><path id="path2916-6" fill="url(#linearGradient3806)" fill-opacity="1" stroke="none" d="m -112.9375,8.96875 c 95.208333,60.520833 190.416667,121.04167 285.625,181.5625 0,-28.97917 0,-57.95833 0,-86.9375 61.48958,0 122.97917,0 184.46875,0 0,-62.71875 0,-125.4375 0,-188.15625 -61.48958,0 -122.97917,0 -184.46875,0 0,-29.33333 0,-58.66667 0,-88 -95.208333,60.51042 -190.416667,121.020833 -285.625,181.53125 z" display="inline" filter="url(#filter3744)" opacity=".4"/><path id="Symbol-1" fill="url(#linearGradient3808)" fill-opacity="1" stroke="none" d="m -204.90625,201.3125 c 13.59375,0 27.1875,0 40.78125,0 0,-128.21875 0,-256.4375 0,-384.65625 -13.59375,0 -27.1875,0 -40.78125,0 0,128.21875 0,256.4375 0,384.65625 z" display="inline" filter="url(#filter3788)" opacity=".4"/></g></g></g></g></svg>