<svg xmlns="http://www.w3.org/2000/svg" xmlns:svg="http://www.w3.org/2000/svg" xmlns:xlink="http://www.w3.org/1999/xlink" id="svg2" width="1000" height="1000" version="1.1"><defs id="defs4"><linearGradient id="linearGradient7354" x1="-1.887" x2="154.23" y1="-163.788" y2="-163.788" gradientTransform="translate(-294.13778,123.54099)" gradientUnits="userSpaceOnUse" xlink:href="#linearGradient3641"/><linearGradient id="linearGradient3641"><stop id="stop3643" offset="0" stop-color="#fff" stop-opacity="1"/><stop id="stop3645" offset="1" stop-color="#fff" stop-opacity="0"/></linearGradient><filter id="filter8306"><feGaussianBlur id="feGaussianBlur8308" stdDeviation="1.861"/></filter><linearGradient id="linearGradient8368" x1="-263.002" x2="222.292" y1="-16.222" y2="-16.222" gradientUnits="userSpaceOnUse" xlink:href="#linearGradient3641"/><linearGradient id="linearGradient2888" x1="-263.002" x2="222.292" y1="-16.222" y2="-16.222" gradientUnits="userSpaceOnUse" xlink:href="#linearGradient3641"/><linearGradient id="linearGradient2892" x1="-263.002" x2="222.292" y1="-16.222" y2="-16.222" gradientUnits="userSpaceOnUse" xlink:href="#linearGradient3641"/><linearGradient id="linearGradient2896" x1="-263.002" x2="222.292" y1="-16.222" y2="-16.222" gradientUnits="userSpaceOnUse" xlink:href="#linearGradient3641"/><linearGradient id="linearGradient2900" x1="-263.002" x2="222.292" y1="-16.222" y2="-16.222" gradientUnits="userSpaceOnUse" xlink:href="#linearGradient3641"/><linearGradient id="linearGradient3456" x1="173.719" x2="289.438" y1="235.281" y2="235.281" gradientUnits="userSpaceOnUse" xlink:href="#linearGradient3641"/><linearGradient id="linearGradient3697" x1="-268.962" x2="216.554" y1="-22.264" y2="-22.264" gradientUnits="userSpaceOnUse" xlink:href="#linearGradient3641"/><filter id="filter3703"><feGaussianBlur id="feGaussianBlur3705" stdDeviation="7.759"/></filter><linearGradient id="linearGradient3697-3" x1="-268.962" x2="216.554" y1="-22.264" y2="-22.264" gradientUnits="userSpaceOnUse" xlink:href="#linearGradient3641-3"/><linearGradient id="linearGradient3641-3"><stop id="stop3643-4" offset="0" stop-color="#fff" stop-opacity="1"/><stop id="stop3645-6" offset="1" stop-color="#fff" stop-opacity="0"/></linearGradient><linearGradient id="linearGradient3726" x1="-268.962" x2="216.554" y1="-22.264" y2="-22.264" gradientTransform="translate(-180.70032,-122.18902)" gradientUnits="userSpaceOnUse" xlink:href="#linearGradient3641-3"/></defs><metadata id="metadata7"/><g id="layer1" transform="translate(464.16179,464.03236)"><g id="g4082" transform="translate(0,1.552561)"><g id="g4060" transform="matrix(1.5074827,0,0,1.5074827,-9.4212231,-17.89429)"><g id="g3446" transform="matrix(1.1176301,0,0,1.1176301,-3.5268616,-4.0817439)"><g id="g8611"><g id="g7625"><g id="g5564"><path id="path3803" fill="#2a7fff" fill-opacity="1" fill-rule="nonzero" stroke="none" stroke-width="1" d="m 734.28125,681.15625 -50.5625,50.5625 c 1.18094,0.9704 2.36093,1.89431 3.46875,3 20.77638,20.73508 13.74953,48.06179 45.53125,79.78125 L 844.53125,925.09375 925,839.875 816,731.40625 c -31.7817,-31.71941 -56.94229,-24.70242 -77.71875,-45.4375 -1.50946,-1.50654 -2.74045,-3.16714 -4,-4.8125 z" color="#000" display="inline" enable-background="accumulate" opacity=".7" overflow="visible" transform="matrix(0.66335753,0,0,0.66335753,-301.65558,-296.97895)" visibility="visible" style="marker:none"/><path id="path3869" fill="#2a7fff" fill-opacity="1" fill-rule="nonzero" stroke="none" stroke-width="1" d="m 423.53125,74.90625 c -89.25638,0 -178.41726,35.70761 -246.46875,103.625 -136.100483,135.83527 -136.100483,355.53972 0,491.375 107.74873,107.53599 267.56979,129.22931 397.46875,66.5 3.41662,-1.65158 7.71979,-3.23163 11.09375,-5 20.25037,-7.98262 69.41693,-23.2518 98.09375,0.3125 l 50.5625,-50.5625 c -27.32029,-35.6888 2.05469,-101.80154 4,-105.96875 C 801.13268,445.54566 778.31132,286.06757 670.5625,178.53125 602.51102,110.61386 512.78765,74.90625 423.53125,74.90625 z m 0,88.65625 c 144.35851,0 262,116.86249 262,260.9375 0,144.07499 -117.64149,261.46875 -262,261.46875 -144.35831,0 -261.4375,-117.39376 -261.4375,-261.46875 0,-144.07501 117.07919,-260.9375 261.4375,-260.9375 z" color="#000" display="inline" enable-background="accumulate" opacity=".7" overflow="visible" transform="matrix(0.66335753,0,0,0.66335753,-301.65558,-296.97895)" visibility="visible" style="marker:none"/></g></g><path id="path3803-1" fill="url(#linearGradient3456)" fill-opacity="1" fill-rule="nonzero" stroke="none" stroke-width="1" d="m 185.96875,177.125 c -3.80781,4.42565 -9.81474,7.98801 -12.25,13.03125 8.46134,15.2102 10.93367,34.92821 25.95417,45.58503 19.24984,19.58985 39.11074,38.46054 58.48333,57.97747 9.8579,-11.54584 21.83337,-21.76305 31.28125,-33.4375 -8.69514,-7.27896 -15.70438,-16.29486 -24.18317,-24.02015 -16.647,-16.64163 -32.38229,-34.36307 -51.91058,-47.5111 -9.01605,-4.03934 -18.68939,-6.81106 -27.125,-11.90625 l -0.25,0.28125 z" color="#000" display="inline" enable-background="accumulate" filter="url(#filter8306)" opacity=".4" overflow="visible" visibility="visible" style="marker:none"/></g></g><path id="path3869-6" fill="url(#linearGradient3697)" fill-opacity="1" fill-rule="nonzero" stroke="none" stroke-width="1" d="m -29.53125,-264.4375 c -95.60706,0.51987 -186.76538,63.90879 -222.03125,152.125 -31.80076,77.947653 -19.55484,172.668848 32.99404,238.75411 46.33142,59.72303 121.64145,96.51596 197.59971,93.30839 38.993685,-0.89335 76.69708,-12.2385 111.5,-29.125 22.79642,-9.81433 49.71818,-13.15512 73.34375,-4.25 6.06682,-7.41694 14.3238,-12.93577 19.96875,-20.5625 -10.46179,-27.82452 -2.01817,-58.63741 9.84375,-84.65625 C 208.40658,48.235883 217.33579,12.619166 216.5,-23.625 215.55374,-101.12087 175.93127,-177.38425 111.43373,-220.48392 70.37135,-249.05761 20.58843,-265.32953 -29.53125,-264.4375 z m 2.9375,33.5 c 91.376014,-1.01118 178.85625,64.48049 202.54597,152.714326 C 195.90674,-6.9090243 175.75434,74.80918 122.61704,126.60171 72.684375,176.60069 -3.5326025,200.22902 -72.789516,183.69308 -144.59666,167.26542 -206.60429,111.48152 -227.40067,40.432192 c -20.56367,-66.924097 -5.74899,-144.431992 40.58817,-197.150942 39.34528,-46.29678 99.120784,-74.59794 160.21875,-74.21875 z" color="#000" display="inline" enable-background="accumulate" filter="url(#filter3703)" opacity=".4" overflow="visible" visibility="visible" style="marker:none"/></g></g></g></svg>