<svg xmlns="http://www.w3.org/2000/svg" xmlns:svg="http://www.w3.org/2000/svg" xmlns:xlink="http://www.w3.org/1999/xlink" id="svg2" width="1000" height="1000" version="1.1"><defs id="defs4"><linearGradient id="linearGradient3995"><stop id="stop3997" offset="0" stop-color="#2a7fff" stop-opacity="1"/><stop id="stop3999" offset="1" stop-color="#2a7fff" stop-opacity=".634"/></linearGradient><linearGradient id="linearGradient8562" x1="-213.564" x2="253.595" y1="24.514" y2="24.514" gradientTransform="matrix(0,1,-1,0,44.530081,4.498828)" gradientUnits="userSpaceOnUse" xlink:href="#linearGradient3641"/><linearGradient id="linearGradient3641"><stop id="stop3643" offset="0" stop-color="#fff" stop-opacity="1"/><stop id="stop3645" offset="1" stop-color="#fff" stop-opacity="0"/></linearGradient><linearGradient id="linearGradient6791" x1="-213.564" x2="253.595" y1="24.514" y2="24.514" gradientTransform="matrix(0,1,-1,0,44.530081,4.498828)" gradientUnits="userSpaceOnUse" xlink:href="#linearGradient3641"/><linearGradient id="linearGradient10554" x1="-219.851" x2="74.444" y1="137.424" y2="137.424" gradientUnits="userSpaceOnUse" xlink:href="#linearGradient3641-6"/><linearGradient id="linearGradient3641-6"><stop id="stop3643-4" offset="0" stop-color="#fff" stop-opacity="1"/><stop id="stop3645-9" offset="1" stop-color="#fff" stop-opacity="0"/></linearGradient><linearGradient id="linearGradient10556" x1="-219.663" x2="279.881" y1="34.625" y2="34.625" gradientUnits="userSpaceOnUse" xlink:href="#linearGradient3641-6"/><linearGradient id="linearGradient3179" x1="-219.663" x2="279.881" y1="34.625" y2="34.625" gradientUnits="userSpaceOnUse" xlink:href="#linearGradient3641-6"/><linearGradient id="linearGradient3641-6-0"><stop id="stop3643-4-4" offset="0" stop-color="#fff" stop-opacity="1"/><stop id="stop3645-9-8" offset="1" stop-color="#fff" stop-opacity="0"/></linearGradient><linearGradient id="linearGradient3275" x1="-219.851" x2="74.444" y1="137.424" y2="137.424" gradientUnits="userSpaceOnUse" xlink:href="#linearGradient3641-6-0"/><linearGradient id="linearGradient3279" x1="-181.867" x2="2.605" y1="212.954" y2="28.482" gradientUnits="userSpaceOnUse" xlink:href="#linearGradient3641-6-0"/><linearGradient id="linearGradient3285" x1="-181.867" x2="2.605" y1="212.954" y2="28.482" gradientUnits="userSpaceOnUse" xlink:href="#linearGradient3641-6-0"/><linearGradient id="linearGradient5003" x1="-181.867" x2="2.605" y1="212.954" y2="28.482" gradientUnits="userSpaceOnUse" xlink:href="#linearGradient3641-6-0"/><linearGradient id="linearGradient5011" x1="-181.867" x2="2.605" y1="212.954" y2="28.482" gradientUnits="userSpaceOnUse" xlink:href="#linearGradient3641-6-0"/><linearGradient id="linearGradient5017" x1="-181.867" x2="2.605" y1="212.954" y2="28.482" gradientUnits="userSpaceOnUse" xlink:href="#linearGradient3641-6-0"/><linearGradient id="linearGradient5022" x1="-181.867" x2="2.605" y1="212.954" y2="28.482" gradientUnits="userSpaceOnUse" xlink:href="#linearGradient3641-6-0"/><linearGradient id="linearGradient3637"><stop id="stop3639" offset="0" stop-color="#f0f0f0" stop-opacity="1"/><stop id="stop3641" offset="1" stop-color="#aaa" stop-opacity="1"/></linearGradient><linearGradient id="linearGradient3741" x1="-189.496" x2="249.49" y1="34.822" y2="34.822" gradientUnits="userSpaceOnUse" xlink:href="#linearGradient3641"/><linearGradient id="linearGradient3765" x1="48" x2="48" y1="76" y2="20" gradientTransform="matrix(9.9895684,0,0,9.9895684,-1275.6462,-551.44847)" gradientUnits="userSpaceOnUse" xlink:href="#linearGradient4081"/><linearGradient id="linearGradient4081"><stop id="stop4083" offset="0" stop-color="#aaa" stop-opacity="1"/><stop id="stop4085" offset="1" stop-color="#f0f0f0" stop-opacity="1"/></linearGradient><linearGradient id="linearGradient3741-4" x1="-189.496" x2="249.49" y1="34.822" y2="34.822" gradientUnits="userSpaceOnUse" xlink:href="#linearGradient3641-9"/><linearGradient id="linearGradient3641-9"><stop id="stop3643-5" offset="0" stop-color="#fff" stop-opacity="1"/><stop id="stop3645-0" offset="1" stop-color="#fff" stop-opacity="0"/></linearGradient><linearGradient id="linearGradient2947" x1="-189.496" x2="249.49" y1="34.822" y2="34.822" gradientTransform="translate(-31.96339,-249.30259)" gradientUnits="userSpaceOnUse" xlink:href="#linearGradient3641-9"/><linearGradient id="linearGradient3765-7" x1="48" x2="48" y1="76" y2="20" gradientUnits="userSpaceOnUse" xlink:href="#linearGradient4081-7"/><linearGradient id="linearGradient4081-7"><stop id="stop4083-6" offset="0" stop-color="#aaa" stop-opacity="1"/><stop id="stop4085-7" offset="1" stop-color="#f0f0f0" stop-opacity="1"/></linearGradient><linearGradient id="linearGradient4118" x1="329.131" x2="718.76" y1="-232.328" y2="-232.328" gradientUnits="userSpaceOnUse" xlink:href="#linearGradient3641"/><linearGradient id="aigrd4" x1="19.711" x2="10.825" y1="19.858" y2="11.85" gradientUnits="userSpaceOnUse"><stop id="stop50" offset="0" stop-color="#FFF"/><stop id="stop52" offset="1" stop-color="#EDEDED"/></linearGradient><linearGradient id="aigrd1" x1="4.127" x2="17.73" y1="4.88" y2="20.199" gradientUnits="userSpaceOnUse"><stop id="stop8" offset="0" stop-color="#F8FAEB"/><stop id="stop10" offset=".12" stop-color="#F2F4E4"/><stop id="stop12" offset=".265" stop-color="#E0E1D3"/><stop id="stop14" offset=".423" stop-color="#C3C4B7"/><stop id="stop16" offset=".591" stop-color="#9D9E93"/><stop id="stop18" offset=".766" stop-color="#707169"/><stop id="stop20" offset=".945" stop-color="#3F3F3B"/><stop id="stop22" offset="1" stop-color="#2F2F2C"/></linearGradient><linearGradient id="aigrd2" x1="17.223" x2="4.642" y1="19.097" y2="5.94" gradientUnits="userSpaceOnUse"><stop id="stop27" offset="0" stop-color="#DEDFCE"/><stop id="stop29" offset="1" stop-color="#C2C4B5"/></linearGradient><linearGradient id="aigrd3" x1="10.76" x2="10.76" y1="2.279" y2="5.846" gradientUnits="userSpaceOnUse"><stop id="stop36" offset=".006" stop-color="#EDEDED"/><stop id="stop38" offset=".14" stop-color="#909090"/><stop id="stop40" offset="1" stop-color="#CFCFCF"/></linearGradient><linearGradient id="linearGradient2912" x1="4.127" x2="17.73" y1="4.88" y2="20.199" gradientUnits="userSpaceOnUse"><stop id="stop2914" offset="0" stop-color="#F8FAEB"/><stop id="stop2916" offset=".12" stop-color="#F2F4E4"/><stop id="stop2918" offset=".265" stop-color="#E0E1D3"/><stop id="stop2920" offset=".423" stop-color="#C3C4B7"/><stop id="stop2922" offset=".591" stop-color="#9D9E93"/><stop id="stop2924" offset=".766" stop-color="#707169"/><stop id="stop2926" offset=".945" stop-color="#3F3F3B"/><stop id="stop2928" offset="1" stop-color="#2F2F2C"/></linearGradient><linearGradient id="linearGradient2931" x1="17.223" x2="4.642" y1="19.097" y2="5.94" gradientUnits="userSpaceOnUse"><stop id="stop2933" offset="0" stop-color="#DEDFCE"/><stop id="stop2935" offset="1" stop-color="#C2C4B5"/></linearGradient><linearGradient id="linearGradient2939" x1="10.76" x2="10.76" y1="2.279" y2="5.846" gradientUnits="userSpaceOnUse"><stop id="stop2941" offset=".006" stop-color="#EDEDED"/><stop id="stop2943" offset=".14" stop-color="#909090"/><stop id="stop2945" offset="1" stop-color="#CFCFCF"/></linearGradient><linearGradient id="linearGradient2951" x1="19.711" x2="10.825" y1="19.858" y2="11.85" gradientUnits="userSpaceOnUse"><stop id="stop2953" offset="0" stop-color="#FFF"/><stop id="stop2955" offset="1" stop-color="#EDEDED"/></linearGradient><linearGradient id="path166_2_" x1="-149.046" x2="-149.046" y1="251.144" y2="436.303" gradientTransform="matrix(0.1875,0,0,-0.1875,51.5,83.75)" gradientUnits="userSpaceOnUse"><stop id="stop598" offset="0" stop-color="#B4E2FF"/><stop id="stop599" offset="1" stop-color="#006DFF"/></linearGradient><linearGradient id="XMLID_1_" x1="7.306" x2="50.773" y1="7.256" y2="50.723" gradientUnits="userSpaceOnUse"><stop id="stop606" offset="0" stop-color="#94CAFF"/><stop id="stop607" offset="1" stop-color="#006DFF"/></linearGradient><linearGradient id="XMLID_2_" x1="23.504" x2="23.504" y1="2.187" y2="34.437" gradientUnits="userSpaceOnUse"><stop id="stop613" offset="0" stop-color="#428AFF"/><stop id="stop614" offset="1" stop-color="#C9E6FF"/></linearGradient><linearGradient id="path186_2_" x1="-104.593" x2="-206.815" y1="411.67" y2="309.448" gradientTransform="matrix(0.1875,0,0,-0.1875,51.5,83.75)" gradientUnits="userSpaceOnUse"><stop id="stop621" offset="0" stop-color="#CCC"/><stop id="stop622" offset="1" stop-color="#F0F0F0"/></linearGradient><linearGradient id="XMLID_3_" x1="34.597" x2="18.409" y1="3.597" y2="19.785" gradientUnits="userSpaceOnUse"><stop id="stop629" offset="0" stop-color="#FFF"/><stop id="stop630" offset=".551" stop-color="#E6EDFF"/><stop id="stop631" offset="1" stop-color="#FFF"/></linearGradient><linearGradient id="path205_1_" x1="-174.441" x2="-108.879" y1="300.091" y2="210.207" gradientTransform="matrix(0.1875,0,0,-0.1875,51.5,83.75)" gradientUnits="userSpaceOnUse"><stop id="stop639" offset="0" stop-color="#039"/><stop id="stop640" offset=".27" stop-color="#0035ED"/><stop id="stop641" offset="1" stop-color="#57ADFF"/></linearGradient><linearGradient id="XMLID_4_" x1="21.869" x2="21.869" y1="25.188" y2="44.625" gradientUnits="userSpaceOnUse"><stop id="stop649" offset="0" stop-color="#DFDFDF"/><stop id="stop650" offset="1" stop-color="#7D7D99"/></linearGradient><linearGradient id="XMLID_5_" x1="-158.034" x2="-158.034" y1="288.068" y2="231.322" gradientTransform="matrix(0.1875,0,0,-0.1875,51.5,83.75)" gradientUnits="userSpaceOnUse"><stop id="stop656" offset="0" stop-color="#F0F0F0"/><stop id="stop657" offset=".635" stop-color="#CECEDB"/><stop id="stop658" offset=".86" stop-color="#B1B1C5"/><stop id="stop659" offset="1" stop-color="#FFF"/></linearGradient><linearGradient id="path228_1_" x1="-68.149" x2="-68.149" y1="388.456" y2="404.669" gradientTransform="matrix(0.1875,0,0,-0.1875,51.5,83.75)" gradientUnits="userSpaceOnUse"><stop id="stop669" offset="0" stop-color="#39F"/><stop id="stop670" offset="1" stop-color="#000"/></linearGradient><linearGradient id="linearGradient2917" x1="-149.046" x2="-149.046" y1="251.144" y2="436.303" gradientTransform="matrix(0.1875,0,0,-0.1875,51.5,83.75)" gradientUnits="userSpaceOnUse"><stop id="stop2919" offset="0" stop-color="#B4E2FF"/><stop id="stop2921" offset="1" stop-color="#006DFF"/></linearGradient><linearGradient id="linearGradient2925" x1="7.306" x2="50.773" y1="7.256" y2="50.723" gradientUnits="userSpaceOnUse"><stop id="stop2927" offset="0" stop-color="#94CAFF"/><stop id="stop2929" offset="1" stop-color="#006DFF"/></linearGradient><linearGradient id="linearGradient2932" x1="23.504" x2="23.504" y1="2.187" y2="34.437" gradientUnits="userSpaceOnUse"><stop id="stop2934" offset="0" stop-color="#428AFF"/><stop id="stop2936" offset="1" stop-color="#C9E6FF"/></linearGradient><linearGradient id="linearGradient2940" x1="-104.593" x2="-206.815" y1="411.67" y2="309.448" gradientTransform="matrix(0.1875,0,0,-0.1875,51.5,83.75)" gradientUnits="userSpaceOnUse"><stop id="stop2942" offset="0" stop-color="#CCC"/><stop id="stop2944" offset="1" stop-color="#F0F0F0"/></linearGradient><linearGradient id="linearGradient2948" x1="34.597" x2="18.409" y1="3.597" y2="19.785" gradientUnits="userSpaceOnUse"><stop id="stop2950" offset="0" stop-color="#FFF"/><stop id="stop2952" offset=".551" stop-color="#E6EDFF"/><stop id="stop2954" offset="1" stop-color="#FFF"/></linearGradient><linearGradient id="linearGradient2957" x1="-174.441" x2="-108.879" y1="300.091" y2="210.207" gradientTransform="matrix(0.1875,0,0,-0.1875,51.5,83.75)" gradientUnits="userSpaceOnUse"><stop id="stop2959" offset="0" stop-color="#039"/><stop id="stop2961" offset=".27" stop-color="#0035ED"/><stop id="stop2963" offset="1" stop-color="#57ADFF"/></linearGradient><linearGradient id="linearGradient2966" x1="21.869" x2="21.869" y1="25.188" y2="44.625" gradientUnits="userSpaceOnUse"><stop id="stop2968" offset="0" stop-color="#DFDFDF"/><stop id="stop2970" offset="1" stop-color="#7D7D99"/></linearGradient><linearGradient id="linearGradient2973" x1="-158.034" x2="-158.034" y1="288.068" y2="231.322" gradientTransform="matrix(0.1875,0,0,-0.1875,51.5,83.75)" gradientUnits="userSpaceOnUse"><stop id="stop2975" offset="0" stop-color="#F0F0F0"/><stop id="stop2977" offset=".635" stop-color="#CECEDB"/><stop id="stop2979" offset=".86" stop-color="#B1B1C5"/><stop id="stop2981" offset="1" stop-color="#FFF"/></linearGradient><linearGradient id="linearGradient2984" x1="-68.149" x2="-68.149" y1="388.456" y2="404.669" gradientTransform="matrix(0.1875,0,0,-0.1875,51.5,83.75)" gradientUnits="userSpaceOnUse"><stop id="stop2986" offset="0" stop-color="#39F"/><stop id="stop2988" offset="1" stop-color="#000"/></linearGradient><linearGradient id="linearGradient4056" x1="-158.034" x2="-158.034" y1="288.068" y2="231.322" gradientTransform="matrix(2.5891828,0,0,-2.5891828,416.15701,860.04944)" gradientUnits="userSpaceOnUse" xlink:href="#XMLID_5_"/><linearGradient id="linearGradient4059" x1="21.869" x2="21.869" y1="25.188" y2="44.625" gradientTransform="matrix(13.808975,0,0,13.808975,-295.0052,-296.45222)" gradientUnits="userSpaceOnUse" xlink:href="#XMLID_4_"/><linearGradient id="linearGradient4062" x1="-86.234" x2="217.66" y1="162.563" y2="162.563" gradientTransform="translate(-40.936879,3.1439387)" gradientUnits="userSpaceOnUse" xlink:href="#linearGradient3995"/><linearGradient id="linearGradient4065-1" x1="34.597" x2="18.409" y1="3.597" y2="19.785" gradientTransform="matrix(13.808975,0,0,13.808975,-295.0052,-296.45222)" gradientUnits="userSpaceOnUse" xlink:href="#XMLID_3_-7"/><linearGradient id="XMLID_3_-7" x1="34.597" x2="18.409" y1="3.597" y2="19.785" gradientUnits="userSpaceOnUse"><stop id="stop629-2" offset="0" stop-color="#FFF"/><stop id="stop630-7" offset=".551" stop-color="#E6EDFF"/><stop id="stop631-2" offset="1" stop-color="#FFF"/></linearGradient><linearGradient id="linearGradient15296" x1="10.76" x2="10.76" y1="2.279" y2="5.846" gradientTransform="matrix(24.738793,0,0,24.738793,-266.84235,-262.16571)" gradientUnits="userSpaceOnUse" xlink:href="#aigrd3-6"/><linearGradient id="aigrd3-6" x1="10.76" x2="10.76" y1="2.279" y2="5.846" gradientUnits="userSpaceOnUse"><stop id="stop36-5" offset=".006" stop-color="#EDEDED"/><stop id="stop38-6" offset=".14" stop-color="#909090"/><stop id="stop40-3" offset="1" stop-color="#CFCFCF"/></linearGradient><linearGradient id="linearGradient4323" x1="10.76" x2="10.76" y1="2.279" y2="5.846" gradientTransform="matrix(24.738793,0,0,24.738793,-266.84235,-262.16571)" gradientUnits="userSpaceOnUse" xlink:href="#aigrd3-6"/></defs><metadata id="metadata7"/><g id="layer1" transform="translate(464.16179,464.03236)"><g id="g4082" transform="translate(0,1.552561)"><g id="g4060" transform="matrix(1.5074827,0,0,1.5074827,-9.4212231,-17.89429)"><g id="g3013" transform="translate(2.0738715e-5,8.8021749e-6)"><path id="rect15284" fill="#2a7fff" fill-opacity="1" fill-rule="nonzero" stroke="none" d="m 394.28125,426.40625 c -7.87328,0 -14.21875,6.31422 -14.21875,14.1875 l 0,398 c 0,7.87328 6.34547,14.1875 14.21875,14.1875 l 441.125,0 c 7.87328,0 14.21875,-6.31422 14.21875,-14.1875 l 0,-398 c 0,-7.87328 -6.34547,-14.1875 -14.21875,-14.1875 l -441.125,0 z m 61.9375,52.03125 317.25,0 0,43.125 -317.25,0 0,-43.125 z m 0,139.59375 317.25,0 0,43.125 -317.25,0 0,-43.125 z m 0,139.59375 317.25,0 0,43.125 -317.25,0 0,-43.125 z" opacity=".8" transform="matrix(0.66335753,0,0,0.66335753,-301.65558,-296.97895)"/><path id="path15294" fill="#2a7fff" fill-rule="nonzero" stroke="none" d="m -96.15625,-241.375 a 31.161988,31.161988 0 0 0 -31.15625,31.15625 l 0,48.9375 -20.5625,20.5625 a 31.161988,31.161988 0 0 0 22.03125,53.1875 l 249.875,0 a 31.161988,31.161988 0 0 0 22.03125,-53.1875 l -20.5625,-20.5625 0,-48.9375 A 31.161988,31.161988 0 0 0 94.34375,-241.375 l -190.5,0 z" opacity=".9" xlink:href="#path42"/><path id="rect15282" fill="#2a7fff" fill-opacity="1" fill-rule="nonzero" stroke="none" d="m 381.34375,375.625 c -27.76628,0 -50.125,22.35872 -50.125,50.125 l 0,427.6875 c 0,27.76628 22.35872,50.125 50.125,50.125 l 467,0 c 27.76628,0 50.125,-22.35872 50.125,-50.125 l 0,-427.6875 c 0,-27.76628 -22.35872,-50.125 -50.125,-50.125 l -467,0 z m 12.9375,50.78125 441.125,0 c 7.87328,0 14.21875,6.31422 14.21875,14.1875 l 0,398 c 0,7.87328 -6.34547,14.1875 -14.21875,14.1875 l -441.125,0 c -7.87328,0 -14.21875,-6.31422 -14.21875,-14.1875 l 0,-398 c 0,-7.87328 6.34547,-14.1875 14.21875,-14.1875 z" opacity=".9" transform="matrix(0.66335753,0,0,0.66335753,-301.65558,-296.97895)"/><path id="path15421" fill="#2a7fff" fill-opacity="1" fill-rule="nonzero" stroke="none" d="m 643.9375,190.34375 104.65625,0 c 10.27611,0 18.53125,8.28639 18.53125,18.5625 l 0,166.71875 51.40625,0 0,-163.4375 c 0,-38.8073 -31.2552,-70.0625 -70.0625,-70.0625 l -104.53125,0 0,48.21875 z" opacity=".7" transform="matrix(0.66335753,0,0,0.66335753,-301.65558,-296.97895)"/><path id="path15419" fill="#2a7fff" fill-opacity="1" fill-rule="nonzero" stroke="none" d="m 262.8125,142.125 -115.34375,0 c -38.8073,0 -70.0625,31.2552 -70.0625,70.0625 l 0,589.59375 c 0,38.8073 31.2552,70.03125 70.0625,70.03125 l 187.3125,0 c -1.04707,-2.66224 -1.97912,-5.38461 -2.5625,-8.25 -0.33273,-1.63427 -0.5795,-3.31103 -0.75,-5 -0.1705,-1.68897 -0.25,-3.38961 -0.25,-5.125 l 0,-29.84375 -183.875,0 c -10.27611,0 -18.53125,-8.25514 -18.53125,-18.53125 l 0,-596.15625 c 0,-10.27611 8.25514,-18.5625 18.53125,-18.5625 l 115.46875,0 0,-48.21875 z" opacity=".7" transform="matrix(0.66335753,0,0,0.66335753,-301.65558,-296.97895)"/><path id="path33" fill="none" stroke="none" d="M -98.618558,-210.21424 H 94.344028 v 61.84698 l 29.686552,29.68655 h -249.86181 l 29.686552,-29.68655 0,-61.84698 z"/><path id="path42" fill="url(#linearGradient4323)" fill-rule="nonzero" stroke="none" d="M -98.618558,-210.21424 H 94.344028 v 61.84698 l 29.686552,29.68655 h -249.86181 l 29.686552,-29.68655 0,-61.84698 z"/><path id="path65-9" fill="none" stroke="none" d="M 326.88868,331.56532 H -266.84235 V -262.16571 H 326.88868 V 331.56532 z"/><path id="path15424" fill="#2a7fff" fill-opacity="1" fill-rule="nonzero" stroke="none" d="m 262.8125,190.34375 -115.46875,0 c -10.27611,0 -18.53125,8.28639 -18.53125,18.5625 l 0,596.15625 c 0,10.27611 8.25514,18.53125 18.53125,18.53125 l 183.875,0 0,-397.84375 c 0,-1.73539 0.0795,-3.43603 0.25,-5.125 0.1705,-1.68897 0.41727,-3.36573 0.75,-5 0.66546,-3.26854 1.67276,-6.40612 2.9375,-9.40625 1.26474,-3.00013 2.7959,-5.86571 4.59375,-8.53125 1.79785,-2.66554 3.86022,-5.14147 6.125,-7.40625 2.26478,-2.26478 4.74071,-4.32715 7.40625,-6.125 2.66554,-1.79785 5.49987,-3.32901 8.5,-4.59375 3.00013,-1.26474 6.16896,-2.24079 9.4375,-2.90625 1.63427,-0.33273 3.27978,-0.5795 4.96875,-0.75 1.68897,-0.1705 3.42086,-0.28125 5.15625,-0.28125 l 385.78125,0 0,-166.71875 c 0,-10.27611 -8.25514,-18.5625 -18.53125,-18.5625 l -104.65625,0 0,14.21875 31,31 a 46.976158,46.976158 0 0 1 1.78125,1.875 46.976158,46.976158 0 0 1 2.9375,3.65625 46.976158,46.976158 0 0 1 2.59375,3.9375 46.976158,46.976158 0 0 1 2.15625,4.15625 46.976158,46.976158 0 0 1 1.75,4.375 46.976158,46.976158 0 0 1 1.28125,4.5 46.976158,46.976158 0 0 1 0.84375,4.625 46.976158,46.976158 0 0 1 0.375,4.6875 46.976158,46.976158 0 0 1 -0.0937,4.6875 46.976158,46.976158 0 0 1 -0.5625,4.65625 46.976158,46.976158 0 0 1 -1.03125,4.59375 46.976158,46.976158 0 0 1 -1.46875,4.46875 46.976158,46.976158 0 0 1 -1.9375,4.28125 46.976158,46.976158 0 0 1 -2.3125,4.0625 46.976158,46.976158 0 0 1 -2.75,3.8125 46.976158,46.976158 0 0 1 -3.09375,3.53125 46.976158,46.976158 0 0 1 -3.4375,3.21875 46.976158,46.976158 0 0 1 -3.71875,2.84375 46.976158,46.976158 0 0 1 -4,2.4375 46.976158,46.976158 0 0 1 -4.25,2.0625 46.976158,46.976158 0 0 1 -4.40625,1.59375 46.976158,46.976158 0 0 1 -4.53125,1.1875 46.976158,46.976158 0 0 1 -4.65625,0.6875 46.976158,46.976158 0 0 1 -4.6875,0.25 l -376.6875,0 a 46.976158,46.976158 0 0 1 -2.59375,-0.0937 46.976158,46.976158 0 0 1 -4.6875,-0.5 46.976158,46.976158 0 0 1 -4.59375,-0.9375 46.976158,46.976158 0 0 1 -4.46875,-1.40625 46.976158,46.976158 0 0 1 -4.3125,-1.875 46.976158,46.976158 0 0 1 -4.09375,-2.28125 46.976158,46.976158 0 0 1 -3.875,-2.65625 46.976158,46.976158 0 0 1 -3.5625,-3.0625 46.976158,46.976158 0 0 1 -3.25,-3.375 46.976158,46.976158 0 0 1 -2.90625,-3.6875 46.976158,46.976158 0 0 1 -2.53125,-3.96875 46.976158,46.976158 0 0 1 -2.09375,-4.1875 46.976158,46.976158 0 0 1 -1.6875,-4.40625 46.976158,46.976158 0 0 1 -1.21875,-4.53125 46.976158,46.976158 0 0 1 -0.78125,-4.625 46.976158,46.976158 0 0 1 -0.28125,-4.6875 46.976158,46.976158 0 0 1 0.15625,-4.6875 46.976158,46.976158 0 0 1 0.625,-4.65625 46.976158,46.976158 0 0 1 1.09375,-4.5625 46.976158,46.976158 0 0 1 1.53125,-4.4375 46.976158,46.976158 0 0 1 2,-4.25 46.976158,46.976158 0 0 1 2.375,-4.0625 46.976158,46.976158 0 0 1 2.8125,-3.78125 46.976158,46.976158 0 0 1 3.125,-3.46875 l 31,-31 0,-14.21875 z" opacity=".5" transform="matrix(0.66335753,0,0,0.66335753,-301.65558,-296.97895)"/></g></g></g></g></svg>