<svg xmlns="http://www.w3.org/2000/svg" xmlns:svg="http://www.w3.org/2000/svg" xmlns:xlink="http://www.w3.org/1999/xlink" id="svg2" width="1000" height="1000" version="1.1"><defs id="defs4"><linearGradient id="linearGradient8562" x1="-213.564" x2="253.595" y1="24.514" y2="24.514" gradientTransform="matrix(0,1,-1,0,44.530081,4.498828)" gradientUnits="userSpaceOnUse" xlink:href="#linearGradient3641"/><linearGradient id="linearGradient3641"><stop id="stop3643" offset="0" stop-color="#fff" stop-opacity="1"/><stop id="stop3645" offset="1" stop-color="#fff" stop-opacity="0"/></linearGradient><linearGradient id="linearGradient6791" x1="-213.564" x2="253.595" y1="24.514" y2="24.514" gradientTransform="matrix(0,1,-1,0,44.530081,4.498828)" gradientUnits="userSpaceOnUse" xlink:href="#linearGradient3641"/><linearGradient id="linearGradient7354" x1="-1.887" x2="323.882" y1="-163.788" y2="-163.788" gradientTransform="translate(-294.13778,123.54099)" gradientUnits="userSpaceOnUse" xlink:href="#linearGradient3641"/><linearGradient id="linearGradient6901" x1="-203.313" x2="263.344" y1="30.719" y2="30.719" gradientUnits="userSpaceOnUse" xlink:href="#linearGradient3641-8"/><linearGradient id="linearGradient3641-8"><stop id="stop3643-7" offset="0" stop-color="#fff" stop-opacity="1"/><stop id="stop3645-1" offset="1" stop-color="#fff" stop-opacity="0"/></linearGradient><linearGradient id="linearGradient3843" x1="-203.313" x2="263.344" y1="30.719" y2="30.719" gradientUnits="userSpaceOnUse" xlink:href="#linearGradient3641-8"/><linearGradient id="linearGradient3875" x1="-203.313" x2="263.344" y1="30.719" y2="30.719" gradientTransform="translate(-708.90407,-377.00114)" gradientUnits="userSpaceOnUse" xlink:href="#linearGradient3641-8"/><linearGradient id="linearGradient4760" x1="-1013.624" x2="-820.688" y1="-111.861" y2="-111.861" gradientUnits="userSpaceOnUse" xlink:href="#linearGradient3641"/><filter id="filter4766" color-interpolation-filters="sRGB"><feGaussianBlur id="feGaussianBlur4768" stdDeviation="3.633"/></filter><linearGradient id="linearGradient4774" x1="-1013.624" x2="-820.688" y1="-111.861" y2="-111.861" gradientUnits="userSpaceOnUse" xlink:href="#linearGradient3641"/><linearGradient id="linearGradient6343" x1="-234.531" x2="294.995" y1="-27.46" y2="-27.46" gradientUnits="userSpaceOnUse" xlink:href="#linearGradient3641"/><filter id="filter6349" color-interpolation-filters="sRGB"><feGaussianBlur id="feGaussianBlur6351" stdDeviation="7.288"/></filter></defs><metadata id="metadata7"/><g id="layer1" transform="translate(464.16179,464.03236)"><g id="g4082" transform="translate(0,1.552561)"><g id="g4060" transform="matrix(1.5074827,0,0,1.5074827,-9.4212231,-17.89429)"><g id="g4770" transform="matrix(0,-1,-1,0,-598.776,-986.40837)"><path id="path3880" fill="#2a7fff" fill-opacity="1" fill-rule="nonzero" stroke="none" d="m -793.69064,-58.076947 -64.17985,90.651986 -65.29925,-90.651986 36.2359,0 5.61781,0 c -0.13836,-34.048457 -0.10102,-68.097333 0.53898,-102.136333 0.0186,-0.46179 0.018,-0.92865 0.0207,-1.3889 0.0845,-14.26784 -7.39811,-27.7385 -18.15942,-36.89926 -24.21653,-23.05691 -70.16464,-10.20914 -79.70655,21.74569 -3.83464,69.70945 -3.18703,139.521298 -2.65343,209.330789 l -46.10335,0 0,-193.845539 c 0,-52.44866 42.8691,-94.67356 96.12465,-94.67356 53.25555,0 96.12466,42.2249 96.12466,94.67356 l 0,103.193553 5.84583,0 35.59332,0 z" opacity=".7"/><path id="path3880-9" fill="url(#linearGradient4774)" fill-opacity="1" fill-rule="nonzero" stroke="none" d="m -857.87564,8.4994 c -12.64583,-17.5209 -25.29167,-35.04172 -37.9375,-52.56255 9.60417,0 19.20833,0 28.8125,0 -2.16354,-44.39119 2.54073,-89.02168 -1.875,-133.28125 -8.71909,-33.06467 -47.21107,-55.57072 -80.125,-44.21875 -23.94602,6.50424 -45.00385,28.33945 -44.12739,54.27894 -3.00749,61.89863 -2.73331,123.89485 -2.18511,185.84601 -5.67546,-0.653 -13.99156,1.3151 -17.99256,-0.9999 0.8112,-65.49089 -2.1639,-131.10863 1.7947,-196.50934 9.003,-42.71232 56.79357,-72.44633 99.07286,-61.05321 34.91207,7.87945 64.05464,40.83985 63.125,77.59375 0.96154,33.79551 -0.55607,67.60432 0.1875,101.40625 1.16736,5.14514 -2.43898,15.06398 2,16.9375 8.8125,0 17.625,0 26.4375,0 -12.39583,17.52083 -24.79167,35.04165 -37.1875,52.56255 z" filter="url(#filter4766)" opacity=".4"/></g><g id="g6353" transform="matrix(1.0627478,0,0,1.0627478,-1.883892,-2.1773368)"><g id="g6" fill="#2a7fff" stroke="none" opacity=".7" transform="matrix(0.23750555,0,0,-0.23750555,-268.03762,337.67286)"><path id="path8" fill="#2a7fff" d="M 1230,2420 C 991,2368 765,2246 579,2068 537,2028 491,1980 476,1961 l -28,-35 -204,206 -204,205 0,-614 0,-613 619,0 619,0 -194,192 c -107,106 -200,196 -206,199 -30,19 168,232 290,312 129,87 226,119 357,118 311,-2 546,-235 621,-617 23,-118 23,-371 0,-509 -32,-195 -108,-446 -190,-629 -44,-98 -31,-89 92,63 206,254 354,568 403,849 24,141 25,353 4,478 -77,436 -375,766 -773,854 -117,26 -332,26 -452,0 z"/></g><path id="path8-8" fill="url(#linearGradient6343)" fill-opacity="1" stroke="none" d="m 79.90625,-218.15625 c -80.70662728,-0.85234 -157.90786,40.40292 -210.6875,99.3125 -7.87618,9.9412 -16.74279,23.019135 -31.03125,22.6875 -16.45807,-0.479321 -26.1521,-15.95654 -36.58123,-26.46625 -12.04572,-12.24053 -24.0641,-24.50801 -36.13752,-36.72125 0,69.791667 0,139.583333 0,209.375 70.65625,0 141.3125,0 211.96875,0 C -42.844877,29.992394 -64.966084,11.16211 -82.75,-11.1875 c -4.929474,-17.806584 7.087275,-34.556099 18.78125,-46.59375 33.281186,-39.008335 75.490671,-73.70005 126.761831,-84.53987 67.656149,-13.88653 141.277329,22.0334 173.019419,82.88362 32.45913,55.1965926 38.28338,121.932799 32.3962,184.73582 -1.25283,12.71847 -3.03541,25.35771 -5.3337,37.95168 30.45725,-68.405811 42.14287,-147.424125 22.34375,-220.5 -17.12688,-60.9749 -59.20059,-115.99863 -117.5625,-142.5 -27.38759,-12.82099 -57.59931,-18.68398 -87.75,-18.40625 z" filter="url(#filter6349)" opacity=".4"/></g></g></g></g></svg>