<svg xmlns="http://www.w3.org/2000/svg" xmlns:svg="http://www.w3.org/2000/svg" xmlns:xlink="http://www.w3.org/1999/xlink" id="svg2" width="1000" height="1000" version="1.1"><defs id="defs4"><linearGradient id="linearGradient8562" x1="-213.564" x2="253.595" y1="24.514" y2="24.514" gradientTransform="matrix(0,1,-1,0,44.530081,4.498828)" gradientUnits="userSpaceOnUse" xlink:href="#linearGradient3641"/><linearGradient id="linearGradient3641"><stop id="stop3643" offset="0" stop-color="#fff" stop-opacity="1"/><stop id="stop3645" offset="1" stop-color="#fff" stop-opacity="0"/></linearGradient><linearGradient id="linearGradient6791" x1="-213.564" x2="253.595" y1="24.514" y2="24.514" gradientTransform="matrix(0,1,-1,0,44.530081,4.498828)" gradientUnits="userSpaceOnUse" xlink:href="#linearGradient3641"/></defs><metadata id="metadata7"/><g id="layer1" transform="translate(464.16179,464.03236)"><g id="g4082" transform="translate(0,1.552561)"><g id="g4060" transform="matrix(1.5074827,0,0,1.5074827,-9.4212231,-17.89429)"><g id="g11858" transform="matrix(0.7,0,0,0.7,-169.01319,-123.8253)"><path id="rect3235" fill="#2a7fff" fill-opacity="1" fill-rule="nonzero" stroke="none" d="m 69.389108,-62.407018 c -40.96271,0 -73.9229104,32.9602 -73.9229104,73.9229 l 0,429.897138 c 0,40.96271 32.9602004,73.92291 73.9229104,73.92291 l 41.480572,0 0,-577.742948 -41.480572,0 z m 90.382462,0 0,577.742948 89.38742,0 0,-577.742948 -89.38742,0 z m 138.31004,0 0,577.742948 113.86947,0 0,-577.742948 -113.86947,0 z m 162.77136,0 0,577.742948 38.43327,0 c 40.96271,0 73.92291,-32.9602 73.92291,-73.92291 l 0,-429.897138 c 0,-40.9627 -32.9602,-73.9229 -73.92291,-73.9229 l -38.43327,0 z" opacity=".5"/><rect id="rect3235-0" width="48.907" height="577.763" x="110.864" y="-62.417" fill="#dc0000" fill-opacity="1" fill-rule="nonzero" stroke="none" opacity=".8" rx="0" ry="0"/><rect id="rect3235-0-5" width="48.907" height="577.763" x="249.166" y="-62.417" fill="#00dc00" fill-opacity="1" fill-rule="nonzero" stroke="none" opacity=".8" rx="0" ry="0"/><rect id="rect3235-0-9" width="48.907" height="577.763" x="411.942" y="-62.417" fill="#0000dc" fill-opacity="1" fill-rule="nonzero" stroke="none" opacity=".8" rx="0" ry="0"/></g></g></g></g></svg>