<svg xmlns="http://www.w3.org/2000/svg" xmlns:svg="http://www.w3.org/2000/svg" xmlns:xlink="http://www.w3.org/1999/xlink" id="svg2" width="1000" height="1000" version="1.1"><defs id="defs4"><linearGradient id="linearGradient8562" x1="-213.564" x2="253.595" y1="24.514" y2="24.514" gradientTransform="matrix(0,1,-1,0,44.530081,4.498828)" gradientUnits="userSpaceOnUse" xlink:href="#linearGradient3641"/><linearGradient id="linearGradient3641"><stop id="stop3643" offset="0" stop-color="#fff" stop-opacity="1"/><stop id="stop3645" offset="1" stop-color="#fff" stop-opacity="0"/></linearGradient><linearGradient id="linearGradient6791" x1="-213.564" x2="253.595" y1="24.514" y2="24.514" gradientTransform="matrix(0,1,-1,0,44.530081,4.498828)" gradientUnits="userSpaceOnUse" xlink:href="#linearGradient3641"/></defs><metadata id="metadata7"/><g id="layer1" transform="translate(464.16179,464.03236)"><g id="g4082" transform="translate(0,1.552561)"><g id="g4060" transform="matrix(1.5074827,0,0,1.5074827,-9.4212231,-17.89429)"><path id="rect3235" fill="#2a7fff" fill-opacity="1" fill-rule="nonzero" stroke="none" d="M 175.96875 64.53125 C 114.21818 64.53125 64.53125 114.21818 64.53125 175.96875 L 64.53125 824.03125 C 64.53125 885.78182 114.21818 935.46875 175.96875 935.46875 L 238.5 935.46875 L 238.5 64.53125 L 175.96875 64.53125 z M 312.21875 64.53125 L 312.21875 935.46875 L 446.96875 935.46875 L 446.96875 64.53125 L 312.21875 64.53125 z M 520.71875 64.53125 L 520.71875 935.46875 L 692.375 935.46875 L 692.375 64.53125 L 520.71875 64.53125 z M 766.09375 64.53125 L 766.09375 935.46875 L 824.03125 935.46875 C 885.78182 935.46875 935.46875 885.78182 935.46875 824.03125 L 935.46875 175.96875 C 935.46875 114.21818 885.78182 64.53125 824.03125 64.53125 L 766.09375 64.53125 z" opacity=".5" transform="matrix(0.66335753,0,0,0.66335753,-301.65558,-296.97895)"/><rect id="rect3235-0" width="48.907" height="577.763" x="-143.451" y="-254.182" fill="#dc0000" fill-opacity="1" fill-rule="nonzero" stroke="none" opacity=".8" rx="0" ry="0"/><rect id="rect3235-0-5" width="48.907" height="577.763" x="-5.149" y="-254.182" fill="#00dc00" fill-opacity="1" fill-rule="nonzero" stroke="none" opacity=".8" rx="0" ry="0"/><rect id="rect3235-0-9" width="48.907" height="577.763" x="157.627" y="-254.182" fill="#0000dc" fill-opacity="1" fill-rule="nonzero" stroke="none" opacity=".8" rx="0" ry="0"/></g></g></g></svg>