<svg xmlns="http://www.w3.org/2000/svg" xmlns:svg="http://www.w3.org/2000/svg" id="svg2" width="10" height="10" version="1.1"><defs id="defs4"><clipPath id="clipPath3833" clipPathUnits="userSpaceOnUse"><rect id="rect3835" width="10" height="10" x="0" y="1042.362" fill="#00f" fill-opacity="1" stroke="none" rx="1.5" ry="1.5"/></clipPath></defs><metadata id="metadata7"/><g id="layer1" transform="translate(0,-1042.3622)"><rect id="rect3755" width="10" height="10" x="20" y="1042.362" fill="#0f0" fill-opacity="1" stroke="none" opacity=".5" rx="1.5" ry="1.5"/><rect id="rect3757" width="10" height="10" x="40" y="1042.362" fill="#00f" fill-opacity="1" stroke="none" opacity=".5" rx="1.5" ry="1.5"/><rect id="rect3759" width="10" height="10" x="60" y="1042.362" fill="#fff" fill-opacity="1" stroke="none" opacity=".5" rx="1.5" ry="1.5"/><g id="g3807" clip-path="url(#clipPath3833)" opacity=".5" transform="translate(80,0)"><g id="g3769" transform="matrix(0.5,0,0,0.5,0,526.18109)"><rect id="rect3761" width="5" height="5" x="5" y="1047.362" fill="#00f" fill-opacity="1" stroke="none"/><rect id="rect3763" width="5" height="5" x="0" y="1047.362" fill="#0f0" fill-opacity="1" stroke="none"/><rect id="rect3765" width="5" height="5" x="5" y="1042.362" fill="#0f0" fill-opacity="1" stroke="none"/><rect id="rect3767" width="5" height="5" x="0" y="1042.362" fill="red" fill-opacity="1" stroke="none"/></g><g id="g3775" transform="matrix(0.5,0,0,0.5,5,526.18109)"><rect id="rect3777" width="5" height="5" x="5" y="1047.362" fill="#00f" fill-opacity="1" stroke="none"/><rect id="rect3779" width="5" height="5" x="0" y="1047.362" fill="#0f0" fill-opacity="1" stroke="none"/><rect id="rect3781" width="5" height="5" x="5" y="1042.362" fill="#0f0" fill-opacity="1" stroke="none"/><rect id="rect3783" width="5" height="5" x="0" y="1042.362" fill="red" fill-opacity="1" stroke="none"/></g><g id="g3785" transform="matrix(0.5,0,0,0.5,0,521.18111)"><rect id="rect3787" width="5" height="5" x="5" y="1047.362" fill="#00f" fill-opacity="1" stroke="none"/><rect id="rect3789" width="5" height="5" x="0" y="1047.362" fill="#0f0" fill-opacity="1" stroke="none"/><rect id="rect3791" width="5" height="5" x="5" y="1042.362" fill="#0f0" fill-opacity="1" stroke="none"/><rect id="rect3793" width="5" height="5" x="0" y="1042.362" fill="red" fill-opacity="1" stroke="none"/></g><g id="g3795" transform="matrix(0.5,0,0,0.5,5,521.18111)"><rect id="rect3797" width="5" height="5" x="5" y="1047.362" fill="#00f" fill-opacity="1" stroke="none"/><rect id="rect3799" width="5" height="5" x="0" y="1047.362" fill="#0f0" fill-opacity="1" stroke="none"/><rect id="rect3801" width="5" height="5" x="5" y="1042.362" fill="#0f0" fill-opacity="1" stroke="none"/><rect id="rect3803" width="5" height="5" x="0" y="1042.362" fill="red" fill-opacity="1" stroke="none"/></g></g><rect id="rect3837" width="10" height="10" x="0" y="1042.362" fill="red" fill-opacity="1" stroke="none" opacity=".5" rx="1.5" ry="1.5"/><g id="g3794"><rect id="rect3839" width="10" height="10" x="100" y="1042.362" fill="#fff" fill-opacity="1" stroke="none" opacity=".5" rx="1.5" ry="1.5"/><path id="path3843" fill="none" stroke="red" stroke-dasharray="none" stroke-linecap="square" stroke-linejoin="miter" stroke-miterlimit="4" stroke-opacity="1" stroke-width="1" d="m 105.5,1051.8622 0,-9"/><path id="path3849" fill="none" stroke="#0f0" stroke-dasharray="none" stroke-linecap="square" stroke-linejoin="miter" stroke-miterlimit="4" stroke-opacity="1" stroke-width="1" d="m 104.5,1051.8622 0,-9"/><path id="path3851" fill="none" stroke="#00f" stroke-dasharray="none" stroke-linecap="square" stroke-linejoin="miter" stroke-miterlimit="4" stroke-opacity="1" stroke-width="1" d="m 107.5,1051.8622 0,-9"/></g></g></svg>