<svg xmlns="http://www.w3.org/2000/svg" xmlns:svg="http://www.w3.org/2000/svg" xmlns:xlink="http://www.w3.org/1999/xlink" id="svg2" width="800" height="700" version="1.1"><defs id="defs4"><marker id="marker4801" orient="auto" overflow="visible" refX="0" refY="0"><path id="path4803" fill="#2a7fff" fill-opacity="1" fill-rule="evenodd" stroke="#2a7fff" stroke-opacity="1" stroke-width="1pt" d="m 5.77,0 -8.65,5 0,-10 8.65,5 z" transform="scale(0.4,0.4)"/></marker><marker id="marker4684" orient="auto" overflow="visible" refX="0" refY="0"><path id="path4561" fill="#2a7fff" fill-opacity="1" fill-rule="evenodd" stroke="#2a7fff" stroke-opacity="1" stroke-width="1pt" d="m 5.77,0 -8.65,5 0,-10 8.65,5 z" transform="scale(0.4,0.4)"/></marker><marker id="Arrow1Lend" orient="auto" overflow="visible" refX="0" refY="0"><path id="path4419" fill="#000" fill-opacity="1" fill-rule="evenodd" stroke="#000" stroke-opacity="1" stroke-width="1pt" d="M 0,0 5,-5 -12.5,0 5,5 0,0 Z" transform="matrix(-0.8,0,0,-0.8,-10,0)"/></marker><marker id="Arrow1Mstart" orient="auto" overflow="visible" refX="0" refY="0"><path id="path4422" fill="#000" fill-opacity="1" fill-rule="evenodd" stroke="#000" stroke-opacity="1" stroke-width="1pt" d="M 0,0 5,-5 -12.5,0 5,5 0,0 Z" transform="matrix(0.4,0,0,0.4,4,0)"/></marker><marker id="marker4676" orient="auto" overflow="visible" refX="0" refY="0"><path id="path4678" fill="#000" fill-opacity="1" fill-rule="evenodd" stroke="#000" stroke-linejoin="round" stroke-opacity="1" stroke-width=".625" d="M 8.7185878,4.0337352 -2.2072895,0.01601326 8.7185884,-4.0017078 c -1.7454984,2.3720609 -1.7354408,5.6174519 -6e-7,8.035443 z" transform="matrix(-1.1,0,0,-1.1,-1.1,0)"/></marker><marker id="TriangleInS" orient="auto" overflow="visible" refX="0" refY="0"><path id="path5369" fill-rule="evenodd" stroke="#000" stroke-width="1pt" d="m 5.77,0 -8.65,5 0,-10 8.65,5 z" transform="scale(-0.2,-0.2)"/></marker><marker id="TriangleInM" orient="auto" overflow="visible" refX="0" refY="0"><path id="path5366" fill-rule="evenodd" stroke="#000" stroke-width="1pt" d="m 5.77,0 -8.65,5 0,-10 8.65,5 z" transform="scale(-0.4,-0.4)"/></marker><marker id="TriangleOutM" orient="auto" overflow="visible" refX="0" refY="0"><path id="path4127" fill-rule="evenodd" stroke="#000" stroke-width="1pt" d="m 5.77,0 -8.65,5 0,-10 8.65,5 z" transform="scale(0.4,0.4)"/></marker><marker id="TriangleOutS" orient="auto" overflow="visible" refX="0" refY="0"><path id="path4130" fill-rule="evenodd" stroke="#000" stroke-width="1pt" d="m 5.77,0 -8.65,5 0,-10 8.65,5 z" transform="scale(0.2,0.2)"/></marker><linearGradient id="linearGradient8562" x1="-213.564" x2="253.595" y1="24.514" y2="24.514" gradientTransform="matrix(0,1,-1,0,44.530081,4.498828)" gradientUnits="userSpaceOnUse" xlink:href="#linearGradient3641"/><linearGradient id="linearGradient3641"><stop id="stop3643" offset="0" stop-color="#fff" stop-opacity="1"/><stop id="stop3645" offset="1" stop-color="#fff" stop-opacity="0"/></linearGradient><linearGradient id="linearGradient6791" x1="-213.564" x2="253.595" y1="24.514" y2="24.514" gradientTransform="matrix(0,1,-1,0,44.530081,4.498828)" gradientUnits="userSpaceOnUse" xlink:href="#linearGradient3641"/><linearGradient id="linearGradient10554" x1="-219.851" x2="74.444" y1="137.424" y2="137.424" gradientUnits="userSpaceOnUse" xlink:href="#linearGradient3641-6"/><linearGradient id="linearGradient3641-6"><stop id="stop3643-4" offset="0" stop-color="#fff" stop-opacity="1"/><stop id="stop3645-9" offset="1" stop-color="#fff" stop-opacity="0"/></linearGradient><linearGradient id="linearGradient10556" x1="-219.663" x2="279.881" y1="34.625" y2="34.625" gradientUnits="userSpaceOnUse" xlink:href="#linearGradient3641-6"/><linearGradient id="linearGradient3179" x1="-219.663" x2="279.881" y1="34.625" y2="34.625" gradientUnits="userSpaceOnUse" xlink:href="#linearGradient3641-6"/><linearGradient id="linearGradient3641-6-0"><stop id="stop3643-4-4" offset="0" stop-color="#fff" stop-opacity="1"/><stop id="stop3645-9-8" offset="1" stop-color="#fff" stop-opacity="0"/></linearGradient><linearGradient id="linearGradient3275" x1="-219.851" x2="74.444" y1="137.424" y2="137.424" gradientUnits="userSpaceOnUse" xlink:href="#linearGradient3641-6-0"/><linearGradient id="linearGradient3279" x1="-181.867" x2="2.605" y1="212.954" y2="28.482" gradientUnits="userSpaceOnUse" xlink:href="#linearGradient3641-6-0"/><linearGradient id="linearGradient3285" x1="-181.867" x2="2.605" y1="212.954" y2="28.482" gradientUnits="userSpaceOnUse" xlink:href="#linearGradient3641-6-0"/><linearGradient id="linearGradient5003" x1="-181.867" x2="2.605" y1="212.954" y2="28.482" gradientUnits="userSpaceOnUse" xlink:href="#linearGradient3641-6-0"/><linearGradient id="linearGradient5011" x1="-181.867" x2="2.605" y1="212.954" y2="28.482" gradientUnits="userSpaceOnUse" xlink:href="#linearGradient3641-6-0"/><linearGradient id="linearGradient5017" x1="-181.867" x2="2.605" y1="212.954" y2="28.482" gradientUnits="userSpaceOnUse" xlink:href="#linearGradient3641-6-0"/><linearGradient id="linearGradient5022" x1="-181.867" x2="2.605" y1="212.954" y2="28.482" gradientUnits="userSpaceOnUse" xlink:href="#linearGradient3641-6-0"/><linearGradient id="linearGradient3637"><stop id="stop3639" offset="0" stop-color="#f0f0f0" stop-opacity="1"/><stop id="stop3641" offset="1" stop-color="#aaa" stop-opacity="1"/></linearGradient><linearGradient id="linearGradient3741" x1="-189.496" x2="249.49" y1="34.822" y2="34.822" gradientUnits="userSpaceOnUse" xlink:href="#linearGradient3641"/><linearGradient id="linearGradient3765" x1="48" x2="48" y1="76" y2="20" gradientTransform="matrix(9.9895684,0,0,9.9895684,-1275.6462,-551.44847)" gradientUnits="userSpaceOnUse" xlink:href="#linearGradient4081"/><linearGradient id="linearGradient4081"><stop id="stop4083" offset="0" stop-color="#aaa" stop-opacity="1"/><stop id="stop4085" offset="1" stop-color="#f0f0f0" stop-opacity="1"/></linearGradient><linearGradient id="linearGradient3741-4" x1="-189.496" x2="249.49" y1="34.822" y2="34.822" gradientUnits="userSpaceOnUse" xlink:href="#linearGradient3641-9"/><linearGradient id="linearGradient3641-9"><stop id="stop3643-5" offset="0" stop-color="#fff" stop-opacity="1"/><stop id="stop3645-0" offset="1" stop-color="#fff" stop-opacity="0"/></linearGradient><linearGradient id="linearGradient2947" x1="-189.496" x2="249.49" y1="34.822" y2="34.822" gradientTransform="translate(-31.96339,-249.30259)" gradientUnits="userSpaceOnUse" xlink:href="#linearGradient3641-9"/><linearGradient id="linearGradient3765-7" x1="48" x2="48" y1="76" y2="20" gradientUnits="userSpaceOnUse" xlink:href="#linearGradient4081-7"/><linearGradient id="linearGradient4081-7"><stop id="stop4083-6" offset="0" stop-color="#aaa" stop-opacity="1"/><stop id="stop4085-7" offset="1" stop-color="#f0f0f0" stop-opacity="1"/></linearGradient><linearGradient id="linearGradient4118" x1="329.131" x2="718.76" y1="-232.328" y2="-232.328" gradientUnits="userSpaceOnUse" xlink:href="#linearGradient3641"/><linearGradient id="linearGradient4132" x1="329.131" x2="718.76" y1="-232.328" y2="-232.328" gradientUnits="userSpaceOnUse" xlink:href="#linearGradient3641"/><linearGradient id="linearGradient3772" x1="-253.516" x2="313.506" y1="116.797" y2="116.797" gradientUnits="userSpaceOnUse" xlink:href="#linearGradient3641"/><linearGradient id="linearGradient2966" x1="-253.516" x2="313.506" y1="116.797" y2="116.797" gradientUnits="userSpaceOnUse" xlink:href="#linearGradient3641"/><linearGradient id="linearGradient7757" x1="43.02" x2="956.98" y1="350" y2="350" gradientUnits="userSpaceOnUse" xlink:href="#linearGradient3641-9"/><linearGradient id="linearGradient7879" x1="-253.516" x2="313.506" y1="116.797" y2="116.797" gradientUnits="userSpaceOnUse" xlink:href="#linearGradient3641"/><linearGradient id="linearGradient23533" x1="55.942" x2="943.221" y1="349.586" y2="349.586" gradientUnits="userSpaceOnUse" xlink:href="#linearGradient3641-9"/><linearGradient id="linearGradient9599" x1="189.816" x2="807.9" y1="346.174" y2="346.174" gradientUnits="userSpaceOnUse" xlink:href="#linearGradient3641-9"/><linearGradient id="linearGradient9838" x1="189.816" x2="807.9" y1="346.174" y2="346.174" gradientUnits="userSpaceOnUse" xlink:href="#linearGradient3641-9"/><linearGradient id="linearGradient7300" x1="256.285" x2="788.594" y1="1004.699" y2="1004.699" gradientUnits="userSpaceOnUse" xlink:href="#linearGradient3641-9"/><linearGradient id="linearGradient7302" x1="1162.938" x2="1694.844" y1="1004.705" y2="1004.705" gradientUnits="userSpaceOnUse" xlink:href="#linearGradient3641-9"/><linearGradient id="linearGradient7304" x1="-671.592" x2="-139.25" y1="1004.707" y2="1004.707" gradientUnits="userSpaceOnUse" xlink:href="#linearGradient3641-9"/><linearGradient id="linearGradient7330" x1="-671.592" x2="-139.25" y1="1004.707" y2="1004.707" gradientUnits="userSpaceOnUse" xlink:href="#linearGradient3641-9"/><linearGradient id="linearGradient7332" x1="256.285" x2="788.594" y1="1004.699" y2="1004.699" gradientUnits="userSpaceOnUse" xlink:href="#linearGradient3641-9"/><linearGradient id="linearGradient7334" x1="256.285" x2="788.594" y1="1004.699" y2="1004.699" gradientUnits="userSpaceOnUse" xlink:href="#linearGradient3641-9"/><linearGradient id="linearGradient7336" x1="256.285" x2="788.594" y1="1004.699" y2="1004.699" gradientUnits="userSpaceOnUse" xlink:href="#linearGradient3641-9"/><linearGradient id="linearGradient7338" x1="256.285" x2="788.594" y1="1004.699" y2="1004.699" gradientUnits="userSpaceOnUse" xlink:href="#linearGradient3641-9"/><linearGradient id="linearGradient7340" x1="1162.938" x2="1694.844" y1="1004.705" y2="1004.705" gradientUnits="userSpaceOnUse" xlink:href="#linearGradient3641-9"/><linearGradient id="linearGradient7342" x1="1162.938" x2="1694.844" y1="1004.705" y2="1004.705" gradientUnits="userSpaceOnUse" xlink:href="#linearGradient3641-9"/><linearGradient id="linearGradient7344" x1="1162.938" x2="1694.844" y1="1004.705" y2="1004.705" gradientUnits="userSpaceOnUse" xlink:href="#linearGradient3641-9"/><linearGradient id="linearGradient7346" x1="1162.938" x2="1694.844" y1="1004.705" y2="1004.705" gradientUnits="userSpaceOnUse" xlink:href="#linearGradient3641-9"/></defs><metadata id="metadata7"/><g id="layer2" display="none"><image id="image4367" width="674.668" height="644.308" x="-452.314" y="-134.984" image-rendering="optimizeQuality" preserveAspectRatio="none" transform="translate(464.16179,164.03236)" xlink:href="file:///D:/Jean-Christophe/Developpement/WorkspaceCPP/GestionRT/patch/Cie_chromaticity_diagram_wavelength.png"/></g><path id="path5053" fill="none" fill-rule="evenodd" stroke="#2a7fff" stroke-dasharray="none" stroke-linecap="butt" stroke-linejoin="miter" stroke-miterlimit="4" stroke-opacity="1" stroke-width="50" d="m 760.1733,218.90526 -121.71091,0 c -221.87529,0 -362.5136,140.12632 -482.7059,140.12632 l -115.92979,0" opacity=".7"/><path id="path5055" fill="none" fill-rule="evenodd" stroke="#2a7fff" stroke-dasharray="none" stroke-linecap="butt" stroke-linejoin="miter" stroke-miterlimit="4" stroke-opacity="1" stroke-width="50" d="m 760.1733,144.90526 -121.71091,0 c -228.89012,0 -324.24351,60.12632 -482.7059,60.12632 l -115.92979,0" opacity=".7"/><path id="path5059" fill="none" fill-rule="evenodd" stroke="#2a7fff" stroke-dasharray="none" stroke-linecap="butt" stroke-linejoin="miter" stroke-miterlimit="4" stroke-opacity="1" stroke-width="50" d="m 39.8267,60.96842 720.3466,0" opacity=".7"/><path id="path5083" fill="none" fill-rule="evenodd" stroke="#2a7fff" stroke-dasharray="none" stroke-linecap="butt" stroke-linejoin="miter" stroke-miterlimit="4" stroke-opacity="1" stroke-width="50" d="m 760.1733,298.90526 -121.71091,0 C 384.76259,309.46942 275.5354,499.03158 155.75649,499.03158 l -115.92979,0" opacity=".7"/><path id="path5085" fill="none" fill-rule="evenodd" stroke="#2a7fff" stroke-dasharray="none" stroke-linecap="butt" stroke-linejoin="miter" stroke-miterlimit="4" stroke-opacity="1" stroke-width="50" d="m 760.1733,378.90526 -121.71091,0 c -179.59071,0 -309.85922,260.12632 -482.7059,260.12632 l -115.92979,0" opacity=".7"/></svg>