<svg xmlns="http://www.w3.org/2000/svg" xmlns:svg="http://www.w3.org/2000/svg" xmlns:xlink="http://www.w3.org/1999/xlink" id="svg2" width="1300" height="1000" version="1.1"><defs id="defs4"><linearGradient id="linearGradient8562" x1="-213.564" x2="253.595" y1="24.514" y2="24.514" gradientTransform="matrix(0,1,-1,0,44.530081,4.498828)" gradientUnits="userSpaceOnUse" xlink:href="#linearGradient3641"/><linearGradient id="linearGradient3641"><stop id="stop3643" offset="0" stop-color="#fff" stop-opacity="1"/><stop id="stop3645" offset="1" stop-color="#fff" stop-opacity="0"/></linearGradient><linearGradient id="linearGradient6791" x1="-213.564" x2="253.595" y1="24.514" y2="24.514" gradientTransform="matrix(0,1,-1,0,44.530081,4.498828)" gradientUnits="userSpaceOnUse" xlink:href="#linearGradient3641"/><linearGradient id="linearGradient10554" x1="-219.851" x2="74.444" y1="137.424" y2="137.424" gradientUnits="userSpaceOnUse" xlink:href="#linearGradient3641-6"/><linearGradient id="linearGradient3641-6"><stop id="stop3643-4" offset="0" stop-color="#fff" stop-opacity="1"/><stop id="stop3645-9" offset="1" stop-color="#fff" stop-opacity="0"/></linearGradient><linearGradient id="linearGradient10556" x1="-219.663" x2="279.881" y1="34.625" y2="34.625" gradientUnits="userSpaceOnUse" xlink:href="#linearGradient3641-6"/><linearGradient id="linearGradient3179" x1="-219.663" x2="279.881" y1="34.625" y2="34.625" gradientUnits="userSpaceOnUse" xlink:href="#linearGradient3641-6"/><linearGradient id="linearGradient3641-6-0"><stop id="stop3643-4-4" offset="0" stop-color="#fff" stop-opacity="1"/><stop id="stop3645-9-8" offset="1" stop-color="#fff" stop-opacity="0"/></linearGradient><linearGradient id="linearGradient3275" x1="-219.851" x2="74.444" y1="137.424" y2="137.424" gradientUnits="userSpaceOnUse" xlink:href="#linearGradient3641-6-0"/><linearGradient id="linearGradient3279" x1="-181.867" x2="2.605" y1="212.954" y2="28.482" gradientUnits="userSpaceOnUse" xlink:href="#linearGradient3641-6-0"/><linearGradient id="linearGradient3285" x1="-181.867" x2="2.605" y1="212.954" y2="28.482" gradientUnits="userSpaceOnUse" xlink:href="#linearGradient3641-6-0"/><linearGradient id="linearGradient5003" x1="-181.867" x2="2.605" y1="212.954" y2="28.482" gradientUnits="userSpaceOnUse" xlink:href="#linearGradient3641-6-0"/><linearGradient id="linearGradient5011" x1="-181.867" x2="2.605" y1="212.954" y2="28.482" gradientUnits="userSpaceOnUse" xlink:href="#linearGradient3641-6-0"/><linearGradient id="linearGradient5017" x1="-181.867" x2="2.605" y1="212.954" y2="28.482" gradientUnits="userSpaceOnUse" xlink:href="#linearGradient3641-6-0"/><linearGradient id="linearGradient5022" x1="-181.867" x2="2.605" y1="212.954" y2="28.482" gradientUnits="userSpaceOnUse" xlink:href="#linearGradient3641-6-0"/><linearGradient id="linearGradient3637"><stop id="stop3639" offset="0" stop-color="#f0f0f0" stop-opacity="1"/><stop id="stop3641" offset="1" stop-color="#aaa" stop-opacity="1"/></linearGradient><linearGradient id="linearGradient3048-6" x1="7.861" x2="7.861" y1="-1" y2="12" gradientTransform="matrix(43.081354,0,0,43.081354,-472.17671,-201.92423)" gradientUnits="userSpaceOnUse" xlink:href="#linearGradient3637-4"/><linearGradient id="linearGradient3637-4"><stop id="stop3639-9" offset="0" stop-color="#f0f0f0" stop-opacity="1"/><stop id="stop3641-5" offset="1" stop-color="#aaa" stop-opacity="1"/></linearGradient><linearGradient id="linearGradient3637-8"><stop id="stop3639-7" offset="0" stop-color="#f0f0f0" stop-opacity="1"/><stop id="stop3641-1" offset="1" stop-color="#aaa" stop-opacity="1"/></linearGradient><linearGradient id="linearGradient2944-7" x1="7.861" x2="7.861" y1="-1" y2="12" gradientTransform="matrix(39.148797,0,0,39.148797,-563.17161,-172.16715)" gradientUnits="userSpaceOnUse" xlink:href="#linearGradient3637-4-2"/><linearGradient id="linearGradient3637-4-2"><stop id="stop3639-9-7" offset="0" stop-color="#f0f0f0" stop-opacity="1"/><stop id="stop3641-5-2" offset="1" stop-color="#aaa" stop-opacity="1"/></linearGradient><linearGradient id="linearGradient3028-6" x1="7.861" x2="7.861" y1="-1" y2="12" gradientTransform="matrix(39.148797,0,0,39.148797,-100.38418,-169.37757)" gradientUnits="userSpaceOnUse" xlink:href="#linearGradient3637-4-2-1"/><linearGradient id="linearGradient3637-4-2-1"><stop id="stop3639-9-7-5" offset="0" stop-color="#f0f0f0" stop-opacity="1"/><stop id="stop3641-5-2-9" offset="1" stop-color="#aaa" stop-opacity="1"/></linearGradient><linearGradient id="linearGradient3637-4-0"><stop id="stop3639-9-9" offset="0" stop-color="#f0f0f0" stop-opacity="1"/><stop id="stop3641-5-1" offset="1" stop-color="#aaa" stop-opacity="1"/></linearGradient><linearGradient id="linearGradient3081-7" x1="7.861" x2="7.861" y1="-1" y2="12" gradientTransform="matrix(58.151596,0,0,45.690218,-383.97633,152.58258)" gradientUnits="userSpaceOnUse" xlink:href="#linearGradient3637-7"/><linearGradient id="linearGradient3637-7"><stop id="stop3639-1" offset="0" stop-color="#f0f0f0" stop-opacity="1"/><stop id="stop3641-15" offset="1" stop-color="#aaa" stop-opacity="1"/></linearGradient></defs><metadata id="metadata7"/><g id="layer1" transform="translate(464.16179,464.03236)"><g id="g4082" transform="translate(0,1.552561)"><g id="g4060" transform="matrix(1.5074827,0,0,1.5074827,-9.4212231,-17.89429)"><path id="path4688" fill="#2a7fff" fill-opacity="1" stroke="none" d="M 480.90625 76.34375 C 411.01549 76.34375 368.1875 118.07427 368.1875 189.0625 L 368.1875 356.3125 L 288.96875 356.3125 C 242.81186 356.3125 205.65625 385.4841 205.65625 421.75 L 205.65625 858.21875 C 205.65625 894.48462 242.81186 923.65625 288.96875 923.65625 L 1011.0312 923.65625 C 1057.1883 923.65625 1094.3437 894.48462 1094.3438 858.21875 L 1094.3438 421.75 C 1094.3438 385.4841 1057.1883 356.3125 1011.0312 356.3125 L 931.875 356.3125 L 931.875 189.0625 C 931.875 121.36668 893.40564 76.34375 819.125 76.34375 L 480.90625 76.34375 z M 523.1875 189.0625 L 776.8125 189.0625 C 800.23405 189.0625 819.125 207.92219 819.125 231.34375 L 819.125 356.3125 L 480.90625 356.3125 L 480.90625 231.34375 C 480.90625 207.92219 499.76595 189.0625 523.1875 189.0625 z M 575.34375 516.8125 L 724.65625 516.8125 L 724.65625 763.15625 L 575.34375 763.15625 L 575.34375 516.8125 z" display="inline" opacity=".7" transform="matrix(0.66335753,0,0,0.66335753,-301.65558,-296.97895)"/></g></g></g></svg>