<svg xmlns="http://www.w3.org/2000/svg" xmlns:svg="http://www.w3.org/2000/svg" xmlns:xlink="http://www.w3.org/1999/xlink" id="svg2" width="1000" height="1000" version="1.1"><defs id="defs4"><linearGradient id="linearGradient8562" x1="-213.564" x2="253.595" y1="24.514" y2="24.514" gradientTransform="matrix(0,1,-1,0,44.530081,4.498828)" gradientUnits="userSpaceOnUse" xlink:href="#linearGradient3641"/><linearGradient id="linearGradient3641"><stop id="stop3643" offset="0" stop-color="#fff" stop-opacity="1"/><stop id="stop3645" offset="1" stop-color="#fff" stop-opacity="0"/></linearGradient><linearGradient id="linearGradient6791" x1="-213.564" x2="253.595" y1="24.514" y2="24.514" gradientTransform="matrix(0,1,-1,0,44.530081,4.498828)" gradientUnits="userSpaceOnUse" xlink:href="#linearGradient3641"/><linearGradient id="XMLID_28_" x1="14.563" x2="14.563" y1="33.702" y2="37.025" gradientUnits="userSpaceOnUse"><stop id="stop800" offset="0" stop-color="#828282"/><stop id="stop801" offset="1" stop-color="#A2A2A2"/></linearGradient><linearGradient id="XMLID_27_" x1="8.184" x2="20.943" y1="35.363" y2="35.363" gradientTransform="matrix(8.8494683,0,0,8.8494683,-1407.8456,-559.78976)" gradientUnits="userSpaceOnUse"><stop id="stop793" offset="0" stop-color="#DFDFDF"/><stop id="stop794" offset="1" stop-color="#A2A2A2"/></linearGradient><linearGradient id="XMLID_26_" x1="39.51" x2="39.51" y1="35.482" y2="36.404" gradientTransform="matrix(8.8494683,0,0,8.8494683,-1407.8456,-559.78976)" gradientUnits="userSpaceOnUse"><stop id="stop779" offset="0" stop-color="#FFF"/><stop id="stop780" offset=".091" stop-color="#E8F7D6"/><stop id="stop781" offset=".227" stop-color="#C8ED9E"/><stop id="stop782" offset=".365" stop-color="#ADE46D"/><stop id="stop783" offset=".5" stop-color="#97DC46"/><stop id="stop784" offset=".633" stop-color="#85D627"/><stop id="stop785" offset=".762" stop-color="#79D212"/><stop id="stop786" offset=".886" stop-color="#72D004"/><stop id="stop787" offset="1" stop-color="#6FCF00"/></linearGradient><linearGradient id="XMLID_25_" x1="39.487" x2="39.54" y1="36.679" y2="35.269" gradientTransform="matrix(8.8494683,0,0,8.8494683,-1407.8456,-559.78976)" gradientUnits="userSpaceOnUse"><stop id="stop770" offset=".006" stop-color="#3C3"/><stop id="stop771" offset=".358" stop-color="#1BB433"/><stop id="stop772" offset=".74" stop-color="#07A033"/><stop id="stop773" offset="1" stop-color="#093"/></linearGradient><linearGradient id="XMLID_24_" x1="-323.353" x2="-323.353" y1="37.987" y2="36.076" gradientTransform="matrix(-8.8494683,0,0,6.6371012,-3919.7122,-486.44445)" gradientUnits="userSpaceOnUse"><stop id="stop759" offset=".006" stop-color="#9F6"/><stop id="stop760" offset=".236" stop-color="#68DE56"/><stop id="stop761" offset=".478" stop-color="#3BC147"/><stop id="stop762" offset=".695" stop-color="#1BAB3C"/><stop id="stop763" offset=".877" stop-color="#079E35"/><stop id="stop764" offset="1" stop-color="#093"/></linearGradient><linearGradient id="XMLID_23_" x1="39.51" x2="39.51" y1="37.225" y2="35.381" gradientTransform="matrix(8.8494683,0,0,8.8494683,-1407.8456,-559.78976)" gradientUnits="userSpaceOnUse"><stop id="stop750" offset=".006" stop-color="#B6B6B6"/><stop id="stop751" offset=".367" stop-color="#9D9D9D"/><stop id="stop752" offset=".743" stop-color="#898989"/><stop id="stop753" offset="1" stop-color="#828282"/></linearGradient><linearGradient id="XMLID_22_" x1="39.51" x2="39.51" y1="37.324" y2="35.181" gradientTransform="matrix(8.8494683,0,0,8.8494683,-1407.8456,-559.78976)" gradientUnits="userSpaceOnUse"><stop id="stop743" offset=".006" stop-color="#FFF"/><stop id="stop744" offset="1" stop-color="#B6B6B6"/></linearGradient><linearGradient id="XMLID_21_" x1="24" x2="24" y1="38.25" y2="27.376" gradientTransform="matrix(8.8494683,0,0,8.8494683,-1407.8456,-559.78976)" gradientUnits="userSpaceOnUse"><stop id="stop736" offset="0" stop-color="#FFF"/><stop id="stop737" offset="1" stop-color="#CCC"/></linearGradient><linearGradient id="XMLID_20_" x1="24" x2="24" y1="28.283" y2="38.753" gradientTransform="matrix(8.8494683,0,0,8.8494683,-1407.8456,-559.78976)" gradientUnits="userSpaceOnUse"><stop id="stop729" offset="0" stop-color="#FFF"/><stop id="stop730" offset="1" stop-color="#CCC"/></linearGradient><linearGradient id="XMLID_19_" x1="4.393" x2="43.607" y1="28.4" y2="28.4" gradientTransform="matrix(8.8494683,0,0,8.8494683,-1407.8456,-559.78976)" gradientUnits="userSpaceOnUse"><stop id="stop722" offset="0" stop-color="#FFF"/><stop id="stop723" offset="1" stop-color="#CCC"/></linearGradient><linearGradient id="XMLID_18_" x1="4.393" x2="43.607" y1="28.4" y2="28.4" gradientTransform="matrix(8.8494683,0,0,8.8494683,-1407.8456,-559.78976)" gradientUnits="userSpaceOnUse"><stop id="stop712" offset="0" stop-color="#9A9AB1"/><stop id="stop713" offset=".258" stop-color="#7D7D99"/><stop id="stop714" offset="1" stop-color="#585868"/></linearGradient><linearGradient id="linearGradient821" x1="41.872" x2="5.738" y1="9.407" y2="29.21" gradientTransform="matrix(8.8494683,0,0,8.8494683,-1407.8456,-559.78976)" gradientUnits="userSpaceOnUse" spreadMethod="pad" xlink:href="#XMLID_17_"/><linearGradient id="XMLID_17_" x1="42.798" x2="18.705" y1="3.422" y2="27.514" gradientUnits="userSpaceOnUse"><stop id="stop701" offset="0" stop-color="#FFF"/><stop id="stop702" offset=".071" stop-color="#F5F5F7"/><stop id="stop703" offset=".312" stop-color="#D7D7E1"/><stop id="stop704" offset=".55" stop-color="#C2C2D2"/><stop id="stop705" offset=".782" stop-color="#B5B5C8"/><stop id="stop706" offset="1" stop-color="#B1B1C5"/></linearGradient><linearGradient id="XMLID_16_" x1="24" x2="24" y1="41.438" y2="6.562" gradientTransform="matrix(8.8494683,0,0,8.8494683,-1407.8456,-559.78976)" gradientUnits="userSpaceOnUse"><stop id="stop691" offset="0" stop-color="#CECEDB"/><stop id="stop692" offset=".584" stop-color="#B1B1C5"/><stop id="stop693" offset="1" stop-color="#9A9AB1"/></linearGradient><linearGradient id="XMLID_15_" x1="24" x2="24" y1="39.073" y2="8.931" gradientTransform="matrix(8.8494683,0,0,8.8494683,-1407.8456,-559.78976)" gradientUnits="userSpaceOnUse"><stop id="stop684" offset="0" stop-color="#7D7D99"/><stop id="stop685" offset="1" stop-color="#585868"/></linearGradient><linearGradient id="linearGradient2553" x1="33.431" x2="21.748" y1="31.965" y2="11.781" gradientUnits="userSpaceOnUse" xlink:href="#linearGradient2555"/><linearGradient id="linearGradient2555"><stop id="stop2557" offset="0" stop-color="#fff" stop-opacity="1"/><stop id="stop2561" offset=".5" stop-color="#e6e6e6" stop-opacity="1"/><stop id="stop2563" offset=".75" stop-color="#fff" stop-opacity="1"/><stop id="stop2565" offset=".842" stop-color="#e1e1e1" stop-opacity="1"/><stop id="stop2559" offset="1" stop-color="#fff" stop-opacity="1"/></linearGradient><linearGradient id="linearGradient4260" x1="12.378" x2="44.096" y1="4.433" y2="47.621" gradientTransform="matrix(6.8050778,0,0,6.8050778,-764.16691,-410.89656)" gradientUnits="userSpaceOnUse" xlink:href="#linearGradient4254"/><linearGradient id="linearGradient4254"><stop id="stop4256" offset="0" stop-color="#fff" stop-opacity="1"/><stop id="stop4258" offset="1" stop-color="#fff" stop-opacity="0"/></linearGradient><linearGradient id="linearGradient4272" x1="23.688" x2="23.688" y1="11.319" y2="26.357" gradientTransform="matrix(6.8050777,0,0,6.8050777,-764.16661,-410.8965)" gradientUnits="userSpaceOnUse" xlink:href="#linearGradient4274"/><linearGradient id="linearGradient4274"><stop id="stop4276" offset="0" stop-color="#fff" stop-opacity=".255"/><stop id="stop4278" offset="1" stop-color="#fff" stop-opacity="1"/></linearGradient><linearGradient id="linearGradient4242" x1="12.277" x2="12.222" y1="37.206" y2="33.759" gradientTransform="matrix(6.8050777,0,0,6.8050777,-764.16661,-410.8965)" gradientUnits="userSpaceOnUse" xlink:href="#linearGradient4236"/><linearGradient id="linearGradient4236"><stop id="stop4238" offset="0" stop-color="#eee" stop-opacity="1"/><stop id="stop4240" offset="1" stop-color="#eee" stop-opacity="0"/></linearGradient><linearGradient id="linearGradient4209" x1="7.063" x2="24.688" y1="35.281" y2="35.281" gradientTransform="matrix(6.8050777,0,0,6.8050777,-758.75321,-419.91888)" gradientUnits="userSpaceOnUse" xlink:href="#linearGradient4184"/><linearGradient id="linearGradient4184"><stop id="stop4186" offset="0" stop-color="#838383" stop-opacity="1"/><stop id="stop4188" offset="1" stop-color="#bbb" stop-opacity="0"/></linearGradient><radialGradient id="radialGradient4250" cx="15.571" cy="2.959" r="20.936" fx="15.571" fy="2.959" gradientTransform="matrix(8.7529768,5.3195156,-4.8369267,7.9588923,-780.18841,-444.08399)" gradientUnits="userSpaceOnUse" xlink:href="#linearGradient4244"/><linearGradient id="linearGradient4244"><stop id="stop4246" offset="0" stop-color="#e4e4e4" stop-opacity="1"/><stop id="stop4248" offset="1" stop-color="#d3d3d3" stop-opacity="1"/></linearGradient><linearGradient id="linearGradient4234" x1="7.605" x2="36.183" y1="28.481" y2="40.944" gradientTransform="matrix(6.8050777,0,0,6.8050777,-764.16661,-410.8965)" gradientUnits="userSpaceOnUse" xlink:href="#linearGradient4228"/><linearGradient id="linearGradient4228"><stop id="stop4230" offset="0" stop-color="#bbb" stop-opacity="1"/><stop id="stop4232" offset="1" stop-color="#9f9f9f" stop-opacity="1"/></linearGradient><linearGradient id="linearGradient6715" x1="302.857" x2="302.857" y1="366.648" y2="609.505" gradientTransform="matrix(2.774389,0,0,1.969706,-1892.179,-872.8854)" gradientUnits="userSpaceOnUse" xlink:href="#linearGradient5048"/><linearGradient id="linearGradient5048"><stop id="stop5050" offset="0" stop-color="#000" stop-opacity="0"/><stop id="stop5056" offset=".5" stop-color="#000" stop-opacity="1"/><stop id="stop5052" offset="1" stop-color="#000" stop-opacity="0"/></linearGradient><radialGradient id="radialGradient6717" cx="605.714" cy="486.648" r="117.143" fx="605.714" fy="486.648" gradientTransform="matrix(2.774389,0,0,1.969706,-1891.633,-872.8854)" gradientUnits="userSpaceOnUse" xlink:href="#linearGradient5060"/><linearGradient id="linearGradient5060"><stop id="stop5062" offset="0" stop-color="#000" stop-opacity="1"/><stop id="stop5064" offset="1" stop-color="#000" stop-opacity="0"/></linearGradient><radialGradient id="radialGradient6719" cx="605.714" cy="486.648" r="117.143" fx="605.714" fy="486.648" gradientTransform="matrix(-2.774389,0,0,1.969706,112.7623,-872.8854)" gradientUnits="userSpaceOnUse" xlink:href="#linearGradient5060"/><radialGradient id="radialGradient2970" cx="605.714" cy="486.648" r="117.143" fx="605.714" fy="486.648" gradientTransform="matrix(-2.774389,0,0,1.969706,112.7623,-872.8854)" gradientUnits="userSpaceOnUse" xlink:href="#linearGradient5060"/><linearGradient id="linearGradient4247" x1="21.194" x2="26.805" y1="77.51" y2="98.452" gradientTransform="matrix(3.2487409,0,0,3.3702094,-1047.0655,-523.70436)" gradientUnits="userSpaceOnUse" xlink:href="#linearGradient4241"/><linearGradient id="linearGradient4241"><stop id="stop4243" offset="0" stop-color="#fff" stop-opacity="1"/><stop id="stop4245" offset="1" stop-color="#fff" stop-opacity="0"/></linearGradient><linearGradient id="linearGradient4237" x1="9.5" x2="9.5" y1="35" y2="113.514" gradientTransform="matrix(3.6981214,0,0,3.576394,-1071.0235,-541.08247)" gradientUnits="userSpaceOnUse" xlink:href="#linearGradient4231"/><linearGradient id="linearGradient4231"><stop id="stop4233" offset="0" stop-color="#fff" stop-opacity="1"/><stop id="stop4235" offset="1" stop-color="#fff" stop-opacity=".294"/></linearGradient><linearGradient id="linearGradient10983" x1="42.745" x2="52.664" y1="17.004" y2="70.376" gradientTransform="matrix(4.9379678,0,0,4.806562,-1171.5659,-587.74156)" gradientUnits="userSpaceOnUse" xlink:href="#linearGradient4963"/><linearGradient id="linearGradient4963"><stop id="stop4965" offset="0" stop-color="#fff" stop-opacity=".823"/><stop id="stop4967" offset="1" stop-color="#fff" stop-opacity="0"/></linearGradient><linearGradient id="linearGradient10986" x1="41.842" x2="46.392" y1="70.064" y2="77.228" gradientTransform="matrix(4.702021,0,0,5.0620949,-1150.55,-611.81902)" gradientUnits="userSpaceOnUse" xlink:href="#linearGradient4953"/><linearGradient id="linearGradient4953"><stop id="stop4955" offset="0" stop-color="#c9c9c9" stop-opacity="1"/><stop id="stop4249" offset=".5" stop-color="#f0f0f0" stop-opacity="1"/><stop id="stop4957" offset="1" stop-color="#a8a8a8" stop-opacity="1"/></linearGradient><linearGradient id="linearGradient10991" x1="27.268" x2="67.308" y1="40.856" y2="85.727" gradientTransform="matrix(4.8105848,0,0,4.6960466,-1164.9225,-583.89191)" gradientUnits="userSpaceOnUse" xlink:href="#linearGradient4251"/><linearGradient id="linearGradient4251"><stop id="stop4253" offset="0" stop-color="#efefef" stop-opacity="1"/><stop id="stop4255" offset="1" stop-color="#ccc" stop-opacity="1"/></linearGradient><linearGradient id="linearGradient10963" x1="80.964" x2="106.42" y1="136.132" y2="107.494" gradientTransform="matrix(3.5204142,0,0,3.7704706,-1049.6667,-565.56538)" gradientUnits="userSpaceOnUse" xlink:href="#linearGradient10893"/><linearGradient id="linearGradient10893"><stop id="stop10895" offset="0" stop-color="#000" stop-opacity="1"/><stop id="stop10897" offset="1" stop-color="#000" stop-opacity="0"/></linearGradient><radialGradient id="radialGradient10937" cx="54.978" cy="112.267" r="50.028" fx="54.978" fy="112.267" gradientTransform="matrix(1,0,0,0.272085,0,81.72076)" gradientUnits="userSpaceOnUse" xlink:href="#linearGradient10903"/><linearGradient id="linearGradient10903"><stop id="stop10905" offset="0" stop-color="#000" stop-opacity=".167"/><stop id="stop10907" offset="1" stop-color="#000" stop-opacity="0"/></linearGradient><radialGradient id="radialGradient10935" cx="54.978" cy="112.267" r="50.028" fx="54.978" fy="112.267" gradientTransform="matrix(1,0,0,0.272085,0,81.72076)" gradientUnits="userSpaceOnUse" xlink:href="#linearGradient10903"/><linearGradient id="linearGradient2902"><stop id="stop2904" offset="0" stop-color="#000" stop-opacity=".167"/><stop id="stop2906" offset="1" stop-color="#000" stop-opacity="0"/></linearGradient><radialGradient id="radialGradient2925" cx="54.978" cy="112.267" r="50.028" fx="54.978" fy="112.267" gradientTransform="matrix(1,0,0,0.272085,0,81.72076)" gradientUnits="userSpaceOnUse" xlink:href="#linearGradient10903"/><radialGradient id="radialGradient265798" cx="54.978" cy="112.267" r="50.028" fx="54.978" fy="112.267" gradientTransform="matrix(1,0,0,0.272085,0,81.72076)" gradientUnits="userSpaceOnUse" xlink:href="#linearGradient10903"/><radialGradient id="radialGradient265800" cx="54.978" cy="112.267" r="50.028" fx="54.978" fy="112.267" gradientTransform="matrix(1,0,0,0.272085,0,81.72076)" gradientUnits="userSpaceOnUse" xlink:href="#linearGradient10903"/><linearGradient id="linearGradient265802" x1="80.964" x2="106.42" y1="136.132" y2="107.494" gradientTransform="matrix(3.5204142,0,0,3.7704706,-1049.6667,-565.56538)" gradientUnits="userSpaceOnUse" xlink:href="#linearGradient10893"/><linearGradient id="linearGradient265804" x1="27.268" x2="67.308" y1="40.856" y2="85.727" gradientTransform="matrix(4.8105848,0,0,4.6960466,-1164.9225,-583.89191)" gradientUnits="userSpaceOnUse" xlink:href="#linearGradient4251"/><linearGradient id="linearGradient265806" x1="41.842" x2="46.392" y1="70.064" y2="77.228" gradientTransform="matrix(4.702021,0,0,5.0620949,-1150.55,-611.81902)" gradientUnits="userSpaceOnUse" xlink:href="#linearGradient4953"/><linearGradient id="linearGradient265808" x1="42.745" x2="52.664" y1="17.004" y2="70.376" gradientTransform="matrix(4.9379678,0,0,4.806562,-1171.5659,-587.74156)" gradientUnits="userSpaceOnUse" xlink:href="#linearGradient4963"/><linearGradient id="linearGradient265810" x1="9.5" x2="9.5" y1="35" y2="113.514" gradientTransform="matrix(3.6981214,0,0,3.576394,-1071.0235,-541.08247)" gradientUnits="userSpaceOnUse" xlink:href="#linearGradient4231"/><linearGradient id="linearGradient265812" x1="21.194" x2="26.805" y1="77.51" y2="98.452" gradientTransform="matrix(3.2487409,0,0,3.3702094,-1047.0655,-523.70436)" gradientUnits="userSpaceOnUse" xlink:href="#linearGradient4241"/><radialGradient id="radialGradient3201" cx="9.642" cy="34.542" r="1.034" fx="9.642" fy="34.542" gradientTransform="matrix(0.7806788,0,0,0.7806788,2.2058103,7.7031566)" gradientUnits="userSpaceOnUse" xlink:href="#linearGradient3175"/><linearGradient id="linearGradient3175"><stop id="stop3177" offset="0" stop-color="#fff" stop-opacity="1"/><stop id="stop3179" offset="1" stop-color="#babdb6" stop-opacity="1"/></linearGradient><radialGradient id="radialGradient3199" cx="9.642" cy="34.542" r="1.034" fx="9.642" fy="34.542" gradientTransform="matrix(0.7806788,0,0,0.7806788,2.2058103,7.7031566)" gradientUnits="userSpaceOnUse" xlink:href="#linearGradient3175"/><radialGradient id="radialGradient3185" cx="9.642" cy="34.542" r="1.034" fx="9.642" fy="34.542" gradientTransform="matrix(0.7806788,0,0,0.7806788,2.2058103,7.7031566)" gradientUnits="userSpaceOnUse" xlink:href="#linearGradient3175"/><radialGradient id="radialGradient3181" cx="9.642" cy="34.542" r="1.034" fx="9.642" fy="34.542" gradientTransform="matrix(0.7806788,0,0,0.7806788,2.2058103,7.7031566)" gradientUnits="userSpaceOnUse" xlink:href="#linearGradient3175"/><linearGradient id="linearGradient7124" x1="29.324" x2="22.467" y1="40.02" y2="24.66" gradientTransform="matrix(13.506606,0,0,18.008299,-1450.5392,-635.87961)" gradientUnits="userSpaceOnUse" xlink:href="#linearGradient7115"/><linearGradient id="linearGradient7115"><stop id="stop7117" offset="0" stop-color="#000" stop-opacity=".253"/><stop id="stop7119" offset="1" stop-color="#000" stop-opacity="0"/></linearGradient><linearGradient id="linearGradient7111" x1="10.623" x2="30.094" y1="2.263" y2="35.987" gradientTransform="matrix(11.797509,0,0,11.797509,-1418.9266,-426.75572)" gradientUnits="userSpaceOnUse" xlink:href="#linearGradient7105"/><linearGradient id="linearGradient7105"><stop id="stop7107" offset="0" stop-color="#fff" stop-opacity="1"/><stop id="stop7109" offset="1" stop-color="#fff" stop-opacity=".335"/></linearGradient><linearGradient id="linearGradient7087" x1="32.773" x2="32.773" y1="41.044" y2="39.998" gradientTransform="matrix(11.797509,0,0,11.797509,-1418.9266,-426.75572)" gradientUnits="userSpaceOnUse" xlink:href="#linearGradient7081"/><linearGradient id="linearGradient7081"><stop id="stop7083" offset="0" stop-color="#fcaf3e" stop-opacity="1"/><stop id="stop7085" offset="1" stop-color="#fcaf3e" stop-opacity="0"/></linearGradient><linearGradient id="linearGradient7049" x1="36.533" x2="36.533" y1="40.996" y2="43" gradientTransform="matrix(28.019083,0,0,8.8481318,191.98709,-311.73011)" gradientUnits="userSpaceOnUse" xlink:href="#linearGradient7039"/><linearGradient id="linearGradient7039"><stop id="stop7041" offset="0" stop-color="#24292b" stop-opacity="1"/><stop id="stop7043" offset="1" stop-color="#3f4344" stop-opacity="1"/></linearGradient><linearGradient id="linearGradient7045" x1="36.533" x2="36.533" y1="40.996" y2="43" gradientTransform="matrix(13.272198,0,0,11.797509,-1477.9143,-426.75572)" gradientUnits="userSpaceOnUse" xlink:href="#linearGradient7039"/><linearGradient id="linearGradient7095" x1="13.974" x2="37.88" y1="7.833" y2="35.502" gradientTransform="matrix(11.797509,0,0,11.797509,-1418.9272,-426.75581)" gradientUnits="userSpaceOnUse" xlink:href="#linearGradient7089"/><linearGradient id="linearGradient7089"><stop id="stop7091" offset="0" stop-color="#eeeeec" stop-opacity="1"/><stop id="stop7097" offset=".146" stop-color="#eeeeec" stop-opacity="1"/><stop id="stop7099" offset=".234" stop-color="#fafafa" stop-opacity="1"/><stop id="stop7101" offset=".512" stop-color="#eeeeec" stop-opacity="1"/><stop id="stop7093" offset="1" stop-color="#eeeeec" stop-opacity="1"/></linearGradient><linearGradient id="linearGradient4112" x1="6.517" x2="6.517" y1="37.661" y2="33.901" gradientTransform="matrix(11.797509,0,0,11.797509,-1418.9272,-426.75581)" gradientUnits="userSpaceOnUse" xlink:href="#linearGradient4106"/><linearGradient id="linearGradient4106"><stop id="stop4108" offset="0" stop-color="#2e3436" stop-opacity="1"/><stop id="stop4110" offset="1" stop-color="#babdb6" stop-opacity="1"/></linearGradient><linearGradient id="linearGradient7162" x1="5.076" x2="5.076" y1="47.499" y2="15.226" gradientUnits="userSpaceOnUse" xlink:href="#linearGradient7156"/><linearGradient id="linearGradient7156"><stop id="stop7158" offset="0" stop-color="#000" stop-opacity="1"/><stop id="stop7160" offset="1" stop-color="#000" stop-opacity="0"/></linearGradient><linearGradient id="linearGradient2944" x1="5.076" x2="5.076" y1="47.499" y2="15.226" gradientUnits="userSpaceOnUse" xlink:href="#linearGradient7156"/><linearGradient id="linearGradient2952" x1="5.076" x2="5.076" y1="47.499" y2="15.226" gradientUnits="userSpaceOnUse" xlink:href="#linearGradient7156"/><linearGradient id="linearGradient2960" x1="5.076" x2="5.076" y1="47.499" y2="15.226" gradientUnits="userSpaceOnUse" xlink:href="#linearGradient7156"/><linearGradient id="linearGradient2985" x1="5.076" x2="5.076" y1="47.499" y2="15.226" gradientUnits="userSpaceOnUse" xlink:href="#linearGradient7156"/><linearGradient id="linearGradient2987" x1="5.076" x2="5.076" y1="47.499" y2="15.226" gradientUnits="userSpaceOnUse" xlink:href="#linearGradient7156"/><linearGradient id="linearGradient2989" x1="5.076" x2="5.076" y1="47.499" y2="15.226" gradientUnits="userSpaceOnUse" xlink:href="#linearGradient7156"/><linearGradient id="linearGradient2991" x1="5.076" x2="5.076" y1="47.499" y2="15.226" gradientUnits="userSpaceOnUse" xlink:href="#linearGradient7156"/><linearGradient id="linearGradient266008" x1="5.076" x2="5.076" y1="47.499" y2="15.226" gradientUnits="userSpaceOnUse" xlink:href="#linearGradient7156"/><linearGradient id="linearGradient266010" x1="5.076" x2="5.076" y1="47.499" y2="15.226" gradientUnits="userSpaceOnUse" xlink:href="#linearGradient7156"/><linearGradient id="linearGradient266012" x1="5.076" x2="5.076" y1="47.499" y2="15.226" gradientUnits="userSpaceOnUse" xlink:href="#linearGradient7156"/><linearGradient id="linearGradient266014" x1="5.076" x2="5.076" y1="47.499" y2="15.226" gradientUnits="userSpaceOnUse" xlink:href="#linearGradient7156"/><linearGradient id="linearGradient266016" x1="6.517" x2="6.517" y1="37.661" y2="33.901" gradientTransform="matrix(11.797509,0,0,11.797509,-1418.9272,-426.75581)" gradientUnits="userSpaceOnUse" xlink:href="#linearGradient4106"/><linearGradient id="linearGradient266018" x1="13.974" x2="37.88" y1="7.833" y2="35.502" gradientTransform="matrix(11.797509,0,0,11.797509,-1418.9272,-426.75581)" gradientUnits="userSpaceOnUse" xlink:href="#linearGradient7089"/><linearGradient id="linearGradient266020" x1="36.533" x2="36.533" y1="40.996" y2="43" gradientTransform="matrix(13.272198,0,0,11.797509,-1477.9143,-426.75572)" gradientUnits="userSpaceOnUse" xlink:href="#linearGradient7039"/><linearGradient id="linearGradient266022" x1="36.533" x2="36.533" y1="40.996" y2="43" gradientTransform="matrix(28.019083,0,0,8.8481318,191.98709,-311.73011)" gradientUnits="userSpaceOnUse" xlink:href="#linearGradient7039"/><linearGradient id="linearGradient266024" x1="32.773" x2="32.773" y1="41.044" y2="39.998" gradientTransform="matrix(11.797509,0,0,11.797509,-1418.9266,-426.75572)" gradientUnits="userSpaceOnUse" xlink:href="#linearGradient7081"/><linearGradient id="linearGradient266026" x1="10.623" x2="30.094" y1="2.263" y2="35.987" gradientTransform="matrix(11.797509,0,0,11.797509,-1418.9266,-426.75572)" gradientUnits="userSpaceOnUse" xlink:href="#linearGradient7105"/><linearGradient id="linearGradient266028" x1="29.324" x2="22.467" y1="40.02" y2="24.66" gradientTransform="matrix(13.506606,0,0,18.008299,-1450.5392,-635.87961)" gradientUnits="userSpaceOnUse" xlink:href="#linearGradient7115"/><radialGradient id="radialGradient266030" cx="9.642" cy="34.542" r="1.034" fx="9.642" fy="34.542" gradientTransform="matrix(0.7806788,0,0,0.7806788,2.2058103,7.7031566)" gradientUnits="userSpaceOnUse" xlink:href="#linearGradient3175"/><radialGradient id="radialGradient266032" cx="9.642" cy="34.542" r="1.034" fx="9.642" fy="34.542" gradientTransform="matrix(0.7806788,0,0,0.7806788,2.2058103,7.7031566)" gradientUnits="userSpaceOnUse" xlink:href="#linearGradient3175"/><radialGradient id="radialGradient266034" cx="9.642" cy="34.542" r="1.034" fx="9.642" fy="34.542" gradientTransform="matrix(0.7806788,0,0,0.7806788,2.2058103,7.7031566)" gradientUnits="userSpaceOnUse" xlink:href="#linearGradient3175"/><radialGradient id="radialGradient266036" cx="9.642" cy="34.542" r="1.034" fx="9.642" fy="34.542" gradientTransform="matrix(0.7806788,0,0,0.7806788,2.2058103,7.7031566)" gradientUnits="userSpaceOnUse" xlink:href="#linearGradient3175"/><linearGradient id="linearGradient266064" x1="24" x2="24" y1="39.073" y2="8.931" gradientTransform="matrix(8.8494683,0,0,8.8494683,-1407.8456,-559.78976)" gradientUnits="userSpaceOnUse" xlink:href="#XMLID_15_"/><linearGradient id="linearGradient266066" x1="24" x2="24" y1="41.438" y2="6.562" gradientTransform="matrix(8.8494683,0,0,8.8494683,-1407.8456,-559.78976)" gradientUnits="userSpaceOnUse" xlink:href="#XMLID_16_"/><linearGradient id="linearGradient266068" x1="41.872" x2="5.738" y1="9.407" y2="29.21" gradientTransform="matrix(8.8494683,0,0,8.8494683,-1407.8456,-559.78976)" gradientUnits="userSpaceOnUse" spreadMethod="pad" xlink:href="#XMLID_17_"/><linearGradient id="linearGradient266070" x1="4.393" x2="43.607" y1="28.4" y2="28.4" gradientTransform="matrix(8.8494683,0,0,8.8494683,-1407.8456,-559.78976)" gradientUnits="userSpaceOnUse" xlink:href="#XMLID_18_"/><linearGradient id="linearGradient266072" x1="4.393" x2="43.607" y1="28.4" y2="28.4" gradientTransform="matrix(8.8494683,0,0,8.8494683,-1407.8456,-559.78976)" gradientUnits="userSpaceOnUse" xlink:href="#XMLID_19_"/><linearGradient id="linearGradient266074" x1="24" x2="24" y1="28.283" y2="38.753" gradientTransform="matrix(8.8494683,0,0,8.8494683,-1407.8456,-559.78976)" gradientUnits="userSpaceOnUse" xlink:href="#XMLID_20_"/><linearGradient id="linearGradient266076" x1="24" x2="24" y1="38.25" y2="27.376" gradientTransform="matrix(8.8494683,0,0,8.8494683,-1407.8456,-559.78976)" gradientUnits="userSpaceOnUse" xlink:href="#XMLID_21_"/><linearGradient id="linearGradient266078" x1="39.51" x2="39.51" y1="37.324" y2="35.181" gradientTransform="matrix(8.8494683,0,0,8.8494683,-1407.8456,-559.78976)" gradientUnits="userSpaceOnUse" xlink:href="#XMLID_22_"/><linearGradient id="linearGradient266080" x1="39.51" x2="39.51" y1="37.225" y2="35.381" gradientTransform="matrix(8.8494683,0,0,8.8494683,-1407.8456,-559.78976)" gradientUnits="userSpaceOnUse" xlink:href="#XMLID_23_"/><linearGradient id="linearGradient266082" x1="-323.353" x2="-323.353" y1="37.987" y2="36.076" gradientTransform="matrix(-8.8494683,0,0,6.6371012,-3919.7122,-486.44445)" gradientUnits="userSpaceOnUse" xlink:href="#XMLID_24_"/><linearGradient id="linearGradient266084" x1="39.487" x2="39.54" y1="36.679" y2="35.269" gradientTransform="matrix(8.8494683,0,0,8.8494683,-1407.8456,-559.78976)" gradientUnits="userSpaceOnUse" xlink:href="#XMLID_25_"/><linearGradient id="linearGradient266086" x1="39.51" x2="39.51" y1="35.482" y2="36.404" gradientTransform="matrix(8.8494683,0,0,8.8494683,-1407.8456,-559.78976)" gradientUnits="userSpaceOnUse" xlink:href="#XMLID_26_"/><linearGradient id="linearGradient266088" x1="8.184" x2="20.943" y1="35.363" y2="35.363" gradientTransform="matrix(8.8494683,0,0,8.8494683,-1407.8456,-559.78976)" gradientUnits="userSpaceOnUse" xlink:href="#XMLID_27_"/><linearGradient id="linearGradient266090" x1="14.563" x2="14.563" y1="33.702" y2="37.025" gradientUnits="userSpaceOnUse" xlink:href="#XMLID_28_"/><linearGradient id="linearGradient3241" x1="-1.887" x2="323.882" y1="-163.788" y2="-163.788" gradientTransform="translate(-294.13778,123.54099)" gradientUnits="userSpaceOnUse" xlink:href="#linearGradient3641"/><linearGradient id="linearGradient3244" x1="21.194" x2="26.805" y1="77.51" y2="98.452" gradientTransform="matrix(0,3.2487409,-3.3702094,0,272.12366,-126.05186)" gradientUnits="userSpaceOnUse" xlink:href="#linearGradient4241"/><linearGradient id="linearGradient3247" x1="9.5" x2="9.5" y1="35" y2="113.514" gradientTransform="matrix(0,3.6981214,-3.576394,0,289.50177,-150.00986)" gradientUnits="userSpaceOnUse" xlink:href="#linearGradient4231"/><linearGradient id="linearGradient3257" x1="42.745" x2="52.664" y1="17.004" y2="70.376" gradientTransform="matrix(0,4.9379678,-4.806562,0,679.62516,-253.91956)" gradientUnits="userSpaceOnUse" xlink:href="#linearGradient4963"/><linearGradient id="linearGradient3260" x1="41.842" x2="46.392" y1="70.064" y2="77.228" gradientTransform="matrix(0,4.702021,-5.0620949,0,360.23832,-229.53636)" gradientUnits="userSpaceOnUse" xlink:href="#linearGradient4953"/><linearGradient id="linearGradient3265" x1="27.268" x2="67.308" y1="40.856" y2="85.727" gradientTransform="matrix(0,4.8105848,-4.6960466,0,332.31121,-243.90886)" gradientUnits="userSpaceOnUse" xlink:href="#linearGradient4251"/><linearGradient id="linearGradient3268" x1="80.964" x2="106.42" y1="136.132" y2="107.494" gradientTransform="matrix(0,3.5204142,-3.7704706,0,313.98468,-128.65306)" gradientUnits="userSpaceOnUse" xlink:href="#linearGradient10893"/><linearGradient id="linearGradient3283" x1="27.268" x2="67.308" y1="40.856" y2="85.727" gradientTransform="matrix(0,4.8105848,-4.6960466,0,332.31121,-243.90886)" gradientUnits="userSpaceOnUse" xlink:href="#linearGradient4251"/><linearGradient id="linearGradient4166" x1="-245.531" x2="304.719" y1="-15.663" y2="-15.663" gradientUnits="userSpaceOnUse" xlink:href="#linearGradient3641"/><linearGradient id="linearGradient4185" x1="-245.531" x2="304.719" y1="-15.663" y2="-15.663" gradientUnits="userSpaceOnUse" xlink:href="#linearGradient3641"/><linearGradient id="linearGradient4189" x1="-245.531" x2="304.719" y1="-15.663" y2="-15.663" gradientTransform="translate(0,-6.6335755)" gradientUnits="userSpaceOnUse" xlink:href="#linearGradient3641"/><linearGradient id="linearGradient4189-9" x1="-245.531" x2="304.719" y1="-15.663" y2="-15.663" gradientTransform="translate(-364.9223,-664.721)" gradientUnits="userSpaceOnUse" xlink:href="#linearGradient3641-2"/><linearGradient id="linearGradient3641-2"><stop id="stop3643-6" offset="0" stop-color="#fff" stop-opacity="1"/><stop id="stop3645-6" offset="1" stop-color="#fff" stop-opacity="0"/></linearGradient><filter id="filter4179-4" color-interpolation-filters="sRGB"><feGaussianBlur id="feGaussianBlur4181-9" stdDeviation="7.421"/></filter><linearGradient id="linearGradient6959" x1="-203.313" x2="263.344" y1="30.719" y2="30.719" gradientUnits="userSpaceOnUse" xlink:href="#linearGradient3641-5"/><linearGradient id="linearGradient3641-5"><stop id="stop3643-9" offset="0" stop-color="#fff" stop-opacity="1"/><stop id="stop3645-4" offset="1" stop-color="#fff" stop-opacity="0"/></linearGradient><linearGradient id="linearGradient4062" x1="-203.313" x2="263.344" y1="30.719" y2="30.719" gradientUnits="userSpaceOnUse" xlink:href="#linearGradient3641-5"/><linearGradient id="linearGradient4096" x1="-164.142" x2="263.344" y1="30.719" y2="30.719" gradientUnits="userSpaceOnUse" xlink:href="#linearGradient3641-5"/><linearGradient id="linearGradient4096-7" x1="-164.142" x2="263.344" y1="30.719" y2="30.719" gradientUnits="userSpaceOnUse" xlink:href="#linearGradient3641-5-1"/><linearGradient id="linearGradient3641-5-1"><stop id="stop3643-9-1" offset="0" stop-color="#fff" stop-opacity="1"/><stop id="stop3645-4-5" offset="1" stop-color="#fff" stop-opacity="0"/></linearGradient><linearGradient id="linearGradient4978" x1="1043.141" x2="1043.141" y1="403.902" y2="16.355" gradientUnits="userSpaceOnUse" xlink:href="#linearGradient3641"/><linearGradient id="linearGradient4993" x1="1043.141" x2="1043.141" y1="403.902" y2="16.355" gradientUnits="userSpaceOnUse" xlink:href="#linearGradient3641"/><linearGradient id="linearGradient4993-0" x1="1043.141" x2="1043.141" y1="403.902" y2="16.355" gradientUnits="userSpaceOnUse" xlink:href="#linearGradient3641-8"/><linearGradient id="linearGradient3641-8"><stop id="stop3643-3" offset="0" stop-color="#fff" stop-opacity="1"/><stop id="stop3645-8" offset="1" stop-color="#fff" stop-opacity="0"/></linearGradient><linearGradient id="linearGradient5017" x1="1043.141" x2="1043.141" y1="403.902" y2="16.355" gradientUnits="userSpaceOnUse" xlink:href="#linearGradient3641-8"/><linearGradient id="linearGradient4189-6" x1="-245.531" x2="304.719" y1="-15.663" y2="-15.663" gradientTransform="translate(0,-6.6335755)" gradientUnits="userSpaceOnUse" xlink:href="#linearGradient3641-9"/><linearGradient id="linearGradient3641-9"><stop id="stop3643-2" offset="0" stop-color="#fff" stop-opacity="1"/><stop id="stop3645-9" offset="1" stop-color="#fff" stop-opacity="0"/></linearGradient><linearGradient id="linearGradient5156" x1="-245.531" x2="304.719" y1="-15.663" y2="-15.663" gradientTransform="translate(-832.77347,-165.15093)" gradientUnits="userSpaceOnUse" xlink:href="#linearGradient3641-9"/><linearGradient id="linearGradient4671" x1="-245.531" x2="304.719" y1="-15.663" y2="-15.663" gradientTransform="translate(0,-6.6335755)" gradientUnits="userSpaceOnUse" xlink:href="#linearGradient3641"/><linearGradient id="linearGradient4673" x1="1043.141" x2="1043.141" y1="403.902" y2="16.355" gradientUnits="userSpaceOnUse" xlink:href="#linearGradient3641"/><linearGradient id="linearGradient4189-9-7" x1="-245.531" x2="304.719" y1="-15.663" y2="-15.663" gradientTransform="translate(-364.9223,-664.721)" gradientUnits="userSpaceOnUse" xlink:href="#linearGradient3641-2-2"/><linearGradient id="linearGradient3641-2-2"><stop id="stop3643-6-2" offset="0" stop-color="#fff" stop-opacity="1"/><stop id="stop3645-6-9" offset="1" stop-color="#fff" stop-opacity="0"/></linearGradient><linearGradient id="linearGradient4704" x1="-245.531" x2="304.719" y1="-15.663" y2="-15.663" gradientTransform="translate(-364.9223,-664.721)" gradientUnits="userSpaceOnUse" xlink:href="#linearGradient3641-2-2"/><linearGradient id="linearGradient4762" x1="-245.531" x2="304.719" y1="-15.663" y2="-15.663" gradientTransform="translate(755.9582,-6.6335755)" gradientUnits="userSpaceOnUse" xlink:href="#linearGradient3641"/><linearGradient id="linearGradient4673-7" x1="1043.141" x2="1043.141" y1="403.902" y2="16.355" gradientUnits="userSpaceOnUse" xlink:href="#linearGradient3641-6"/><linearGradient id="linearGradient3641-6"><stop id="stop3643-8" offset="0" stop-color="#fff" stop-opacity="1"/><stop id="stop3645-1" offset="1" stop-color="#fff" stop-opacity="0"/></linearGradient><linearGradient id="linearGradient4787" x1="1043.141" x2="1043.141" y1="403.902" y2="16.355" gradientUnits="userSpaceOnUse" xlink:href="#linearGradient3641-6"/><linearGradient id="linearGradient4869" x1="-245.531" x2="304.719" y1="-15.663" y2="-15.663" gradientTransform="matrix(1.5074827,0,0,1.5074827,455.38794,438.021)" gradientUnits="userSpaceOnUse" xlink:href="#linearGradient3641-2-2"/><linearGradient id="linearGradient4787-8" x1="1043.141" x2="1043.141" y1="403.902" y2="16.355" gradientUnits="userSpaceOnUse" xlink:href="#linearGradient3641-6-9"/><linearGradient id="linearGradient3641-6-9"><stop id="stop3643-8-2" offset="0" stop-color="#fff" stop-opacity="1"/><stop id="stop3645-1-6" offset="1" stop-color="#fff" stop-opacity="0"/></linearGradient><linearGradient id="linearGradient4869-9" x1="-245.531" x2="304.719" y1="-15.663" y2="-15.663" gradientTransform="matrix(1.5074827,0,0,1.5074827,400.76294,328.23975)" gradientUnits="userSpaceOnUse" xlink:href="#linearGradient3641-2-2-5"/><linearGradient id="linearGradient3641-2-2-5"><stop id="stop3643-6-2-0" offset="0" stop-color="#fff" stop-opacity="1"/><stop id="stop3645-6-9-4" offset="1" stop-color="#fff" stop-opacity="0"/></linearGradient><linearGradient id="linearGradient3816" x1="105.558" x2="24.668" y1="62.971" y2="62.971" gradientTransform="matrix(0,0.6766374,-0.847943,0,101.39586,-4.6916286)" gradientUnits="userSpaceOnUse" xlink:href="#linearGradient3767"/><linearGradient id="linearGradient3767"><stop id="stop3769" offset="0" stop-color="#4d4d4d" stop-opacity=".707"/><stop id="stop3771" offset="1" stop-color="#4d4d4d" stop-opacity=".252"/></linearGradient><clipPath id="clipPath3520"><path id="path3522" fill="#fff" fill-opacity="1" fill-rule="nonzero" stroke="none" d="m 9.9375,33.6875 c -3.2232728,0 -5.84375,1.784 -5.84375,4 l 0,67.71875 c 0,2.216 2.6204767,4 5.84375,4 l 77.625,0 c 3.223273,0 5.843753,-1.784 5.84375,-4 l 0,-67.71875 c 0,-2.216 -2.62048,-4 -5.84375,-4 l -77.625,0 z M 47.90625,42 c 3.431866,0 6.21875,2.198129 6.21875,4.9375 0,2.181733 -1.764187,4.054067 -4.21875,4.71875 l 0,3.5625 c 0.01488,0.497551 0.298693,1.06729 0.6875,1.46875 0.09978,0.07533 8.192442,6.200116 8.21875,6.21875 0.0084,0.0065 0.02327,-0.0068 0.03125,0 0.02396,0.01835 0.04599,0.04881 0.0625,0.0625 0.0042,0.0036 0.02447,-0.006 0.03125,0 0.0068,0.006 0.03104,0.06226 0.03125,0.0625 2.6e-5,2.9e-5 0.06248,0.06248 0.0625,0.0625 0,0 10e-7,0.03125 0,0.03125 0.01173,0.01044 0.01956,0.02072 0.03125,0.03125 1.096118,0.988597 2.000001,2.355113 2,3.8125 l 0,4.09375 C 62.785851,71.690189 64,73.086119 64,74.71875 c 0,2.220106 -2.20417,4.031251 -4.9375,4.03125 -2.733338,0 -4.96875,-1.811144 -4.96875,-4.03125 0,-1.655395 1.236126,-3.071778 3,-3.6875 -2.35e-4,-1.047382 -10e-7,-2.379418 0,-4.09375 -0.01444,-0.497879 -0.297358,-1.034548 -0.6875,-1.4375 l -6.5,-4.9375 0,28.125 4.46875,0 L 48,98 l -6.375,-9.3125 4.3125,0 0,-21.96875 -6.53125,4.9375 c -0.394904,0.406057 -0.673191,0.908993 -0.6875,1.40625 0,2.101393 0,2.980142 0,3.8125 l 2.8125,0 0,7.90625 -9.53125,0 0,-7.90625 2.78125,0 0,-3.75 c 0,-1.44207 0.88924,-2.794493 1.96875,-3.78125 0,0 0.0213,-0.01152 0.03125,-0.03125 0.0043,-0.0039 -0.0044,-0.02734 0,-0.03125 0,0 0.03125,-0.03125 0.03125,-0.03125 1.5e-5,-2.1e-5 0.03122,-0.03122 0.03125,-0.03125 2.03e-4,-2.43e-4 0.05499,-0.08694 0.0625,-0.09375 0.0047,-0.004 -0.0046,-0.02742 0,-0.03125 0.01531,-0.01278 0.07133,-0.01367 0.09375,-0.03125 0.0079,-0.01061 0.02312,-0.02513 0.03125,-0.03125 0.01626,-0.01224 0.03151,-0.0079 0.0625,-0.03125 0.06197,-0.04673 0.166883,-0.13246 0.28125,-0.21875 0.228732,-0.172571 0.516577,-0.424672 0.90625,-0.71875 0.779348,-0.588157 1.839188,-1.343188 2.875,-2.125 2.046308,-1.544518 4.044131,-3.087545 4.09375,-3.125 0.392715,-0.403164 0.671626,-0.909306 0.6875,-1.40625 l 0,-6.15625 c -0.003,-0.04389 -4.59e-4,-0.02213 0,-0.03125 4.59e-4,-0.0091 -10e-7,-0.03827 0,-0.03125 l 0,-3.53125 C 43.481518,50.991635 41.687502,49.119667 41.6875,46.9375 41.6875,44.198126 44.473344,42 47.90625,42 z"/></clipPath><filter id="filter3536" width="1.483" height="1.287" x="-.242" y="-.143" color-interpolation-filters="sRGB"><feGaussianBlur id="feGaussianBlur3538" stdDeviation="3.525"/></filter><linearGradient id="linearGradient4032" x1="-245.531" x2="304.719" y1="-15.663" y2="-15.663" gradientTransform="matrix(1.5074827,0,0,1.5074827,455.38794,438.021)" gradientUnits="userSpaceOnUse" xlink:href="#linearGradient3641-2"/></defs><metadata id="metadata7"/><g id="layer1" transform="translate(464.16179,464.03236)"><g id="g4082" transform="translate(0,1.552561)"><g id="g4060" transform="matrix(1.5074827,0,0,1.5074827,-9.4212231,-17.89429)"><path id="path1306-7-5" fill="#2a7fff" fill-opacity="1" fill-rule="evenodd" stroke="none" d="M 188.53125 109.78125 L 188.1875 111.25 L 188 112.125 C 144.20831 310.37812 96.556445 508.29777 54.625 707.03125 C 62.272535 768.31983 69.913985 829.61781 77.5625 890.90625 L 919.78125 890.90625 C 926.591 826.20634 941.95181 762.21984 945.375 697.1875 C 886.5531 501.37777 827.17135 305.72944 768.8125 109.78125 L 188.53125 109.78125 z M 499.25 151.875 C 529.213 151.875 553.56258 171.17675 553.5625 195.09375 C 553.5625 214.14208 537.99283 230.44678 516.5625 236.25 L 516.5625 267.34375 C 516.69241 271.68777 519.16788 276.49492 522.5625 280 C 523.43367 280.65768 594.14527 334.18097 594.375 334.34375 C 594.44786 334.40048 594.5238 334.47186 594.59375 334.53125 C 594.80294 334.69133 595.07463 334.75546 595.21875 334.875 C 595.25463 334.90485 595.18212 335.03084 595.21875 335.0625 C 595.25529 335.09386 595.37811 335.01004 595.4375 335.0625 C 595.4968 335.11523 595.87349 335.56099 595.875 335.5625 C 595.87526 335.56274 596.31235 336.09358 596.3125 336.09375 L 596.3125 336.28125 C 596.4149 336.37241 596.39794 336.53289 596.5 336.625 C 606.07003 345.25626 614.03125 357.21332 614.03125 369.9375 L 614.03125 405.53125 C 629.07751 411.01148 639.6875 423.24579 639.6875 437.5 C 639.6875 456.88335 620.36427 472.75 596.5 472.75 C 572.63572 472.75 553.125 456.88335 553.125 437.5 C 553.125 423.04704 564.00621 410.75073 579.40625 405.375 C 579.40474 396.23049 579.40625 384.56127 579.40625 369.59375 C 579.28018 365.24685 576.84375 360.4556 573.4375 356.9375 L 516.5625 314.03125 L 516.5625 559.53125 L 555.59375 559.53125 L 500 640.8125 L 444.4375 559.53125 L 481.9375 559.53125 L 481.9375 367.6875 L 425.0625 410.75 C 421.61468 414.29521 419.21872 418.72103 419.09375 423.0625 L 419.09375 456.25 L 443.40625 456.25 L 443.40625 525.53125 L 360.3125 525.53125 L 360.3125 456.25 L 384.46875 456.25 L 384.46875 423.59375 C 384.46875 411.0033 392.35624 399.24022 401.78125 390.625 C 401.78125 390.625 401.91362 390.42235 402 390.25 C 402.03754 390.21575 401.96156 390.12782 402 390.09375 L 402.21875 389.90625 L 402.21875 389.75 C 402.21893 389.74982 402.62477 389.40651 402.625 389.40625 C 402.62684 389.40405 402.99708 388.74689 403.0625 388.6875 C 403.12805 388.62811 403.2401 388.72232 403.28125 388.6875 C 403.3224 388.6525 403.24115 388.56441 403.28125 388.53125 C 403.4149 388.41976 403.71052 388.34095 403.90625 388.1875 C 403.97511 388.09494 404.0543 387.89696 404.125 387.84375 C 404.26696 387.73687 404.51078 387.70395 404.78125 387.5 C 405.3223 387.09203 406.12649 386.50338 407.125 385.75 C 409.12202 384.2433 411.84784 382.06753 415.25 379.5 C 422.05435 374.36488 431.20652 367.57588 440.25 360.75 C 458.11595 347.26512 475.50428 333.9833 475.9375 333.65625 C 479.36625 330.13628 481.79881 325.68245 481.9375 321.34375 L 481.9375 267.6875 C 481.91127 267.3044 481.93298 267.42319 481.9375 267.34375 C 481.94202 267.2642 481.9375 266.9388 481.9375 267 L 481.9375 236.25 C 460.49474 230.44735 444.96877 214.14586 444.96875 195.09375 C 444.96875 171.17677 469.27789 151.875 499.25 151.875 z" opacity=".7" transform="matrix(0.66335753,0,0,0.66335753,-301.65558,-296.97895)"/><path id="path2761-0" fill="#000" fill-opacity=".412" fill-rule="evenodd" stroke="none" d="m 311.20967,175.50697 -561.51407,-0.22275 13.21811,103.43677 532.22635,0 16.06961,-103.22739 z"/><path id="path4975-4" fill="#5f5f5f" fill-opacity="1" fill-rule="evenodd" stroke="none" d="m 281.65641,234.20542 -21.25182,-29.35479 -35.41977,0 -4.87034,0 -35.41977,0 -21.25182,29.35479 0,29.75129 56.67159,0 4.87034,0 56.67159,0 0,-29.75129 z"/><path id="path6437-8" fill="#000" fill-opacity=".696" fill-rule="evenodd" stroke="none" d="m 237.3264,234.24997 0,-29.24564 -55.1602,-0.22275 -18.72331,29.55303 73.88351,-0.22275 z"/><rect id="rect7170-7" width="59.107" height="325.087" x="204.85" y="-104.336" fill="#000" fill-opacity=".38" fill-rule="evenodd" stroke="none" stroke-width=".273" color="#000" display="inline" overflow="visible" rx="5.827" ry="5.185" transform="matrix(0,1,-1,0,0,0)" visibility="visible" style="marker:none"/><path id="path9405-1" fill="#000" fill-opacity=".388" fill-rule="evenodd" stroke="none" d="m 83.28235,232.96913 19.56577,30.98758 1.48802,-3.86927 -0.20049,-49.87507 c 0.0445,-1.31427 -0.59699,-4.2101 -3.36473,-5.11671 l -17.49525,-0.24503 0,28.1185 z"/><path id="path9409-7" fill="#000" fill-opacity=".388" fill-rule="evenodd" stroke="none" d="m -205.97439,233.36563 -13.49011,30.59108 -1.22516,-2.63298 -0.0668,-51.13587 c 0.22497,-1.38109 1.06254,-4.57094 4.90174,-5.33723 l 9.875,0 0,28.515 z"/><path id="path9411-2" fill="#3b3b3b" fill-opacity="1" fill-rule="evenodd" stroke="none" d="m 237.3264,233.89134 44.33001,30.40174 0,-30.53763 -19.51879,-28.90482 -24.47353,0.22275 -0.33858,28.92711 z"/><rect id="rect9415-7" width="29.553" height="290.189" x="204.85" y="-84.214" fill="#1d1d1d" fill-opacity="1" fill-rule="evenodd" stroke="none" stroke-width=".5" color="#000" display="inline" overflow="visible" transform="matrix(0,1,-1,0,0,0)" visibility="visible" style="marker:none"/><path id="path1306-7-7-2" fill="url(#linearGradient4032)" fill-opacity="1" fill-rule="evenodd" stroke="none" d="M 217.34375 135.96875 L 214.8125 147.21875 C 174.03214 328.79118 131.43882 509.99656 92.6875 691.9375 C 364.01895 691.99403 635.35605 692.81785 906.6875 692.875 C 851.32313 507.3962 797.10696 321.58858 742.21875 135.96875 L 217.34375 135.96875 z M 499.25 151.875 C 529.21299 151.875 553.56258 171.17675 553.5625 195.09375 C 553.5625 214.14208 537.99284 230.44678 516.5625 236.25 L 516.5625 267.34375 C 516.69242 271.68777 519.16787 276.49492 522.5625 280 C 523.43367 280.65768 594.14527 334.18096 594.375 334.34375 C 594.44786 334.40042 594.5238 334.47186 594.59375 334.53125 C 594.80294 334.69133 595.07463 334.75544 595.21875 334.875 C 595.25463 334.90479 595.18212 335.03095 595.21875 335.0625 C 595.25529 335.09386 595.37811 335.01011 595.4375 335.0625 C 595.4968 335.11523 595.87349 335.56054 595.875 335.5625 C 595.87526 335.56275 596.31235 336.09358 596.3125 336.09375 L 596.3125 336.28125 C 596.4149 336.3724 596.39794 336.53289 596.5 336.625 C 606.07003 345.25627 614.03125 357.21332 614.03125 369.9375 L 614.03125 405.53125 C 629.07751 411.01149 639.6875 423.24579 639.6875 437.5 C 639.6875 456.88335 620.36426 472.75 596.5 472.75 C 572.63572 472.75 553.125 456.88335 553.125 437.5 C 553.125 423.04704 564.0062 410.75074 579.40625 405.375 C 579.40429 396.23049 579.40625 384.56128 579.40625 369.59375 C 579.28018 365.24685 576.84375 360.4556 573.4375 356.9375 L 516.5625 314.03125 L 516.5625 559.53125 L 555.59375 559.53125 L 500 640.8125 L 444.4375 559.53125 L 481.9375 559.53125 L 481.9375 367.6875 L 425.0625 410.75 C 421.61467 414.29521 419.21877 418.72103 419.09375 423.0625 L 419.09375 456.25 L 443.40625 456.25 L 443.40625 525.53125 L 360.3125 525.53125 L 360.3125 456.25 L 384.46875 456.25 L 384.46875 423.59375 C 384.46875 411.0033 392.35624 399.24022 401.78125 390.625 C 401.78125 390.625 401.91355 390.42233 402 390.25 C 402.03758 390.21573 401.96163 390.12782 402 390.09375 L 402.21875 389.90625 L 402.21875 389.75 C 402.21892 389.74982 402.62477 389.4065 402.625 389.40625 C 402.62683 389.40405 402.99708 388.74689 403.0625 388.6875 C 403.12805 388.62811 403.24016 388.72235 403.28125 388.6875 C 403.32234 388.65245 403.24114 388.56435 403.28125 388.53125 C 403.41491 388.41977 403.71051 388.34094 403.90625 388.1875 C 403.9751 388.09495 404.05431 387.89692 404.125 387.84375 C 404.26696 387.73688 404.51078 387.70396 404.78125 387.5 C 405.3223 387.09203 406.12648 386.50338 407.125 385.75 C 409.12202 384.24331 411.84784 382.06752 415.25 379.5 C 422.05436 374.36489 431.20652 367.57588 440.25 360.75 C 458.11595 347.26511 475.50427 333.98329 475.9375 333.65625 C 479.36622 330.13628 481.79886 325.68245 481.9375 321.34375 L 481.9375 267.6875 C 481.91121 267.3044 481.93358 267.42319 481.9375 267.34375 C 481.94142 267.2642 481.9375 266.9388 481.9375 267 L 481.9375 236.25 C 460.49476 230.44735 444.96877 214.14586 444.96875 195.09375 C 444.96875 171.17677 469.27789 151.875 499.25 151.875 z" filter="url(#filter4179-4)" opacity=".4" transform="matrix(0.66335753,0,0,0.66335753,-301.65558,-296.97895)"/></g></g></g></svg>