<svg xmlns="http://www.w3.org/2000/svg" xmlns:svg="http://www.w3.org/2000/svg" xmlns:xlink="http://www.w3.org/1999/xlink" id="svg2" width="1000" height="1000" version="1.1"><defs id="defs4"><linearGradient id="linearGradient8562" x1="-213.564" x2="253.595" y1="24.514" y2="24.514" gradientTransform="matrix(0,1,-1,0,44.530081,4.498828)" gradientUnits="userSpaceOnUse" xlink:href="#linearGradient3641"/><linearGradient id="linearGradient3641"><stop id="stop3643" offset="0" stop-color="#fff" stop-opacity="1"/><stop id="stop3645" offset="1" stop-color="#fff" stop-opacity="0"/></linearGradient><linearGradient id="linearGradient6791" x1="-213.564" x2="253.595" y1="24.514" y2="24.514" gradientTransform="matrix(0,1,-1,0,44.530081,4.498828)" gradientUnits="userSpaceOnUse" xlink:href="#linearGradient3641"/><linearGradient id="linearGradient7354" x1="-1.887" x2="323.882" y1="-163.788" y2="-163.788" gradientTransform="translate(-294.13778,123.54099)" gradientUnits="userSpaceOnUse" xlink:href="#linearGradient3641"/><linearGradient id="linearGradient3995"><stop id="stop3997" offset="0" stop-color="#2a7fff" stop-opacity="1"/><stop id="stop3999" offset="1" stop-color="#2a7fff" stop-opacity=".634"/></linearGradient><linearGradient id="XMLID_4_" x1="21.869" x2="21.869" y1="25.188" y2="44.625" gradientUnits="userSpaceOnUse"><stop id="stop649" offset="0" stop-color="#DFDFDF"/><stop id="stop650" offset="1" stop-color="#7D7D99"/></linearGradient><linearGradient id="XMLID_5_" x1="-158.034" x2="-158.034" y1="288.068" y2="231.322" gradientTransform="matrix(0.1875,0,0,-0.1875,51.5,83.75)" gradientUnits="userSpaceOnUse"><stop id="stop656" offset="0" stop-color="#F0F0F0"/><stop id="stop657" offset=".635" stop-color="#CECEDB"/><stop id="stop658" offset=".86" stop-color="#B1B1C5"/><stop id="stop659" offset="1" stop-color="#FFF"/></linearGradient><linearGradient id="linearGradient2912" x1="21.869" x2="21.869" y1="25.188" y2="44.625" gradientTransform="matrix(13.808975,0,0,13.808975,-277.20543,-305.93308)" gradientUnits="userSpaceOnUse" xlink:href="#linearGradient3641"/><linearGradient id="linearGradient2915" x1="-86.234" x2="217.66" y1="162.563" y2="162.563" gradientTransform="translate(-40.936878,2.8805725)" gradientUnits="userSpaceOnUse" xlink:href="#linearGradient3995"/><linearGradient id="linearGradient2915-6" x1="-86.234" x2="217.66" y1="162.563" y2="162.563" gradientTransform="translate(-40.936878,2.8805725)" gradientUnits="userSpaceOnUse" xlink:href="#linearGradient3995-4"/><linearGradient id="linearGradient3995-4"><stop id="stop3997-9" offset="0" stop-color="#2a7fff" stop-opacity="1"/><stop id="stop3999-5" offset="1" stop-color="#2a7fff" stop-opacity=".634"/></linearGradient></defs><metadata id="metadata7"/><g id="layer1" transform="translate(464.16179,464.03236)"><g id="g4082" transform="translate(0,1.552561)"><g id="g4060" transform="matrix(1.5074827,0,0,1.5074827,-9.4212231,-17.89429)"><path id="path65" fill="none" stroke="none" d="M 285.9518,334.44589 H -307.77923 V -259.28514 H 285.9518 v 593.73103 z"/><path id="path594" fill="#2a7fff" d="m -172.73147,-232.57197 0,0.0207 c -28.26697,0 -51.2651,23.36474 -51.2651,52.11503 l 0,416.58853 c 0,28.75028 23.01194,52.11502 51.2651,52.11502 l 405.99554,0 c 28.26697,0 51.24437,-23.36474 51.24437,-52.11502 l 0,-416.58853 c 0,-28.75029 -22.9774,-52.13576 -51.24437,-52.13576 l -405.99554,0 z m 0,18.13868 405.99554,0 c 18.29689,0 33.12641,15.23068 33.12641,33.99708 l 0,416.58853 c 0,18.7802 -14.82952,33.99707 -33.12641,33.99707 l -405.99554,0 c -18.3107,0 -33.14715,-15.21687 -33.14715,-33.99707 l 0,-416.58853 c 0,-18.78021 14.83645,-33.99708 33.14715,-33.99708 z" opacity=".9"/><path id="path611" fill="#2a7fff" d="M 194.34375 136.125 L 194.34375 136.15625 C 173.25634 136.15625 156.09375 153.87151 156.09375 175.6875 L 156.09375 803.6875 C 156.09375 825.50349 173.25634 843.21875 194.34375 843.21875 L 806.375 843.21875 C 827.46241 843.21875 844.59375 825.48267 844.59375 803.6875 L 844.59375 175.6875 C 844.59375 153.87151 827.46241 136.125 806.375 136.125 L 194.34375 136.125 z M 249.15625 174.59375 L 751.53125 174.59375 L 751.53125 463.71875 L 249.15625 463.71875 L 249.15625 174.59375 z M 797.53125 188.40625 L 834.65625 188.40625 L 834.65625 225.5625 L 797.53125 225.5625 L 797.53125 188.40625 z M 263.03125 551.59375 L 721.15625 551.59375 L 721.15625 842.59375 L 263.03125 842.59375 L 263.03125 551.59375 z" opacity=".7" transform="matrix(0.66335753,0,0,0.66335753,-301.65558,-296.97895)"/><rect id="path205" width="303.894" height="193.022" x="-127.171" y="68.932" fill="url(#linearGradient2915)" fill-opacity="1" opacity=".4"/><polyline id="_x3C_Slice_x3E_" fill="none" points="0 48 0 0 48 0 48 48" transform="matrix(13.808975,0,0,13.808975,-295.0052,-296.71559)"/><rect id="rect4125" width="272.36" height="15.131" x="-105.929" y="-144.713" fill="#2a7fff" fill-opacity="1" fill-rule="nonzero" stroke="none" opacity=".7" rx="2.763" ry="1.164"/><rect id="rect4125-6" width="272.36" height="15.131" x="-105.929" y="-93.791" fill="#2a7fff" fill-opacity="1" fill-rule="nonzero" stroke="none" opacity=".7" rx="2.763" ry="1.164"/><rect id="rect4125-5" width="272.36" height="15.131" x="-105.929" y="-42.869" fill="#2a7fff" fill-opacity="1" fill-rule="nonzero" stroke="none" opacity=".7" rx="2.763" ry="1.164"/><rect id="rect3734" width="59.72" height="114.04" x="-81.316" y="108.541" fill="#2a7fff" fill-opacity="1" fill-rule="nonzero" stroke="#2a7fff" stroke-dasharray="none" stroke-dashoffset="0" stroke-miterlimit="4" stroke-opacity="1" stroke-width="24.36" opacity=".5"/></g></g></g></svg>