<svg xmlns="http://www.w3.org/2000/svg" xmlns:svg="http://www.w3.org/2000/svg" xmlns:xlink="http://www.w3.org/1999/xlink" id="svg2" width="1000" height="1000" version="1.1"><defs id="defs4"><linearGradient id="linearGradient6901" x1="-203.313" x2="263.344" y1="30.719" y2="30.719" gradientUnits="userSpaceOnUse" xlink:href="#linearGradient3641"/><linearGradient id="linearGradient3641"><stop id="stop3643" offset="0" stop-color="#fff" stop-opacity="1"/><stop id="stop3645" offset="1" stop-color="#fff" stop-opacity="0"/></linearGradient><linearGradient id="linearGradient7800" x1="-203.313" x2="263.344" y1="30.719" y2="30.719" gradientTransform="translate(-85.455639,-190.15401)" gradientUnits="userSpaceOnUse" xlink:href="#linearGradient3641"/><radialGradient id="radialGradient7847" cx="30.031" cy="34.688" r="317.298" fx="30.031" fy="34.688" gradientTransform="matrix(1.4452614,0,0,1.4177194,-13.371756,-14.489643)" gradientUnits="userSpaceOnUse" xlink:href="#linearGradient3641"/><radialGradient id="radialGradient5540" cx="30.031" cy="34.688" r="317.298" fx="30.031" fy="34.688" gradientTransform="matrix(1.4452614,0,0,1.4177194,-13.371756,-14.489643)" gradientUnits="userSpaceOnUse" xlink:href="#linearGradient3641"/></defs><metadata id="metadata7"/><g id="layer1" transform="translate(464.16179,464.03236)"><g id="g4082" transform="translate(0,1.552561)"><g id="g4060" transform="matrix(1.5074827,0,0,1.5074827,-9.4212231,-17.89429)"><path id="path2893" fill="#fff" fill-opacity="1" stroke="#000" stroke-dasharray="none" stroke-linejoin="round" stroke-miterlimit="4" stroke-opacity="1" stroke-width="33.168" d="m -159.03377,-59.828604 -126.03788,94.528348 126.03788,94.528496 z m 378.11384,0 0,189.056844 126.03796,-94.528496 z" display="inline"/><path id="path3790" fill="#fff" fill-opacity="1" stroke="#000" stroke-dasharray="none" stroke-linejoin="round" stroke-miterlimit="4" stroke-opacity="1" stroke-width="64.151" d="m 788.23917,633.32605 c 0,82.45852 -66.84584,149.30435 -149.30436,149.30435 -82.45851,0 -149.30435,-66.84583 -149.30435,-149.30435 0,-82.45852 66.84584,-149.30435 149.30435,-149.30435 82.45852,0 149.30436,66.84583 149.30436,149.30435 z" transform="matrix(0.51702866,0,0,0.51702866,-300.32442,-292.74791)"/></g></g></g></svg>