<svg xmlns="http://www.w3.org/2000/svg" xmlns:svg="http://www.w3.org/2000/svg" xmlns:xlink="http://www.w3.org/1999/xlink" id="svg2" width="700" height="1000" version="1.1"><defs id="defs4"><marker id="RazorWire" orient="auto" overflow="visible" refX="0" refY="0"><path id="path5895" fill="gray" fill-opacity="1" fill-rule="evenodd" stroke="#000" stroke-width=".1pt" d="m 0.02272727,-0.74009011 0,1.4375 -7.78124997,2.31250001 18.4374997,0 -7.1874997,-2.31250001 0,-1.4375 7.2499997,-2.15624999 -18.4687497,0 7.74999997,2.15624999 z" transform="scale(0.8,0.8)"/></marker><marker id="TriangleInM" orient="auto" overflow="visible" refX="0" refY="0"><path id="path5799" fill-rule="evenodd" stroke="#000" stroke-width="1pt" d="m 5.77,0 -8.65,5 0,-10 8.65,5 z" transform="scale(-0.4,-0.4)"/></marker><marker id="TriangleInS" orient="auto" overflow="visible" refX="0" refY="0"><path id="path5802" fill-rule="evenodd" stroke="#000" stroke-width="1pt" d="m 5.77,0 -8.65,5 0,-10 8.65,5 z" transform="scale(-0.2,-0.2)"/></marker><marker id="TriangleInL" orient="auto" overflow="visible" refX="0" refY="0"><path id="path5796" fill-rule="evenodd" stroke="#000" stroke-width="1pt" d="m 5.77,0 -8.65,5 0,-10 8.65,5 z" transform="scale(-0.8,-0.8)"/></marker><marker id="Arrow1Sstart" orient="auto" overflow="visible" refX="0" refY="0"><path id="path5675" fill-rule="evenodd" stroke="#000" stroke-width="1pt" d="M 0,0 5,-5 -12.5,0 5,5 0,0 z" transform="matrix(0.2,0,0,0.2,1.2,0)"/></marker><marker id="Arrow2Lstart" orient="auto" overflow="visible" refX="0" refY="0"><path id="path5681" fill-rule="evenodd" stroke-linejoin="round" stroke-width=".625" d="M 8.7185878,4.0337352 -2.2072895,0.01601326 8.7185884,-4.0017078 c -1.7454984,2.3720609 -1.7354408,5.6174519 -6e-7,8.035443 z" transform="matrix(1.1,0,0,1.1,1.1,0)"/></marker><marker id="Arrow1Mstart" orient="auto" overflow="visible" refX="0" refY="0"><path id="path5669" fill-rule="evenodd" stroke="#000" stroke-width="1pt" d="M 0,0 5,-5 -12.5,0 5,5 0,0 z" transform="matrix(0.4,0,0,0.4,4,0)"/></marker><marker id="Arrow1Lstart" orient="auto" overflow="visible" refX="0" refY="0"><path id="path5663" fill-rule="evenodd" stroke="#000" stroke-width="1pt" d="M 0,0 5,-5 -12.5,0 5,5 0,0 z" transform="matrix(0.8,0,0,0.8,10,0)"/></marker><linearGradient id="linearGradient7354" x1="-1.887" x2="154.23" y1="-163.788" y2="-163.788" gradientTransform="translate(-294.13778,123.54099)" gradientUnits="userSpaceOnUse" xlink:href="#linearGradient3641"/><linearGradient id="linearGradient3641"><stop id="stop3643" offset="0" stop-color="#fff" stop-opacity="1"/><stop id="stop3645" offset="1" stop-color="#fff" stop-opacity="0"/></linearGradient><linearGradient id="linearGradient8368" x1="-263.002" x2="222.292" y1="-16.222" y2="-16.222" gradientUnits="userSpaceOnUse" xlink:href="#linearGradient3641"/><linearGradient id="linearGradient2888" x1="-263.002" x2="222.292" y1="-16.222" y2="-16.222" gradientUnits="userSpaceOnUse" xlink:href="#linearGradient3641"/><linearGradient id="linearGradient2892" x1="-263.002" x2="222.292" y1="-16.222" y2="-16.222" gradientUnits="userSpaceOnUse" xlink:href="#linearGradient3641"/><linearGradient id="linearGradient2896" x1="-263.002" x2="222.292" y1="-16.222" y2="-16.222" gradientUnits="userSpaceOnUse" xlink:href="#linearGradient3641"/><linearGradient id="linearGradient2900" x1="-263.002" x2="222.292" y1="-16.222" y2="-16.222" gradientUnits="userSpaceOnUse" xlink:href="#linearGradient3641"/><linearGradient id="linearGradient3697-3" x1="-268.962" x2="216.554" y1="-22.264" y2="-22.264" gradientUnits="userSpaceOnUse" xlink:href="#linearGradient3641-3"/><linearGradient id="linearGradient3641-3"><stop id="stop3643-4" offset="0" stop-color="#fff" stop-opacity="1"/><stop id="stop3645-6" offset="1" stop-color="#fff" stop-opacity="0"/></linearGradient><linearGradient id="linearGradient3726" x1="-268.962" x2="216.554" y1="-22.264" y2="-22.264" gradientTransform="translate(-180.70032,-122.18902)" gradientUnits="userSpaceOnUse" xlink:href="#linearGradient3641-3"/><linearGradient id="linearGradient5611" x1="-482.784" x2="555.264" y1="34.405" y2="34.405" gradientUnits="userSpaceOnUse" xlink:href="#linearGradient3641"/><linearGradient id="linearGradient7803" x1="-393.881" x2="-177.381" y1="27.718" y2="27.718" gradientUnits="userSpaceOnUse" xlink:href="#linearGradient3641"/><linearGradient id="linearGradient3692" x1="-393.881" x2="-177.381" y1="27.718" y2="27.718" gradientTransform="translate(-288,0)" gradientUnits="userSpaceOnUse" xlink:href="#linearGradient3641"/><linearGradient id="linearGradient4518" x1="-464.162" x2="-142.724" y1="33.233" y2="33.233" gradientUnits="userSpaceOnUse" xlink:href="#linearGradient3641"/><linearGradient id="linearGradient4592" x1="37.156" x2="284.281" y1="489.109" y2="489.109" gradientUnits="userSpaceOnUse" xlink:href="#linearGradient3641"/><filter id="filter4598" color-interpolation-filters="sRGB"><feGaussianBlur id="feGaussianBlur4600" stdDeviation="8.863"/></filter><linearGradient id="linearGradient4604" x1="-393.881" x2="-177.381" y1="27.718" y2="27.718" gradientTransform="translate(-288,0)" gradientUnits="userSpaceOnUse" xlink:href="#linearGradient3641"/><linearGradient id="linearGradient4626" x1="37.156" x2="284.281" y1="489.109" y2="489.109" gradientUnits="userSpaceOnUse" xlink:href="#linearGradient3641"/><linearGradient id="linearGradient3401" x1="37.156" x2="284.281" y1="489.109" y2="489.109" gradientTransform="translate(-185.59924,-462.77436)" gradientUnits="userSpaceOnUse" xlink:href="#linearGradient3641"/><linearGradient id="linearGradient27021" x1="37.156" x2="284.281" y1="489.109" y2="489.109" gradientUnits="userSpaceOnUse" xlink:href="#linearGradient3641"/><linearGradient id="linearGradient27023" x1="37.156" x2="284.281" y1="489.109" y2="489.109" gradientTransform="translate(-185.59924,-462.77436)" gradientUnits="userSpaceOnUse" xlink:href="#linearGradient3641"/><linearGradient id="linearGradient6005" x1="37.156" x2="284.281" y1="489.109" y2="489.109" gradientUnits="userSpaceOnUse" xlink:href="#linearGradient3641"/><linearGradient id="linearGradient6025" x1="37.156" x2="284.281" y1="489.109" y2="489.109" gradientUnits="userSpaceOnUse" xlink:href="#linearGradient3641"/><linearGradient id="linearGradient6039" x1="37.156" x2="284.281" y1="489.109" y2="489.109" gradientUnits="userSpaceOnUse" xlink:href="#linearGradient3641"/><linearGradient id="linearGradient6057" x1="37.156" x2="284.281" y1="489.109" y2="489.109" gradientUnits="userSpaceOnUse" xlink:href="#linearGradient3641"/></defs><metadata id="metadata7"/><g id="layer1" transform="translate(464.16179,464.03236)"><g id="g6031" transform="translate(1.35195,0)"><path id="path3517" fill="#2a7fff" fill-opacity="1" stroke="none" d="m -335.49178,414.86073 -10e-6,-566.70796 -90.02195,0 140.01387,-212.18513 140.01388,212.18513 -89.9948,0 0,566.70796 -100.01101,0 z" display="inline" opacity=".7"/><path id="path4584" fill="url(#linearGradient6057)" fill-opacity="1" stroke="none" d="m 134.8125,81.707544 c 0.33175,108.939926 0.35087,194.913246 0.28125,303.823706 -0.0696,108.91046 -0.22797,217.80054 -0.28125,326.6875 l 0,20 -20,0 -77.65625,0 123.5625,187.25 123.5625,-187.25 -77.625,0 -20,0 0,-20 0,-630.511206 z" display="inline" filter="url(#filter4598)" opacity=".4" transform="matrix(0.87117324,0,0,-0.87117324,-425.51372,468.61869)"/></g><use id="use6035" width="700" height="1000" x="0" y="0" transform="matrix(1,0,0,-1,339.97225,71.93528)" xlink:href="#g6031"/></g></svg>