<svg xmlns="http://www.w3.org/2000/svg" xmlns:svg="http://www.w3.org/2000/svg" xmlns:xlink="http://www.w3.org/1999/xlink" id="svg2" width="1000" height="1000" version="1.1"><defs id="defs4"><linearGradient id="linearGradient10442" x1="-219.851" x2="74.444" y1="137.424" y2="137.424" gradientUnits="userSpaceOnUse" xlink:href="#linearGradient3641"/><linearGradient id="linearGradient8727" x1="173.719" x2="289.438" y1="235.281" y2="235.281" gradientTransform="translate(1.3147295,1.3593836)" gradientUnits="userSpaceOnUse" xlink:href="#linearGradient3641"/><linearGradient id="linearGradient3641"><stop id="stop3643" offset="0" stop-color="#fff" stop-opacity="1"/><stop id="stop3645" offset="1" stop-color="#fff" stop-opacity="0"/></linearGradient><linearGradient id="linearGradient10463" x1="173.719" x2="289.438" y1="235.281" y2="235.281" gradientTransform="translate(-1056.4243,-120.19895)" gradientUnits="userSpaceOnUse" xlink:href="#linearGradient3641"/><filter id="filter10492"><feGaussianBlur id="feGaussianBlur10494" stdDeviation="4.704"/></filter><linearGradient id="linearGradient10538" x1="-219.663" x2="279.881" y1="34.625" y2="34.625" gradientUnits="userSpaceOnUse" xlink:href="#linearGradient3641"/><filter id="filter10544"><feGaussianBlur id="feGaussianBlur10546" stdDeviation="7.989"/></filter><linearGradient id="linearGradient10554" x1="-219.851" x2="74.444" y1="137.424" y2="137.424" gradientUnits="userSpaceOnUse" xlink:href="#linearGradient3641"/><linearGradient id="linearGradient10556" x1="-219.663" x2="279.881" y1="34.625" y2="34.625" gradientUnits="userSpaceOnUse" xlink:href="#linearGradient3641"/></defs><metadata id="metadata7"/><g id="layer1" transform="translate(464.16179,464.03236)"><g id="g4082" transform="translate(0,1.552561)"><g id="g4060" transform="matrix(1.5074827,0,0,1.5074827,-9.4212231,-17.89429)"><g id="g10548" transform="matrix(0.94255873,0,0,0.94255873,1.6433315,2.0637178)"><path id="path4025" fill="#2a7fff" fill-opacity="1" stroke="#000" stroke-dasharray="none" stroke-miterlimit="4" stroke-opacity="1" stroke-width=".263" d="m -233.53705,-229.02626 0,169.881714 69.56962,0 0,-100.291364 388.12634,0 0,388.12634 -100.27063,0 0,69.59035 169.86098,0 0,-527.30704 -527.28631,0 z" opacity=".7"/><path id="path1468-9-2-0-9" fill="#2a7fff" fill-opacity="1" stroke="none" stroke-dasharray="none" stroke-miterlimit="4" stroke-opacity="1" stroke-width=".263" d="m -98.087738,-23.447618 c -4.775792,0.02222 -8.642412,3.889251 -8.665112,8.665107 l 0,118.139831 -118.13983,0 c -3.00688,-0.068 -5.83731,1.421 -7.4835,3.93868 -0.83549,1.43117 -1.24572,3.07112 -1.1816,4.72643 l 0,50.80904 c 0.0222,4.77577 3.88957,8.64225 8.6651,8.66511 l 118.13983,0 0,118.13983 c 0.0222,4.77579 3.88946,8.64216 8.665112,8.6651 l 50.788311,0 c 4.775783,-0.0225 8.642474,-3.88924 8.665108,-8.6651 l 0,-118.13983 118.13983,0 c 4.775789,-0.0225 8.642374,-3.88934 8.665107,-8.66511 l 0,-50.80904 c -0.02222,-4.77579 -3.889484,-8.64217 -8.665107,-8.66511 l -118.13983,0 0,-118.139831 c -0.02216,-4.775789 -3.889551,-8.642188 -8.665108,-8.665107 l -50.788311,0 z" opacity=".7"/><path id="path1468-9-2-0-9-9" fill="url(#linearGradient10554)" fill-opacity="1" stroke="#000" stroke-dasharray="none" stroke-miterlimit="4" stroke-opacity="1" stroke-width=".263" d="m -85.28125,-9.5625 c -2.341736,0.7845217 -6.18795,-0.837081 -7.71875,0.65625 0.793132,39.576836 -0.09673,79.235196 0.25,118.84375 2.622214,8.63118 -4.521456,7.65961 -10.90618,7.41811 -38.58152,0.48676 -77.18218,-0.96142 -115.75007,0.58189 0.62101,13.2896 -1.04058,26.60164 0.0937,39.875 36.03079,-0.95828 72.08355,0.14743 108.125,-0.3125 6.09375,0 12.1875,0 18.28125,0 1.098831,42.23322 -1.22238,84.50621 0.9375,126.71875 13.131314,-0.71964 26.2853,0.89894 39.40625,-0.15625 -0.32624,-42.1347 0.0949,-84.27094 -0.0625,-126.40625 42.223983,-0.98669 84.478049,1.03977 126.6875,-0.8125 -0.885317,-13.05412 1.185911,-26.76851 -0.3125,-39.4375 -42.010276,0.0223 -84.156858,-0.1588 -126.21875,-0.0625 -1.221646,-42.190744 1.475958,-84.843707 -1.125,-126.75 -10.561209,0.3442251 -21.12545,-0.2968191 -31.6875,-0.15625 z" filter="url(#filter10492)" opacity=".4"/><path id="path4025-5" fill="url(#linearGradient10556)" fill-opacity="1" stroke="#000" stroke-dasharray="none" stroke-miterlimit="4" stroke-opacity="1" stroke-width=".263" d="m -219.53125,-73.15625 c 13.85417,0 27.70833,0 41.5625,0 0,-33.42708 0,-66.85417 0,-100.28125 138.708333,0 277.416667,0 416.125,0 0,138.708333 0,277.41667 0,416.125 -33.42708,0 -66.85417,0 -100.28125,0 0,13.86458 0,27.72917 0,41.59375 47.29167,0 94.58333,0 141.875,0 0,-166.4375 0,-332.875 0,-499.3125 -166.42708,0 -332.854167,0 -499.28125,0 0,47.29167 0,94.58333 0,141.875 z" filter="url(#filter10544)" opacity=".4"/></g></g></g></g></svg>