<svg xmlns="http://www.w3.org/2000/svg" xmlns:svg="http://www.w3.org/2000/svg" xmlns:xlink="http://www.w3.org/1999/xlink" id="svg2" width="1000" height="1000" version="1.1"><defs id="defs4"><linearGradient id="linearGradient7923"><stop id="stop7925" offset="0" stop-color="#2a7fff" stop-opacity="1"/><stop id="stop7927" offset="1" stop-color="#2a7fff" stop-opacity="0"/></linearGradient><linearGradient id="linearGradient8562" x1="-213.564" x2="253.595" y1="24.514" y2="24.514" gradientTransform="matrix(0,1,-1,0,44.530081,4.498828)" gradientUnits="userSpaceOnUse" xlink:href="#linearGradient3641"/><linearGradient id="linearGradient3641"><stop id="stop3643" offset="0" stop-color="#feffff" stop-opacity="1"/><stop id="stop3645" offset="1" stop-color="#fff" stop-opacity="0"/></linearGradient><linearGradient id="linearGradient6791" x1="-213.564" x2="253.595" y1="24.514" y2="24.514" gradientTransform="matrix(0,1,-1,0,44.530081,4.498828)" gradientUnits="userSpaceOnUse" xlink:href="#linearGradient3641"/><linearGradient id="linearGradient10554" x1="-219.851" x2="74.444" y1="137.424" y2="137.424" gradientUnits="userSpaceOnUse" xlink:href="#linearGradient3641-6"/><linearGradient id="linearGradient3641-6"><stop id="stop3643-4" offset="0" stop-color="#fff" stop-opacity="1"/><stop id="stop3645-9" offset="1" stop-color="#fff" stop-opacity="0"/></linearGradient><linearGradient id="linearGradient10556" x1="-219.663" x2="279.881" y1="34.625" y2="34.625" gradientUnits="userSpaceOnUse" xlink:href="#linearGradient3641-6"/><linearGradient id="linearGradient3179" x1="-219.663" x2="279.881" y1="34.625" y2="34.625" gradientUnits="userSpaceOnUse" xlink:href="#linearGradient3641-6"/><linearGradient id="linearGradient3641-6-0"><stop id="stop3643-4-4" offset="0" stop-color="#fff" stop-opacity="1"/><stop id="stop3645-9-8" offset="1" stop-color="#fff" stop-opacity="0"/></linearGradient><linearGradient id="linearGradient3275" x1="-219.851" x2="74.444" y1="137.424" y2="137.424" gradientUnits="userSpaceOnUse" xlink:href="#linearGradient3641-6-0"/><linearGradient id="linearGradient3279" x1="-181.867" x2="2.605" y1="212.954" y2="28.482" gradientUnits="userSpaceOnUse" xlink:href="#linearGradient3641-6-0"/><linearGradient id="linearGradient3285" x1="-181.867" x2="2.605" y1="212.954" y2="28.482" gradientUnits="userSpaceOnUse" xlink:href="#linearGradient3641-6-0"/><linearGradient id="linearGradient5003" x1="-181.867" x2="2.605" y1="212.954" y2="28.482" gradientUnits="userSpaceOnUse" xlink:href="#linearGradient3641-6-0"/><linearGradient id="linearGradient5011" x1="-181.867" x2="2.605" y1="212.954" y2="28.482" gradientUnits="userSpaceOnUse" xlink:href="#linearGradient3641-6-0"/><linearGradient id="linearGradient5017" x1="-181.867" x2="2.605" y1="212.954" y2="28.482" gradientUnits="userSpaceOnUse" xlink:href="#linearGradient3641-6-0"/><linearGradient id="linearGradient5022" x1="-181.867" x2="2.605" y1="212.954" y2="28.482" gradientUnits="userSpaceOnUse" xlink:href="#linearGradient3641-6-0"/><linearGradient id="linearGradient2904" x1="88.061" x2="-223.343" y1="99.427" y2="99.427" gradientUnits="userSpaceOnUse" xlink:href="#linearGradient3641-6-0"/><filter id="filter9119"><feGaussianBlur id="feGaussianBlur9121" stdDeviation="10.967"/></filter><linearGradient id="linearGradient7929" x1="30.063" x2="30.063" y1="-254.57" y2="333.101" gradientUnits="userSpaceOnUse" xlink:href="#linearGradient7923"/><linearGradient id="linearGradient8881" x1="29.531" x2="29.531" y1="-153.063" y2="246" gradientUnits="userSpaceOnUse" xlink:href="#linearGradient3641"/><filter id="filter8883"><feGaussianBlur id="feGaussianBlur8885" stdDeviation="8.174"/></filter></defs><metadata id="metadata7"/><g id="layer1" transform="translate(464.16179,464.03236)"><g id="g4082" transform="translate(0,1.552561)"><g id="g4060" transform="matrix(1.5074827,0,0,1.5074827,-9.4212231,-17.89429)"><path id="path2898" fill="#d45500" fill-opacity="1" fill-rule="nonzero" stroke="#ff0" stroke-dasharray="none" stroke-dashoffset="0" stroke-miterlimit="4" stroke-opacity="1" stroke-width="0" d="M 502.53125 28.71875 C 500.28796 28.702887 346.76168 332.19426 344.9375 333.5 C 343.11332 334.80574 6.3333012 382.30891 5.625 384.4375 C 4.9166988 386.56609 246.07187 626.3616 246.75 628.5 C 247.42813 630.6384 188.53822 965.60609 190.34375 966.9375 C 192.14928 968.26891 494.75671 813.01539 497 813.03125 C 499.24329 813.04711 799.61332 972.55574 801.4375 971.25 C 803.26168 969.94426 749.1042 634.19109 749.8125 632.0625 C 750.5208 629.93391 995.05313 393.54465 994.375 391.40625 C 993.69687 389.26785 657.61803 337.01891 655.8125 335.6875 C 654.00697 334.35609 504.77454 28.734613 502.53125 28.71875 z M 501.84375 130.1875 C 543.38397 212.54927 582.72014 296.03451 625.46875 377.78125 C 716.12712 393.39357 807.05484 407.33032 897.84375 422.15625 C 831.72327 486.84373 764.1914 550.05666 700.5 617.15625 C 713.43128 704.66175 727.37894 791.9958 740.9375 879.40625 C 746.6801 894.4725 733.37249 882.8582 726.25 879.875 C 647.84111 842.51233 574.39622 795.08073 493.65625 762.625 C 412.38285 802.89466 331.62994 844.27177 250.65625 885.15625 C 266.10092 794.27446 282.25357 703.49913 296.03125 612.34375 C 232.26918 546.09873 165.96774 482.17221 101.90625 416.375 C 193.09765 402.83521 284.43002 390.20649 375.46875 375.65625 C 416.37876 298.42596 455.55961 220.30106 495.5 142.5625 L 501.84375 130.1875 z" opacity=".8" transform="matrix(0.66335753,0,0,0.66335753,-301.65558,-296.97895)"/><path id="path2898-5" fill="#fc0" fill-opacity="1" fill-rule="nonzero" stroke="#ff0" stroke-dasharray="none" stroke-dashoffset="0" stroke-miterlimit="4" stroke-opacity="1" stroke-width="0" d="m 27.03125,-202.40625 c -26.49475597,51.56846 -52.487037,103.393699 -79.625,154.625 -60.39123,9.652013 -120.97625,18.018284 -181.46875,27 42.49567,43.647078 86.4842,86.055873 128.78125,130 -9.13953,60.46861 -19.84841,120.68163 -30.09375,180.96875 53.714507,-27.12103 107.274179,-54.56807 161.1875,-81.28125 53.559471,21.52975 102.27744,52.99457 154.29057,77.77938 4.72476,1.97893 13.5664,9.69232 9.757,-0.30199 C 180.8659,228.39926 171.60931,170.45367 163.03125,112.40625 205.28142,67.895225 250.07598,25.973432 293.9375,-16.9375 233.71199,-26.772387 173.38891,-36.018454 113.25,-46.375 c -28.357608,-54.22732 -54.443987,-109.6147 -82,-164.25 -1.40625,2.73958 -2.8125,5.47917 -4.21875,8.21875 z" opacity=".8"/><path id="path2898-5-3" fill="url(#linearGradient8881)" fill-opacity="1" fill-rule="nonzero" stroke="#ff0" stroke-dasharray="none" stroke-dashoffset="0" stroke-miterlimit="4" stroke-opacity="1" stroke-width="0" d="m 22.875,-137.28125 c -19.2700402,37.801066 -38.466348,75.616663 -58.40625,113.0625 -47.959543,7.669697 -96.04468,14.5143472 -144.09375,21.59375 33.73978,34.413177 68.62095,68.017106 101.96875,102.90625 -7.302258,47.90494 -15.171229,95.72137 -23.4375,143.46875 41.853578,-21.17789 83.660479,-42.45993 125.6875,-63.28125 46.288201,17.42927 89.13972,42.5691 132.75,65.53125 -7.4172,-47.39003 -14.6208,-94.81321 -21.9375,-142.21875 C 168.80378,68.314398 203.54838,34.173448 238.6875,0.4375 c -47.50201,-7.7374752 -95.04556,-15.227212 -142.5,-23.25 -22.706891,-42.92571 -43.499015,-86.83869 -65.25,-130.25 -2.6875,5.26042 -5.375,10.52083 -8.0625,15.78125 z" filter="url(#filter8883)" opacity=".4"/></g></g></g></svg>