<svg xmlns="http://www.w3.org/2000/svg" xmlns:svg="http://www.w3.org/2000/svg" xmlns:xlink="http://www.w3.org/1999/xlink" id="svg2" width="1000" height="1000" version="1.1"><defs id="defs4"><linearGradient id="linearGradient8562" x1="-213.564" x2="253.595" y1="24.514" y2="24.514" gradientTransform="matrix(0,1,-1,0,44.530081,4.498828)" gradientUnits="userSpaceOnUse" xlink:href="#linearGradient3641"/><linearGradient id="linearGradient3641"><stop id="stop3643" offset="0" stop-color="#fff" stop-opacity="1"/><stop id="stop3645" offset="1" stop-color="#fff" stop-opacity="0"/></linearGradient><linearGradient id="linearGradient6791" x1="-213.564" x2="253.595" y1="24.514" y2="24.514" gradientTransform="matrix(0,1,-1,0,44.530081,4.498828)" gradientUnits="userSpaceOnUse" xlink:href="#linearGradient3641"/><linearGradient id="linearGradient10554" x1="-219.851" x2="74.444" y1="137.424" y2="137.424" gradientUnits="userSpaceOnUse" xlink:href="#linearGradient3641-6"/><linearGradient id="linearGradient3641-6"><stop id="stop3643-4" offset="0" stop-color="#fff" stop-opacity="1"/><stop id="stop3645-9" offset="1" stop-color="#fff" stop-opacity="0"/></linearGradient><linearGradient id="linearGradient10556" x1="-219.663" x2="279.881" y1="34.625" y2="34.625" gradientUnits="userSpaceOnUse" xlink:href="#linearGradient3641-6"/><linearGradient id="linearGradient3179" x1="-219.663" x2="279.881" y1="34.625" y2="34.625" gradientUnits="userSpaceOnUse" xlink:href="#linearGradient3641-6"/><linearGradient id="linearGradient3641-6-0"><stop id="stop3643-4-4" offset="0" stop-color="#fff" stop-opacity="1"/><stop id="stop3645-9-8" offset="1" stop-color="#fff" stop-opacity="0"/></linearGradient><linearGradient id="linearGradient3275" x1="-219.851" x2="74.444" y1="137.424" y2="137.424" gradientUnits="userSpaceOnUse" xlink:href="#linearGradient3641-6-0"/><linearGradient id="linearGradient3279" x1="-181.867" x2="2.605" y1="212.954" y2="28.482" gradientUnits="userSpaceOnUse" xlink:href="#linearGradient3641-6-0"/><linearGradient id="linearGradient3285" x1="-181.867" x2="2.605" y1="212.954" y2="28.482" gradientUnits="userSpaceOnUse" xlink:href="#linearGradient3641-6-0"/><linearGradient id="linearGradient5003" x1="-181.867" x2="2.605" y1="212.954" y2="28.482" gradientUnits="userSpaceOnUse" xlink:href="#linearGradient3641-6-0"/><linearGradient id="linearGradient5011" x1="-181.867" x2="2.605" y1="212.954" y2="28.482" gradientUnits="userSpaceOnUse" xlink:href="#linearGradient3641-6-0"/><linearGradient id="linearGradient5017" x1="-181.867" x2="2.605" y1="212.954" y2="28.482" gradientUnits="userSpaceOnUse" xlink:href="#linearGradient3641-6-0"/><linearGradient id="linearGradient5022" x1="-181.867" x2="2.605" y1="212.954" y2="28.482" gradientUnits="userSpaceOnUse" xlink:href="#linearGradient3641-6-0"/><linearGradient id="linearGradient2904" x1="88.061" x2="-223.343" y1="99.427" y2="99.427" gradientUnits="userSpaceOnUse" xlink:href="#linearGradient3641-6-0"/></defs><metadata id="metadata7"/><g id="layer1" transform="translate(464.16179,464.03236)"><g id="g4082" transform="translate(0,1.552561)"><g id="g4060" transform="matrix(1.5074827,0,0,1.5074827,-9.4212231,-17.89429)"><path id="path2898" fill="#2a7fff" fill-opacity="1" fill-rule="nonzero" stroke="#ff0" stroke-dasharray="none" stroke-dashoffset="0" stroke-miterlimit="4" stroke-opacity="1" stroke-width="0" d="m 31.307703,-204.46239 c -1.138399,-0.008 -79.048152,154.004262 -79.973865,154.666884 -0.925714,0.662622 -171.830968,24.768985 -172.190408,25.849178 -0.35944,1.080191 122.019213,122.768864 122.363346,123.85403 0.344124,1.085178 -29.540646,171.070728 -28.624406,171.746378 0.91626,0.67565 154.479999,-78.11062 155.618398,-78.10258 1.138399,0.008 153.566732,80.95365 154.492442,80.29104 0.92572,-0.66263 -26.5575,-171.04678 -26.19806,-172.12698 0.35944,-1.08019 124.4519,-121.040297 124.10777,-122.125468 -0.34413,-1.08517 -170.89356,-27.599862 -171.80981,-28.275511 -0.91625,-0.675648 -76.647007,-155.768921 -77.785407,-155.776971 z m -0.539185,85.334 C 48.416775,-83.920155 65.285212,-48.305578 83.656252,-13.463932 122.20136,-6.9232315 160.82274,-0.85292378 199.40665,5.4551281 170.94368,32.828071 142.61541,60.318736 115.51576,89.044707 121.39234,127.6012 127.3347,166.15244 133.37231,204.68409 97.952098,186.28539 63.494939,165.53168 26.090293,151.22546 -8.150551,168.20942 -42.200572,185.5776 -76.323196,202.79694 -69.634893,164.06663 -63.115638,125.30532 -57.229693,86.44393 -84.327659,58.155301 -112.59879,30.894869 -139.96292,2.9336439 c 38.95067,-5.7759254 77.948275,-11.2380019 116.828767,-17.4759469 17.0461671,-32.016305 33.36203,-64.40057 49.890498,-96.688607 l 4.012173,-7.89748 z" opacity=".4"/></g></g></g></svg>