<svg xmlns="http://www.w3.org/2000/svg" xmlns:svg="http://www.w3.org/2000/svg" xmlns:xlink="http://www.w3.org/1999/xlink" id="svg2" width="1000" height="1000" version="1.1"><defs id="defs4"><linearGradient id="linearGradient6901" x1="-203.313" x2="263.344" y1="30.719" y2="30.719" gradientUnits="userSpaceOnUse" xlink:href="#linearGradient3641"/><linearGradient id="linearGradient3641"><stop id="stop3643" offset="0" stop-color="#fff" stop-opacity="1"/><stop id="stop3645" offset="1" stop-color="#fff" stop-opacity="0"/></linearGradient><linearGradient id="linearGradient7800" x1="-203.313" x2="263.344" y1="30.719" y2="30.719" gradientTransform="translate(-85.455639,-190.15401)" gradientUnits="userSpaceOnUse" xlink:href="#linearGradient3641"/><radialGradient id="radialGradient7847" cx="30.031" cy="34.688" r="317.298" fx="30.031" fy="34.688" gradientTransform="matrix(1.4452614,0,0,1.4177194,-13.371756,-14.489643)" gradientUnits="userSpaceOnUse" xlink:href="#linearGradient3641"/><radialGradient id="radialGradient5540" cx="30.031" cy="34.688" r="317.298" fx="30.031" fy="34.688" gradientTransform="matrix(1.4452614,0,0,1.4177194,-13.371756,-14.489643)" gradientUnits="userSpaceOnUse" xlink:href="#linearGradient3641"/></defs><metadata id="metadata7"/><g id="layer1" display="inline" transform="translate(464.16179,464.03236)"><g id="g4082" display="inline" transform="translate(0,1.552561)"><g id="layer3" display="inline"><path id="path3790" fill="#fff" fill-opacity="1" stroke="#000" stroke-dasharray="none" stroke-linejoin="round" stroke-miterlimit="4" stroke-opacity="1" stroke-width="64.151" d="m 788.23917,633.32605 a 149.30435,149.30435 0 1 1 -298.60871,0 149.30435,149.30435 0 1 1 298.60871,0 z" transform="matrix(0.77941176,0,0,0.77941176,-462.15509,-459.2067)"/><path font-family="Sans" style="text-indent:0;text-align:start;line-height:normal;text-transform:none;block-progression:tb;marker:none;-inkscape-font-specification:Sans" id="path4008" fill="#fff" fill-opacity="1" stroke="#000" stroke-dasharray="none" stroke-linejoin="round" stroke-miterlimit="4" stroke-opacity="1" stroke-width="50" d="m 498.34375,97.96875 c -22.66289,0.08981 -45.49245,2.092 -68.1875,6.09375 C 212.2512,142.48503 65.63996,351.87621 104.0625,569.78125 141.83315,783.98928 344.86989,929.3172 558.75,897.6875 l 9.9375,76.65625 189.625,-172.625 -227.40625,-118.5 11.09375,85.5 c -146.76418,23.04866 -284.02185,-74.52502 -309.9375,-221.5 -26.2225,-148.71521 71.94104,-288.9025 220.65625,-315.125 73.68636,-12.99289 148.72888,4.94427 208.09375,48.46875 l -57.875,55.78125 251.59375,49.5625 -40.21875,-253.25 L 755.34375,189.5 C 683.9574,130.79199 594.65347,98.637225 502.875,97.96875 c -1.50932,-0.01099 -3.02039,-0.006 -4.53125,0 z" baseline-shift="baseline" color="#000" direction="ltr" display="inline" enable-background="accumulate" font-size="medium" font-stretch="normal" font-style="normal" font-variant="normal" font-weight="normal" letter-spacing="normal" overflow="visible" text-anchor="start" text-decoration="none" transform="translate(-464.16179,-465.58492)" visibility="visible" word-spacing="normal" writing-mode="lr-tb"/></g></g></g></svg>