<svg xmlns="http://www.w3.org/2000/svg" xmlns:svg="http://www.w3.org/2000/svg" xmlns:xlink="http://www.w3.org/1999/xlink" id="svg2" width="1000" height="700" version="1.1"><defs id="defs4"><marker id="TriangleInS" orient="auto" overflow="visible" refX="0" refY="0"><path id="path5369" fill-rule="evenodd" stroke="#000" stroke-width="1pt" d="M 5.77,0.0 L -2.88,5.0 L -2.88,-5.0 L 5.77,0.0 z" transform="scale(-0.2)"/></marker><marker id="TriangleInM" orient="auto" overflow="visible" refX="0" refY="0"><path id="path5366" fill-rule="evenodd" stroke="#000" stroke-width="1pt" d="M 5.77,0.0 L -2.88,5.0 L -2.88,-5.0 L 5.77,0.0 z" transform="scale(-0.4)"/></marker><marker id="TriangleOutM" orient="auto" overflow="visible" refX="0" refY="0"><path id="path4127" fill-rule="evenodd" stroke="#000" stroke-width="1pt" d="M 5.77,0.0 L -2.88,5.0 L -2.88,-5.0 L 5.77,0.0 z" transform="scale(0.4)"/></marker><marker id="TriangleOutS" orient="auto" overflow="visible" refX="0" refY="0"><path id="path4130" fill-rule="evenodd" stroke="#000" stroke-width="1pt" d="M 5.77,0.0 L -2.88,5.0 L -2.88,-5.0 L 5.77,0.0 z" transform="scale(0.2)"/></marker><linearGradient id="linearGradient8562" x1="-213.564" x2="253.595" y1="24.514" y2="24.514" gradientTransform="matrix(0,1,-1,0,44.530081,4.498828)" gradientUnits="userSpaceOnUse" xlink:href="#linearGradient3641"/><linearGradient id="linearGradient3641"><stop id="stop3643" offset="0" stop-color="#fff" stop-opacity="1"/><stop id="stop3645" offset="1" stop-color="#fff" stop-opacity="0"/></linearGradient><linearGradient id="linearGradient6791" x1="-213.564" x2="253.595" y1="24.514" y2="24.514" gradientTransform="matrix(0,1,-1,0,44.530081,4.498828)" gradientUnits="userSpaceOnUse" xlink:href="#linearGradient3641"/><linearGradient id="linearGradient10554" x1="-219.851" x2="74.444" y1="137.424" y2="137.424" gradientUnits="userSpaceOnUse" xlink:href="#linearGradient3641-6"/><linearGradient id="linearGradient3641-6"><stop id="stop3643-4" offset="0" stop-color="#fff" stop-opacity="1"/><stop id="stop3645-9" offset="1" stop-color="#fff" stop-opacity="0"/></linearGradient><linearGradient id="linearGradient10556" x1="-219.663" x2="279.881" y1="34.625" y2="34.625" gradientUnits="userSpaceOnUse" xlink:href="#linearGradient3641-6"/><linearGradient id="linearGradient3179" x1="-219.663" x2="279.881" y1="34.625" y2="34.625" gradientUnits="userSpaceOnUse" xlink:href="#linearGradient3641-6"/><linearGradient id="linearGradient3641-6-0"><stop id="stop3643-4-4" offset="0" stop-color="#fff" stop-opacity="1"/><stop id="stop3645-9-8" offset="1" stop-color="#fff" stop-opacity="0"/></linearGradient><linearGradient id="linearGradient3275" x1="-219.851" x2="74.444" y1="137.424" y2="137.424" gradientUnits="userSpaceOnUse" xlink:href="#linearGradient3641-6-0"/><linearGradient id="linearGradient3279" x1="-181.867" x2="2.605" y1="212.954" y2="28.482" gradientUnits="userSpaceOnUse" xlink:href="#linearGradient3641-6-0"/><linearGradient id="linearGradient3285" x1="-181.867" x2="2.605" y1="212.954" y2="28.482" gradientUnits="userSpaceOnUse" xlink:href="#linearGradient3641-6-0"/><linearGradient id="linearGradient5003" x1="-181.867" x2="2.605" y1="212.954" y2="28.482" gradientUnits="userSpaceOnUse" xlink:href="#linearGradient3641-6-0"/><linearGradient id="linearGradient5011" x1="-181.867" x2="2.605" y1="212.954" y2="28.482" gradientUnits="userSpaceOnUse" xlink:href="#linearGradient3641-6-0"/><linearGradient id="linearGradient5017" x1="-181.867" x2="2.605" y1="212.954" y2="28.482" gradientUnits="userSpaceOnUse" xlink:href="#linearGradient3641-6-0"/><linearGradient id="linearGradient5022" x1="-181.867" x2="2.605" y1="212.954" y2="28.482" gradientUnits="userSpaceOnUse" xlink:href="#linearGradient3641-6-0"/><linearGradient id="linearGradient3637"><stop id="stop3639" offset="0" stop-color="#f0f0f0" stop-opacity="1"/><stop id="stop3641" offset="1" stop-color="#aaa" stop-opacity="1"/></linearGradient><linearGradient id="linearGradient3741" x1="-189.496" x2="249.49" y1="34.822" y2="34.822" gradientUnits="userSpaceOnUse" xlink:href="#linearGradient3641"/><linearGradient id="linearGradient3765" x1="48" x2="48" y1="76" y2="20" gradientTransform="matrix(9.9895684,0,0,9.9895684,-1275.6462,-551.44847)" gradientUnits="userSpaceOnUse" xlink:href="#linearGradient4081"/><linearGradient id="linearGradient4081"><stop id="stop4083" offset="0" stop-color="#aaa" stop-opacity="1"/><stop id="stop4085" offset="1" stop-color="#f0f0f0" stop-opacity="1"/></linearGradient><linearGradient id="linearGradient3741-4" x1="-189.496" x2="249.49" y1="34.822" y2="34.822" gradientUnits="userSpaceOnUse" xlink:href="#linearGradient3641-9"/><linearGradient id="linearGradient3641-9"><stop id="stop3643-5" offset="0" stop-color="#fff" stop-opacity="1"/><stop id="stop3645-0" offset="1" stop-color="#fff" stop-opacity="0"/></linearGradient><linearGradient id="linearGradient2947" x1="-189.496" x2="249.49" y1="34.822" y2="34.822" gradientTransform="translate(-31.96339,-249.30259)" gradientUnits="userSpaceOnUse" xlink:href="#linearGradient3641-9"/><linearGradient id="linearGradient3765-7" x1="48" x2="48" y1="76" y2="20" gradientUnits="userSpaceOnUse" xlink:href="#linearGradient4081-7"/><linearGradient id="linearGradient4081-7"><stop id="stop4083-6" offset="0" stop-color="#aaa" stop-opacity="1"/><stop id="stop4085-7" offset="1" stop-color="#f0f0f0" stop-opacity="1"/></linearGradient><linearGradient id="linearGradient4118" x1="329.131" x2="718.76" y1="-232.328" y2="-232.328" gradientUnits="userSpaceOnUse" xlink:href="#linearGradient3641"/><linearGradient id="linearGradient4132" x1="329.131" x2="718.76" y1="-232.328" y2="-232.328" gradientUnits="userSpaceOnUse" xlink:href="#linearGradient3641"/><linearGradient id="linearGradient3772" x1="-253.516" x2="313.506" y1="116.797" y2="116.797" gradientUnits="userSpaceOnUse" xlink:href="#linearGradient3641"/><linearGradient id="linearGradient2966" x1="-253.516" x2="313.506" y1="116.797" y2="116.797" gradientUnits="userSpaceOnUse" xlink:href="#linearGradient3641"/><linearGradient id="linearGradient7757" x1="43.02" x2="956.98" y1="350" y2="350" gradientUnits="userSpaceOnUse" xlink:href="#linearGradient3641-9"/><linearGradient id="linearGradient7879" x1="-253.516" x2="313.506" y1="116.797" y2="116.797" gradientUnits="userSpaceOnUse" xlink:href="#linearGradient3641"/><linearGradient id="linearGradient23533" x1="55.942" x2="943.221" y1="349.586" y2="349.586" gradientUnits="userSpaceOnUse" xlink:href="#linearGradient3641-9"/><linearGradient id="linearGradient9599" x1="189.816" x2="807.9" y1="346.174" y2="346.174" gradientUnits="userSpaceOnUse" xlink:href="#linearGradient3641-9"/><linearGradient id="linearGradient9838" x1="189.816" x2="807.9" y1="346.174" y2="346.174" gradientUnits="userSpaceOnUse" xlink:href="#linearGradient3641-9"/><linearGradient id="linearGradient7300" x1="256.285" x2="788.594" y1="1004.699" y2="1004.699" gradientUnits="userSpaceOnUse" xlink:href="#linearGradient3641-9"/><linearGradient id="linearGradient7302" x1="1162.938" x2="1694.844" y1="1004.705" y2="1004.705" gradientUnits="userSpaceOnUse" xlink:href="#linearGradient3641-9"/><linearGradient id="linearGradient7304" x1="-671.592" x2="-139.25" y1="1004.707" y2="1004.707" gradientUnits="userSpaceOnUse" xlink:href="#linearGradient3641-9"/><filter id="filter7318" width="1.195" height="1.201" x="-.098" y="-.1"><feGaussianBlur id="feGaussianBlur7320" stdDeviation="21.628"/></filter><filter id="filter7322" width="1.195" height="1.201" x="-.098" y="-.1"><feGaussianBlur id="feGaussianBlur7324" stdDeviation="21.628"/></filter><filter id="filter7326" width="1.195" height="1.201" x="-.098" y="-.1"><feGaussianBlur id="feGaussianBlur7328" stdDeviation="21.628"/></filter><linearGradient id="linearGradient7330" x1="-671.592" x2="-139.25" y1="1004.707" y2="1004.707" gradientUnits="userSpaceOnUse" xlink:href="#linearGradient3641-9"/><linearGradient id="linearGradient7332" x1="256.285" x2="788.594" y1="1004.699" y2="1004.699" gradientUnits="userSpaceOnUse" xlink:href="#linearGradient3641-9"/><linearGradient id="linearGradient7334" x1="256.285" x2="788.594" y1="1004.699" y2="1004.699" gradientUnits="userSpaceOnUse" xlink:href="#linearGradient3641-9"/><linearGradient id="linearGradient7336" x1="256.285" x2="788.594" y1="1004.699" y2="1004.699" gradientUnits="userSpaceOnUse" xlink:href="#linearGradient3641-9"/><linearGradient id="linearGradient7338" x1="256.285" x2="788.594" y1="1004.699" y2="1004.699" gradientUnits="userSpaceOnUse" xlink:href="#linearGradient3641-9"/><linearGradient id="linearGradient7340" x1="1162.938" x2="1694.844" y1="1004.705" y2="1004.705" gradientUnits="userSpaceOnUse" xlink:href="#linearGradient3641-9"/><linearGradient id="linearGradient7342" x1="1162.938" x2="1694.844" y1="1004.705" y2="1004.705" gradientUnits="userSpaceOnUse" xlink:href="#linearGradient3641-9"/><linearGradient id="linearGradient7344" x1="1162.938" x2="1694.844" y1="1004.705" y2="1004.705" gradientUnits="userSpaceOnUse" xlink:href="#linearGradient3641-9"/><linearGradient id="linearGradient7346" x1="1162.938" x2="1694.844" y1="1004.705" y2="1004.705" gradientUnits="userSpaceOnUse" xlink:href="#linearGradient3641-9"/><linearGradient id="linearGradient7399" x1="256.285" x2="788.594" y1="1004.699" y2="1004.699" gradientUnits="userSpaceOnUse" xlink:href="#linearGradient3641-9"/><linearGradient id="linearGradient7401" x1="256.285" x2="788.594" y1="1004.699" y2="1004.699" gradientUnits="userSpaceOnUse" xlink:href="#linearGradient3641-9"/><linearGradient id="linearGradient7403" x1="256.285" x2="788.594" y1="1004.699" y2="1004.699" gradientUnits="userSpaceOnUse" xlink:href="#linearGradient3641-9"/><linearGradient id="linearGradient7405" x1="256.285" x2="788.594" y1="1004.699" y2="1004.699" gradientUnits="userSpaceOnUse" xlink:href="#linearGradient3641-9"/><linearGradient id="linearGradient7407" x1="256.285" x2="788.594" y1="1004.699" y2="1004.699" gradientUnits="userSpaceOnUse" xlink:href="#linearGradient3641-9"/><linearGradient id="linearGradient7409" x1="1162.938" x2="1694.844" y1="1004.705" y2="1004.705" gradientUnits="userSpaceOnUse" xlink:href="#linearGradient3641-9"/><linearGradient id="linearGradient7411" x1="1162.938" x2="1694.844" y1="1004.705" y2="1004.705" gradientUnits="userSpaceOnUse" xlink:href="#linearGradient3641-9"/><linearGradient id="linearGradient7413" x1="1162.938" x2="1694.844" y1="1004.705" y2="1004.705" gradientUnits="userSpaceOnUse" xlink:href="#linearGradient3641-9"/><linearGradient id="linearGradient7415" x1="1162.938" x2="1694.844" y1="1004.705" y2="1004.705" gradientUnits="userSpaceOnUse" xlink:href="#linearGradient3641-9"/><linearGradient id="linearGradient7417" x1="1162.938" x2="1694.844" y1="1004.705" y2="1004.705" gradientUnits="userSpaceOnUse" xlink:href="#linearGradient3641-9"/><linearGradient id="linearGradient7419" x1="-671.592" x2="-139.25" y1="1004.707" y2="1004.707" gradientUnits="userSpaceOnUse" xlink:href="#linearGradient3641-9"/><linearGradient id="linearGradient7421" x1="-671.592" x2="-139.25" y1="1004.707" y2="1004.707" gradientUnits="userSpaceOnUse" xlink:href="#linearGradient3641-9"/></defs><metadata id="metadata7"/><g id="g7393" transform="matrix(-1,0,0,1,94.578803,5.2932272)"><g id="g7264" opacity=".7"><path id="path7248" fill="#2a7fff" fill-opacity="1" stroke="none" d="m -233.46875,42.03125 -38.78125,67.625 -1.75,3.03125 c -15.72817,-9.5757 -32.40261,-17.573382 -49.75,-23.84375 -39.94719,-14.439268 -81.32215,-18.87088 -121.3125,-14.59375 -102.19756,10.930444 -195.32353,78.64808 -232.125,180.90625 -51.20204,142.27223 24.12178,302.75413 166.15625,354.09375 142.03446,51.33961 302.20422,-24.04026 353.40625,-166.3125 L -242.25,412.375 c -34.21141,95.06132 -143.41005,146.45958 -238.3125,112.15625 -94.90245,-34.30334 -146.24266,-143.75118 -112.03125,-238.8125 34.21141,-95.06132 143.4413,-146.45959 238.34375,-112.15625 12.37278,4.47225 24.29069,10.2888 35.46875,17.28125 l -6.90625,12.03125 -38.78125,67.59375 77.9375,-0.21875 53.71875,-0.15625 53.71875,-0.15625 77.9375,-0.21875 -39.15625,-67.40625 -27.03125,-46.4375 -26.96875,-46.4375 -39.15625,-67.40625 z"/></g><g id="g7267" fill="url(#linearGradient7421)" fill-opacity="1" stroke="none" filter="url(#filter7326)" opacity=".4" transform="translate(0,-660)"><path id="path7226" fill="url(#linearGradient7419)" fill-opacity="1" stroke="none" d="m -251.71875,778.4375 c -4.68032,16.19929 -28.24884,21.39114 -39.875,9.5625 -86.18095,-51.11948 -203.09415,-41.90005 -281.23186,20.1387 -68.83175,52.47055 -108.68851,142.68722 -96.62816,229.3866 10.05389,86.6563 66.35266,167.2683 146.19668,203.0852 72.7907,33.9259 162.13971,29.7267 231.44459,-11.1418 45.5449,-25.9567 83.41356,-65.5402 105.0625,-113.4687 -14.57317,-4.8172 -28.60014,-11.8847 -43.53125,-15.4063 -40.03428,82.9303 -139.61846,132.1259 -230.00709,112.7191 -80.12266,-16.3968 -146.67006,-84.8022 -160.99945,-165.5125 -12.96823,-65.04837 6.61708,-136.43656 54.11538,-183.10565 51.73229,-52.55105 132.38224,-77.15459 204.14116,-56.94465 26.56359,7.15235 51.65805,19.4967 73.28125,36.5 -11.95697,21.60041 -24.54227,42.70006 -36.59375,64.21875 62.36458,-0.25 124.72917,-0.5 187.09375,-0.75 -31.29541,-53.89366 -62.64761,-107.75437 -93.875,-161.6875 -6.19792,10.80208 -12.39583,21.60417 -18.59375,32.40625 z"/></g></g><g id="g7367" transform="matrix(-1,0,0,1,2857.7819,760)"><g id="g7250" opacity=".7"><path id="path7244" fill="#2a7fff" fill-opacity="1" stroke="none" d="m 1600.6562,42.0625 -38.7812,67.59375 -1.75,3.03125 c -15.7218,-9.56354 -32.3782,-17.54459 -49.7188,-23.8125 -31.2087,-11.280678 -63.3241,-16.471585 -94.9374,-16.15625 -8.8518,0.08829 -17.6584,0.595628 -26.4063,1.53125 -89.8175,9.606349 -172.5877,63.08515 -216.3125,145.3125 l 79.625,42 c 42.6495,-79.30005 140.999,-119.26656 227.5,-88 12.3537,4.46535 24.2678,10.29448 35.4375,17.28125 l -6.875,12.03125 -38.75,67.59375 77.9063,-0.21875 53.7187,-0.15625 53.7187,-0.15625 77.9376,-0.21875 -39.1563,-67.40625 -27,-46.4375 -27,-46.4375 -39.1563,-67.375 z"/><path id="path7242" fill="#2a7fff" fill-opacity="1" stroke="none" d="m 1146.6875,291.5 c -17.885,85.32752 6.5907,173.24428 61.1563,237.53125 l 68.4687,-58.6875 c -36.6995,-43.51243 -53.4395,-103.05611 -41.5937,-160.25 L 1146.6875,291.5 z"/><path id="path7238" fill="#2a7fff" fill-opacity="1" stroke="none" d="m 1591.9062,412.375 c -3.646,10.13102 -8.1644,19.75533 -13.4062,28.84375 L 1656.625,486 c 7.7582,-13.54653 14.4293,-27.89954 19.875,-43.03125 L 1591.9062,412.375 z"/><path id="path7232" fill="#2a7fff" fill-opacity="1" stroke="none" d="m 1547.0938,481.40625 c -17.4945,16.91758 -38.1659,30.31099 -60.5626,39.5 l 33.5313,83.84375 c 33.3104,-13.55793 64.0133,-33.4299 90,-58.71875 l -62.9687,-64.625 z"/><path id="path7230" fill="#2a7fff" fill-opacity="1" stroke="none" d="m 1314.625,504.75 -49.7188,75.15625 c 17.8279,11.88473 37.2761,21.81637 58.1876,29.375 40.5824,14.66893 82.6395,18.97047 123.2187,14.34375 l -9.25,-89.78125 c -27.5947,3.3471 -56.1451,0.57517 -83.5,-9.3125 -13.9803,-5.05332 -26.9827,-11.75324 -38.9375,-19.78125 z"/></g><g id="g7276" fill="url(#linearGradient7417)" fill-opacity="1" stroke="none" filter="url(#filter7322)" opacity=".4" transform="translate(0,-660)"><path id="path7224" fill="url(#linearGradient7409)" fill-opacity="1" stroke="none" d="m 1582.4062,778.375 c -4.5529,16.16221 -28.1591,21.49507 -39.75,9.65625 -88.0084,-52.25337 -208.4702,-41.55216 -286.4687,24.46875 -20.4192,16.46953 -38.3081,36.19583 -52.7187,58.1875 13.7495,7.08256 26.8131,15.34415 41.0937,21.21875 48.584,-71.53682 144.8022,-107.6432 228.375,-83.71875 25.8158,7.36424 50.0647,19.71631 71.5,35.8125 -11.9836,21.61376 -24.3408,43.00522 -36.5937,64.46875 62.3333,-0.25 124.6666,-0.5 187,-0.75 -31.29,-53.89682 -62.6282,-107.76566 -93.875,-161.6875 -6.1875,10.78125 -12.3751,21.5625 -18.5626,32.34375 z"/><path id="path7220" fill="url(#linearGradient7411)" fill-opacity="1" stroke="none" d="m 1164.3125,980.5625 c -6.5468,62.0512 10.5095,126.0149 46.5937,176.6875 11.75,-10.0833 23.5001,-20.1667 35.25,-30.25 -27.5382,-40.4871 -40.9993,-90.5398 -36.2812,-139.53125 -15.0833,-3.1875 -30.1667,-6.375 -45.25,-9.5625 -0.1042,0.88542 -0.2083,1.77083 -0.3125,2.65625 z"/><path id="path7214" fill="url(#linearGradient7413)" fill-opacity="1" stroke="none" d="m 1545.625,1171.8125 c -9.6953,7.5941 -20.14,14.4087 -31.0312,20.1562 5.775,14.3914 11.3217,28.8825 17.375,43.1563 16.3552,-8.3466 31.9173,-18.425 46.1562,-30.125 -10.8532,-10.9785 -21.6212,-22.5446 -32.5,-33.1875 z"/><path id="path7212" fill="url(#linearGradient7415)" fill-opacity="1" stroke="none" d="m 1295.7188,1232.9062 c 38.5051,21.0346 82.3128,31.6104 126.1874,30.375 -1.4739,-15.3743 -3.0576,-30.7383 -4.7187,-46.0937 -33.2674,0.4758 -66.498,-7.5411 -95.9375,-22.9063 -8.5104,12.875 -17.0208,25.75 -25.5312,38.625 z"/></g></g><g id="g7380" transform="matrix(-1,0,0,1,1044.8789,760)"><g id="g7257" opacity=".7"><path id="path7246" fill="#2a7fff" fill-opacity="1" stroke="none" d="m 694.40625,42.0625 -38.75,67.59375 -1.75,3.03125 C 638.17772,103.11781 621.50522,95.145937 604.15625,88.875 572.94751,77.594322 540.83216,72.403415 509.21875,72.71875 500.367,72.807044 491.56039,73.314378 482.8125,74.25 380.61494,85.180444 287.52022,152.89808 250.71875,255.15625 c -16.2243,45.08156 -19.7469,91.99736 -12.46875,136.6875 l 89,-14.09375 c -5.03706,-30.21092 -2.79802,-61.82249 8.0625,-92 34.21141,-95.06132 143.41005,-146.49084 238.3125,-112.1875 12.36197,4.46834 24.29258,10.28824 35.46875,17.28125 l -6.90625,12.03125 -38.75,67.59375 77.9375,-0.21875 53.6875,-0.15625 53.75,-0.15625 77.90625,-0.21875 -39.15625,-67.375 -27,-46.46875 -27,-46.4375 -39.15625,-67.375 z"/><path id="path7240" fill="#2a7fff" fill-opacity="1" stroke="none" d="m 685.65625,412.375 c -3.64603,10.13102 -8.16448,19.75533 -13.40625,28.84375 L 750.375,486 c 7.75813,-13.54653 14.42928,-27.89954 19.875,-43.03125 L 685.65625,412.375 z"/><path id="path7236" fill="#2a7fff" fill-opacity="1" stroke="none" d="m 342.4375,426.9375 -81.75,37.96875 c 22.26414,48.13232 57.99859,89.99134 104.125,118.96875 L 412.5,507.46875 C 381.57616,487.91149 357.50056,459.52922 342.4375,426.9375 z"/><path id="path7234" fill="#2a7fff" fill-opacity="1" stroke="none" d="m 640.84375,481.40625 c -12.46989,12.05877 -26.5493,22.30089 -41.71875,30.53125 l 42.78125,79.53125 c 22.50564,-12.1982 43.41202,-27.43992 61.90625,-45.4375 l -62.96875,-64.625 z"/><path id="path9832" fill="#2a7fff" fill-opacity="1" stroke="none" d="M 459.59375,528.46875 434.6875,615 c 45.42196,12.95874 92.10602,13.46702 136.0625,3.375 l -19.34375,-88.1875 c -29.75442,7.01111 -61.3089,6.8745 -91.8125,-1.71875 z"/></g><g id="g7270" fill="url(#linearGradient7407)" fill-opacity="1" stroke="none" filter="url(#filter7318)" opacity=".4" transform="translate(0,-660)"><path id="path7222" fill="url(#linearGradient7399)" fill-opacity="1" stroke="none" d="m 676.1875,778.4375 c -4.69155,16.15268 -28.22302,21.40109 -39.8125,9.53125 -87.76133,-51.91549 -207.12205,-41.55628 -285.4403,23.4332 -63.64666,50.77325 -100.92122,134.02628 -93.77845,215.62925 14.8923,-3.6434 31.17222,-4.3809 45.65625,-8.0625 -6.00622,-88.06423 51.96721,-175.41386 134.99841,-204.47718 62.68434,-23.89419 137.38687,-15.63533 192.15784,23.19598 5.75609,5.16997 6.6189,14.88696 0.80634,20.34332 -10.46178,16.42434 -19.34371,33.79543 -29.24384,50.53168 62.35214,-0.63232 124.70873,-0.44991 187.0625,-0.8125 C 757.3125,853.85417 726.03125,799.95833 694.75,746.0625 c -6.1875,10.79167 -12.375,21.58333 -18.5625,32.375 z"/><path id="path7218" fill="url(#linearGradient7401)" fill-opacity="1" stroke="none" d="m 290.75,1135.2187 c 17.02197,29.9875 40.30095,56.748 67.65625,77.5313 8.17708,-13.1146 16.35417,-26.2292 24.53125,-39.3438 -20.11664,-15.9142 -37.07117,-35.6651 -50.1875,-57.75 -14,6.5209 -28,13.0417 -42,19.5625 z"/><path id="path7216" fill="url(#linearGradient7403)" fill-opacity="1" stroke="none" d="m 638.8125,1172.2187 c -3.38675,2.6562 -6.90832,5.1246 -10.4375,7.5938 7.59106,13.5725 13.88513,27.7822 22.34375,40.7812 7.32212,-4.8973 14.38727,-10.0297 21.15625,-15.625 -10.7599,-11.096 -21.52535,-22.2382 -32.375,-33.2812 l -0.6875,0.5312 z"/><path id="path6978" fill="url(#linearGradient7405)" fill-opacity="1" stroke="none" d="m 462.21875,1258.9375 c 26.952,5.1581 54.87279,5.7474 82.03125,1.9375 -3.75633,-14.9806 -5.84075,-30.7961 -10.46875,-45.2813 -19.42963,2.6173 -39.39203,2.047 -58.71875,-1.1875 -4.28125,14.8438 -8.5625,29.6875 -12.84375,44.5313 z"/></g></g></svg>