<svg xmlns="http://www.w3.org/2000/svg" xmlns:svg="http://www.w3.org/2000/svg" xmlns:xlink="http://www.w3.org/1999/xlink" id="svg2" width="1000" height="700" version="1.1"><defs id="defs4"><marker id="TriangleOutM" orient="auto" overflow="visible" refX="0" refY="0"><path id="path4127" fill-rule="evenodd" stroke="#000" stroke-width="1pt" d="M 5.77,0.0 L -2.88,5.0 L -2.88,-5.0 L 5.77,0.0 z" transform="scale(0.4)"/></marker><marker id="TriangleOutS" orient="auto" overflow="visible" refX="0" refY="0"><path id="path4130" fill-rule="evenodd" stroke="#000" stroke-width="1pt" d="M 5.77,0.0 L -2.88,5.0 L -2.88,-5.0 L 5.77,0.0 z" transform="scale(0.2)"/></marker><linearGradient id="linearGradient8562" x1="-213.564" x2="253.595" y1="24.514" y2="24.514" gradientTransform="matrix(0,1,-1,0,44.530081,4.498828)" gradientUnits="userSpaceOnUse" xlink:href="#linearGradient3641"/><linearGradient id="linearGradient3641"><stop id="stop3643" offset="0" stop-color="#fff" stop-opacity="1"/><stop id="stop3645" offset="1" stop-color="#fff" stop-opacity="0"/></linearGradient><linearGradient id="linearGradient6791" x1="-213.564" x2="253.595" y1="24.514" y2="24.514" gradientTransform="matrix(0,1,-1,0,44.530081,4.498828)" gradientUnits="userSpaceOnUse" xlink:href="#linearGradient3641"/><linearGradient id="linearGradient10554" x1="-219.851" x2="74.444" y1="137.424" y2="137.424" gradientUnits="userSpaceOnUse" xlink:href="#linearGradient3641-6"/><linearGradient id="linearGradient3641-6"><stop id="stop3643-4" offset="0" stop-color="#fff" stop-opacity="1"/><stop id="stop3645-9" offset="1" stop-color="#fff" stop-opacity="0"/></linearGradient><linearGradient id="linearGradient10556" x1="-219.663" x2="279.881" y1="34.625" y2="34.625" gradientUnits="userSpaceOnUse" xlink:href="#linearGradient3641-6"/><linearGradient id="linearGradient3179" x1="-219.663" x2="279.881" y1="34.625" y2="34.625" gradientUnits="userSpaceOnUse" xlink:href="#linearGradient3641-6"/><linearGradient id="linearGradient3641-6-0"><stop id="stop3643-4-4" offset="0" stop-color="#fff" stop-opacity="1"/><stop id="stop3645-9-8" offset="1" stop-color="#fff" stop-opacity="0"/></linearGradient><linearGradient id="linearGradient3275" x1="-219.851" x2="74.444" y1="137.424" y2="137.424" gradientUnits="userSpaceOnUse" xlink:href="#linearGradient3641-6-0"/><linearGradient id="linearGradient3279" x1="-181.867" x2="2.605" y1="212.954" y2="28.482" gradientUnits="userSpaceOnUse" xlink:href="#linearGradient3641-6-0"/><linearGradient id="linearGradient3285" x1="-181.867" x2="2.605" y1="212.954" y2="28.482" gradientUnits="userSpaceOnUse" xlink:href="#linearGradient3641-6-0"/><linearGradient id="linearGradient5003" x1="-181.867" x2="2.605" y1="212.954" y2="28.482" gradientUnits="userSpaceOnUse" xlink:href="#linearGradient3641-6-0"/><linearGradient id="linearGradient5011" x1="-181.867" x2="2.605" y1="212.954" y2="28.482" gradientUnits="userSpaceOnUse" xlink:href="#linearGradient3641-6-0"/><linearGradient id="linearGradient5017" x1="-181.867" x2="2.605" y1="212.954" y2="28.482" gradientUnits="userSpaceOnUse" xlink:href="#linearGradient3641-6-0"/><linearGradient id="linearGradient5022" x1="-181.867" x2="2.605" y1="212.954" y2="28.482" gradientUnits="userSpaceOnUse" xlink:href="#linearGradient3641-6-0"/><linearGradient id="linearGradient3637"><stop id="stop3639" offset="0" stop-color="#f0f0f0" stop-opacity="1"/><stop id="stop3641" offset="1" stop-color="#aaa" stop-opacity="1"/></linearGradient><linearGradient id="linearGradient3741" x1="-189.496" x2="249.49" y1="34.822" y2="34.822" gradientUnits="userSpaceOnUse" xlink:href="#linearGradient3641"/><linearGradient id="linearGradient3765" x1="48" x2="48" y1="76" y2="20" gradientTransform="matrix(9.9895684,0,0,9.9895684,-1275.6462,-551.44847)" gradientUnits="userSpaceOnUse" xlink:href="#linearGradient4081"/><linearGradient id="linearGradient4081"><stop id="stop4083" offset="0" stop-color="#aaa" stop-opacity="1"/><stop id="stop4085" offset="1" stop-color="#f0f0f0" stop-opacity="1"/></linearGradient><linearGradient id="linearGradient3741-4" x1="-189.496" x2="249.49" y1="34.822" y2="34.822" gradientUnits="userSpaceOnUse" xlink:href="#linearGradient3641-9"/><linearGradient id="linearGradient3641-9"><stop id="stop3643-5" offset="0" stop-color="#fff" stop-opacity="1"/><stop id="stop3645-0" offset="1" stop-color="#fff" stop-opacity="0"/></linearGradient><linearGradient id="linearGradient2947" x1="-189.496" x2="249.49" y1="34.822" y2="34.822" gradientTransform="translate(-31.96339,-249.30259)" gradientUnits="userSpaceOnUse" xlink:href="#linearGradient3641-9"/><linearGradient id="linearGradient3765-7" x1="48" x2="48" y1="76" y2="20" gradientUnits="userSpaceOnUse" xlink:href="#linearGradient4081-7"/><linearGradient id="linearGradient4081-7"><stop id="stop4083-6" offset="0" stop-color="#aaa" stop-opacity="1"/><stop id="stop4085-7" offset="1" stop-color="#f0f0f0" stop-opacity="1"/></linearGradient><linearGradient id="linearGradient4118" x1="329.131" x2="718.76" y1="-232.328" y2="-232.328" gradientUnits="userSpaceOnUse" xlink:href="#linearGradient3641"/><linearGradient id="linearGradient4132" x1="329.131" x2="718.76" y1="-232.328" y2="-232.328" gradientUnits="userSpaceOnUse" xlink:href="#linearGradient3641"/><linearGradient id="linearGradient3772" x1="-253.516" x2="313.506" y1="116.797" y2="116.797" gradientUnits="userSpaceOnUse" xlink:href="#linearGradient3641"/><linearGradient id="linearGradient2966" x1="-253.516" x2="313.506" y1="116.797" y2="116.797" gradientUnits="userSpaceOnUse" xlink:href="#linearGradient3641"/><linearGradient id="linearGradient7757" x1="43.02" x2="956.98" y1="350" y2="350" gradientUnits="userSpaceOnUse" xlink:href="#linearGradient3641-9"/><linearGradient id="linearGradient7879" x1="-253.516" x2="313.506" y1="116.797" y2="116.797" gradientUnits="userSpaceOnUse" xlink:href="#linearGradient3641"/><linearGradient id="linearGradient23533" x1="55.942" x2="943.221" y1="349.586" y2="349.586" gradientUnits="userSpaceOnUse" xlink:href="#linearGradient3641-9"/><filter id="filter9589"><feGaussianBlur id="feGaussianBlur9591" stdDeviation="7.982"/></filter><linearGradient id="linearGradient9599" x1="189.816" x2="807.9" y1="346.174" y2="346.174" gradientUnits="userSpaceOnUse" xlink:href="#linearGradient3641-9"/><linearGradient id="linearGradient9838" x1="189.816" x2="807.9" y1="346.174" y2="346.174" gradientUnits="userSpaceOnUse" xlink:href="#linearGradient3641-9"/><linearGradient id="linearGradient26286" x1="802.877" x2="202.718" y1="346.174" y2="346.174" gradientUnits="userSpaceOnUse" xlink:href="#linearGradient3641-9"/></defs><metadata id="metadata7"/><path id="path9832" fill="#2a7fff" fill-opacity="1" stroke="none" d="m 331.82002,139.22787 c -0.0912,0.25914 -0.1828,0.51814 -0.27481,0.777" transform="matrix(-1,0,0,1,1002.9182,0)"/><path font-stretch="normal" style="text-indent:0;text-align:start;line-height:normal;text-transform:none;block-progression:tb;marker:none;-inkscape-font-specification:Sans" id="path9834" fill="#2a7fff" fill-opacity="1" stroke="none" stroke-width="90" d="m 501.6682,88.09375 c 77.18571,0.682444 154.23343,29.46608 213.125,86.65625 121.58258,118.07001 124.47626,316.91742 6.40625,438.5 l -64.5625,-62.71875 c 83.13503,-85.60829 81.04579,-228.08372 -4.5625,-311.21875 -84.93683,-82.48296 -225.8505,-81.0742 -309.25,2.5625 l 72.4375,72.5625 -219.71875,-0.0937 0.40625,-219.5625 83.28125,83.4375 c 58.71053,-58.82561 136.61667,-88.976598 214.96875,-90.125 2.48958,-0.03649 4.97889,-0.02201 7.46875,0 z" baseline-shift="baseline" color="#000" direction="ltr" display="inline" enable-background="accumulate" font-family="Sans" font-size="medium" font-style="normal" font-variant="normal" font-weight="normal" letter-spacing="normal" opacity=".7" overflow="visible" text-anchor="start" text-decoration="none" visibility="visible" word-spacing="normal" writing-mode="lr-tb"/><path font-stretch="normal" style="text-indent:0;text-align:start;line-height:normal;text-transform:none;block-progression:tb;marker:none;-inkscape-font-specification:Sans" id="path9836" fill="url(#linearGradient26286)" fill-opacity="1" stroke="none" stroke-width="90" d="M 303.86464,183.03402 C 192.8259,310.47633 191.58903,465.30067 280.06195,588.39793 l 38.05362,-41.18029 c -83.13503,-85.60829 -60.33573,-240.50975 25.27256,-323.64478 84.93683,-82.48296 239.10494,-89.35823 344.0429,19.13054 l -59.18306,56.82286 157.58857,0.73465 2.90736,-158.26073 -67.54161,59.41384 C 591.45544,82.18947 424.97963,67.991206 303.86464,183.03402 z" baseline-shift="baseline" color="#000" direction="ltr" display="inline" enable-background="accumulate" filter="url(#filter9589)" font-family="Sans" font-size="medium" font-style="normal" font-variant="normal" font-weight="normal" letter-spacing="normal" opacity=".4" overflow="visible" text-anchor="start" text-decoration="none" transform="matrix(-1,0,0,1,1002.9182,0)" visibility="visible" word-spacing="normal" writing-mode="lr-tb"/></svg>