<svg xmlns="http://www.w3.org/2000/svg" xmlns:svg="http://www.w3.org/2000/svg" xmlns:xlink="http://www.w3.org/1999/xlink" id="svg5077" width="1000" height="1000" version="1.0"><defs id="defs5079"><linearGradient id="linearGradient4578"><stop id="stop4580" offset="0" stop-color="#FFF" stop-opacity="1"/><stop id="stop4582" offset="1" stop-color="#FFF" stop-opacity="0"/></linearGradient><linearGradient id="linearGradient4594"><stop id="stop4596" offset="0" stop-color="#FFF" stop-opacity="1"/><stop id="stop4598" offset="1" stop-color="#C0CBE4" stop-opacity="1"/></linearGradient><linearGradient id="linearGradient4567"><stop id="stop4569" offset="0" stop-color="red" stop-opacity="1"/><stop id="stop4571" offset="1" stop-color="#700" stop-opacity="1"/></linearGradient><filter id="filter4051" color-interpolation-filters="sRGB"><feGaussianBlur id="feGaussianBlur4053" in="SourceAlpha" result="result0" stdDeviation="6"/><feSpecularLighting id="feSpecularLighting4055" in="result0" lighting-color="#FFF" result="result1" specularConstant="1" specularExponent="25" surfaceScale="10"><feDistantLight id="feDistantLight4057" azimuth="235" elevation="45"/></feSpecularLighting><feComposite id="feComposite4059" in="SourceGraphic" in2="result1" k2="1" k3="1" operator="arithmetic" result="result4"/><feComposite id="feComposite4061" in="result4" in2="SourceAlpha" operator="in" result="result2"/></filter><filter id="filter6262" width="1.5" height="1.5" x="-.25" y="-.25" color-interpolation-filters="sRGB"><feGaussianBlur id="feGaussianBlur6264" result="result1" stdDeviation="1"/><feComposite id="feComposite6266" in="result1" in2="result1" operator="in" result="result4"/><feGaussianBlur id="feGaussianBlur6268" in="result4" result="result6" stdDeviation="7"/><feComposite id="feComposite6270" in="result6" in2="result4" operator="over" result="result8"/><feComposite id="feComposite6272" in="result6" in2="result8" operator="in" result="fbSourceGraphic"/><feSpecularLighting id="feSpecularLighting6274" in="fbSourceGraphic" lighting-color="#FFF" result="result1" specularConstant="2" specularExponent="45" surfaceScale="2.5"><fePointLight id="fePointLight6276" x="-5000" y="-10000" z="20000"/></feSpecularLighting><feComposite id="feComposite6278" in="result1" in2="fbSourceGraphic" operator="in" result="result2"/><feComposite id="feComposite6280" in="fbSourceGraphic" in2="result2" k2="1.2" k3="1.5" operator="arithmetic" result="result4"/><feComposite id="feComposite6282" in="result9" in2="result4" operator="over" result="result9"/><feBlend id="feBlend6284" in2="result9" mode="screen"/></filter><filter id="filter6540" color-interpolation-filters="sRGB"><feGaussianBlur id="feGaussianBlur6542" in="SourceAlpha" result="result0" stdDeviation="6"/><feSpecularLighting id="feSpecularLighting6544" in="result0" lighting-color="#FFF" result="result1" specularConstant="1" specularExponent="25" surfaceScale="10"><feDistantLight id="feDistantLight6546" azimuth="235" elevation="45"/></feSpecularLighting><feComposite id="feComposite6548" in="SourceGraphic" in2="result1" k2="1" k3="1" operator="arithmetic" result="result4"/><feComposite id="feComposite6550" in="result4" in2="SourceAlpha" operator="in" result="result2"/></filter><linearGradient id="linearGradient3914" x1="-263.002" x2="222.292" y1="-16.222" y2="-16.222" gradientTransform="translate(-196.84836,11.83551)" gradientUnits="userSpaceOnUse" xlink:href="#linearGradient3641-4"/><linearGradient id="linearGradient3641-4"><stop id="stop3643-9" offset="0" stop-color="#fff" stop-opacity="1"/><stop id="stop3645-5" offset="1" stop-color="#fff" stop-opacity="0"/></linearGradient><linearGradient id="linearGradient4009" x1="-1058.943" x2="-129.118" y1="-77.696" y2="-77.696" gradientUnits="userSpaceOnUse" xlink:href="#linearGradient3641-4"/><filter id="filter4015"><feGaussianBlur id="feGaussianBlur4017" stdDeviation="14.005"/></filter><linearGradient id="linearGradient4009-3" x1="-1058.943" x2="-129.118" y1="-77.696" y2="-77.696" gradientTransform="translate(-1225.8921,-5.2133542)" gradientUnits="userSpaceOnUse" xlink:href="#linearGradient3641-4-6"/><linearGradient id="linearGradient3641-4-6"><stop id="stop3643-9-5" offset="0" stop-color="#fff" stop-opacity="1"/><stop id="stop3645-5-6" offset="1" stop-color="#fff" stop-opacity="0"/></linearGradient><filter id="filter4015-3" color-interpolation-filters="sRGB"><feGaussianBlur id="feGaussianBlur4017-9" stdDeviation="14.005"/></filter></defs><metadata id="metadata5082"/><g id="layer1" transform="translate(1094.0343,577.83337)"><path id="polygon10-8" fill="#fff" stroke="none" d="m -594.18256,-411.71105 -385.34383,667.75537 770.98411,0 -385.64028,-667.75537 z m 0.11858,134.06099 c 29.36843,0 53.24493,28.35247 53.24493,124.63344 0,96.281015 -23.8765,224.186029 -53.24493,224.186029 -29.36824,0 -53.18563,-127.905014 -53.18563,-224.186029 0,-96.28097 23.81739,-124.63344 53.18563,-124.63344 z m 0,375.145466 c 30.14664,0 54.60866,24.435954 54.60866,54.608654 0,30.17271 -24.46202,54.60865 -54.60866,54.60865 -30.14663,0 -54.54936,-24.43594 -54.54936,-54.60865 0,-30.1727 24.40273,-54.608654 54.54936,-54.608654 z" opacity=".25"/><path id="path8-3-6" fill="#2a7fff" fill-opacity="1" stroke="none" d="m -594.18349,-508.08669 c -27.86864,0 -53.53757,14.87966 -67.6084,39.05969 l -406.54561,703.93633 c -6.8306,11.88513 -10.3785,25.39862 -10.3784,39.05969 0,43.30555 34.9466,78.45093 78.252,78.45093 l 812.85919,0 c 43.30555,-0.13662 78.25198,-35.28199 78.25198,-78.45093 0,-13.66107 -3.64723,-27.21169 -10.47781,-38.96021 L -526.40931,-469.027 c -13.93427,-24.18003 -39.76909,-39.05969 -67.77418,-39.05969 z m 0,96.35605 385.62316,667.76139 -770.98106,0 385.3579,-667.76139 z" opacity=".7"/><path id="path4562-5" fill="#000" fill-opacity="1" fill-rule="nonzero" stroke="none" d="m -540.83112,-153.00796 c 0,96.281009 -23.8351,224.181668 -53.2034,224.181668 -29.36829,0 -53.20338,-127.900659 -53.20338,-224.181668 0,-96.28097 23.83509,-124.66236 53.20338,-124.66236 29.3683,0 53.2034,28.38139 53.2034,124.66236 z" opacity=".7"/><path id="path4565-0" fill="#000" fill-opacity="1" fill-rule="nonzero" stroke="none" d="m 103.7037,161.57408 c 0,9.46043 -7.669193,17.12963 -17.129626,17.12963 -9.460433,0 -17.129629,-7.6692 -17.129629,-17.12963 0,-9.46043 7.669196,-17.12963 17.129629,-17.12963 9.460433,0 17.129626,7.6692 17.129626,17.12963 z" opacity=".7" transform="matrix(3.1866019,0,0,3.1893584,-869.91161,-363.21042)"/><path id="path8-3-6-6" fill="url(#linearGradient4009)" fill-opacity="1" stroke="none" d="m -596.53125,-488.0625 c -25.07548,0.74596 -46.35004,19.57771 -55.5625,42 -134.37917,233.66149 -270.5017,466.284662 -403.53125,700.65625 -12.6181,32.78003 12.3231,75.41352 48.2443,76.98153 30.79089,2.85751 61.72496,-0.72497 92.56819,0.82155 245.72904,-0.28455 491.46073,0.78304 737.18751,-0.70933 34.84411,-5.09266 59.44027,-47.23194 43.59375,-79.40625 -13.18523,-28.9251 -32.34985,-54.85448 -46.90977,-83.18514 C -303.44455,-42.605782 -424.84364,-254.94859 -548.46875,-466 c -11.16551,-14.4799 -29.7988,-22.84732 -48.0625,-22.0625 z m 4.09375,39.34375 c 139.29923,241.60305 278.92354,483.252984 418.5625,724.75 -280.11458,0 -560.22917,0 -840.3438,0 140.19962,-242.474024 280.136,-485.10031 420.0313,-727.75 0.58333,1 1.16667,2 1.75,3 z" filter="url(#filter4015)" opacity=".4"/><path id="polygon10-8-4" fill="#fff" stroke="none" d="m -1820.0746,-416.92441 -385.3438,667.75538 770.9841,0 -385.6403,-667.75538 z m 0.1186,134.061 c 29.3684,0 53.2449,28.35247 53.2449,124.63344 0,96.281016 -23.8765,224.186026 -53.2449,224.186026 -29.3683,0 -53.1857,-127.90501 -53.1857,-224.186026 0,-96.28097 23.8174,-124.63344 53.1857,-124.63344 z m 0,375.145466 c 30.1466,0 54.6086,24.435954 54.6086,54.608654 0,30.17271 -24.462,54.60865 -54.6086,54.60865 -30.1467,0 -54.5494,-24.43594 -54.5494,-54.60865 0,-30.1727 24.4027,-54.608654 54.5494,-54.608654 z" opacity=".25"/><path id="path8-3-6-8" fill="#a00" fill-opacity="1" stroke="none" d="m -1820.0755,-513.30005 c -27.8687,0 -53.5376,14.87966 -67.6084,39.05969 l -406.5457,703.93634 c -6.8306,11.88513 -10.3785,25.39862 -10.3784,39.05969 0,43.30555 34.9466,78.45093 78.252,78.45093 l 812.8592,0 c 43.3056,-0.13662 78.252,-35.28199 78.252,-78.45093 0,-13.66107 -3.6472,-27.21169 -10.4778,-38.96021 l -406.5788,-704.03582 c -13.9342,-24.18003 -39.7691,-39.05969 -67.7741,-39.05969 z m 0,96.35605 385.6231,667.7614 -770.981,0 385.3579,-667.7614 z" opacity=".7"/><path id="path4562-5-1" fill="#000" fill-opacity="1" fill-rule="nonzero" stroke="none" d="m -1766.7232,-158.22131 c 0,96.281006 -23.8351,224.181666 -53.2034,224.181666 -29.3683,0 -53.2034,-127.90066 -53.2034,-224.181666 0,-96.28097 23.8351,-124.66236 53.2034,-124.66236 29.3683,0 53.2034,28.38139 53.2034,124.66236 z" opacity=".7"/><path id="path4565-0-2" fill="#000" fill-opacity="1" fill-rule="nonzero" stroke="none" d="m 103.7037,161.57408 a 17.129629,17.129629 0 1 1 -34.259255,0 17.129629,17.129629 0 1 1 34.259255,0 z" opacity=".7" transform="matrix(3.1866019,0,0,3.1893584,-2095.8037,-368.42378)"/><path id="path8-3-6-6-9" fill="url(#linearGradient4009-3)" fill-opacity="1" stroke="none" d="m -1822.4233,-493.27586 c -25.0755,0.74596 -46.35,19.57771 -55.5625,42 -134.3792,233.6615 -270.5017,466.284666 -403.5313,700.65626 -12.6181,32.78003 12.3231,75.41352 48.2443,76.98153 30.7909,2.85751 61.725,-0.72497 92.5682,0.82155 245.7291,-0.28455 491.4608,0.78304 737.1875,-0.70933 34.8442,-5.09266 59.4403,-47.23194 43.5938,-79.40625 -13.1852,-28.9251 -32.3499,-54.85448 -46.9098,-83.18514 -122.5035,-211.701894 -243.9026,-424.0447 -367.5277,-635.09612 -11.1655,-14.4799 -29.7988,-22.84732 -48.0625,-22.0625 z m 4.0937,39.34375 c 139.2993,241.60306 278.9236,483.252996 418.5625,724.75001 -280.1145,0 -560.2291,0 -840.3438,0 140.1997,-242.474024 280.136,-485.10031 420.0313,-727.75001 0.5834,1 1.1667,2 1.75,3 z" filter="url(#filter4015-3)" opacity=".4"/></g></svg>