<svg xmlns="http://www.w3.org/2000/svg" xmlns:svg="http://www.w3.org/2000/svg" xmlns:xlink="http://www.w3.org/1999/xlink" id="svg2" width="1000" height="1000" version="1.1"><defs id="defs4"><linearGradient id="linearGradient8562" x1="-213.564" x2="253.595" y1="24.514" y2="24.514" gradientTransform="matrix(0,1,-1,0,44.530081,4.498828)" gradientUnits="userSpaceOnUse" xlink:href="#linearGradient3641"/><linearGradient id="linearGradient3641"><stop id="stop3643" offset="0" stop-color="#fff" stop-opacity="1"/><stop id="stop3645" offset="1" stop-color="#fff" stop-opacity="0"/></linearGradient><linearGradient id="linearGradient6791" x1="-213.564" x2="253.595" y1="24.514" y2="24.514" gradientTransform="matrix(0,1,-1,0,44.530081,4.498828)" gradientUnits="userSpaceOnUse" xlink:href="#linearGradient3641"/><linearGradient id="linearGradient7354" x1="-1.887" x2="323.882" y1="-163.788" y2="-163.788" gradientTransform="translate(-294.13778,123.54099)" gradientUnits="userSpaceOnUse" xlink:href="#linearGradient3641"/><linearGradient id="linearGradient6901" x1="-203.313" x2="263.344" y1="30.719" y2="30.719" gradientUnits="userSpaceOnUse" xlink:href="#linearGradient3641-8"/><linearGradient id="linearGradient3641-8"><stop id="stop3643-7" offset="0" stop-color="#fff" stop-opacity="1"/><stop id="stop3645-1" offset="1" stop-color="#fff" stop-opacity="0"/></linearGradient><linearGradient id="linearGradient3843" x1="-203.313" x2="263.344" y1="30.719" y2="30.719" gradientUnits="userSpaceOnUse" xlink:href="#linearGradient3641-8"/><linearGradient id="linearGradient3875" x1="-203.313" x2="263.344" y1="30.719" y2="30.719" gradientTransform="translate(-708.90407,-377.00114)" gradientUnits="userSpaceOnUse" xlink:href="#linearGradient3641-8"/><linearGradient id="linearGradient4760" x1="-1013.624" x2="-820.688" y1="-111.861" y2="-111.861" gradientUnits="userSpaceOnUse" xlink:href="#linearGradient3641"/><linearGradient id="linearGradient4774" x1="-1013.624" x2="-820.688" y1="-111.861" y2="-111.861" gradientUnits="userSpaceOnUse" xlink:href="#linearGradient3641"/><linearGradient id="linearGradient6343" x1="-234.531" x2="294.995" y1="-27.46" y2="-27.46" gradientUnits="userSpaceOnUse" xlink:href="#linearGradient3641"/><linearGradient id="linearGradient10531" x1="-234.531" x2="294.995" y1="-27.46" y2="-27.46" gradientUnits="userSpaceOnUse" xlink:href="#linearGradient3641"/><linearGradient id="linearGradient10536" x1="-1013.624" x2="-820.688" y1="-111.861" y2="-111.861" gradientUnits="userSpaceOnUse" xlink:href="#linearGradient3641"/></defs><metadata id="metadata7"/><g id="layer1" display="inline" transform="translate(464.16179,464.03236)"><path id="text4182" fill="#2a7fff" fill-opacity="1" stroke="none" stroke-linecap="butt" stroke-linejoin="miter" stroke-opacity="1" stroke-width="1" d="M -330.61201,-223.32853 C -375.55171,-223.32853 -411.7306,-187.14964 -411.7306,-142.20994 L -411.7306,214.14523 C -411.7306,259.08493 -375.55171,295.26382 -330.61201,295.26382 L 402.28846,295.26382 C 447.22813,295.26382 483.40702,259.08493 483.40702,214.14523 L 483.40702,-142.20994 C 483.40702,-187.14964 447.22813,-223.32853 402.28846,-223.32853 L -330.61201,-223.32853 z M -256.94917,-161.26684 L -205.29571,-161.26684 L -108.57963,233.20213 L -161.6646,233.20213 L -182.77929,143.61381 L -279.25678,143.61381 L -299.14873,233.20213 L -351.01095,233.20213 L -256.94917,-161.26684 z M -121.64221,-161.26684 L -71.599104,-161.26684 L -35.423838,109.70504 L 8.8037361,-161.26684 L 66.898964,-161.26684 L 109.33707,114.26796 L 146.52631,-161.26684 L 195.55535,-161.26684 L 136.86366,233.20213 L 85.001484,233.20213 L 36.747851,-61.717638 L -11.08826,233.20213 L -63.964413,233.20213 L -121.64221,-161.26684 z M 220.27867,-161.26684 L 316.99465,-161.26684 C 343.3956,-161.26646 361.95296,-158.0319 372.67426,-151.57437 C 383.39528,-145.11608 392.44219,-133.72103 399.8132,-117.39719 C 407.18383,-101.07266 410.84753,-82.61521 410.84772,-61.986045 C 410.84753,-42.970769 407.72207,-25.789193 401.42364,-10.451881 C 395.12474,4.8859173 386.93014,16.251358 376.87926,23.605999 C 391.21873,30.42289 402.44125,42.055182 410.54949,58.558569 C 418.65715,75.062318 422.71699,95.18179 422.71728,118.86071 C 422.71699,147.56269 417.55794,171.80667 407.23918,191.62886 C 396.91965,211.45112 384.7176,223.70675 370.6463,228.37081 C 360.86292,231.59976 338.14847,233.20213 302.50076,233.20213 L 220.27867,233.20213 L 220.27867,-161.26684 z M 268.94983,-95.596577 L 268.94983,-4.3978098 L 301.09903,-4.3978098 C 320.39695,-4.3975807 332.32998,-4.8426737 336.88665,-5.7398453 C 345.19539,-7.533463 351.70024,-12.251769 356.3909,-19.875953 C 361.08127,-27.499631 363.42894,-37.856022 363.42913,-50.951531 C 363.42894,-62.611384 361.49249,-72.07758 357.67324,-79.343038 C 353.8537,-86.607896 349.23299,-91.118318 343.80559,-92.912506 C 338.3778,-94.706038 322.8036,-95.596253 297.07288,-95.596577 L 268.94983,-95.596577 z M -231.62943,-69.233037 L -264.3751,77.138305 L -198.43642,77.138305 L -231.62943,-69.233037 z M 268.94983,61.272463 L 268.94983,166.75646 L 314.16151,166.75646 C 333.99568,166.75653 346.73607,165.36181 352.36484,162.58124 C 357.99323,159.80083 362.71118,154.31093 366.53072,146.14876 C 370.35007,137.98675 372.25655,127.63035 372.25674,115.07318 C 372.25655,102.15746 370.23021,91.534002 366.14297,83.192377 C 362.05546,74.851057 356.62729,69.123941 349.8597,65.984499 C 343.09184,62.84539 329.25205,61.272644 308.34607,61.272463 L 268.94983,61.272463 z" display="inline" font-family="Trebuchet MS" font-size="499.104" font-stretch="normal" font-style="normal" font-variant="normal" font-weight="normal" opacity=".7" text-anchor="middle" style="text-align:center;-inkscape-font-specification:Trebuchet MS"/></g></svg>