<svg xmlns="http://www.w3.org/2000/svg" xmlns:svg="http://www.w3.org/2000/svg" xmlns:xlink="http://www.w3.org/1999/xlink" id="svg2" width="1000" height="1000" version="1.1"><defs id="defs4"><linearGradient id="linearGradient8562" x1="-213.564" x2="253.595" y1="24.514" y2="24.514" gradientTransform="matrix(0,1,-1,0,44.530081,4.498828)" gradientUnits="userSpaceOnUse" xlink:href="#linearGradient3641"/><linearGradient id="linearGradient3641"><stop id="stop3643" offset="0" stop-color="#fff" stop-opacity="1"/><stop id="stop3645" offset="1" stop-color="#fff" stop-opacity="0"/></linearGradient><linearGradient id="linearGradient6791" x1="-213.564" x2="253.595" y1="24.514" y2="24.514" gradientTransform="matrix(0,1,-1,0,44.530081,4.498828)" gradientUnits="userSpaceOnUse" xlink:href="#linearGradient3641"/><linearGradient id="linearGradient7354" x1="-1.887" x2="323.882" y1="-163.788" y2="-163.788" gradientTransform="translate(-294.13778,123.54099)" gradientUnits="userSpaceOnUse" xlink:href="#linearGradient3641"/><linearGradient id="linearGradient6901" x1="-203.313" x2="263.344" y1="30.719" y2="30.719" gradientUnits="userSpaceOnUse" xlink:href="#linearGradient3641-8"/><linearGradient id="linearGradient3641-8"><stop id="stop3643-7" offset="0" stop-color="#fff" stop-opacity="1"/><stop id="stop3645-1" offset="1" stop-color="#fff" stop-opacity="0"/></linearGradient><linearGradient id="linearGradient3843" x1="-203.313" x2="263.344" y1="30.719" y2="30.719" gradientUnits="userSpaceOnUse" xlink:href="#linearGradient3641-8"/><linearGradient id="linearGradient3875" x1="-203.313" x2="263.344" y1="30.719" y2="30.719" gradientTransform="translate(-708.90407,-377.00114)" gradientUnits="userSpaceOnUse" xlink:href="#linearGradient3641-8"/><linearGradient id="linearGradient4760" x1="-1013.624" x2="-820.688" y1="-111.861" y2="-111.861" gradientUnits="userSpaceOnUse" xlink:href="#linearGradient3641"/><linearGradient id="linearGradient4774" x1="-1013.624" x2="-820.688" y1="-111.861" y2="-111.861" gradientUnits="userSpaceOnUse" xlink:href="#linearGradient3641"/><linearGradient id="linearGradient6343" x1="-234.531" x2="294.995" y1="-27.46" y2="-27.46" gradientUnits="userSpaceOnUse" xlink:href="#linearGradient3641"/><linearGradient id="linearGradient10531" x1="-234.531" x2="294.995" y1="-27.46" y2="-27.46" gradientUnits="userSpaceOnUse" xlink:href="#linearGradient3641"/><linearGradient id="linearGradient10536" x1="-1013.624" x2="-820.688" y1="-111.861" y2="-111.861" gradientUnits="userSpaceOnUse" xlink:href="#linearGradient3641"/></defs><metadata id="metadata7"/><g id="layer1" display="inline" transform="translate(464.16179,464.03236)"><path id="path10598" fill="#2a7fff" fill-opacity="1" stroke="none" d="m -199.29608,337.51663 c 184.809253,0 265.877483,0 397.8841,0 104.19694,0 236.97245,12.53996 238.72812,-53.53702 1.31977,-49.67115 35.69063,-41.8994 35.69063,-116.18568 0,-117.235319 -96.432,-158.4658968 -162.14847,-120.819888 -3.50076,38.899751 -25.012,90.152438 -85.08451,108.024958 95.60099,-105.134965 90.12814,-398.15114 -197.595147,-420.83001 -130.142603,-10.25808 -225.148023,94.23224 -233.799403,186.349483 64.59364,7.30587 125.54713,39.373014 128.800417,125.759517 -83.164747,-104.391033 -206.510227,-79.24746 -249.142007,-52.0645028 -64.81109,41.3249598 -75.368,94.8245158 -75.368,168.0437328 0,97.87486 67.12219,175.25941 202.03427,175.25941 z" display="inline" opacity=".7"/></g></svg>