<svg xmlns="http://www.w3.org/2000/svg" xmlns:svg="http://www.w3.org/2000/svg" xmlns:xlink="http://www.w3.org/1999/xlink" id="svg2" width="1000" height="1000" version="1.1"><defs id="defs4"><linearGradient id="linearGradient8562" x1="-213.564" x2="253.595" y1="24.514" y2="24.514" gradientTransform="matrix(0,1,-1,0,44.530081,4.498828)" gradientUnits="userSpaceOnUse" xlink:href="#linearGradient3641"/><linearGradient id="linearGradient3641"><stop id="stop3643" offset="0" stop-color="#fff" stop-opacity="1"/><stop id="stop3645" offset="1" stop-color="#fff" stop-opacity="0"/></linearGradient><linearGradient id="linearGradient6791" x1="-213.564" x2="253.595" y1="24.514" y2="24.514" gradientTransform="matrix(0,1,-1,0,44.530081,4.498828)" gradientUnits="userSpaceOnUse" xlink:href="#linearGradient3641"/><linearGradient id="linearGradient7354" x1="-1.887" x2="323.882" y1="-163.788" y2="-163.788" gradientTransform="translate(-294.13778,123.54099)" gradientUnits="userSpaceOnUse" xlink:href="#linearGradient3641"/><linearGradient id="linearGradient6901" x1="-203.313" x2="263.344" y1="30.719" y2="30.719" gradientUnits="userSpaceOnUse" xlink:href="#linearGradient3641-8"/><linearGradient id="linearGradient3641-8"><stop id="stop3643-7" offset="0" stop-color="#fff" stop-opacity="1"/><stop id="stop3645-1" offset="1" stop-color="#fff" stop-opacity="0"/></linearGradient><linearGradient id="linearGradient3843" x1="-203.313" x2="263.344" y1="30.719" y2="30.719" gradientUnits="userSpaceOnUse" xlink:href="#linearGradient3641-8"/><linearGradient id="linearGradient3875" x1="-203.313" x2="263.344" y1="30.719" y2="30.719" gradientTransform="translate(-708.90407,-377.00114)" gradientUnits="userSpaceOnUse" xlink:href="#linearGradient3641-8"/><linearGradient id="linearGradient4760" x1="-1013.624" x2="-820.688" y1="-111.861" y2="-111.861" gradientUnits="userSpaceOnUse" xlink:href="#linearGradient3641"/><linearGradient id="linearGradient4774" x1="-1013.624" x2="-820.688" y1="-111.861" y2="-111.861" gradientUnits="userSpaceOnUse" xlink:href="#linearGradient3641"/><linearGradient id="linearGradient6343" x1="-234.531" x2="294.995" y1="-27.46" y2="-27.46" gradientUnits="userSpaceOnUse" xlink:href="#linearGradient3641"/><linearGradient id="linearGradient10531" x1="-234.531" x2="294.995" y1="-27.46" y2="-27.46" gradientUnits="userSpaceOnUse" xlink:href="#linearGradient3641"/><linearGradient id="linearGradient10536" x1="-1013.624" x2="-820.688" y1="-111.861" y2="-111.861" gradientUnits="userSpaceOnUse" xlink:href="#linearGradient3641"/></defs><metadata id="metadata7"/><g id="layer1" display="inline" transform="translate(464.16179,464.03236)"><path id="path4271" fill="#2a7fff" fill-opacity="1" fill-rule="evenodd" stroke="none" stroke-dasharray="none" stroke-dashoffset="0" stroke-linecap="square" stroke-linejoin="miter" stroke-miterlimit="4" stroke-opacity="1" stroke-width="37.763" d="M 131.27571,-278.78236 C 109.21646,-278.92449 89.52999,-277.54515 63.55696,-275.09486 C 33.94315,-272.30109 24.19835,-264.45788 1.55696,-217.00111 C -20.71621,-170.31618 -30.85296,-158.87863 -73.31804,-149.93861 C -115.78312,-140.99859 -203.51041,-140.45489 -269.44304,-124.25111 C -335.37566,-108.04733 -360.51427,-93.49125 -371.13054,-17.50111 C -381.74681,58.48902 -377.27554,133.91125 -375.59929,209.34264 C -373.92304,284.77401 -375.61929,309.35887 -373.94304,321.09264 C -372.26679,332.82642 -366.67062,351.24513 -321.41179,350.68639 C -321.41179,350.68638 279.81681,350.68639 355.80696,350.68639 C 431.79709,350.68638 449.65071,319.41772 449.65071,274.71764 C 449.6507,230.01757 449.65071,91.4278 449.65071,10.96764 C 449.6507,-69.49249 400.97544,-100.50518 369.21321,-117.53236 C 315.01434,-146.58741 319.38457,-118.43326 275.33821,-212.53236 C 263.04567,-238.79366 254.20407,-269.34372 213.30696,-273.43861 C 177.77173,-276.99664 153.33496,-278.64023 131.27571,-278.78236 z M -219.44304,-126.68861 C -203.84096,-126.82634 -192.11207,-123.25998 -191.47429,-117.53236 C -190.68933,-110.48299 -207.02609,-102.81953 -227.94304,-100.43861 C -248.85999,-98.05771 -266.47058,-101.85799 -267.25554,-108.90736 C -268.0405,-115.95673 -251.70373,-123.6202 -230.78679,-126.00111 C -226.86486,-126.44753 -223.04352,-126.65683 -219.44304,-126.68861 z M 128.90071,-78.03236 C 224.01953,-78.03235 301.21321,-0.83871 301.21321,94.28014 C 301.21323,189.39899 224.01956,266.59264 128.90071,266.59264 C 33.78183,266.59262 -43.41179,189.39899 -43.41179,94.28014 C -43.4118,-0.83871 33.78186,-78.03236 128.90071,-78.03236 z M -178.94304,-35.03236 C -172.79608,-35.03235 -167.84929,-30.08557 -167.84929,-23.93861 L -167.84929,299.03014 C -167.84929,305.1771 -172.79608,310.12389 -178.94304,310.12389 C -185.09,310.1239 -190.03679,305.1771 -190.03679,299.03014 L -190.03679,-23.93861 C -190.03678,-30.08557 -185.09,-35.03236 -178.94304,-35.03236 z" opacity=".7"/><path id="path4315" fill="#2a7fff" fill-opacity="1" fill-rule="evenodd" stroke="none" stroke-linecap="butt" stroke-linejoin="miter" stroke-opacity="1" stroke-width="1" d="M -184.51924,-146.99183 L -185.35737,-182.03893 C -185.35737,-182.03893 -170.40532,-189.98909 -112.97102,-193.64876 C -70.796179,-196.36128 -37.751223,-191.07823 -37.751223,-191.07823 L -35.053327,-172.81953 C -51.647387,-165.7078 -67.316294,-159.4757 -91.677506,-156.2289 C -120.90514,-152.33351 -144.53565,-149.75751 -184.51924,-146.99183 z" opacity=".7"/></g></svg>