<svg xmlns="http://www.w3.org/2000/svg" xmlns:svg="http://www.w3.org/2000/svg" xmlns:xlink="http://www.w3.org/1999/xlink" id="svg2" width="1000" height="1000" enable-background="new" version="1.1"><defs id="defs4"><linearGradient id="linearGradient8562" x1="-213.564" x2="253.595" y1="24.514" y2="24.514" gradientTransform="matrix(0,1,-1,0,44.530081,4.498828)" gradientUnits="userSpaceOnUse" xlink:href="#linearGradient3641"/><linearGradient id="linearGradient3641"><stop id="stop3643" offset="0" stop-color="#fff" stop-opacity="1"/><stop id="stop3645" offset="1" stop-color="#fff" stop-opacity="0"/></linearGradient><linearGradient id="linearGradient6791" x1="-213.564" x2="253.595" y1="24.514" y2="24.514" gradientTransform="matrix(0,1,-1,0,44.530081,4.498828)" gradientUnits="userSpaceOnUse" xlink:href="#linearGradient3641"/><linearGradient id="linearGradient7354" x1="-1.887" x2="323.882" y1="-163.788" y2="-163.788" gradientTransform="translate(-294.13778,123.54099)" gradientUnits="userSpaceOnUse" xlink:href="#linearGradient3641"/><linearGradient id="linearGradient6901" x1="-203.313" x2="263.344" y1="30.719" y2="30.719" gradientUnits="userSpaceOnUse" xlink:href="#linearGradient3641-8"/><linearGradient id="linearGradient3641-8"><stop id="stop3643-7" offset="0" stop-color="#fff" stop-opacity="1"/><stop id="stop3645-1" offset="1" stop-color="#fff" stop-opacity="0"/></linearGradient><linearGradient id="linearGradient3843" x1="-203.313" x2="263.344" y1="30.719" y2="30.719" gradientUnits="userSpaceOnUse" xlink:href="#linearGradient3641-8"/><linearGradient id="linearGradient3875" x1="-203.313" x2="263.344" y1="30.719" y2="30.719" gradientTransform="translate(-708.90407,-377.00114)" gradientUnits="userSpaceOnUse" xlink:href="#linearGradient3641-8"/><linearGradient id="linearGradient4760" x1="-1013.624" x2="-820.688" y1="-111.861" y2="-111.861" gradientUnits="userSpaceOnUse" xlink:href="#linearGradient3641"/><linearGradient id="linearGradient4774" x1="-1013.624" x2="-820.688" y1="-111.861" y2="-111.861" gradientUnits="userSpaceOnUse" xlink:href="#linearGradient3641"/><linearGradient id="linearGradient6343" x1="-234.531" x2="294.995" y1="-27.46" y2="-27.46" gradientUnits="userSpaceOnUse" xlink:href="#linearGradient3641"/><linearGradient id="linearGradient10531" x1="-234.531" x2="294.995" y1="-27.46" y2="-27.46" gradientUnits="userSpaceOnUse" xlink:href="#linearGradient3641"/><linearGradient id="linearGradient10536" x1="-1013.624" x2="-820.688" y1="-111.861" y2="-111.861" gradientUnits="userSpaceOnUse" xlink:href="#linearGradient3641"/></defs><metadata id="metadata7"/><g id="layer1" display="inline" transform="translate(464.16179,464.03236)"><g id="g4445" transform="matrix(0.8904166,0,0,0.8904166,3.927272,3.9414559)"><g id="g4434" transform="translate(22.587738,-2.7215576)"><path id="path4418" fill="#2a7fff" fill-opacity="1" fill-rule="evenodd" stroke="none" stroke-dasharray="none" stroke-dashoffset="0" stroke-linecap="square" stroke-linejoin="miter" stroke-miterlimit="4" stroke-opacity="1" stroke-width="35" d="M 449.17949,322.72156 A 101.76723,101.76723 0 1 1 245.64503,322.72156 A 101.76723,101.76723 0 1 1 449.17949,322.72156 z" opacity=".7" transform="translate(-464.16179,-524.03236)"/><path id="path4420" fill="#2a7fff" fill-opacity="1" fill-rule="evenodd" stroke="none" stroke-dasharray="none" stroke-dashoffset="0" stroke-linecap="square" stroke-linejoin="miter" stroke-miterlimit="4" stroke-opacity="1" stroke-width="35" d="M 449.17949,322.72156 A 101.76723,101.76723 0 1 1 245.64503,322.72156 A 101.76723,101.76723 0 1 1 449.17949,322.72156 z" opacity=".7" transform="translate(-224.16179,-524.03236)"/><path id="path4424" fill="#2a7fff" fill-opacity="1" fill-rule="evenodd" stroke="none" stroke-dasharray="none" stroke-dashoffset="0" stroke-linecap="square" stroke-linejoin="miter" stroke-miterlimit="4" stroke-opacity="1" stroke-width="35" d="M 449.17949,322.72156 A 101.76723,101.76723 0 1 1 245.64503,322.72156 A 101.76723,101.76723 0 1 1 449.17949,322.72156 z" opacity=".7" transform="translate(-584.16179,-284.03236)"/><path id="path4426" fill="#2a7fff" fill-opacity="1" fill-rule="evenodd" stroke="none" stroke-dasharray="none" stroke-dashoffset="0" stroke-linecap="square" stroke-linejoin="miter" stroke-miterlimit="4" stroke-opacity="1" stroke-width="35" d="M 449.17949,322.72156 A 101.76723,101.76723 0 1 1 245.64503,322.72156 A 101.76723,101.76723 0 1 1 449.17949,322.72156 z" opacity=".7" transform="translate(-344.16179,-284.03236)"/><path id="path4428" fill="#2a7fff" fill-opacity="1" fill-rule="evenodd" stroke="none" stroke-dasharray="none" stroke-dashoffset="0" stroke-linecap="square" stroke-linejoin="miter" stroke-miterlimit="4" stroke-opacity="1" stroke-width="35" d="M 449.17949,322.72156 A 101.76723,101.76723 0 1 1 245.64503,322.72156 A 101.76723,101.76723 0 1 1 449.17949,322.72156 z" opacity=".7" transform="translate(-84.16179,-284.03236)"/><path id="path4430" fill="#2a7fff" fill-opacity="1" fill-rule="evenodd" stroke="none" stroke-dasharray="none" stroke-dashoffset="0" stroke-linecap="square" stroke-linejoin="miter" stroke-miterlimit="4" stroke-opacity="1" stroke-width="35" d="M 449.17949,322.72156 A 101.76723,101.76723 0 1 1 245.64503,322.72156 A 101.76723,101.76723 0 1 1 449.17949,322.72156 z" opacity=".7" transform="translate(-464.16179,-44.03236)"/><path id="path4432" fill="#2a7fff" fill-opacity="1" fill-rule="evenodd" stroke="none" stroke-dasharray="none" stroke-dashoffset="0" stroke-linecap="square" stroke-linejoin="miter" stroke-miterlimit="4" stroke-opacity="1" stroke-width="35" d="M 449.17949,322.72156 A 101.76723,101.76723 0 1 1 245.64503,322.72156 A 101.76723,101.76723 0 1 1 449.17949,322.72156 z" opacity=".7" transform="translate(-224.16179,-44.03236)"/></g><path id="path4443" fill="none" fill-opacity="1" fill-rule="evenodd" stroke="#2a7fff" stroke-dasharray="none" stroke-dashoffset="0" stroke-linecap="square" stroke-linejoin="miter" stroke-miterlimit="4" stroke-opacity="1" stroke-width="73.561" d="M 873.79449,436.77103 A 433.38803,433.38803 0 1 1 7.0184326,436.77103 A 433.38803,433.38803 0 1 1 873.79449,436.77103 z" opacity=".7" transform="matrix(1.0687067,0,0,1.0687067,-434.82713,-430.81248)"/></g></g></svg>