<svg xmlns="http://www.w3.org/2000/svg" xmlns:svg="http://www.w3.org/2000/svg" xmlns:xlink="http://www.w3.org/1999/xlink" id="svg2" width="1000" height="1000" version="1.1"><defs id="defs4"><linearGradient id="linearGradient8562" x1="-213.564" x2="253.595" y1="24.514" y2="24.514" gradientTransform="matrix(0,1,-1,0,44.530081,4.498828)" gradientUnits="userSpaceOnUse" xlink:href="#linearGradient3641"/><linearGradient id="linearGradient3641"><stop id="stop3643" offset="0" stop-color="#fff" stop-opacity="1"/><stop id="stop3645" offset="1" stop-color="#fff" stop-opacity="0"/></linearGradient><linearGradient id="linearGradient6791" x1="-213.564" x2="253.595" y1="24.514" y2="24.514" gradientTransform="matrix(0,1,-1,0,44.530081,4.498828)" gradientUnits="userSpaceOnUse" xlink:href="#linearGradient3641"/><linearGradient id="linearGradient7354" x1="-1.887" x2="323.882" y1="-163.788" y2="-163.788" gradientTransform="translate(-294.13778,123.54099)" gradientUnits="userSpaceOnUse" xlink:href="#linearGradient3641"/><linearGradient id="linearGradient6901" x1="-203.313" x2="263.344" y1="30.719" y2="30.719" gradientUnits="userSpaceOnUse" xlink:href="#linearGradient3641-8"/><linearGradient id="linearGradient3641-8"><stop id="stop3643-7" offset="0" stop-color="#fff" stop-opacity="1"/><stop id="stop3645-1" offset="1" stop-color="#fff" stop-opacity="0"/></linearGradient><linearGradient id="linearGradient3843" x1="-203.313" x2="263.344" y1="30.719" y2="30.719" gradientUnits="userSpaceOnUse" xlink:href="#linearGradient3641-8"/><linearGradient id="linearGradient3875" x1="-203.313" x2="263.344" y1="30.719" y2="30.719" gradientTransform="translate(-708.90407,-377.00114)" gradientUnits="userSpaceOnUse" xlink:href="#linearGradient3641-8"/><linearGradient id="linearGradient4760" x1="-1013.624" x2="-820.688" y1="-111.861" y2="-111.861" gradientUnits="userSpaceOnUse" xlink:href="#linearGradient3641"/><filter id="filter4766" color-interpolation-filters="sRGB"><feGaussianBlur id="feGaussianBlur4768" stdDeviation="3.633"/></filter><linearGradient id="linearGradient4774" x1="-1013.624" x2="-820.688" y1="-111.861" y2="-111.861" gradientUnits="userSpaceOnUse" xlink:href="#linearGradient3641"/><linearGradient id="linearGradient6343" x1="-234.531" x2="294.995" y1="-27.46" y2="-27.46" gradientUnits="userSpaceOnUse" xlink:href="#linearGradient3641"/><filter id="filter6349" color-interpolation-filters="sRGB"><feGaussianBlur id="feGaussianBlur6351" stdDeviation="7.288"/></filter><linearGradient id="linearGradient10531" x1="-234.531" x2="294.995" y1="-27.46" y2="-27.46" gradientUnits="userSpaceOnUse" xlink:href="#linearGradient3641"/><linearGradient id="linearGradient10536" x1="-1013.624" x2="-820.688" y1="-111.861" y2="-111.861" gradientUnits="userSpaceOnUse" xlink:href="#linearGradient3641"/></defs><metadata id="metadata7"/><g id="layer1" transform="translate(464.16179,464.03236)"><g id="g4082" transform="translate(0,1.552561)"><g id="g4060" transform="matrix(1.5074827,0,0,1.5074827,-9.4212231,-17.89429)"><path id="path10540" fill="#2a7fff" fill-opacity="1" stroke="none" d="m 580.64517,356.07941 a 241.93549,241.93549 0 1 1 -483.87097,0 241.93549,241.93549 0 1 1 483.87097,0 z" opacity=".7" transform="matrix(0.59532086,0,0,0.59532086,-171.61775,-177.28168)"/><path id="path10542" fill="none" stroke="#2a7fff" stroke-dasharray="none" stroke-linecap="round" stroke-linejoin="miter" stroke-miterlimit="4" stroke-opacity="1" stroke-width="53.069" d="m 30.023192,-162.18636 c 0,-28.37834 0,-83.84507 0,-83.84507" opacity=".7"/><path id="path10544" fill="none" stroke="#2a7fff" stroke-dasharray="none" stroke-linecap="round" stroke-linejoin="miter" stroke-miterlimit="4" stroke-opacity="1" stroke-width="53.069" d="m 30.023192,315.43105 c 0,-28.37833 0,-83.84507 0,-83.84507" opacity=".7"/><path id="path10558" fill="none" stroke="#2a7fff" stroke-dasharray="none" stroke-linecap="round" stroke-linejoin="miter" stroke-miterlimit="4" stroke-opacity="1" stroke-width="39.801" d="m -68.419893,-135.80861 c -14.18917,-24.57637 -41.922537,-72.61196 -41.922537,-72.61196" opacity=".7"/><path id="path10560" fill="none" stroke="#2a7fff" stroke-dasharray="none" stroke-linecap="round" stroke-linejoin="miter" stroke-miterlimit="4" stroke-opacity="1" stroke-width="39.801" d="M 170.38881,277.82019 C 156.19965,253.24384 128.46628,205.20823 128.46628,205.20823" opacity=".7"/><path id="path10564" fill="none" stroke="#2a7fff" stroke-dasharray="none" stroke-linecap="round" stroke-linejoin="miter" stroke-miterlimit="4" stroke-opacity="1" stroke-width="39.801" d="m -140.48523,-63.743275 c -24.57637,-14.18917 -72.61196,-41.922535 -72.61196,-41.922535" opacity=".7"/><path id="path10566" fill="none" stroke="#2a7fff" stroke-dasharray="none" stroke-linecap="round" stroke-linejoin="miter" stroke-miterlimit="4" stroke-opacity="1" stroke-width="39.801" d="M 273.14358,175.06543 C 248.56722,160.87627 200.53162,133.1429 200.53162,133.1429" opacity=".7"/><path id="path10570" fill="none" stroke="#2a7fff" stroke-dasharray="none" stroke-linecap="round" stroke-linejoin="miter" stroke-miterlimit="4" stroke-opacity="1" stroke-width="53.069" d="m -166.86298,34.69981 c -28.37834,0 -83.84507,0 -83.84507,0" opacity=".7"/><path id="path10572" fill="none" stroke="#2a7fff" stroke-dasharray="none" stroke-linecap="round" stroke-linejoin="miter" stroke-miterlimit="4" stroke-opacity="1" stroke-width="53.069" d="m 310.75443,34.69981 c -28.37833,0 -83.84507,0 -83.84507,0" opacity=".7"/><path id="path10576" fill="none" stroke="#2a7fff" stroke-dasharray="none" stroke-linecap="round" stroke-linejoin="miter" stroke-miterlimit="4" stroke-opacity="1" stroke-width="39.801" d="m 128.46628,-135.80861 c 14.18917,-24.57637 41.92253,-72.61196 41.92253,-72.61196" opacity=".7"/><path id="path10578" fill="none" stroke="#2a7fff" stroke-dasharray="none" stroke-linecap="round" stroke-linejoin="miter" stroke-miterlimit="4" stroke-opacity="1" stroke-width="39.801" d="m -110.34243,277.82019 c 14.189167,-24.57635 41.922537,-72.61196 41.922537,-72.61196" opacity=".7"/><path id="path10582" fill="none" stroke="#2a7fff" stroke-dasharray="none" stroke-linecap="round" stroke-linejoin="miter" stroke-miterlimit="4" stroke-opacity="1" stroke-width="39.801" d="m 200.53162,-63.743275 c 24.57636,-14.18917 72.61196,-41.922535 72.61196,-41.922535" opacity=".7"/><path id="path10584" fill="none" stroke="#2a7fff" stroke-dasharray="none" stroke-linecap="round" stroke-linejoin="miter" stroke-miterlimit="4" stroke-opacity="1" stroke-width="39.801" d="m -213.09719,175.06543 c 24.57635,-14.18916 72.61196,-41.92253 72.61196,-41.92253" opacity=".7"/></g></g></g></svg>