<svg xmlns="http://www.w3.org/2000/svg" xmlns:svg="http://www.w3.org/2000/svg" xmlns:xlink="http://www.w3.org/1999/xlink" id="svg2" width="1000" height="1000" version="1.1"><defs id="defs4"><linearGradient id="linearGradient8562" x1="-213.564" x2="253.595" y1="24.514" y2="24.514" gradientTransform="matrix(0,1,-1,0,44.530081,4.498828)" gradientUnits="userSpaceOnUse" xlink:href="#linearGradient3641"/><linearGradient id="linearGradient3641"><stop id="stop3643" offset="0" stop-color="#fff" stop-opacity="1"/><stop id="stop3645" offset="1" stop-color="#fff" stop-opacity="0"/></linearGradient><linearGradient id="linearGradient6791" x1="-213.564" x2="253.595" y1="24.514" y2="24.514" gradientTransform="matrix(0,1,-1,0,44.530081,4.498828)" gradientUnits="userSpaceOnUse" xlink:href="#linearGradient3641"/><linearGradient id="linearGradient7354" x1="-1.887" x2="323.882" y1="-163.788" y2="-163.788" gradientTransform="translate(-294.13778,123.54099)" gradientUnits="userSpaceOnUse" xlink:href="#linearGradient3641"/><linearGradient id="linearGradient6901" x1="-203.313" x2="263.344" y1="30.719" y2="30.719" gradientUnits="userSpaceOnUse" xlink:href="#linearGradient3641-8"/><linearGradient id="linearGradient3641-8"><stop id="stop3643-7" offset="0" stop-color="#fff" stop-opacity="1"/><stop id="stop3645-1" offset="1" stop-color="#fff" stop-opacity="0"/></linearGradient><linearGradient id="linearGradient3843" x1="-203.313" x2="263.344" y1="30.719" y2="30.719" gradientUnits="userSpaceOnUse" xlink:href="#linearGradient3641-8"/><linearGradient id="linearGradient3875" x1="-203.313" x2="263.344" y1="30.719" y2="30.719" gradientTransform="translate(-708.90407,-377.00114)" gradientUnits="userSpaceOnUse" xlink:href="#linearGradient3641-8"/><linearGradient id="linearGradient4760" x1="-1013.624" x2="-820.688" y1="-111.861" y2="-111.861" gradientUnits="userSpaceOnUse" xlink:href="#linearGradient3641"/><linearGradient id="linearGradient4774" x1="-1013.624" x2="-820.688" y1="-111.861" y2="-111.861" gradientUnits="userSpaceOnUse" xlink:href="#linearGradient3641"/><linearGradient id="linearGradient6343" x1="-234.531" x2="294.995" y1="-27.46" y2="-27.46" gradientUnits="userSpaceOnUse" xlink:href="#linearGradient3641"/><linearGradient id="linearGradient10531" x1="-234.531" x2="294.995" y1="-27.46" y2="-27.46" gradientUnits="userSpaceOnUse" xlink:href="#linearGradient3641"/><linearGradient id="linearGradient10536" x1="-1013.624" x2="-820.688" y1="-111.861" y2="-111.861" gradientUnits="userSpaceOnUse" xlink:href="#linearGradient3641"/></defs><metadata id="metadata7"/><g id="layer1" display="inline" transform="translate(464.16179,464.03236)"><g id="g7714" transform="translate(-5e-6,-62.958115)"><path id="path10540" fill="#2a7fff" fill-opacity="1" stroke="none" d="M 405.03125,162.71875 C 405.03125,162.71875 405.03125,241.48278 405.03125,304.75 C 332.73918,340.00444 282.875,414.20471 282.875,500 C 282.875,619.85113 380.14887,717.125 500,717.125 C 619.85113,717.125 717.12501,619.85113 717.125,500 C 717.125,414.20471 667.26082,340.00444 594.96875,304.75 C 594.96875,241.48279 594.96875,162.71875 594.96875,162.71875 L 405.03125,162.71875 z" display="inline" opacity=".7" transform="translate(-464.16179,-464.03236)"/><path id="path10544" fill="none" stroke="#2a7fff" stroke-dasharray="none" stroke-linecap="round" stroke-linejoin="miter" stroke-miterlimit="4" stroke-opacity="1" stroke-width="80" d="M 500.00001,923.19748 C 500.00001,880.41764 500.00001,796.80249 500.00001,796.80249" display="inline" opacity=".7" transform="translate(-464.16179,-464.03236)"/><path id="path10560" fill="none" stroke="#2a7fff" stroke-dasharray="none" stroke-linecap="round" stroke-linejoin="miter" stroke-miterlimit="4" stroke-opacity="1" stroke-width="60" d="M 711.59875,866.49976 C 690.20884,829.45134 648.40126,757.03849 648.40126,757.03849" display="inline" opacity=".7" transform="translate(-464.16179,-464.03236)"/><path id="path10564" fill="none" stroke="#2a7fff" stroke-dasharray="none" stroke-linecap="round" stroke-linejoin="miter" stroke-miterlimit="4" stroke-opacity="1" stroke-width="60" d="M 242.96151,351.59875 C 205.91306,330.20882 133.50024,288.40125 133.50024,288.40125" display="inline" opacity=".7" transform="translate(-464.16179,-464.03236)"/><path id="path10566" fill="none" stroke="#2a7fff" stroke-dasharray="none" stroke-linecap="round" stroke-linejoin="miter" stroke-miterlimit="4" stroke-opacity="1" stroke-width="60" d="M 866.49979,711.59874 C 829.45135,690.20882 757.03851,648.40125 757.03851,648.40125" display="inline" opacity=".7" transform="translate(-464.16179,-464.03236)"/><path id="path10570" fill="none" stroke="#2a7fff" stroke-dasharray="none" stroke-linecap="round" stroke-linejoin="miter" stroke-miterlimit="4" stroke-opacity="1" stroke-width="80" d="M 203.19751,499.99999 C 160.41765,499.99999 76.80252,499.99999 76.80252,499.99999" display="inline" opacity=".7" transform="translate(-464.16179,-464.03236)"/><path id="path10572" fill="none" stroke="#2a7fff" stroke-dasharray="none" stroke-linecap="round" stroke-linejoin="miter" stroke-miterlimit="4" stroke-opacity="1" stroke-width="80" d="M 923.19749,499.99999 C 880.41765,499.99999 796.8025,499.99999 796.8025,499.99999" display="inline" opacity=".7" transform="translate(-464.16179,-464.03236)"/><path id="path10578" fill="none" stroke="#2a7fff" stroke-dasharray="none" stroke-linecap="round" stroke-linejoin="miter" stroke-miterlimit="4" stroke-opacity="1" stroke-width="60" d="M 288.40126,866.49976 C 309.79119,829.45134 351.59876,757.03849 351.59876,757.03849" display="inline" opacity=".7" transform="translate(-464.16179,-464.03236)"/><path id="path10582" fill="none" stroke="#2a7fff" stroke-dasharray="none" stroke-linecap="round" stroke-linejoin="miter" stroke-miterlimit="4" stroke-opacity="1" stroke-width="60" d="M 757.03851,351.59875 C 794.08695,330.20882 866.49979,288.40125 866.49979,288.40125" display="inline" opacity=".7" transform="translate(-464.16179,-464.03236)"/><path id="path10584" fill="none" stroke="#2a7fff" stroke-dasharray="none" stroke-linecap="round" stroke-linejoin="miter" stroke-miterlimit="4" stroke-opacity="1" stroke-width="60" d="M 133.50024,711.59874 C 170.54866,690.20882 242.96151,648.40125 242.96151,648.40125" display="inline" opacity=".7" transform="translate(-464.16179,-464.03236)"/></g></g></svg>