<svg xmlns="http://www.w3.org/2000/svg" xmlns:svg="http://www.w3.org/2000/svg" xmlns:xlink="http://www.w3.org/1999/xlink" id="svg2" width="1000" height="1000" version="1.1"><defs id="defs4"><linearGradient id="linearGradient8562" x1="-213.564" x2="253.595" y1="24.514" y2="24.514" gradientTransform="matrix(0,1,-1,0,44.530081,4.498828)" gradientUnits="userSpaceOnUse" xlink:href="#linearGradient3641"/><linearGradient id="linearGradient3641"><stop id="stop3643" offset="0" stop-color="#fff" stop-opacity="1"/><stop id="stop3645" offset="1" stop-color="#fff" stop-opacity="0"/></linearGradient><linearGradient id="linearGradient6791" x1="-213.564" x2="253.595" y1="24.514" y2="24.514" gradientTransform="matrix(0,1,-1,0,44.530081,4.498828)" gradientUnits="userSpaceOnUse" xlink:href="#linearGradient3641"/><linearGradient id="linearGradient7354" x1="-1.887" x2="323.882" y1="-163.788" y2="-163.788" gradientTransform="translate(-294.13778,123.54099)" gradientUnits="userSpaceOnUse" xlink:href="#linearGradient3641"/><linearGradient id="linearGradient6901" x1="-203.313" x2="263.344" y1="30.719" y2="30.719" gradientUnits="userSpaceOnUse" xlink:href="#linearGradient3641-8"/><linearGradient id="linearGradient3641-8"><stop id="stop3643-7" offset="0" stop-color="#fff" stop-opacity="1"/><stop id="stop3645-1" offset="1" stop-color="#fff" stop-opacity="0"/></linearGradient><linearGradient id="linearGradient3843" x1="-203.313" x2="263.344" y1="30.719" y2="30.719" gradientUnits="userSpaceOnUse" xlink:href="#linearGradient3641-8"/><linearGradient id="linearGradient3875" x1="-203.313" x2="263.344" y1="30.719" y2="30.719" gradientTransform="translate(-708.90407,-377.00114)" gradientUnits="userSpaceOnUse" xlink:href="#linearGradient3641-8"/><linearGradient id="linearGradient4760" x1="-1013.624" x2="-820.688" y1="-111.861" y2="-111.861" gradientUnits="userSpaceOnUse" xlink:href="#linearGradient3641"/><linearGradient id="linearGradient4774" x1="-1013.624" x2="-820.688" y1="-111.861" y2="-111.861" gradientUnits="userSpaceOnUse" xlink:href="#linearGradient3641"/><linearGradient id="linearGradient6343" x1="-234.531" x2="294.995" y1="-27.46" y2="-27.46" gradientUnits="userSpaceOnUse" xlink:href="#linearGradient3641"/><linearGradient id="linearGradient10531" x1="-234.531" x2="294.995" y1="-27.46" y2="-27.46" gradientUnits="userSpaceOnUse" xlink:href="#linearGradient3641"/><linearGradient id="linearGradient10536" x1="-1013.624" x2="-820.688" y1="-111.861" y2="-111.861" gradientUnits="userSpaceOnUse" xlink:href="#linearGradient3641"/></defs><metadata id="metadata7"/><g id="layer1" display="inline" opacity="1" transform="translate(464.16179,464.03236)"><path id="path5961" fill="#2a7fff" fill-opacity="1" stroke="none" d="M 262.15941,239.59156 C 162.24771,155.40271 92.003396,186.80714 0,254.0625 L 0,1000 l 1000,0 0,-709.8125 C 878.52924,337.68769 909.97864,210.8708 789.9662,200.12051 708.67062,192.83834 635.54791,259.33371 483.90589,314.0108 311.12683,376.3092 345.17325,309.54173 262.15941,239.59156 z M 128.46875,474.96875 c 76.97828,18.9384 127.65131,90.27078 195.81135,166.58987 78.0589,-94.59916 186.09972,-139.4563 283.25355,-140.25593 101.30694,-0.83383 227.51155,23.2664 308.2476,145.59667 C 839.46802,751.25673 734.85686,795.58412 607.53365,795.12531 414.20986,789.35412 384.96423,722.90024 324.68681,653.34932 255.77208,736.85174 214.50963,796.10596 128.46875,824.78694 c 18.349,-52.19426 39.18463,-95.64245 50.65362,-170.12298 -12.47738,-87.26225 -37.44233,-127.50097 -50.65362,-179.69521 z m 196.21806,178.38057 c 1.62981,-1.97479 3.18176,-3.91399 4.84352,-5.91589 -1.77793,-1.96978 -3.49624,-3.91087 -5.25023,-5.87481 -1.60877,1.94967 -3.2236,3.8828 -4.80654,5.87481 1.75768,1.96947 3.50953,3.95005 5.21325,5.91589 z" opacity=".7" transform="translate(-464.16179,-464.03236)"/></g></svg>