<svg xmlns="http://www.w3.org/2000/svg" xmlns:svg="http://www.w3.org/2000/svg" xmlns:xlink="http://www.w3.org/1999/xlink" id="svg2" width="1000" height="1000" version="1.1"><title id="title11905">gtk-zoom-100</title><defs id="defs4"><linearGradient id="linearGradient7354" x1="-1.887" x2="154.23" y1="-163.788" y2="-163.788" gradientTransform="translate(-294.13778,123.54099)" gradientUnits="userSpaceOnUse" xlink:href="#linearGradient3641"/><linearGradient id="linearGradient3641"><stop id="stop3643" offset="0" stop-color="#fff" stop-opacity="1"/><stop id="stop3645" offset="1" stop-color="#fff" stop-opacity="0"/></linearGradient><linearGradient id="linearGradient8368" x1="-263.002" x2="222.292" y1="-16.222" y2="-16.222" gradientUnits="userSpaceOnUse" xlink:href="#linearGradient3641"/><linearGradient id="linearGradient2888" x1="-263.002" x2="222.292" y1="-16.222" y2="-16.222" gradientUnits="userSpaceOnUse" xlink:href="#linearGradient3641"/><linearGradient id="linearGradient2892" x1="-263.002" x2="222.292" y1="-16.222" y2="-16.222" gradientUnits="userSpaceOnUse" xlink:href="#linearGradient3641"/><linearGradient id="linearGradient2896" x1="-263.002" x2="222.292" y1="-16.222" y2="-16.222" gradientUnits="userSpaceOnUse" xlink:href="#linearGradient3641"/><linearGradient id="linearGradient2900" x1="-263.002" x2="222.292" y1="-16.222" y2="-16.222" gradientUnits="userSpaceOnUse" xlink:href="#linearGradient3641"/><linearGradient id="linearGradient3697-3" x1="-268.962" x2="216.554" y1="-22.264" y2="-22.264" gradientUnits="userSpaceOnUse" xlink:href="#linearGradient3641-3"/><linearGradient id="linearGradient3641-3"><stop id="stop3643-4" offset="0" stop-color="#fff" stop-opacity="1"/><stop id="stop3645-6" offset="1" stop-color="#fff" stop-opacity="0"/></linearGradient><linearGradient id="linearGradient3726" x1="-268.962" x2="216.554" y1="-22.264" y2="-22.264" gradientTransform="translate(-180.70032,-122.18902)" gradientUnits="userSpaceOnUse" xlink:href="#linearGradient3641-3"/></defs><metadata id="metadata7"/><g id="layer1" transform="translate(464.16179,464.03236)"><g id="g4082" transform="translate(0,1.552561)"><g id="g4060" transform="matrix(1.5074827,0,0,1.5074827,-9.4212231,-17.89429)"><path font-stretch="normal" style="line-height:125%;-inkscape-font-specification:'Arial Bold'" id="path11691" fill="#2a7fff" fill-opacity="1" stroke="none" stroke-opacity="1" d="m -52.925411,277.55652 -91.936469,0 0,-349.436496 c -33.59018,31.677276 -42.5216,34.492701 -88.10802,49.670936 l 0,-84.14192 c 23.99283,-7.91887 19.40098,-2.2651 47.53823,-24.26337 28.13695,-22.21744 47.44034,-48.06494 57.91011,-77.54256 l 74.596149,0 0,485.71341" font-family="Arial" font-size="550" font-style="normal" font-variant="normal" font-weight="bold" letter-spacing="-60" opacity=".7" word-spacing="0"/><path id="path11693" fill="#2a7fff" fill-opacity="1" stroke="none" stroke-opacity="1" d="m 265.15525,277.55652 -91.93646,0 0,-349.436496 c -33.5902,31.677276 -42.52161,34.492701 -88.108039,49.670936 l 0,-84.14192 c 23.992829,-7.91887 19.400989,-2.2651 47.538229,-24.26337 28.13697,-22.21744 47.44034,-48.06494 57.91014,-77.54256 l 74.59613,0 0,485.71341" font-family="Arial" font-size="550" font-stretch="normal" font-style="normal" font-variant="normal" font-weight="bold" letter-spacing="-60" opacity=".7" word-spacing="0" style="line-height:125%;-inkscape-font-specification:'Arial Bold'"/><path id="path11687" fill="#2a7fff" fill-opacity="1" stroke="none" stroke-opacity="1" d="m 9.593132,277.55652 0,-92.72109 91.936438,0 0,92.72109 -91.936438,0" font-family="Arial" font-size="550" font-stretch="normal" font-style="normal" font-variant="normal" font-weight="bold" letter-spacing="-60" opacity=".7" word-spacing="0" style="line-height:125%;-inkscape-font-specification:'Arial Bold'"/><path font-stretch="normal" style="line-height:125%;-inkscape-font-specification:'Arial Bold'" id="path11695" fill="#2a7fff" fill-opacity="1" stroke="none" stroke-opacity="1" d="m 9.593132,121.55818 0,-92.721103 91.936438,0 0,92.721103 -91.936438,0" font-family="Arial" font-size="550" font-style="normal" font-variant="normal" font-weight="bold" letter-spacing="-60" opacity=".7" word-spacing="0"/><rect id="rect3849-6" width="565.546" height="565.546" x="524.705" y="-248.073" fill="none" stroke="#2a7fff" stroke-dasharray="none" stroke-miterlimit="4" stroke-opacity="1" stroke-width="66.336" opacity=".7" ry="135.665"/><path id="path42315" fill="#2a7fff" fill-opacity="1" stroke="none" stroke-opacity="1" d="m 738.44065,223.26035 -71.08408,0 0,-270.179738 c -25.97148,24.492457 -32.87714,26.669307 -68.12397,38.4049198 l 0,-65.0574348 c 18.55095,-6.122767 15.00059,-1.751345 36.75594,-18.760121 21.75513,-17.178236 36.68025,-37.163186 44.77534,-59.954896 l 57.67677,0 0,375.54727" font-family="Arial" font-size="550" font-stretch="normal" font-style="normal" font-variant="normal" font-weight="bold" letter-spacing="-60" opacity=".7" word-spacing="0" style="line-height:125%;-inkscape-font-specification:'Arial Bold'"/><path font-stretch="normal" style="line-height:125%;-inkscape-font-specification:'Arial Bold'" id="path42317" fill="#2a7fff" fill-opacity="1" stroke="none" stroke-opacity="1" d="m 983.35067,223.26035 -71.08407,0 0,-270.179738 c -25.97151,24.492457 -32.87716,26.669307 -68.12399,38.4049198 l 0,-65.0574348 c 18.55094,-6.122767 15.00059,-1.751345 36.75594,-18.760121 21.75514,-17.178236 36.68025,-37.163186 44.77536,-59.954896 l 57.67676,0 0,375.54727" font-family="Arial" font-size="550" font-style="normal" font-variant="normal" font-weight="bold" letter-spacing="-60" opacity=".7" word-spacing="0"/><path font-stretch="normal" style="line-height:125%;-inkscape-font-specification:'Arial Bold'" id="path42319" fill="#2a7fff" fill-opacity="1" stroke="none" stroke-opacity="1" d="m 785.75337,223.26035 0,-71.69074 71.08406,0 0,71.69074 -71.08406,0" font-family="Arial" font-size="550" font-style="normal" font-variant="normal" font-weight="bold" letter-spacing="-60" opacity=".7" word-spacing="0"/><path id="path42321" fill="#2a7fff" fill-opacity="1" stroke="none" stroke-opacity="1" d="m 785.75337,102.64447 0,-71.690747 71.08406,0 0,71.690747 -71.08406,0" font-family="Arial" font-size="550" font-stretch="normal" font-style="normal" font-variant="normal" font-weight="bold" letter-spacing="-60" opacity=".7" word-spacing="0" style="line-height:125%;-inkscape-font-specification:'Arial Bold'"/><path id="path11687-3" fill="#2a7fff" fill-opacity="1" stroke="none" stroke-opacity="1" d="m -820.5169,195.46505 0,-63.3062 63.3062,0 0,63.3062 -63.3062,0" font-family="Arial" font-size="550" font-stretch="normal" font-style="normal" font-variant="normal" font-weight="bold" letter-spacing="-60" opacity=".7" word-spacing="0" style="line-height:125%;-inkscape-font-specification:'Arial Bold'"/><path font-stretch="normal" style="line-height:125%;-inkscape-font-specification:'Arial Bold'" id="path11695-3" fill="#2a7fff" fill-opacity="1" stroke="none" stroke-opacity="1" d="m -820.5169,70.38168 0,-63.30619 63.3062,0 0,63.30619 -63.3062,0" font-family="Arial" font-size="550" font-style="normal" font-variant="normal" font-weight="bold" letter-spacing="-60" opacity=".7" word-spacing="0"/><path id="path3057" fill="#2a7fff" fill-opacity="1" stroke="none" stroke-opacity="1" d="m -619.5537,219.07208 -73.2773,0 0,-368.74464 73.2773,0 0,368.74464" font-family="Arial" font-size="550" font-stretch="normal" font-style="normal" font-variant="normal" font-weight="bold" letter-spacing="-60" opacity=".7" word-spacing="0" style="line-height:125%;-inkscape-font-specification:'Arial Bold'"/><path font-stretch="normal" style="line-height:125%;-inkscape-font-specification:'Arial Bold'" id="path3061" fill="#2a7fff" fill-opacity="1" stroke="none" stroke-opacity="1" d="m -884.8966,219.07208 -73.27743,0 0,-368.74464 73.27743,0 0,368.74464" font-family="Arial" font-size="550" font-style="normal" font-variant="normal" font-weight="bold" letter-spacing="-60" opacity=".7" word-spacing="0"/><rect id="rect3849" width="597.022" height="597.022" x="-1087.375" y="-263.811" fill="none" stroke="#2a7fff" stroke-dasharray="none" stroke-miterlimit="4" stroke-opacity="1" stroke-width="66.336" opacity=".7" ry="143.216"/><path font-stretch="normal" style="line-height:125%;-inkscape-font-specification:'Arial Bold'" id="path3861" fill="#2a7fff" fill-opacity="1" stroke="none" stroke-opacity="1" d="m -1588.6329,255.84591 0,-87.08299 87.083,0 0,87.08299 -87.083,0" font-family="Arial" font-size="550" font-style="normal" font-variant="normal" font-weight="bold" letter-spacing="-60" opacity=".7" word-spacing="0"/><path id="path3863" fill="#2a7fff" fill-opacity="1" stroke="none" stroke-opacity="1" d="m -1588.6329,83.78324 0,-87.08297 87.083,0 0,87.08297 -87.083,0" font-family="Arial" font-size="550" font-stretch="normal" font-style="normal" font-variant="normal" font-weight="bold" letter-spacing="-60" opacity=".7" word-spacing="0" style="line-height:125%;-inkscape-font-specification:'Arial Bold'"/><path font-stretch="normal" style="line-height:125%;-inkscape-font-specification:'Arial Bold'" id="path3865" fill="#2a7fff" fill-opacity="1" stroke="none" stroke-opacity="1" d="m -1312.191,288.31937 -100.7992,0 0,-507.23922 100.7992,0 0,507.23922" font-family="Arial" font-size="550" font-style="normal" font-variant="normal" font-weight="bold" letter-spacing="-60" opacity=".7" word-spacing="0"/><path id="path3867" fill="#2a7fff" fill-opacity="1" stroke="none" stroke-opacity="1" d="m -1677.1926,288.31937 -100.7992,0 0,-507.23922 100.7992,0 0,507.23922" font-family="Arial" font-size="550" font-stretch="normal" font-style="normal" font-variant="normal" font-weight="bold" letter-spacing="-60" opacity=".7" word-spacing="0" style="line-height:125%;-inkscape-font-specification:'Arial Bold'"/></g></g></g></svg>